<svg xmlns="http://www.w3.org/2000/svg" viewBox="1716.1 750.8 1568.2 1498.1" width="110" height="105">
  <!-- Flag / Envelope Icon -->
  <path fill="#1B8996" d="M2008.2,984.2c29.9,0,54.2-24.3,54.2-54.2c0-7.2-1.5-14-4-20.2l318.4-138.9c2.3,4,6.5,6.8,11.4,6.8c4.6,0,8.4-2.4,10.9-6l413.7,217.9c-2.7,5.6-4.3,11.7-4.3,18.3c0,23.4,19,42.3,42.3,42.3s42.3-19,42.3-42.3c0-23.4-19-42.3-42.3-42.3c-15.7,0-29.2,8.6-36.6,21.3l-413.6-217.9c0.6-1.5,1-3.1,1-4.8c0-7.4-6-13.4-13.4-13.4c-7.4,0-13.4,6-13.4,13.4c0,1.4,0.4,2.6,0.8,3.8L2057.2,907c-8.7-18.4-27.2-31.2-48.9-31.2c-29.9,0-54.2,24.3-54.2,54.2S1978.3,984.2,2008.2,984.2z"/>
  
  <!-- Small Circle (left) -->
  <circle cx="1815.1" cy="1302.8" r="11.7" fill="#1B8996"/>
  
  <!-- Complex Architecture / Network Icon -->
  <path fill="#1B8996" d="M3264.1,1357.5c-11,0-19.9,8.9-19.9,19.9c0,6.1,2.8,11.6,7.2,15.2l-157.7,222.9l-67.9-44.4l27.6-105.1l-81.9-88.2v-85.3l-92.2-151.4H2772l-60.1-54.1l-176.4-69.5c0.2-1.5,0.5-2.9,0.5-4.5c0-20.5-16.6-37.2-37.2-37.2c-20.5,0-37.2,16.6-37.2,37.2c0,1.7,0.3,3.3,0.5,4.9l-118.3,42.6h-206.5l-232.6,180.9l38.3,166.2l-17.7,85.7l-131.5,38.8c-5.3-15.8-20.1-27.2-37.7-27.2c-22.1,0-40,17.9-40,40c0,22.1,17.9,40,40,40c22.1,0,40-17.9,40-40c0-3.4-0.6-6.6-1.3-9.8l129.9-38.4l-19.3,93.4l147.5,190.5l-102,209.9l22.3,10.8l107.8-222l186.7-384l150.5-44.5l-411.7,887.7l22.5,10.4l261.3-563.5l90.8,39.5l121.3-256.4c1.2,0,2.4,0.1,3.6,0c16.7-1.6,29-16.6,27.3-33.3c-1.7-16.7-16.6-29-33.3-27.3c-16.7,1.7-29,16.6-27.3,33.3c0.6,6.5,3.3,12.2,7.2,16.8l-111,234.6l-68.2-29.7l149.1-321.5l29.8-8.8l227,194l-47,102.9l-67.6-22.3l22.4-48.2c15.7-2.6,27-16.8,25.4-32.9c-1.6-16.7-16.6-29-33.3-27.3c-16.7,1.7-29,16.6-27.3,33.3c0.8,8.3,4.9,15.5,10.9,20.5l-90.7,195.4h-105l-90.2,174l22,11.4l83.3-160.6h100.4l98.2-42.9l155.9,24.9l134.1-83l121.8-77l5.5-20.8l67,43.7l-154,217.8c-6.7-4.4-14.6-6.9-23.1-6.9c-23.4,0-42.3,19-42.3,42.3c0,23.4,19,42.3,42.3,42.3c23.4,0,42.3-19,42.3-42.3c0-13.7-6.6-25.8-16.7-33.5l154.1-218l66,43.1c-3.2,5.4-5.2,11.6-5.2,18.4c0,20,16.2,36.1,36.1,36.1s36.1-16.2,36.1-36.1c0-16.5-11.1-30.3-26.3-34.6l59.6-249.7c1,0.2,2,0.3,3.1,0.3c11,0,19.9-8.9,19.9-19.9C3284,1366.4,3275.1,1357.5,3264.1,1357.5z M2759.5,1163.2l36.8,44.5l-12.6-41.8h82l81.3,133.6v83.3h0l0,0v4.8l1.4,1.5l11,49.4l6.7-30.3l60.1,64.7l-22.1,83.9L2785.2,1414l23.1-50.5c1.1,0,2.1,0.1,3.2,0c16.7-1.6,29-16.6,27.3-33.3c-1.7-16.7-16.6-29-33.3-27.3c-16.7,1.7-29,16.6-27.3,33.3c0.7,6.6,3.4,12.5,7.5,17.1l-21.5,47L2604.5,1296l50.4-14.9c2.7,7.1,9.6,12.1,17.7,12.1c10.5,0,19-8.5,19-19c0-10.5-8.5-19-19-19c-3.3,0-6.4,0.9-9.1,2.4l-142.9-214.6c1.4-1,2.7-2,3.9-3.2l174.2,68.6L2759.5,1163.2z M1959.2,1451.1l6.7,17.4l1.7-58.1l0.6-3l-36-156l213.4-166h202.4l0.5-0.2l64.9,0.2l-32-12l92-33.1c6.6,6.2,15.5,10,25.3,10c7.1,0,13.6-2.1,19.2-5.5l142.9,214.6c-4.4,3.5-7.3,8.8-7.3,14.8c0,1.3,0.1,2.6,0.4,3.9l-52.9,15.6l-86.4-56.4c3.1-5.3,4.7-11.6,4.1-18.3c-1.7-16.7-16.6-29-33.3-27.3c-16.7,1.7-29,16.6-27.3,33.3c0.8,7.6,4.3,14.2,9.5,19.1l-24.8,53.5L2308,1182.4c4-5.1,6.4-11.5,6.4-18.5c0-16.8-13.6-30.5-30.5-30.5c-16.8,0-30.5,13.6-30.5,30.5c0,7,2.4,13.3,6.3,18.4l-125.2,230.4l-66.5-34.7l38.2-61.9c0.5,0,1,0.2,1.6,0.2c16.8,0,30.5-13.6,30.5-30.5s-13.6-30.5-30.5-30.5c-16.8,0-30.5,13.6-30.5,30.5c0,7.2,2.6,13.7,6.8,19l-51.2,82.9l89.7,46.9l-0.4,0.7l-170.3,50.3L1959.2,1451.1z M2491.4,1252.3c9-0.9,16.6-5.7,21.5-12.4l84.3,55l-117,34.6l-17.8-15.2l28.7-61.9C2491.2,1252.3,2491.3,1252.3,2491.4,1252.3z M1931.7,1584.2l19.7-95.3l168.9-49.9l-60,110.3l84.7,41.4l-80.3,165.3L1931.7,1584.2z M2155.9,1568.4l-61.4-30l59.4-109.3l81.3-24L2155.9,1568.4z M2269.3,1391.8l13.8-28.3c15.8-1.1,28.3-14.2,28.3-30.2c0-16.8-13.6-30.5-30.5-30.5c-16.8,0-30.5,13.6-30.5,30.5c0,8.5,3.5,16.2,9.2,21.8l-22.5,46.3l-81.1,24l125.6-231.1c0.8,0.1,1.5,0.2,2.3,0.2c8.7,0,16.5-3.7,22.1-9.6l135.4,115.7l-21.7,46.9L2269.3,1391.8z M2451.4,1338l9.6-20.8l15.6,13.3L2451.4,1338z M2483,1331.9l117.6-34.7l162.3,106l-55.2,120.8L2483,1331.9z M2998.1,1579.4l-113.5,71.7l-126.2,78.1l-125-20l20.2-18.1l-47.6,13.8l-1.6-0.3l-72.5,31.7l49.2-106.1l91.4,30.1l53.3-116.7l56.9,48.6c-1.9,2.7-3.3,5.8-3.3,9.4c0,9.2,7.4,16.6,16.6,16.6c9.2,0,16.6-7.4,16.6-16.6c0-9.2-7.4-16.6-16.6-16.6c-4.5,0-8.5,1.8-11.5,4.7l-57.4-49l26-57l72.6,24c0,0.1,0,0.2,0,0.3c1.7,16.7,16.6,29,33.3,27.3c16.7-1.6,29-16.6,27.3-33.3c-1.7-16.7-16.6-29-33.3-27.3c-7.7,0.8-14.3,4.4-19.2,9.6l-70.4-23.3l20.2-44.2l219.3,143.2L2998.1,1579.4z M3198.5,1645.7c-2.2-0.4-4.5-0.7-6.9-0.7c-12.1,0-22.8,6-29.3,15.1l-65.9-43l157.6-222.8c1.3,0.8,2.6,1.3,4,1.8L3198.5,1645.7z"/>
  
  <!-- Medium Circle (top-right) -->
  <circle cx="2008.2" cy="1532.5" r="9.3" fill="#1B8996"/>
  
  <!-- Large Circle (center-right) -->
  <circle cx="2160.2" cy="1153.9" r="20.5" fill="#1B8996"/>
</svg>