
<svg xmlns="http://www.w3.org/2000/svg" version="1.1" viewBox="85 61.8 76 76" width="110" height="110" preserveAspectRatio="xMinYMin">
  <g fill="#4A73E8" fill-opacity="1">
    <ellipse cx="87" cy="99.9" rx="2" ry="3.3"/>
    <ellipse cx="159" cy="99.6" rx="2" ry="3.3"/>
    <ellipse cx="122.8" cy="63.8" rx="3.3" ry="2"/>
    <ellipse cx="123.2" cy="135.8" rx="3.3" ry="2"/>
    <ellipse transform="matrix(0.7071 -0.7071 0.7071 0.7071 -15.1702 124.2073)" cx="142.3" cy="80.4" rx="3.6" ry="4.8"/>
    <ellipse transform="matrix(0.7071 -0.7071 0.7071 0.7071 -9.007 126.7602)" cx="148.5" cy="74.3" rx="2" ry="3.3"/>
    <ellipse transform="matrix(0.9659 -0.2588 0.2588 0.9659 -16.3139 43.2241)" cx="156" cy="83.6" rx="1.4" ry="2.3"/>
    <ellipse transform="matrix(0.2588 -0.9659 0.9659 0.2588 38.6819 183.9299)" cx="139.2" cy="66.8" rx="1.4" ry="2.3"/>
    <ellipse cx="151.2" cy="91.7" rx="3.4" ry="3.9"/>
    <ellipse cx="131.1" cy="71.6" rx="3.9" ry="3.4"/>
    <ellipse transform="matrix(0.7071 -0.7071 0.7071 0.7071 -53.8667 108.1787)" cx="103.6" cy="119.1" rx="3.6" ry="4.8"/>
    <ellipse transform="matrix(0.7071 -0.7071 0.7071 0.7071 -60.0299 105.6259)" cx="97.5" cy="125.3" rx="2" ry="3.3"/>
    <ellipse transform="matrix(0.2588 -0.9659 0.9659 0.2588 -49.0834 201.5707)" cx="106.8" cy="132.8" rx="1.4" ry="2.3"/>
    <ellipse transform="matrix(0.9659 -0.2588 0.2588 0.9659 -26.9456 27.2432)" cx="90" cy="116" rx="1.4" ry="2.3"/>
    <ellipse cx="114.9" cy="127.9" rx="3.9" ry="3.4"/>
    <ellipse cx="94.8" cy="107.8" rx="3.4" ry="3.9"/>
    <ellipse transform="matrix(0.7071 -0.7071 0.7071 0.7071 -42.5328 135.5413)" cx="142.3" cy="119.1" rx="4.8" ry="3.6"/>
    <ellipse transform="matrix(0.7071 -0.7071 0.7071 0.7071 -45.0857 141.7045)" cx="148.5" cy="125.3" rx="3.3" ry="2"/>
    <ellipse transform="matrix(0.9659 -0.2588 0.2588 0.9659 -29.6202 40.5495)" cx="139.2" cy="132.8" rx="2.3" ry="1.4"/>
    <ellipse transform="matrix(0.2588 -0.9659 0.9659 0.2588 3.6197 236.6329)" cx="156" cy="116" rx="2.3" ry="1.4"/>
    <ellipse cx="131.1" cy="127.9" rx="3.9" ry="3.4"/>
    <ellipse cx="151.2" cy="107.8" rx="3.4" ry="3.9"/>
    <ellipse transform="matrix(0.7071 -0.7071 0.7071 0.7071 -26.5042 96.8448)" cx="103.6" cy="80.4" rx="4.8" ry="3.6"/>
    <ellipse transform="matrix(0.7071 -0.7071 0.7071 0.7071 -23.9513 90.6816)" cx="97.5" cy="74.3" rx="3.3" ry="2"/>
    <ellipse transform="matrix(0.2588 -0.9659 0.9659 0.2588 -14.0212 148.8677)" cx="90" cy="83.6" rx="2.3" ry="1.4"/>
    <ellipse transform="matrix(0.9659 -0.2588 0.2588 0.9659 -13.6393 29.9178)" cx="106.8" cy="66.8" rx="2.3" ry="1.4"/>
    <ellipse cx="94.8" cy="91.7" rx="3.4" ry="3.9"/>
    <ellipse cx="114.9" cy="71.6" rx="3.9" ry="3.4"/>
  </g>
  <path d="M130,106.3c-1.3,1.1-1.8,2.7-1.6,4.3c0.2,1.3-0.2,2.5-1,3.4l-0.7,0.7c-0.8,0.8-2,1.2-3.2,1.1c-0.1,0-0.3,0-0.5,0 c-0.2,0-0.3,0-0.5,0c-1.2,0.1-2.3-0.2-3.2-1.1l-0.6-0.6c-0.9-0.9-1.4-2.2-1.2-3.5c0.2-1.5-0.2-3-1.3-4.1c-1.1-1.1-2.7-1.6-4.1-1.3 c-1.3,0.2-2.6-0.3-3.5-1.2l-0.6-0.6c-0.8-0.8-1.2-2-1.1-3.2c0-0.1,0-0.3,0-0.5c0-0.2,0-0.3,0-0.5c-0.1-1.2,0.2-2.3,1.1-3.2 l0.6-0.6c0.9-0.9,2.2-1.4,3.5-1.2c1.5,0.2,3-0.2,4.1-1.3s1.6-2.7,1.3-4.1c-0.2-1.3,0.3-2.6,1.2-3.5l0.6-0.6c0.8-0.8,2-1.2,3.2-1.1 c0.1,0,0.3,0,0.5,0c2.6,0,4.8-1.9,4.8-4.2c0-2.3-2.1-4.2-4.8-4.2c-2.6,0-4.8,1.9-4.8,4.2c0,0.2,0,0.4,0.1,0.6 c0.2,1.3-0.2,2.6-1.1,3.5v0c-0.9,0.9-2.2,1.4-3.5,1.2c-1.5-0.2-3,0.2-4.1,1.3c-1.1,1.1-1.6,2.7-1.3,4.1c0.2,1.3-0.3,2.6-1.2,3.5 l0,0c-0.9,0.9-2.2,1.3-3.5,1.1c-0.2,0-0.4-0.1-0.6-0.1c-2.3,0-4.2,2.1-4.2,4.8c0,2.6,1.9,4.8,4.2,4.8c0.2,0,0.4,0,0.6-0.1 c1.3-0.2,2.6,0.2,3.5,1.1l0,0c0.9,0.9,1.4,2.2,1.2,3.5c-0.2,1.5,0.2,3,1.3,4.1c1.1,1.1,2.7,1.6,4.1,1.3c1.3-0.2,2.6,0.3,3.5,1.2v0 c0.9,0.9,1.3,2.2,1.1,3.5c0,0.2-0.1,0.4-0.1,0.6c0,2.3,2.1,4.2,4.8,4.2c2.6,0,4.8-1.9,4.8-4.2c0-0.2,0-0.4-0.1-0.6 c-0.2-1.3,0.2-2.6,1.1-3.5v0c0.9-0.9,2.2-1.4,3.5-1.2c1.5,0.2,3-0.2,4.1-1.3c1.9-1.9,1.9-4.9-0.1-6.8 C134.7,104.7,131.8,104.7,130,106.3z"/>
  <path d="M139.1,94.1l-0.4-0.4c-0.8-0.8-1.2-2-1-3.2c0.3-1.6-0.2-3.3-1.6-4.4c-1.8-1.5-4.5-1.5-6.2,0c-1.3,1.2-1.8,2.8-1.6,4.4 c0.2,1.2-0.1,2.3-1,3.2l-0.2,0.2c-0.8,0.8-2.1,1.2-3.2,1c-1.9-0.4-4,0.3-5.3,2.1c-1.2,1.7-1.2,4-0.1,5.7c1.9,2.8,5.6,3,7.9,0.8 c1.3-1.3,1.7-3,1.4-4.6c-0.2-1.2,0.1-2.4,0.9-3.3l0.2-0.2c0.8-0.8,2-1.1,3.1-0.9c0.6,0.1,1.1,0.1,1.7,0c1.1-0.2,2.3,0.1,3.1,0.9 l1,1c0.8,0.8,1.1,1.9,1,3c0,0.2,0,0.4,0,0.6c0,2.6,1.9,4.8,4.2,4.8s4.2-2.1,4.2-4.8c0-2.6-1.9-4.8-4.2-4.8c-0.3,0-0.6,0-0.8,0.1 C141.2,95.4,140,94.9,139.1,94.1z"/>
</svg>
