<?xml version="1.0" encoding="utf-8" standalone="no"?>
<!DOCTYPE svg PUBLIC "-//W3C//DTD SVG 1.1//EN"
  "http://www.w3.org/Graphics/SVG/1.1/DTD/svg11.dtd">
<!-- Created with matplotlib (https://matplotlib.org/) -->
<svg height="264.657187pt" version="1.1" viewBox="0 0 465.77 264.657187" width="465.77pt" xmlns="http://www.w3.org/2000/svg" xmlns:xlink="http://www.w3.org/1999/xlink">
 <metadata>
  <rdf:RDF xmlns:cc="http://creativecommons.org/ns#" xmlns:dc="http://purl.org/dc/elements/1.1/" xmlns:rdf="http://www.w3.org/1999/02/22-rdf-syntax-ns#">
   <cc:Work>
    <dc:type rdf:resource="http://purl.org/dc/dcmitype/StillImage"/>
    <dc:date>2026-03-19T12:57:44.286513</dc:date>
    <dc:format>image/svg+xml</dc:format>
    <dc:creator>
     <cc:Agent>
      <dc:title>Matplotlib v3.3.2, https://matplotlib.org/</dc:title>
     </cc:Agent>
    </dc:creator>
   </cc:Work>
  </rdf:RDF>
 </metadata>
 <defs>
  <style type="text/css">*{stroke-linecap:butt;stroke-linejoin:round;}</style>
 </defs>
 <g id="figure_1">
  <g id="patch_1">
   <path d="M 0 264.657187 
L 465.77 264.657187 
L 465.77 0 
L 0 0 
z
" style="fill:none;"/>
  </g>
  <g id="axes_1">
   <g id="patch_2">
    <path d="M 127.770625 221.2 
L 452.920625 221.2 
L 452.920625 7.2 
L 127.770625 7.2 
z
" style="fill:#ffffff;"/>
   </g>
   <g id="line2d_1">
    <path clip-path="url(#p9aa9f19b41)" d="M 221.835983 185.533333 
L 197.826899 185.533333 
" style="fill:none;stroke:#b2b2b2;stroke-linecap:square;stroke-width:3.5;"/>
   </g>
   <g id="line2d_2">
    <path clip-path="url(#p9aa9f19b41)" d="M 183.868129 149.866667 
L 142.55017 149.866667 
" style="fill:none;stroke:#b2b2b2;stroke-linecap:square;stroke-width:3.5;"/>
   </g>
   <g id="line2d_3">
    <path clip-path="url(#p9aa9f19b41)" d="M 438.14108 114.2 
L 432.669242 114.2 
" style="fill:none;stroke:#b2b2b2;stroke-linecap:square;stroke-width:3.5;"/>
   </g>
   <g id="line2d_4">
    <path clip-path="url(#p9aa9f19b41)" d="M 284.929622 78.533333 
L 225.521098 78.533333 
" style="fill:none;stroke:#b2b2b2;stroke-linecap:square;stroke-width:3.5;"/>
   </g>
   <g id="line2d_5">
    <path clip-path="url(#p9aa9f19b41)" d="M 359.413618 42.866667 
L 378.062534 42.866667 
" style="fill:none;stroke:#b2b2b2;stroke-linecap:square;stroke-width:3.5;"/>
   </g>
   <g id="matplotlib.axis_1">
    <g id="xtick_1">
     <g id="line2d_6">
      <path clip-path="url(#p9aa9f19b41)" d="M 179.512993 221.2 
L 179.512993 7.2 
" style="fill:none;stroke:#808080;stroke-dasharray:2.96,1.28;stroke-dashoffset:0;stroke-opacity:0.3;stroke-width:0.8;"/>
     </g>
     <g id="line2d_7">
      <defs>
       <path d="M 0 0 
L 0 3.5 
" id="m463904c038" style="stroke:#000000;stroke-width:0.8;"/>
      </defs>
      <g>
       <use style="stroke:#000000;stroke-width:0.8;" x="179.512993" xlink:href="#m463904c038" y="221.2"/>
      </g>
     </g>
     <g id="text_1">
      <!-- 75.0 -->
      <g transform="translate(164.709868 237.318125)scale(0.12 -0.12)">
       <defs>
        <path d="M 6.6875 72.90625 
L 61.625 72.90625 
L 61.625 62.3125 
L 33.203125 0 
L 14.890625 0 
L 41.796875 59.078125 
L 6.6875 59.078125 
z
" id="DejaVuSans-Bold-55"/>
        <path d="M 10.59375 72.90625 
L 57.328125 72.90625 
L 57.328125 59.078125 
L 25.59375 59.078125 
L 25.59375 47.796875 
Q 27.734375 48.390625 29.90625 48.703125 
Q 32.078125 49.03125 34.421875 49.03125 
Q 47.75 49.03125 55.171875 42.359375 
Q 62.59375 35.6875 62.59375 23.78125 
Q 62.59375 11.96875 54.515625 5.265625 
Q 46.4375 -1.421875 32.078125 -1.421875 
Q 25.875 -1.421875 19.796875 -0.21875 
Q 13.71875 0.984375 7.71875 3.421875 
L 7.71875 18.21875 
Q 13.671875 14.796875 19.015625 13.078125 
Q 24.359375 11.375 29.109375 11.375 
Q 35.9375 11.375 39.859375 14.71875 
Q 43.796875 18.0625 43.796875 23.78125 
Q 43.796875 29.546875 39.859375 32.859375 
Q 35.9375 36.1875 29.109375 36.1875 
Q 25.046875 36.1875 20.453125 35.125 
Q 15.875 34.078125 10.59375 31.890625 
z
" id="DejaVuSans-Bold-53"/>
        <path d="M 10.203125 18.890625 
L 27.78125 18.890625 
L 27.78125 0 
L 10.203125 0 
z
" id="DejaVuSans-Bold-46"/>
        <path d="M 46 36.53125 
Q 46 50.203125 43.4375 55.78125 
Q 40.875 61.375 34.8125 61.375 
Q 28.765625 61.375 26.171875 55.78125 
Q 23.578125 50.203125 23.578125 36.53125 
Q 23.578125 22.703125 26.171875 17.03125 
Q 28.765625 11.375 34.8125 11.375 
Q 40.828125 11.375 43.40625 17.03125 
Q 46 22.703125 46 36.53125 
z
M 64.796875 36.375 
Q 64.796875 18.265625 56.984375 8.421875 
Q 49.171875 -1.421875 34.8125 -1.421875 
Q 20.40625 -1.421875 12.59375 8.421875 
Q 4.78125 18.265625 4.78125 36.375 
Q 4.78125 54.546875 12.59375 64.375 
Q 20.40625 74.21875 34.8125 74.21875 
Q 49.171875 74.21875 56.984375 64.375 
Q 64.796875 54.546875 64.796875 36.375 
z
" id="DejaVuSans-Bold-48"/>
       </defs>
       <use xlink:href="#DejaVuSans-Bold-55"/>
       <use x="69.580078" xlink:href="#DejaVuSans-Bold-53"/>
       <use x="139.160156" xlink:href="#DejaVuSans-Bold-46"/>
       <use x="177.148438" xlink:href="#DejaVuSans-Bold-48"/>
      </g>
     </g>
    </g>
    <g id="xtick_2">
     <g id="line2d_8">
      <path clip-path="url(#p9aa9f19b41)" d="M 235.348072 221.2 
L 235.348072 7.2 
" style="fill:none;stroke:#808080;stroke-dasharray:2.96,1.28;stroke-dashoffset:0;stroke-opacity:0.3;stroke-width:0.8;"/>
     </g>
     <g id="line2d_9">
      <g>
       <use style="stroke:#000000;stroke-width:0.8;" x="235.348072" xlink:href="#m463904c038" y="221.2"/>
      </g>
     </g>
     <g id="text_2">
      <!-- 80.0 -->
      <g transform="translate(220.544947 237.318125)scale(0.12 -0.12)">
       <defs>
        <path d="M 34.8125 32.625 
Q 29.546875 32.625 26.703125 29.734375 
Q 23.875 26.859375 23.875 21.484375 
Q 23.875 16.109375 26.703125 13.25 
Q 29.546875 10.40625 34.8125 10.40625 
Q 40.046875 10.40625 42.828125 13.25 
Q 45.609375 16.109375 45.609375 21.484375 
Q 45.609375 26.90625 42.828125 29.765625 
Q 40.046875 32.625 34.8125 32.625 
z
M 21.09375 38.8125 
Q 14.453125 40.828125 11.078125 44.96875 
Q 7.71875 49.125 7.71875 55.328125 
Q 7.71875 64.546875 14.59375 69.375 
Q 21.484375 74.21875 34.8125 74.21875 
Q 48.046875 74.21875 54.921875 69.40625 
Q 61.8125 64.59375 61.8125 55.328125 
Q 61.8125 49.125 58.421875 44.96875 
Q 55.03125 40.828125 48.390625 38.8125 
Q 55.8125 36.765625 59.59375 32.15625 
Q 63.375 27.546875 63.375 20.515625 
Q 63.375 9.671875 56.171875 4.125 
Q 48.96875 -1.421875 34.8125 -1.421875 
Q 20.609375 -1.421875 13.359375 4.125 
Q 6.109375 9.671875 6.109375 20.515625 
Q 6.109375 27.546875 9.890625 32.15625 
Q 13.671875 36.765625 21.09375 38.8125 
z
M 25.484375 53.421875 
Q 25.484375 49.078125 27.90625 46.734375 
Q 30.328125 44.390625 34.8125 44.390625 
Q 39.203125 44.390625 41.59375 46.734375 
Q 44 49.078125 44 53.421875 
Q 44 57.765625 41.59375 60.078125 
Q 39.203125 62.40625 34.8125 62.40625 
Q 30.328125 62.40625 27.90625 60.0625 
Q 25.484375 57.71875 25.484375 53.421875 
z
" id="DejaVuSans-Bold-56"/>
       </defs>
       <use xlink:href="#DejaVuSans-Bold-56"/>
       <use x="69.580078" xlink:href="#DejaVuSans-Bold-48"/>
       <use x="139.160156" xlink:href="#DejaVuSans-Bold-46"/>
       <use x="177.148438" xlink:href="#DejaVuSans-Bold-48"/>
      </g>
     </g>
    </g>
    <g id="xtick_3">
     <g id="line2d_10">
      <path clip-path="url(#p9aa9f19b41)" d="M 291.183151 221.2 
L 291.183151 7.2 
" style="fill:none;stroke:#808080;stroke-dasharray:2.96,1.28;stroke-dashoffset:0;stroke-opacity:0.3;stroke-width:0.8;"/>
     </g>
     <g id="line2d_11">
      <g>
       <use style="stroke:#000000;stroke-width:0.8;" x="291.183151" xlink:href="#m463904c038" y="221.2"/>
      </g>
     </g>
     <g id="text_3">
      <!-- 85.0 -->
      <g transform="translate(276.380026 237.318125)scale(0.12 -0.12)">
       <use xlink:href="#DejaVuSans-Bold-56"/>
       <use x="69.580078" xlink:href="#DejaVuSans-Bold-53"/>
       <use x="139.160156" xlink:href="#DejaVuSans-Bold-46"/>
       <use x="177.148438" xlink:href="#DejaVuSans-Bold-48"/>
      </g>
     </g>
    </g>
    <g id="xtick_4">
     <g id="line2d_12">
      <path clip-path="url(#p9aa9f19b41)" d="M 347.01823 221.2 
L 347.01823 7.2 
" style="fill:none;stroke:#808080;stroke-dasharray:2.96,1.28;stroke-dashoffset:0;stroke-opacity:0.3;stroke-width:0.8;"/>
     </g>
     <g id="line2d_13">
      <g>
       <use style="stroke:#000000;stroke-width:0.8;" x="347.01823" xlink:href="#m463904c038" y="221.2"/>
      </g>
     </g>
     <g id="text_4">
      <!-- 90.0 -->
      <g transform="translate(332.215105 237.318125)scale(0.12 -0.12)">
       <defs>
        <path d="M 10.015625 1.609375 
L 10.015625 15.09375 
Q 14.5 12.984375 18.59375 11.9375 
Q 22.703125 10.890625 26.703125 10.890625 
Q 35.109375 10.890625 39.796875 15.546875 
Q 44.484375 20.21875 45.3125 29.390625 
Q 42 26.953125 38.234375 25.734375 
Q 34.46875 24.515625 30.078125 24.515625 
Q 18.890625 24.515625 12.03125 31.03125 
Q 5.171875 37.546875 5.171875 48.1875 
Q 5.171875 59.96875 12.8125 67.046875 
Q 20.453125 74.125 33.296875 74.125 
Q 47.5625 74.125 55.375 64.5 
Q 63.1875 54.890625 63.1875 37.3125 
Q 63.1875 19.234375 54.046875 8.90625 
Q 44.921875 -1.421875 29 -1.421875 
Q 23.875 -1.421875 19.1875 -0.65625 
Q 14.5 0.09375 10.015625 1.609375 
z
M 33.203125 36.71875 
Q 38.140625 36.71875 40.625 39.90625 
Q 43.109375 43.109375 43.109375 49.515625 
Q 43.109375 55.859375 40.625 59.078125 
Q 38.140625 62.3125 33.203125 62.3125 
Q 28.265625 62.3125 25.78125 59.078125 
Q 23.296875 55.859375 23.296875 49.515625 
Q 23.296875 43.109375 25.78125 39.90625 
Q 28.265625 36.71875 33.203125 36.71875 
z
" id="DejaVuSans-Bold-57"/>
       </defs>
       <use xlink:href="#DejaVuSans-Bold-57"/>
       <use x="69.580078" xlink:href="#DejaVuSans-Bold-48"/>
       <use x="139.160156" xlink:href="#DejaVuSans-Bold-46"/>
       <use x="177.148438" xlink:href="#DejaVuSans-Bold-48"/>
      </g>
     </g>
    </g>
    <g id="xtick_5">
     <g id="line2d_14">
      <path clip-path="url(#p9aa9f19b41)" d="M 402.85331 221.2 
L 402.85331 7.2 
" style="fill:none;stroke:#808080;stroke-dasharray:2.96,1.28;stroke-dashoffset:0;stroke-opacity:0.3;stroke-width:0.8;"/>
     </g>
     <g id="line2d_15">
      <g>
       <use style="stroke:#000000;stroke-width:0.8;" x="402.85331" xlink:href="#m463904c038" y="221.2"/>
      </g>
     </g>
     <g id="text_5">
      <!-- 95.0 -->
      <g transform="translate(388.050185 237.318125)scale(0.12 -0.12)">
       <use xlink:href="#DejaVuSans-Bold-57"/>
       <use x="69.580078" xlink:href="#DejaVuSans-Bold-53"/>
       <use x="139.160156" xlink:href="#DejaVuSans-Bold-46"/>
       <use x="177.148438" xlink:href="#DejaVuSans-Bold-48"/>
      </g>
     </g>
    </g>
    <g id="text_6">
     <!-- Average Accuracy (%) -->
     <g transform="translate(204.061875 254.43625)scale(0.14 -0.14)">
      <defs>
       <path d="M 53.421875 13.28125 
L 24.03125 13.28125 
L 19.390625 0 
L 0.484375 0 
L 27.484375 72.90625 
L 49.90625 72.90625 
L 76.90625 0 
L 58.015625 0 
z
M 28.71875 26.8125 
L 48.6875 26.8125 
L 38.71875 55.8125 
z
" id="DejaVuSans-Bold-65"/>
       <path d="M 1.515625 54.6875 
L 19 54.6875 
L 32.625 16.890625 
L 46.1875 54.6875 
L 63.71875 54.6875 
L 42.1875 0 
L 23 0 
z
" id="DejaVuSans-Bold-118"/>
       <path d="M 62.984375 27.484375 
L 62.984375 22.515625 
L 22.125 22.515625 
Q 22.75 16.359375 26.5625 13.28125 
Q 30.375 10.203125 37.203125 10.203125 
Q 42.71875 10.203125 48.5 11.84375 
Q 54.296875 13.484375 60.40625 16.796875 
L 60.40625 3.328125 
Q 54.203125 0.984375 48 -0.21875 
Q 41.796875 -1.421875 35.59375 -1.421875 
Q 20.75 -1.421875 12.515625 6.125 
Q 4.296875 13.671875 4.296875 27.296875 
Q 4.296875 40.671875 12.375 48.328125 
Q 20.453125 56 34.625 56 
Q 47.515625 56 55.25 48.234375 
Q 62.984375 40.484375 62.984375 27.484375 
z
M 45.015625 33.296875 
Q 45.015625 38.28125 42.109375 41.328125 
Q 39.203125 44.390625 34.515625 44.390625 
Q 29.4375 44.390625 26.265625 41.53125 
Q 23.09375 38.671875 22.3125 33.296875 
z
" id="DejaVuSans-Bold-101"/>
       <path d="M 49.03125 39.796875 
Q 46.734375 40.875 44.453125 41.375 
Q 42.1875 41.890625 39.890625 41.890625 
Q 33.15625 41.890625 29.515625 37.5625 
Q 25.875 33.25 25.875 25.203125 
L 25.875 0 
L 8.40625 0 
L 8.40625 54.6875 
L 25.875 54.6875 
L 25.875 45.703125 
Q 29.25 51.078125 33.609375 53.53125 
Q 37.984375 56 44.09375 56 
Q 44.96875 56 45.984375 55.921875 
Q 47.015625 55.859375 48.96875 55.609375 
z
" id="DejaVuSans-Bold-114"/>
       <path d="M 32.90625 24.609375 
Q 27.4375 24.609375 24.671875 22.75 
Q 21.921875 20.90625 21.921875 17.28125 
Q 21.921875 13.96875 24.140625 12.078125 
Q 26.375 10.203125 30.328125 10.203125 
Q 35.25 10.203125 38.625 13.734375 
Q 42 17.28125 42 22.609375 
L 42 24.609375 
z
M 59.625 31.203125 
L 59.625 0 
L 42 0 
L 42 8.109375 
Q 38.484375 3.125 34.078125 0.84375 
Q 29.6875 -1.421875 23.390625 -1.421875 
Q 14.890625 -1.421875 9.59375 3.53125 
Q 4.296875 8.5 4.296875 16.40625 
Q 4.296875 26.03125 10.90625 30.515625 
Q 17.53125 35.015625 31.6875 35.015625 
L 42 35.015625 
L 42 36.375 
Q 42 40.53125 38.71875 42.453125 
Q 35.453125 44.390625 28.515625 44.390625 
Q 22.90625 44.390625 18.0625 43.265625 
Q 13.234375 42.140625 9.078125 39.890625 
L 9.078125 53.21875 
Q 14.703125 54.59375 20.359375 55.296875 
Q 26.03125 56 31.6875 56 
Q 46.484375 56 53.046875 50.171875 
Q 59.625 44.34375 59.625 31.203125 
z
" id="DejaVuSans-Bold-97"/>
       <path d="M 45.609375 9.28125 
Q 42 4.5 37.640625 2.25 
Q 33.296875 0 27.59375 0 
Q 17.578125 0 11.03125 7.875 
Q 4.5 15.765625 4.5 27.984375 
Q 4.5 40.234375 11.03125 48.0625 
Q 17.578125 55.90625 27.59375 55.90625 
Q 33.296875 55.90625 37.640625 53.65625 
Q 42 51.421875 45.609375 46.578125 
L 45.609375 54.6875 
L 63.1875 54.6875 
L 63.1875 5.515625 
Q 63.1875 -7.671875 54.859375 -14.625 
Q 46.53125 -21.578125 30.71875 -21.578125 
Q 25.59375 -21.578125 20.796875 -20.796875 
Q 16.015625 -20.015625 11.1875 -18.40625 
L 11.1875 -4.78125 
Q 15.765625 -7.421875 20.15625 -8.71875 
Q 24.5625 -10.015625 29 -10.015625 
Q 37.59375 -10.015625 41.59375 -6.25 
Q 45.609375 -2.484375 45.609375 5.515625 
z
M 34.078125 43.3125 
Q 28.65625 43.3125 25.625 39.296875 
Q 22.609375 35.296875 22.609375 27.984375 
Q 22.609375 20.453125 25.53125 16.578125 
Q 28.46875 12.703125 34.078125 12.703125 
Q 39.546875 12.703125 42.578125 16.703125 
Q 45.609375 20.703125 45.609375 27.984375 
Q 45.609375 35.296875 42.578125 39.296875 
Q 39.546875 43.3125 34.078125 43.3125 
z
" id="DejaVuSans-Bold-103"/>
       <path id="DejaVuSans-Bold-32"/>
       <path d="M 52.59375 52.984375 
L 52.59375 38.71875 
Q 49.03125 41.15625 45.4375 42.328125 
Q 41.84375 43.5 37.984375 43.5 
Q 30.671875 43.5 26.59375 39.234375 
Q 22.515625 34.96875 22.515625 27.296875 
Q 22.515625 19.625 26.59375 15.34375 
Q 30.671875 11.078125 37.984375 11.078125 
Q 42.09375 11.078125 45.78125 12.296875 
Q 49.46875 13.53125 52.59375 15.921875 
L 52.59375 1.609375 
Q 48.484375 0.09375 44.265625 -0.65625 
Q 40.046875 -1.421875 35.796875 -1.421875 
Q 21 -1.421875 12.640625 6.171875 
Q 4.296875 13.765625 4.296875 27.296875 
Q 4.296875 40.828125 12.640625 48.40625 
Q 21 56 35.796875 56 
Q 40.09375 56 44.265625 55.25 
Q 48.4375 54.5 52.59375 52.984375 
z
" id="DejaVuSans-Bold-99"/>
       <path d="M 7.8125 21.296875 
L 7.8125 54.6875 
L 25.390625 54.6875 
L 25.390625 49.21875 
Q 25.390625 44.78125 25.34375 38.0625 
Q 25.296875 31.34375 25.296875 29.109375 
Q 25.296875 22.515625 25.640625 19.609375 
Q 25.984375 16.703125 26.8125 15.375 
Q 27.875 13.671875 29.609375 12.734375 
Q 31.34375 11.8125 33.59375 11.8125 
Q 39.0625 11.8125 42.1875 16.015625 
Q 45.3125 20.21875 45.3125 27.6875 
L 45.3125 54.6875 
L 62.796875 54.6875 
L 62.796875 0 
L 45.3125 0 
L 45.3125 7.90625 
Q 41.359375 3.125 36.9375 0.84375 
Q 32.515625 -1.421875 27.203125 -1.421875 
Q 17.71875 -1.421875 12.765625 4.390625 
Q 7.8125 10.203125 7.8125 21.296875 
z
" id="DejaVuSans-Bold-117"/>
       <path d="M 1.21875 54.6875 
L 18.703125 54.6875 
L 33.40625 17.578125 
L 45.90625 54.6875 
L 63.375 54.6875 
L 40.375 -5.171875 
Q 36.921875 -14.3125 32.296875 -17.9375 
Q 27.6875 -21.578125 20.125 -21.578125 
L 10.015625 -21.578125 
L 10.015625 -10.109375 
L 15.484375 -10.109375 
Q 19.921875 -10.109375 21.9375 -8.6875 
Q 23.96875 -7.28125 25.09375 -3.609375 
L 25.59375 -2.09375 
z
" id="DejaVuSans-Bold-121"/>
       <path d="M 37.703125 -13.1875 
L 23.1875 -13.1875 
Q 15.71875 -1.125 12.15625 9.734375 
Q 8.59375 20.609375 8.59375 31.296875 
Q 8.59375 42 12.171875 52.953125 
Q 15.765625 63.921875 23.1875 75.875 
L 37.703125 75.875 
Q 31.453125 64.3125 28.328125 53.25 
Q 25.203125 42.1875 25.203125 31.390625 
Q 25.203125 20.609375 28.296875 9.515625 
Q 31.390625 -1.5625 37.703125 -13.1875 
z
" id="DejaVuSans-Bold-40"/>
       <path d="M 77.484375 30.078125 
Q 74.03125 30.078125 72.125 27.078125 
Q 70.21875 24.078125 70.21875 18.5 
Q 70.21875 12.890625 72.09375 9.890625 
Q 73.96875 6.890625 77.484375 6.890625 
Q 81 6.890625 82.859375 9.890625 
Q 84.71875 12.890625 84.71875 18.5 
Q 84.71875 24.078125 82.828125 27.078125 
Q 80.953125 30.078125 77.484375 30.078125 
z
M 77.484375 38.28125 
Q 86.578125 38.28125 91.796875 33 
Q 97.015625 27.734375 97.015625 18.5 
Q 97.015625 9.28125 91.796875 3.921875 
Q 86.578125 -1.421875 77.484375 -1.421875 
Q 68.40625 -1.421875 63.15625 3.921875 
Q 57.90625 9.28125 57.90625 18.5 
Q 57.90625 27.6875 63.15625 32.984375 
Q 68.40625 38.28125 77.484375 38.28125 
z
M 32.71875 -1.421875 
L 21.921875 -1.421875 
L 67.484375 74.21875 
L 78.328125 74.21875 
z
M 22.703125 74.21875 
Q 31.78125 74.21875 36.984375 68.921875 
Q 42.1875 63.625 42.1875 54.390625 
Q 42.1875 45.171875 36.984375 39.84375 
Q 31.78125 34.515625 22.703125 34.515625 
Q 13.625 34.515625 8.421875 39.84375 
Q 3.21875 45.171875 3.21875 54.390625 
Q 3.21875 63.625 8.421875 68.921875 
Q 13.625 74.21875 22.703125 74.21875 
z
M 22.703125 66.015625 
Q 19.1875 66.015625 17.28125 62.984375 
Q 15.375 59.96875 15.375 54.390625 
Q 15.375 48.78125 17.28125 45.71875 
Q 19.1875 42.671875 22.703125 42.671875 
Q 26.21875 42.671875 28.09375 45.71875 
Q 29.984375 48.78125 29.984375 54.390625 
Q 29.984375 59.96875 28.078125 62.984375 
Q 26.171875 66.015625 22.703125 66.015625 
z
" id="DejaVuSans-Bold-37"/>
       <path d="M 8.015625 -13.1875 
Q 14.265625 -1.5625 17.390625 9.515625 
Q 20.515625 20.609375 20.515625 31.390625 
Q 20.515625 42.1875 17.390625 53.25 
Q 14.265625 64.3125 8.015625 75.875 
L 22.515625 75.875 
Q 29.9375 63.921875 33.515625 52.953125 
Q 37.109375 42 37.109375 31.296875 
Q 37.109375 20.609375 33.546875 9.734375 
Q 29.984375 -1.125 22.515625 -13.1875 
z
" id="DejaVuSans-Bold-41"/>
      </defs>
      <use xlink:href="#DejaVuSans-Bold-65"/>
      <use x="73.767578" xlink:href="#DejaVuSans-Bold-118"/>
      <use x="138.953125" xlink:href="#DejaVuSans-Bold-101"/>
      <use x="206.775391" xlink:href="#DejaVuSans-Bold-114"/>
      <use x="256.091797" xlink:href="#DejaVuSans-Bold-97"/>
      <use x="323.572266" xlink:href="#DejaVuSans-Bold-103"/>
      <use x="395.154297" xlink:href="#DejaVuSans-Bold-101"/>
      <use x="462.976562" xlink:href="#DejaVuSans-Bold-32"/>
      <use x="497.791016" xlink:href="#DejaVuSans-Bold-65"/>
      <use x="575.183594" xlink:href="#DejaVuSans-Bold-99"/>
      <use x="634.460938" xlink:href="#DejaVuSans-Bold-99"/>
      <use x="693.738281" xlink:href="#DejaVuSans-Bold-117"/>
      <use x="764.929688" xlink:href="#DejaVuSans-Bold-114"/>
      <use x="814.246094" xlink:href="#DejaVuSans-Bold-97"/>
      <use x="881.726562" xlink:href="#DejaVuSans-Bold-99"/>
      <use x="941.003906" xlink:href="#DejaVuSans-Bold-121"/>
      <use x="1006.189453" xlink:href="#DejaVuSans-Bold-32"/>
      <use x="1041.003906" xlink:href="#DejaVuSans-Bold-40"/>
      <use x="1086.707031" xlink:href="#DejaVuSans-Bold-37"/>
      <use x="1186.902344" xlink:href="#DejaVuSans-Bold-41"/>
     </g>
    </g>
   </g>
   <g id="matplotlib.axis_2">
    <g id="ytick_1">
     <g id="line2d_16">
      <path clip-path="url(#p9aa9f19b41)" d="M 127.770625 185.533333 
L 452.920625 185.533333 
" style="fill:none;stroke:#808080;stroke-dasharray:2.96,1.28;stroke-dashoffset:0;stroke-opacity:0.3;stroke-width:0.8;"/>
     </g>
     <g id="line2d_17">
      <defs>
       <path d="M 0 0 
L -3.5 0 
" id="m657e9293c8" style="stroke:#000000;stroke-width:0.8;"/>
      </defs>
      <g>
       <use style="stroke:#000000;stroke-width:0.8;" x="127.770625" xlink:href="#m657e9293c8" y="185.533333"/>
      </g>
     </g>
     <g id="text_7">
      <!-- Neuromorphic -->
      <g transform="translate(24.85875 190.092396)scale(0.12 -0.12)">
       <defs>
        <path d="M 9.1875 72.90625 
L 30.171875 72.90625 
L 56.6875 22.90625 
L 56.6875 72.90625 
L 74.515625 72.90625 
L 74.515625 0 
L 53.515625 0 
L 27 50 
L 27 0 
L 9.1875 0 
z
" id="DejaVuSans-Bold-78"/>
        <path d="M 34.421875 43.5 
Q 28.609375 43.5 25.5625 39.328125 
Q 22.515625 35.15625 22.515625 27.296875 
Q 22.515625 19.4375 25.5625 15.25 
Q 28.609375 11.078125 34.421875 11.078125 
Q 40.140625 11.078125 43.15625 15.25 
Q 46.1875 19.4375 46.1875 27.296875 
Q 46.1875 35.15625 43.15625 39.328125 
Q 40.140625 43.5 34.421875 43.5 
z
M 34.421875 56 
Q 48.53125 56 56.46875 48.375 
Q 64.40625 40.765625 64.40625 27.296875 
Q 64.40625 13.8125 56.46875 6.1875 
Q 48.53125 -1.421875 34.421875 -1.421875 
Q 20.265625 -1.421875 12.28125 6.1875 
Q 4.296875 13.8125 4.296875 27.296875 
Q 4.296875 40.765625 12.28125 48.375 
Q 20.265625 56 34.421875 56 
z
" id="DejaVuSans-Bold-111"/>
        <path d="M 59.078125 45.609375 
Q 62.40625 50.6875 66.96875 53.34375 
Q 71.53125 56 77 56 
Q 86.421875 56 91.359375 50.1875 
Q 96.296875 44.390625 96.296875 33.296875 
L 96.296875 0 
L 78.71875 0 
L 78.71875 28.515625 
Q 78.765625 29.15625 78.78125 29.828125 
Q 78.8125 30.515625 78.8125 31.78125 
Q 78.8125 37.59375 77.09375 40.203125 
Q 75.390625 42.828125 71.578125 42.828125 
Q 66.609375 42.828125 63.890625 38.71875 
Q 61.1875 34.625 61.078125 26.859375 
L 61.078125 0 
L 43.5 0 
L 43.5 28.515625 
Q 43.5 37.59375 41.9375 40.203125 
Q 40.375 42.828125 36.375 42.828125 
Q 31.34375 42.828125 28.609375 38.703125 
Q 25.875 34.578125 25.875 26.90625 
L 25.875 0 
L 8.296875 0 
L 8.296875 54.6875 
L 25.875 54.6875 
L 25.875 46.6875 
Q 29.109375 51.3125 33.28125 53.65625 
Q 37.453125 56 42.484375 56 
Q 48.140625 56 52.484375 53.265625 
Q 56.84375 50.53125 59.078125 45.609375 
z
" id="DejaVuSans-Bold-109"/>
        <path d="M 25.875 7.90625 
L 25.875 -20.796875 
L 8.40625 -20.796875 
L 8.40625 54.6875 
L 25.875 54.6875 
L 25.875 46.6875 
Q 29.5 51.46875 33.890625 53.734375 
Q 38.28125 56 44 56 
Q 54.109375 56 60.59375 47.96875 
Q 67.09375 39.9375 67.09375 27.296875 
Q 67.09375 14.65625 60.59375 6.609375 
Q 54.109375 -1.421875 44 -1.421875 
Q 38.28125 -1.421875 33.890625 0.84375 
Q 29.5 3.125 25.875 7.90625 
z
M 37.5 43.3125 
Q 31.890625 43.3125 28.875 39.1875 
Q 25.875 35.0625 25.875 27.296875 
Q 25.875 19.53125 28.875 15.40625 
Q 31.890625 11.28125 37.5 11.28125 
Q 43.109375 11.28125 46.0625 15.375 
Q 49.03125 19.484375 49.03125 27.296875 
Q 49.03125 35.109375 46.0625 39.203125 
Q 43.109375 43.3125 37.5 43.3125 
z
" id="DejaVuSans-Bold-112"/>
        <path d="M 63.375 33.296875 
L 63.375 0 
L 45.796875 0 
L 45.796875 5.421875 
L 45.796875 25.390625 
Q 45.796875 32.5625 45.484375 35.25 
Q 45.171875 37.9375 44.390625 39.203125 
Q 43.359375 40.921875 41.59375 41.875 
Q 39.84375 42.828125 37.59375 42.828125 
Q 32.125 42.828125 29 38.59375 
Q 25.875 34.375 25.875 26.90625 
L 25.875 0 
L 8.40625 0 
L 8.40625 75.984375 
L 25.875 75.984375 
L 25.875 46.6875 
Q 29.828125 51.46875 34.265625 53.734375 
Q 38.71875 56 44.09375 56 
Q 53.5625 56 58.46875 50.1875 
Q 63.375 44.390625 63.375 33.296875 
z
" id="DejaVuSans-Bold-104"/>
        <path d="M 8.40625 54.6875 
L 25.875 54.6875 
L 25.875 0 
L 8.40625 0 
z
M 8.40625 75.984375 
L 25.875 75.984375 
L 25.875 61.71875 
L 8.40625 61.71875 
z
" id="DejaVuSans-Bold-105"/>
       </defs>
       <use xlink:href="#DejaVuSans-Bold-78"/>
       <use x="83.691406" xlink:href="#DejaVuSans-Bold-101"/>
       <use x="151.513672" xlink:href="#DejaVuSans-Bold-117"/>
       <use x="222.705078" xlink:href="#DejaVuSans-Bold-114"/>
       <use x="272.021484" xlink:href="#DejaVuSans-Bold-111"/>
       <use x="340.722656" xlink:href="#DejaVuSans-Bold-109"/>
       <use x="444.921875" xlink:href="#DejaVuSans-Bold-111"/>
       <use x="513.623047" xlink:href="#DejaVuSans-Bold-114"/>
       <use x="562.939453" xlink:href="#DejaVuSans-Bold-112"/>
       <use x="634.521484" xlink:href="#DejaVuSans-Bold-104"/>
       <use x="705.712891" xlink:href="#DejaVuSans-Bold-105"/>
       <use x="739.990234" xlink:href="#DejaVuSans-Bold-99"/>
      </g>
     </g>
    </g>
    <g id="ytick_2">
     <g id="line2d_18">
      <path clip-path="url(#p9aa9f19b41)" d="M 127.770625 149.866667 
L 452.920625 149.866667 
" style="fill:none;stroke:#808080;stroke-dasharray:2.96,1.28;stroke-dashoffset:0;stroke-opacity:0.3;stroke-width:0.8;"/>
     </g>
     <g id="line2d_19">
      <g>
       <use style="stroke:#000000;stroke-width:0.8;" x="127.770625" xlink:href="#m657e9293c8" y="149.866667"/>
      </g>
     </g>
     <g id="text_8">
      <!-- Acoustic -->
      <g transform="translate(63.478125 154.425729)scale(0.12 -0.12)">
       <defs>
        <path d="M 51.125 52.984375 
L 51.125 39.703125 
Q 45.515625 42.046875 40.28125 43.21875 
Q 35.0625 44.390625 30.421875 44.390625 
Q 25.4375 44.390625 23.015625 43.140625 
Q 20.609375 41.890625 20.609375 39.3125 
Q 20.609375 37.203125 22.4375 36.078125 
Q 24.265625 34.96875 29 34.421875 
L 32.078125 33.984375 
Q 45.515625 32.28125 50.140625 28.375 
Q 54.78125 24.46875 54.78125 16.109375 
Q 54.78125 7.375 48.328125 2.96875 
Q 41.890625 -1.421875 29.109375 -1.421875 
Q 23.6875 -1.421875 17.890625 -0.5625 
Q 12.109375 0.296875 6 2 
L 6 15.28125 
Q 11.234375 12.75 16.71875 11.46875 
Q 22.21875 10.203125 27.875 10.203125 
Q 33.015625 10.203125 35.59375 11.609375 
Q 38.1875 13.03125 38.1875 15.828125 
Q 38.1875 18.171875 36.40625 19.3125 
Q 34.625 20.453125 29.296875 21.09375 
L 26.21875 21.484375 
Q 14.546875 22.953125 9.859375 26.90625 
Q 5.171875 30.859375 5.171875 38.921875 
Q 5.171875 47.609375 11.125 51.796875 
Q 17.09375 56 29.390625 56 
Q 34.234375 56 39.546875 55.265625 
Q 44.875 54.546875 51.125 52.984375 
z
" id="DejaVuSans-Bold-115"/>
        <path d="M 27.484375 70.21875 
L 27.484375 54.6875 
L 45.515625 54.6875 
L 45.515625 42.1875 
L 27.484375 42.1875 
L 27.484375 19 
Q 27.484375 15.1875 29 13.84375 
Q 30.515625 12.5 35.015625 12.5 
L 44 12.5 
L 44 0 
L 29 0 
Q 18.65625 0 14.328125 4.3125 
Q 10.015625 8.640625 10.015625 19 
L 10.015625 42.1875 
L 1.3125 42.1875 
L 1.3125 54.6875 
L 10.015625 54.6875 
L 10.015625 70.21875 
z
" id="DejaVuSans-Bold-116"/>
       </defs>
       <use xlink:href="#DejaVuSans-Bold-65"/>
       <use x="77.392578" xlink:href="#DejaVuSans-Bold-99"/>
       <use x="136.669922" xlink:href="#DejaVuSans-Bold-111"/>
       <use x="205.371094" xlink:href="#DejaVuSans-Bold-117"/>
       <use x="276.5625" xlink:href="#DejaVuSans-Bold-115"/>
       <use x="336.083984" xlink:href="#DejaVuSans-Bold-116"/>
       <use x="383.886719" xlink:href="#DejaVuSans-Bold-105"/>
       <use x="418.164062" xlink:href="#DejaVuSans-Bold-99"/>
      </g>
     </g>
    </g>
    <g id="ytick_3">
     <g id="line2d_20">
      <path clip-path="url(#p9aa9f19b41)" d="M 127.770625 114.2 
L 452.920625 114.2 
" style="fill:none;stroke:#808080;stroke-dasharray:2.96,1.28;stroke-dashoffset:0;stroke-opacity:0.3;stroke-width:0.8;"/>
     </g>
     <g id="line2d_21">
      <g>
       <use style="stroke:#000000;stroke-width:0.8;" x="127.770625" xlink:href="#m657e9293c8" y="114.2"/>
      </g>
     </g>
     <g id="text_9">
      <!-- Motion -->
      <g transform="translate(73.948125 118.759062)scale(0.12 -0.12)">
       <defs>
        <path d="M 9.1875 72.90625 
L 33.109375 72.90625 
L 49.703125 33.890625 
L 66.40625 72.90625 
L 90.28125 72.90625 
L 90.28125 0 
L 72.515625 0 
L 72.515625 53.328125 
L 55.71875 14.015625 
L 43.796875 14.015625 
L 27 53.328125 
L 27 0 
L 9.1875 0 
z
" id="DejaVuSans-Bold-77"/>
        <path d="M 63.375 33.296875 
L 63.375 0 
L 45.796875 0 
L 45.796875 5.421875 
L 45.796875 25.484375 
Q 45.796875 32.5625 45.484375 35.25 
Q 45.171875 37.9375 44.390625 39.203125 
Q 43.359375 40.921875 41.59375 41.875 
Q 39.84375 42.828125 37.59375 42.828125 
Q 32.125 42.828125 29 38.59375 
Q 25.875 34.375 25.875 26.90625 
L 25.875 0 
L 8.40625 0 
L 8.40625 54.6875 
L 25.875 54.6875 
L 25.875 46.6875 
Q 29.828125 51.46875 34.265625 53.734375 
Q 38.71875 56 44.09375 56 
Q 53.5625 56 58.46875 50.1875 
Q 63.375 44.390625 63.375 33.296875 
z
" id="DejaVuSans-Bold-110"/>
       </defs>
       <use xlink:href="#DejaVuSans-Bold-77"/>
       <use x="99.511719" xlink:href="#DejaVuSans-Bold-111"/>
       <use x="168.212891" xlink:href="#DejaVuSans-Bold-116"/>
       <use x="216.015625" xlink:href="#DejaVuSans-Bold-105"/>
       <use x="250.292969" xlink:href="#DejaVuSans-Bold-111"/>
       <use x="318.994141" xlink:href="#DejaVuSans-Bold-110"/>
      </g>
     </g>
    </g>
    <g id="ytick_4">
     <g id="line2d_22">
      <path clip-path="url(#p9aa9f19b41)" d="M 127.770625 78.533333 
L 452.920625 78.533333 
" style="fill:none;stroke:#808080;stroke-dasharray:2.96,1.28;stroke-dashoffset:0;stroke-opacity:0.3;stroke-width:0.8;"/>
     </g>
     <g id="line2d_23">
      <g>
       <use style="stroke:#000000;stroke-width:0.8;" x="127.770625" xlink:href="#m657e9293c8" y="78.533333"/>
      </g>
     </g>
     <g id="text_10">
      <!-- Wireless -->
      <g transform="translate(62.8275 83.092396)scale(0.12 -0.12)">
       <defs>
        <path d="M 2.984375 72.90625 
L 21 72.90625 
L 33.59375 19.921875 
L 46.09375 72.90625 
L 64.203125 72.90625 
L 76.703125 19.921875 
L 89.3125 72.90625 
L 107.171875 72.90625 
L 89.984375 0 
L 68.3125 0 
L 55.078125 55.421875 
L 42 0 
L 20.3125 0 
z
" id="DejaVuSans-Bold-87"/>
        <path d="M 8.40625 75.984375 
L 25.875 75.984375 
L 25.875 0 
L 8.40625 0 
z
" id="DejaVuSans-Bold-108"/>
       </defs>
       <use xlink:href="#DejaVuSans-Bold-87"/>
       <use x="110.302734" xlink:href="#DejaVuSans-Bold-105"/>
       <use x="144.580078" xlink:href="#DejaVuSans-Bold-114"/>
       <use x="193.896484" xlink:href="#DejaVuSans-Bold-101"/>
       <use x="261.71875" xlink:href="#DejaVuSans-Bold-108"/>
       <use x="295.996094" xlink:href="#DejaVuSans-Bold-101"/>
       <use x="363.818359" xlink:href="#DejaVuSans-Bold-115"/>
       <use x="423.339844" xlink:href="#DejaVuSans-Bold-115"/>
      </g>
     </g>
    </g>
    <g id="ytick_5">
     <g id="line2d_24">
      <path clip-path="url(#p9aa9f19b41)" d="M 127.770625 42.866667 
L 452.920625 42.866667 
" style="fill:none;stroke:#808080;stroke-dasharray:2.96,1.28;stroke-dashoffset:0;stroke-opacity:0.3;stroke-width:0.8;"/>
     </g>
     <g id="line2d_25">
      <g>
       <use style="stroke:#000000;stroke-width:0.8;" x="127.770625" xlink:href="#m657e9293c8" y="42.866667"/>
      </g>
     </g>
     <g id="text_11">
      <!-- Vision -->
      <g transform="translate(79.5375 47.425729)scale(0.12 -0.12)">
       <defs>
        <path d="M 0.484375 72.90625 
L 19.390625 72.90625 
L 38.71875 19.09375 
L 58.015625 72.90625 
L 76.90625 72.90625 
L 49.90625 0 
L 27.484375 0 
z
" id="DejaVuSans-Bold-86"/>
       </defs>
       <use xlink:href="#DejaVuSans-Bold-86"/>
       <use x="75.642578" xlink:href="#DejaVuSans-Bold-105"/>
       <use x="109.919922" xlink:href="#DejaVuSans-Bold-115"/>
       <use x="169.441406" xlink:href="#DejaVuSans-Bold-105"/>
       <use x="203.71875" xlink:href="#DejaVuSans-Bold-111"/>
       <use x="272.419922" xlink:href="#DejaVuSans-Bold-110"/>
      </g>
     </g>
    </g>
    <g id="text_12">
     <!-- Sensing Modality -->
     <g transform="translate(17.837812 182.186406)rotate(-90)scale(0.14 -0.14)">
      <defs>
       <path d="M 59.90625 70.609375 
L 59.90625 55.171875 
Q 53.90625 57.859375 48.1875 59.21875 
Q 42.484375 60.59375 37.40625 60.59375 
Q 30.671875 60.59375 27.4375 58.734375 
Q 24.21875 56.890625 24.21875 52.984375 
Q 24.21875 50.046875 26.390625 48.40625 
Q 28.5625 46.78125 34.28125 45.609375 
L 42.28125 44 
Q 54.4375 41.546875 59.5625 36.5625 
Q 64.703125 31.59375 64.703125 22.40625 
Q 64.703125 10.359375 57.546875 4.46875 
Q 50.390625 -1.421875 35.6875 -1.421875 
Q 28.765625 -1.421875 21.78125 -0.09375 
Q 14.796875 1.21875 7.8125 3.8125 
L 7.8125 19.671875 
Q 14.796875 15.96875 21.3125 14.078125 
Q 27.828125 12.203125 33.890625 12.203125 
Q 40.046875 12.203125 43.3125 14.25 
Q 46.578125 16.3125 46.578125 20.125 
Q 46.578125 23.53125 44.359375 25.390625 
Q 42.140625 27.25 35.5 28.71875 
L 28.21875 30.328125 
Q 17.28125 32.671875 12.21875 37.796875 
Q 7.171875 42.921875 7.171875 51.609375 
Q 7.171875 62.5 14.203125 68.359375 
Q 21.234375 74.21875 34.421875 74.21875 
Q 40.4375 74.21875 46.78125 73.3125 
Q 53.125 72.40625 59.90625 70.609375 
z
" id="DejaVuSans-Bold-83"/>
       <path d="M 45.609375 46.6875 
L 45.609375 75.984375 
L 63.1875 75.984375 
L 63.1875 0 
L 45.609375 0 
L 45.609375 7.90625 
Q 42 3.078125 37.640625 0.828125 
Q 33.296875 -1.421875 27.59375 -1.421875 
Q 17.484375 -1.421875 10.984375 6.609375 
Q 4.5 14.65625 4.5 27.296875 
Q 4.5 39.9375 10.984375 47.96875 
Q 17.484375 56 27.59375 56 
Q 33.25 56 37.625 53.734375 
Q 42 51.46875 45.609375 46.6875 
z
M 34.078125 11.28125 
Q 39.703125 11.28125 42.65625 15.375 
Q 45.609375 19.484375 45.609375 27.296875 
Q 45.609375 35.109375 42.65625 39.203125 
Q 39.703125 43.3125 34.078125 43.3125 
Q 28.515625 43.3125 25.5625 39.203125 
Q 22.609375 35.109375 22.609375 27.296875 
Q 22.609375 19.484375 25.5625 15.375 
Q 28.515625 11.28125 34.078125 11.28125 
z
" id="DejaVuSans-Bold-100"/>
      </defs>
      <use xlink:href="#DejaVuSans-Bold-83"/>
      <use x="72.021484" xlink:href="#DejaVuSans-Bold-101"/>
      <use x="139.84375" xlink:href="#DejaVuSans-Bold-110"/>
      <use x="211.035156" xlink:href="#DejaVuSans-Bold-115"/>
      <use x="270.556641" xlink:href="#DejaVuSans-Bold-105"/>
      <use x="304.833984" xlink:href="#DejaVuSans-Bold-110"/>
      <use x="376.025391" xlink:href="#DejaVuSans-Bold-103"/>
      <use x="447.607422" xlink:href="#DejaVuSans-Bold-32"/>
      <use x="482.421875" xlink:href="#DejaVuSans-Bold-77"/>
      <use x="581.933594" xlink:href="#DejaVuSans-Bold-111"/>
      <use x="650.634766" xlink:href="#DejaVuSans-Bold-100"/>
      <use x="722.216797" xlink:href="#DejaVuSans-Bold-97"/>
      <use x="789.697266" xlink:href="#DejaVuSans-Bold-108"/>
      <use x="823.974609" xlink:href="#DejaVuSans-Bold-105"/>
      <use x="858.251953" xlink:href="#DejaVuSans-Bold-116"/>
      <use x="906.054688" xlink:href="#DejaVuSans-Bold-121"/>
     </g>
    </g>
   </g>
   <g id="patch_3">
    <path clip-path="url(#p9aa9f19b41)" d="M 255.22536 94.583333 
C 269.766459 94.583333 283.713949 92.892204 293.996059 89.882397 
C 304.278168 86.87259 310.055408 82.789843 310.055408 78.533333 
C 310.055408 74.276824 304.278168 70.194076 293.996059 67.184269 
C 283.713949 64.174463 269.766459 62.483333 255.22536 62.483333 
C 240.684262 62.483333 226.736771 64.174463 216.454662 67.184269 
C 206.172552 70.194076 200.395312 74.276824 200.395312 78.533333 
C 200.395312 82.789843 206.172552 86.87259 216.454662 89.882397 
C 226.736771 92.892204 240.684262 94.583333 255.22536 94.583333 
z
" style="fill:none;stroke:#ff0000;stroke-dasharray:9.25,4;stroke-dashoffset:0;stroke-linejoin:miter;stroke-width:2.5;"/>
   </g>
   <g id="patch_4">
    <path d="M 127.770625 221.2 
L 127.770625 7.2 
" style="fill:none;stroke:#000000;stroke-linecap:square;stroke-linejoin:miter;stroke-width:1.5;"/>
   </g>
   <g id="patch_5">
    <path d="M 127.770625 221.2 
L 452.920625 221.2 
" style="fill:none;stroke:#000000;stroke-linecap:square;stroke-linejoin:miter;stroke-width:1.5;"/>
   </g>
   <g id="PathCollection_1">
    <defs>
     <path d="M 0 6.324555 
C 1.677292 6.324555 3.286112 5.65816 4.472136 4.472136 
C 5.65816 3.286112 6.324555 1.677292 6.324555 0 
C 6.324555 -1.677292 5.65816 -3.286112 4.472136 -4.472136 
C 3.286112 -5.65816 1.677292 -6.324555 0 -6.324555 
C -1.677292 -6.324555 -3.286112 -5.65816 -4.472136 -4.472136 
C -5.65816 -3.286112 -6.324555 -1.677292 -6.324555 0 
C -6.324555 1.677292 -5.65816 3.286112 -4.472136 4.472136 
C -3.286112 5.65816 -1.677292 6.324555 0 6.324555 
z
" id="m7f756f84d8" style="stroke:#ffffff;stroke-width:1.5;"/>
    </defs>
    <g clip-path="url(#p9aa9f19b41)">
     <use style="fill:#d45590;stroke:#ffffff;stroke-width:1.5;" x="197.826899" xlink:href="#m7f756f84d8" y="185.533333"/>
     <use style="fill:#d45590;stroke:#ffffff;stroke-width:1.5;" x="142.55017" xlink:href="#m7f756f84d8" y="149.866667"/>
     <use style="fill:#d45590;stroke:#ffffff;stroke-width:1.5;" x="432.669242" xlink:href="#m7f756f84d8" y="114.2"/>
     <use style="fill:#d45590;stroke:#ffffff;stroke-width:1.5;" x="225.521098" xlink:href="#m7f756f84d8" y="78.533333"/>
     <use style="fill:#d45590;stroke:#ffffff;stroke-width:1.5;" x="378.062534" xlink:href="#m7f756f84d8" y="42.866667"/>
    </g>
   </g>
   <g id="PathCollection_2">
    <defs>
     <path d="M 0 6.324555 
C 1.677292 6.324555 3.286112 5.65816 4.472136 4.472136 
C 5.65816 3.286112 6.324555 1.677292 6.324555 0 
C 6.324555 -1.677292 5.65816 -3.286112 4.472136 -4.472136 
C 3.286112 -5.65816 1.677292 -6.324555 0 -6.324555 
C -1.677292 -6.324555 -3.286112 -5.65816 -4.472136 -4.472136 
C -5.65816 -3.286112 -6.324555 -1.677292 -6.324555 0 
C -6.324555 1.677292 -5.65816 3.286112 -4.472136 4.472136 
C -3.286112 5.65816 -1.677292 6.324555 0 6.324555 
z
" id="mfd1f8f9e00" style="stroke:#ffffff;stroke-width:1.5;"/>
    </defs>
    <g clip-path="url(#p9aa9f19b41)">
     <use style="fill:#69aadb;stroke:#ffffff;stroke-width:1.5;" x="221.835983" xlink:href="#mfd1f8f9e00" y="185.533333"/>
     <use style="fill:#69aadb;stroke:#ffffff;stroke-width:1.5;" x="183.868129" xlink:href="#mfd1f8f9e00" y="149.866667"/>
     <use style="fill:#69aadb;stroke:#ffffff;stroke-width:1.5;" x="438.14108" xlink:href="#mfd1f8f9e00" y="114.2"/>
     <use style="fill:#69aadb;stroke:#ffffff;stroke-width:1.5;" x="284.929622" xlink:href="#mfd1f8f9e00" y="78.533333"/>
     <use style="fill:#69aadb;stroke:#ffffff;stroke-width:1.5;" x="359.413618" xlink:href="#mfd1f8f9e00" y="42.866667"/>
    </g>
   </g>
   <g id="text_13">
    <!-- SNN–ANN gap peaks -->
    <g style="fill:#ff0000;" transform="translate(186.385673 110.834792)scale(0.12 -0.12)">
     <defs>
      <path d="M 5.375 33.6875 
L 44.625 33.6875 
L 44.625 21.09375 
L 5.375 21.09375 
z
" id="DejaVuSans-Bold-8211"/>
      <path d="M 8.40625 75.984375 
L 25.875 75.984375 
L 25.875 34.625 
L 46 54.6875 
L 66.3125 54.6875 
L 39.59375 29.59375 
L 68.40625 0 
L 47.21875 0 
L 25.875 22.796875 
L 25.875 0 
L 8.40625 0 
z
" id="DejaVuSans-Bold-107"/>
     </defs>
     <use xlink:href="#DejaVuSans-Bold-83"/>
     <use x="72.021484" xlink:href="#DejaVuSans-Bold-78"/>
     <use x="155.712891" xlink:href="#DejaVuSans-Bold-78"/>
     <use x="239.404297" xlink:href="#DejaVuSans-Bold-8211"/>
     <use x="289.404297" xlink:href="#DejaVuSans-Bold-65"/>
     <use x="366.796875" xlink:href="#DejaVuSans-Bold-78"/>
     <use x="450.488281" xlink:href="#DejaVuSans-Bold-78"/>
     <use x="534.179688" xlink:href="#DejaVuSans-Bold-32"/>
     <use x="568.994141" xlink:href="#DejaVuSans-Bold-103"/>
     <use x="640.576172" xlink:href="#DejaVuSans-Bold-97"/>
     <use x="708.056641" xlink:href="#DejaVuSans-Bold-112"/>
     <use x="779.638672" xlink:href="#DejaVuSans-Bold-32"/>
     <use x="814.453125" xlink:href="#DejaVuSans-Bold-112"/>
     <use x="886.035156" xlink:href="#DejaVuSans-Bold-101"/>
     <use x="953.857422" xlink:href="#DejaVuSans-Bold-97"/>
     <use x="1021.337891" xlink:href="#DejaVuSans-Bold-107"/>
     <use x="1087.841797" xlink:href="#DejaVuSans-Bold-115"/>
    </g>
    <!-- in wireless sensing -->
    <g style="fill:#ff0000;" transform="translate(190.716923 124.365917)scale(0.12 -0.12)">
     <defs>
      <path d="M 3.515625 54.6875 
L 20.515625 54.6875 
L 29.6875 17 
L 38.921875 54.6875 
L 53.515625 54.6875 
L 62.703125 17.390625 
L 71.921875 54.6875 
L 88.921875 54.6875 
L 74.515625 0 
L 55.421875 0 
L 46.1875 37.59375 
L 37.015625 0 
L 17.921875 0 
z
" id="DejaVuSans-Bold-119"/>
     </defs>
     <use xlink:href="#DejaVuSans-Bold-105"/>
     <use x="34.277344" xlink:href="#DejaVuSans-Bold-110"/>
     <use x="105.46875" xlink:href="#DejaVuSans-Bold-32"/>
     <use x="140.283203" xlink:href="#DejaVuSans-Bold-119"/>
     <use x="232.666016" xlink:href="#DejaVuSans-Bold-105"/>
     <use x="266.943359" xlink:href="#DejaVuSans-Bold-114"/>
     <use x="316.259766" xlink:href="#DejaVuSans-Bold-101"/>
     <use x="384.082031" xlink:href="#DejaVuSans-Bold-108"/>
     <use x="418.359375" xlink:href="#DejaVuSans-Bold-101"/>
     <use x="486.181641" xlink:href="#DejaVuSans-Bold-115"/>
     <use x="545.703125" xlink:href="#DejaVuSans-Bold-115"/>
     <use x="605.224609" xlink:href="#DejaVuSans-Bold-32"/>
     <use x="640.039062" xlink:href="#DejaVuSans-Bold-115"/>
     <use x="699.560547" xlink:href="#DejaVuSans-Bold-101"/>
     <use x="767.382812" xlink:href="#DejaVuSans-Bold-110"/>
     <use x="838.574219" xlink:href="#DejaVuSans-Bold-115"/>
     <use x="898.095703" xlink:href="#DejaVuSans-Bold-105"/>
     <use x="932.373047" xlink:href="#DejaVuSans-Bold-110"/>
     <use x="1003.564453" xlink:href="#DejaVuSans-Bold-103"/>
    </g>
   </g>
  </g>
  <g id="legend_1">
   <g id="patch_6">
    <path d="M 330.87125 214.752 
L 456.17 214.752 
Q 458.57 214.752 458.57 212.352 
L 458.57 178.23075 
Q 458.57 175.83075 456.17 175.83075 
L 330.87125 175.83075 
Q 328.47125 175.83075 328.47125 178.23075 
L 328.47125 212.352 
Q 328.47125 214.752 330.87125 214.752 
z
" style="fill:#ffffff;opacity:0.8;stroke:#cccccc;stroke-linejoin:miter;"/>
   </g>
   <g id="text_14">
    <!-- Network Type -->
    <g transform="translate(347.2025 189.748875)scale(0.12 -0.12)">
     <defs>
      <path d="M 0.484375 72.90625 
L 67.671875 72.90625 
L 67.671875 58.6875 
L 43.5 58.6875 
L 43.5 0 
L 24.703125 0 
L 24.703125 58.6875 
L 0.484375 58.6875 
z
" id="DejaVuSans-Bold-84"/>
     </defs>
     <use xlink:href="#DejaVuSans-Bold-78"/>
     <use x="83.691406" xlink:href="#DejaVuSans-Bold-101"/>
     <use x="151.513672" xlink:href="#DejaVuSans-Bold-116"/>
     <use x="199.316406" xlink:href="#DejaVuSans-Bold-119"/>
     <use x="291.699219" xlink:href="#DejaVuSans-Bold-111"/>
     <use x="360.400391" xlink:href="#DejaVuSans-Bold-114"/>
     <use x="409.716797" xlink:href="#DejaVuSans-Bold-107"/>
     <use x="476.220703" xlink:href="#DejaVuSans-Bold-32"/>
     <use x="511.035156" xlink:href="#DejaVuSans-Bold-84"/>
     <use x="567.373047" xlink:href="#DejaVuSans-Bold-121"/>
     <use x="632.558594" xlink:href="#DejaVuSans-Bold-112"/>
     <use x="704.140625" xlink:href="#DejaVuSans-Bold-101"/>
    </g>
   </g>
   <g id="PathCollection_3">
    <g>
     <use style="fill:#d45590;stroke:#ffffff;stroke-width:1.5;" x="339.27125" xlink:href="#m7f756f84d8" y="204.306375"/>
    </g>
   </g>
   <g id="text_15">
    <!-- ANN -->
    <g transform="translate(352.47125 207.456375)scale(0.12 -0.12)">
     <use xlink:href="#DejaVuSans-Bold-65"/>
     <use x="77.392578" xlink:href="#DejaVuSans-Bold-78"/>
     <use x="161.083984" xlink:href="#DejaVuSans-Bold-78"/>
    </g>
   </g>
   <g id="PathCollection_4">
    <g>
     <use style="fill:#69aadb;stroke:#ffffff;stroke-width:1.5;" x="411.843125" xlink:href="#mfd1f8f9e00" y="204.306375"/>
    </g>
   </g>
   <g id="text_16">
    <!-- SNN -->
    <g transform="translate(425.043125 207.456375)scale(0.12 -0.12)">
     <use xlink:href="#DejaVuSans-Bold-83"/>
     <use x="72.021484" xlink:href="#DejaVuSans-Bold-78"/>
     <use x="155.712891" xlink:href="#DejaVuSans-Bold-78"/>
    </g>
   </g>
  </g>
 </g>
 <defs>
  <clipPath id="p9aa9f19b41">
   <rect height="214" width="325.15" x="127.770625" y="7.2"/>
  </clipPath>
 </defs>
</svg>
