<?xml version="1.0" encoding="utf-8" standalone="no"?>
<!DOCTYPE svg PUBLIC "-//W3C//DTD SVG 1.1//EN"
  "http://www.w3.org/Graphics/SVG/1.1/DTD/svg11.dtd">
<!-- Created with matplotlib (https://matplotlib.org/) -->
<svg height="282.0859pt" version="1.1" viewBox="0 0 556.412469 282.0859" width="556.412469pt" xmlns="http://www.w3.org/2000/svg" xmlns:xlink="http://www.w3.org/1999/xlink">
 <metadata>
  <rdf:RDF xmlns:cc="http://creativecommons.org/ns#" xmlns:dc="http://purl.org/dc/elements/1.1/" xmlns:rdf="http://www.w3.org/1999/02/22-rdf-syntax-ns#">
   <cc:Work>
    <dc:type rdf:resource="http://purl.org/dc/dcmitype/StillImage"/>
    <dc:date>2026-03-31T12:32:32.479900</dc:date>
    <dc:format>image/svg+xml</dc:format>
    <dc:creator>
     <cc:Agent>
      <dc:title>Matplotlib v3.3.2, https://matplotlib.org/</dc:title>
     </cc:Agent>
    </dc:creator>
   </cc:Work>
  </rdf:RDF>
 </metadata>
 <defs>
  <style type="text/css">*{stroke-linecap:butt;stroke-linejoin:round;}</style>
 </defs>
 <g id="figure_1">
  <g id="patch_1">
   <path d="M 0 282.0859 
L 556.412469 282.0859 
L 556.412469 0 
L 0 0 
z
" style="fill:none;"/>
  </g>
  <g id="axes_1">
   <g id="patch_2">
    <path d="M 43.87444 257.22715 
L 511.121779 257.22715 
L 511.121779 14.337695 
L 43.87444 14.337695 
z
" style="fill:#ffffff;"/>
   </g>
   <g id="matplotlib.axis_1">
    <g id="xtick_1">
     <g id="line2d_1">
      <defs>
       <path d="M 0 0 
L 0 -5 
" id="me6a277cfa6" style="stroke:#000000;stroke-width:1.5;"/>
      </defs>
      <g>
       <use style="stroke:#000000;stroke-width:1.5;" x="124.513747" xlink:href="#me6a277cfa6" y="25.378125"/>
      </g>
     </g>
     <g id="text_1">
      <!-- 0.2 -->
      <g transform="translate(115.656716 14.798437)scale(0.1 -0.1)">
       <defs>
        <path d="M 46 36.53125 
Q 46 50.203125 43.4375 55.78125 
Q 40.875 61.375 34.8125 61.375 
Q 28.765625 61.375 26.171875 55.78125 
Q 23.578125 50.203125 23.578125 36.53125 
Q 23.578125 22.703125 26.171875 17.03125 
Q 28.765625 11.375 34.8125 11.375 
Q 40.828125 11.375 43.40625 17.03125 
Q 46 22.703125 46 36.53125 
z
M 64.796875 36.375 
Q 64.796875 18.265625 56.984375 8.421875 
Q 49.171875 -1.421875 34.8125 -1.421875 
Q 20.40625 -1.421875 12.59375 8.421875 
Q 4.78125 18.265625 4.78125 36.375 
Q 4.78125 54.546875 12.59375 64.375 
Q 20.40625 74.21875 34.8125 74.21875 
Q 49.171875 74.21875 56.984375 64.375 
Q 64.796875 54.546875 64.796875 36.375 
z
" id="DejaVuSans-Bold-48"/>
        <path d="M 10.203125 18.890625 
L 27.78125 18.890625 
L 27.78125 0 
L 10.203125 0 
z
" id="DejaVuSans-Bold-46"/>
        <path d="M 28.8125 13.8125 
L 60.890625 13.8125 
L 60.890625 0 
L 7.90625 0 
L 7.90625 13.8125 
L 34.515625 37.3125 
Q 38.09375 40.53125 39.796875 43.609375 
Q 41.5 46.6875 41.5 50 
Q 41.5 55.125 38.0625 58.25 
Q 34.625 61.375 28.90625 61.375 
Q 24.515625 61.375 19.28125 59.5 
Q 14.0625 57.625 8.109375 53.90625 
L 8.109375 69.921875 
Q 14.453125 72.015625 20.65625 73.109375 
Q 26.859375 74.21875 32.8125 74.21875 
Q 45.90625 74.21875 53.15625 68.453125 
Q 60.40625 62.703125 60.40625 52.390625 
Q 60.40625 46.4375 57.328125 41.28125 
Q 54.25 36.140625 44.390625 27.484375 
z
" id="DejaVuSans-Bold-50"/>
       </defs>
       <use xlink:href="#DejaVuSans-Bold-48"/>
       <use x="69.580078" xlink:href="#DejaVuSans-Bold-46"/>
       <use x="107.568359" xlink:href="#DejaVuSans-Bold-50"/>
      </g>
     </g>
    </g>
    <g id="xtick_2">
     <g id="line2d_2">
      <g>
       <use style="stroke:#000000;stroke-width:1.5;" x="210.968486" xlink:href="#me6a277cfa6" y="25.378125"/>
      </g>
     </g>
     <g id="text_2">
      <!-- 0.4 -->
      <g transform="translate(202.111455 14.798437)scale(0.1 -0.1)">
       <defs>
        <path d="M 36.8125 57.421875 
L 16.21875 26.90625 
L 36.8125 26.90625 
z
M 33.6875 72.90625 
L 54.59375 72.90625 
L 54.59375 26.90625 
L 64.984375 26.90625 
L 64.984375 13.28125 
L 54.59375 13.28125 
L 54.59375 0 
L 36.8125 0 
L 36.8125 13.28125 
L 4.5 13.28125 
L 4.5 29.390625 
z
" id="DejaVuSans-Bold-52"/>
       </defs>
       <use xlink:href="#DejaVuSans-Bold-48"/>
       <use x="69.580078" xlink:href="#DejaVuSans-Bold-46"/>
       <use x="107.568359" xlink:href="#DejaVuSans-Bold-52"/>
      </g>
     </g>
    </g>
    <g id="xtick_3">
     <g id="line2d_3">
      <g>
       <use style="stroke:#000000;stroke-width:1.5;" x="297.423225" xlink:href="#me6a277cfa6" y="25.378125"/>
      </g>
     </g>
     <g id="text_3">
      <!-- 0.6 -->
      <g transform="translate(288.566194 14.798437)scale(0.1 -0.1)">
       <defs>
        <path d="M 36.1875 35.984375 
Q 31.25 35.984375 28.78125 32.78125 
Q 26.3125 29.59375 26.3125 23.1875 
Q 26.3125 16.796875 28.78125 13.59375 
Q 31.25 10.40625 36.1875 10.40625 
Q 41.15625 10.40625 43.625 13.59375 
Q 46.09375 16.796875 46.09375 23.1875 
Q 46.09375 29.59375 43.625 32.78125 
Q 41.15625 35.984375 36.1875 35.984375 
z
M 59.421875 71 
L 59.421875 57.515625 
Q 54.78125 59.71875 50.671875 60.765625 
Q 46.578125 61.8125 42.671875 61.8125 
Q 34.28125 61.8125 29.59375 57.140625 
Q 24.90625 52.484375 24.125 43.3125 
Q 27.34375 45.703125 31.09375 46.890625 
Q 34.859375 48.09375 39.3125 48.09375 
Q 50.484375 48.09375 57.34375 41.546875 
Q 64.203125 35.015625 64.203125 24.421875 
Q 64.203125 12.703125 56.53125 5.640625 
Q 48.875 -1.421875 35.984375 -1.421875 
Q 21.78125 -1.421875 13.984375 8.171875 
Q 6.203125 17.78125 6.203125 35.40625 
Q 6.203125 53.46875 15.3125 63.796875 
Q 24.421875 74.125 40.28125 74.125 
Q 45.3125 74.125 50.046875 73.34375 
Q 54.78125 72.5625 59.421875 71 
z
" id="DejaVuSans-Bold-54"/>
       </defs>
       <use xlink:href="#DejaVuSans-Bold-48"/>
       <use x="69.580078" xlink:href="#DejaVuSans-Bold-46"/>
       <use x="107.568359" xlink:href="#DejaVuSans-Bold-54"/>
      </g>
     </g>
    </g>
    <g id="xtick_4">
     <g id="line2d_4">
      <g>
       <use style="stroke:#000000;stroke-width:1.5;" x="383.877964" xlink:href="#me6a277cfa6" y="25.378125"/>
      </g>
     </g>
     <g id="text_4">
      <!-- 0.8 -->
      <g transform="translate(375.020933 14.798437)scale(0.1 -0.1)">
       <defs>
        <path d="M 34.8125 32.625 
Q 29.546875 32.625 26.703125 29.734375 
Q 23.875 26.859375 23.875 21.484375 
Q 23.875 16.109375 26.703125 13.25 
Q 29.546875 10.40625 34.8125 10.40625 
Q 40.046875 10.40625 42.828125 13.25 
Q 45.609375 16.109375 45.609375 21.484375 
Q 45.609375 26.90625 42.828125 29.765625 
Q 40.046875 32.625 34.8125 32.625 
z
M 21.09375 38.8125 
Q 14.453125 40.828125 11.078125 44.96875 
Q 7.71875 49.125 7.71875 55.328125 
Q 7.71875 64.546875 14.59375 69.375 
Q 21.484375 74.21875 34.8125 74.21875 
Q 48.046875 74.21875 54.921875 69.40625 
Q 61.8125 64.59375 61.8125 55.328125 
Q 61.8125 49.125 58.421875 44.96875 
Q 55.03125 40.828125 48.390625 38.8125 
Q 55.8125 36.765625 59.59375 32.15625 
Q 63.375 27.546875 63.375 20.515625 
Q 63.375 9.671875 56.171875 4.125 
Q 48.96875 -1.421875 34.8125 -1.421875 
Q 20.609375 -1.421875 13.359375 4.125 
Q 6.109375 9.671875 6.109375 20.515625 
Q 6.109375 27.546875 9.890625 32.15625 
Q 13.671875 36.765625 21.09375 38.8125 
z
M 25.484375 53.421875 
Q 25.484375 49.078125 27.90625 46.734375 
Q 30.328125 44.390625 34.8125 44.390625 
Q 39.203125 44.390625 41.59375 46.734375 
Q 44 49.078125 44 53.421875 
Q 44 57.765625 41.59375 60.078125 
Q 39.203125 62.40625 34.8125 62.40625 
Q 30.328125 62.40625 27.90625 60.0625 
Q 25.484375 57.71875 25.484375 53.421875 
z
" id="DejaVuSans-Bold-56"/>
       </defs>
       <use xlink:href="#DejaVuSans-Bold-48"/>
       <use x="69.580078" xlink:href="#DejaVuSans-Bold-46"/>
       <use x="107.568359" xlink:href="#DejaVuSans-Bold-56"/>
      </g>
     </g>
    </g>
    <g id="xtick_5">
     <g id="line2d_5">
      <g>
       <use style="stroke:#000000;stroke-width:1.5;" x="470.332703" xlink:href="#me6a277cfa6" y="25.378125"/>
      </g>
     </g>
     <g id="text_5">
      <!-- 1.0 -->
      <g transform="translate(461.475672 14.798437)scale(0.1 -0.1)">
       <defs>
        <path d="M 11.71875 12.984375 
L 28.328125 12.984375 
L 28.328125 60.109375 
L 11.28125 56.59375 
L 11.28125 69.390625 
L 28.21875 72.90625 
L 46.09375 72.90625 
L 46.09375 12.984375 
L 62.703125 12.984375 
L 62.703125 0 
L 11.71875 0 
z
" id="DejaVuSans-Bold-49"/>
       </defs>
       <use xlink:href="#DejaVuSans-Bold-49"/>
       <use x="69.580078" xlink:href="#DejaVuSans-Bold-46"/>
       <use x="107.568359" xlink:href="#DejaVuSans-Bold-48"/>
      </g>
     </g>
    </g>
    <g id="text_6">
     <!-- Average Rank -->
     <g transform="translate(222.900297 271.864962)scale(0.14 -0.14)">
      <defs>
       <path d="M 53.421875 13.28125 
L 24.03125 13.28125 
L 19.390625 0 
L 0.484375 0 
L 27.484375 72.90625 
L 49.90625 72.90625 
L 76.90625 0 
L 58.015625 0 
z
M 28.71875 26.8125 
L 48.6875 26.8125 
L 38.71875 55.8125 
z
" id="DejaVuSans-Bold-65"/>
       <path d="M 1.515625 54.6875 
L 19 54.6875 
L 32.625 16.890625 
L 46.1875 54.6875 
L 63.71875 54.6875 
L 42.1875 0 
L 23 0 
z
" id="DejaVuSans-Bold-118"/>
       <path d="M 62.984375 27.484375 
L 62.984375 22.515625 
L 22.125 22.515625 
Q 22.75 16.359375 26.5625 13.28125 
Q 30.375 10.203125 37.203125 10.203125 
Q 42.71875 10.203125 48.5 11.84375 
Q 54.296875 13.484375 60.40625 16.796875 
L 60.40625 3.328125 
Q 54.203125 0.984375 48 -0.21875 
Q 41.796875 -1.421875 35.59375 -1.421875 
Q 20.75 -1.421875 12.515625 6.125 
Q 4.296875 13.671875 4.296875 27.296875 
Q 4.296875 40.671875 12.375 48.328125 
Q 20.453125 56 34.625 56 
Q 47.515625 56 55.25 48.234375 
Q 62.984375 40.484375 62.984375 27.484375 
z
M 45.015625 33.296875 
Q 45.015625 38.28125 42.109375 41.328125 
Q 39.203125 44.390625 34.515625 44.390625 
Q 29.4375 44.390625 26.265625 41.53125 
Q 23.09375 38.671875 22.3125 33.296875 
z
" id="DejaVuSans-Bold-101"/>
       <path d="M 49.03125 39.796875 
Q 46.734375 40.875 44.453125 41.375 
Q 42.1875 41.890625 39.890625 41.890625 
Q 33.15625 41.890625 29.515625 37.5625 
Q 25.875 33.25 25.875 25.203125 
L 25.875 0 
L 8.40625 0 
L 8.40625 54.6875 
L 25.875 54.6875 
L 25.875 45.703125 
Q 29.25 51.078125 33.609375 53.53125 
Q 37.984375 56 44.09375 56 
Q 44.96875 56 45.984375 55.921875 
Q 47.015625 55.859375 48.96875 55.609375 
z
" id="DejaVuSans-Bold-114"/>
       <path d="M 32.90625 24.609375 
Q 27.4375 24.609375 24.671875 22.75 
Q 21.921875 20.90625 21.921875 17.28125 
Q 21.921875 13.96875 24.140625 12.078125 
Q 26.375 10.203125 30.328125 10.203125 
Q 35.25 10.203125 38.625 13.734375 
Q 42 17.28125 42 22.609375 
L 42 24.609375 
z
M 59.625 31.203125 
L 59.625 0 
L 42 0 
L 42 8.109375 
Q 38.484375 3.125 34.078125 0.84375 
Q 29.6875 -1.421875 23.390625 -1.421875 
Q 14.890625 -1.421875 9.59375 3.53125 
Q 4.296875 8.5 4.296875 16.40625 
Q 4.296875 26.03125 10.90625 30.515625 
Q 17.53125 35.015625 31.6875 35.015625 
L 42 35.015625 
L 42 36.375 
Q 42 40.53125 38.71875 42.453125 
Q 35.453125 44.390625 28.515625 44.390625 
Q 22.90625 44.390625 18.0625 43.265625 
Q 13.234375 42.140625 9.078125 39.890625 
L 9.078125 53.21875 
Q 14.703125 54.59375 20.359375 55.296875 
Q 26.03125 56 31.6875 56 
Q 46.484375 56 53.046875 50.171875 
Q 59.625 44.34375 59.625 31.203125 
z
" id="DejaVuSans-Bold-97"/>
       <path d="M 45.609375 9.28125 
Q 42 4.5 37.640625 2.25 
Q 33.296875 0 27.59375 0 
Q 17.578125 0 11.03125 7.875 
Q 4.5 15.765625 4.5 27.984375 
Q 4.5 40.234375 11.03125 48.0625 
Q 17.578125 55.90625 27.59375 55.90625 
Q 33.296875 55.90625 37.640625 53.65625 
Q 42 51.421875 45.609375 46.578125 
L 45.609375 54.6875 
L 63.1875 54.6875 
L 63.1875 5.515625 
Q 63.1875 -7.671875 54.859375 -14.625 
Q 46.53125 -21.578125 30.71875 -21.578125 
Q 25.59375 -21.578125 20.796875 -20.796875 
Q 16.015625 -20.015625 11.1875 -18.40625 
L 11.1875 -4.78125 
Q 15.765625 -7.421875 20.15625 -8.71875 
Q 24.5625 -10.015625 29 -10.015625 
Q 37.59375 -10.015625 41.59375 -6.25 
Q 45.609375 -2.484375 45.609375 5.515625 
z
M 34.078125 43.3125 
Q 28.65625 43.3125 25.625 39.296875 
Q 22.609375 35.296875 22.609375 27.984375 
Q 22.609375 20.453125 25.53125 16.578125 
Q 28.46875 12.703125 34.078125 12.703125 
Q 39.546875 12.703125 42.578125 16.703125 
Q 45.609375 20.703125 45.609375 27.984375 
Q 45.609375 35.296875 42.578125 39.296875 
Q 39.546875 43.3125 34.078125 43.3125 
z
" id="DejaVuSans-Bold-103"/>
       <path id="DejaVuSans-Bold-32"/>
       <path d="M 35.890625 40.578125 
Q 41.796875 40.578125 44.359375 42.765625 
Q 46.921875 44.96875 46.921875 50 
Q 46.921875 54.984375 44.359375 57.125 
Q 41.796875 59.28125 35.890625 59.28125 
L 27.984375 59.28125 
L 27.984375 40.578125 
z
M 27.984375 27.59375 
L 27.984375 0 
L 9.1875 0 
L 9.1875 72.90625 
L 37.890625 72.90625 
Q 52.296875 72.90625 59 68.0625 
Q 65.71875 63.234375 65.71875 52.78125 
Q 65.71875 45.5625 62.21875 40.921875 
Q 58.734375 36.28125 51.703125 34.078125 
Q 55.5625 33.203125 58.609375 30.09375 
Q 61.671875 27 64.796875 20.703125 
L 75 0 
L 54.984375 0 
L 46.09375 18.109375 
Q 43.40625 23.578125 40.640625 25.578125 
Q 37.890625 27.59375 33.296875 27.59375 
z
" id="DejaVuSans-Bold-82"/>
       <path d="M 63.375 33.296875 
L 63.375 0 
L 45.796875 0 
L 45.796875 5.421875 
L 45.796875 25.484375 
Q 45.796875 32.5625 45.484375 35.25 
Q 45.171875 37.9375 44.390625 39.203125 
Q 43.359375 40.921875 41.59375 41.875 
Q 39.84375 42.828125 37.59375 42.828125 
Q 32.125 42.828125 29 38.59375 
Q 25.875 34.375 25.875 26.90625 
L 25.875 0 
L 8.40625 0 
L 8.40625 54.6875 
L 25.875 54.6875 
L 25.875 46.6875 
Q 29.828125 51.46875 34.265625 53.734375 
Q 38.71875 56 44.09375 56 
Q 53.5625 56 58.46875 50.1875 
Q 63.375 44.390625 63.375 33.296875 
z
" id="DejaVuSans-Bold-110"/>
       <path d="M 8.40625 75.984375 
L 25.875 75.984375 
L 25.875 34.625 
L 46 54.6875 
L 66.3125 54.6875 
L 39.59375 29.59375 
L 68.40625 0 
L 47.21875 0 
L 25.875 22.796875 
L 25.875 0 
L 8.40625 0 
z
" id="DejaVuSans-Bold-107"/>
      </defs>
      <use xlink:href="#DejaVuSans-Bold-65"/>
      <use x="73.767578" xlink:href="#DejaVuSans-Bold-118"/>
      <use x="138.953125" xlink:href="#DejaVuSans-Bold-101"/>
      <use x="206.775391" xlink:href="#DejaVuSans-Bold-114"/>
      <use x="256.091797" xlink:href="#DejaVuSans-Bold-97"/>
      <use x="323.572266" xlink:href="#DejaVuSans-Bold-103"/>
      <use x="395.154297" xlink:href="#DejaVuSans-Bold-101"/>
      <use x="462.976562" xlink:href="#DejaVuSans-Bold-32"/>
      <use x="497.791016" xlink:href="#DejaVuSans-Bold-82"/>
      <use x="574.792969" xlink:href="#DejaVuSans-Bold-97"/>
      <use x="642.273438" xlink:href="#DejaVuSans-Bold-110"/>
      <use x="713.464844" xlink:href="#DejaVuSans-Bold-107"/>
     </g>
    </g>
   </g>
   <g id="line2d_6">
    <path clip-path="url(#p7095f9bbec)" d="M 183.005781 163.383497 
L 187.328518 163.383497 
L 187.328518 25.378125 
" style="fill:none;stroke:#69aadb;stroke-linecap:square;stroke-width:1.8;"/>
   </g>
   <g id="line2d_7">
    <path clip-path="url(#p7095f9bbec)" d="M 183.005781 190.984571 
L 190.705656 190.984571 
L 190.705656 25.378125 
" style="fill:none;stroke:#789ed1;stroke-linecap:square;stroke-width:1.8;"/>
   </g>
   <g id="line2d_8">
    <path clip-path="url(#p7095f9bbec)" d="M 183.005781 218.585646 
L 206.91592 218.585646 
L 206.91592 25.378125 
" style="fill:none;stroke:#a57ab3;stroke-linecap:square;stroke-width:1.8;"/>
   </g>
   <g id="line2d_9">
    <path clip-path="url(#p7095f9bbec)" d="M 183.005781 246.18672 
L 262.300987 246.18672 
L 262.300987 25.378125 
" style="fill:none;stroke:#8792c7;stroke-linecap:square;stroke-width:1.8;"/>
   </g>
   <g id="line2d_10">
    <path clip-path="url(#p7095f9bbec)" d="M 371.990437 163.383497 
L 367.6677 163.383497 
L 367.6677 25.378125 
" style="fill:none;stroke:#b46ea8;stroke-linecap:square;stroke-width:1.8;"/>
   </g>
   <g id="line2d_11">
    <path clip-path="url(#p7095f9bbec)" d="M 371.990437 190.984571 
L 356.18543 190.984571 
L 356.18543 25.378125 
" style="fill:none;stroke:#d25593;stroke-linecap:square;stroke-width:1.8;"/>
   </g>
   <g id="line2d_12">
    <path clip-path="url(#p7095f9bbec)" d="M 371.990437 218.585646 
L 333.896318 218.585646 
L 333.896318 25.378125 
" style="fill:none;stroke:#9686bd;stroke-linecap:square;stroke-width:1.8;"/>
   </g>
   <g id="line2d_13">
    <path clip-path="url(#p7095f9bbec)" d="M 371.990437 246.18672 
L 323.089476 246.18672 
L 323.089476 25.378125 
" style="fill:none;stroke:#c3629e;stroke-linecap:square;stroke-width:1.8;"/>
   </g>
   <g id="patch_3">
    <path d="M 43.87444 25.378125 
L 511.121779 25.378125 
" style="fill:none;stroke:#000000;stroke-linecap:square;stroke-linejoin:miter;stroke-width:1.8;"/>
   </g>
   <g id="PathCollection_1">
    <defs>
     <path d="M 0 3.535534 
C 0.937635 3.535534 1.836992 3.163008 2.5 2.5 
C 3.163008 1.836992 3.535534 0.937635 3.535534 0 
C 3.535534 -0.937635 3.163008 -1.836992 2.5 -2.5 
C 1.836992 -3.163008 0.937635 -3.535534 0 -3.535534 
C -0.937635 -3.535534 -1.836992 -3.163008 -2.5 -2.5 
C -3.163008 -1.836992 -3.535534 -0.937635 -3.535534 0 
C -3.535534 0.937635 -3.163008 1.836992 -2.5 2.5 
C -1.836992 3.163008 -0.937635 3.535534 0 3.535534 
z
" id="m1c95694692" style="stroke:#000000;stroke-opacity:0.9;stroke-width:1.2;"/>
    </defs>
    <g clip-path="url(#p7095f9bbec)">
     <use style="fill:#69aadb;fill-opacity:0.9;stroke:#000000;stroke-opacity:0.9;stroke-width:1.2;" x="187.328518" xlink:href="#m1c95694692" y="25.378125"/>
    </g>
   </g>
   <g id="PathCollection_2">
    <defs>
     <path d="M 0 3.535534 
C 0.937635 3.535534 1.836992 3.163008 2.5 2.5 
C 3.163008 1.836992 3.535534 0.937635 3.535534 0 
C 3.535534 -0.937635 3.163008 -1.836992 2.5 -2.5 
C 1.836992 -3.163008 0.937635 -3.535534 0 -3.535534 
C -0.937635 -3.535534 -1.836992 -3.163008 -2.5 -2.5 
C -3.163008 -1.836992 -3.535534 -0.937635 -3.535534 0 
C -3.535534 0.937635 -3.163008 1.836992 -2.5 2.5 
C -1.836992 3.163008 -0.937635 3.535534 0 3.535534 
z
" id="mb945fd52a5" style="stroke:#000000;stroke-opacity:0.9;stroke-width:1.2;"/>
    </defs>
    <g clip-path="url(#p7095f9bbec)">
     <use style="fill:#789ed1;fill-opacity:0.9;stroke:#000000;stroke-opacity:0.9;stroke-width:1.2;" x="190.705656" xlink:href="#mb945fd52a5" y="25.378125"/>
    </g>
   </g>
   <g id="PathCollection_3">
    <defs>
     <path d="M 0 3.535534 
C 0.937635 3.535534 1.836992 3.163008 2.5 2.5 
C 3.163008 1.836992 3.535534 0.937635 3.535534 0 
C 3.535534 -0.937635 3.163008 -1.836992 2.5 -2.5 
C 1.836992 -3.163008 0.937635 -3.535534 0 -3.535534 
C -0.937635 -3.535534 -1.836992 -3.163008 -2.5 -2.5 
C -3.163008 -1.836992 -3.535534 -0.937635 -3.535534 0 
C -3.535534 0.937635 -3.163008 1.836992 -2.5 2.5 
C -1.836992 3.163008 -0.937635 3.535534 0 3.535534 
z
" id="m2ca0d40dd7" style="stroke:#000000;stroke-opacity:0.9;stroke-width:1.2;"/>
    </defs>
    <g clip-path="url(#p7095f9bbec)">
     <use style="fill:#a57ab3;fill-opacity:0.9;stroke:#000000;stroke-opacity:0.9;stroke-width:1.2;" x="206.91592" xlink:href="#m2ca0d40dd7" y="25.378125"/>
    </g>
   </g>
   <g id="PathCollection_4">
    <defs>
     <path d="M 0 3.535534 
C 0.937635 3.535534 1.836992 3.163008 2.5 2.5 
C 3.163008 1.836992 3.535534 0.937635 3.535534 0 
C 3.535534 -0.937635 3.163008 -1.836992 2.5 -2.5 
C 1.836992 -3.163008 0.937635 -3.535534 0 -3.535534 
C -0.937635 -3.535534 -1.836992 -3.163008 -2.5 -2.5 
C -3.163008 -1.836992 -3.535534 -0.937635 -3.535534 0 
C -3.535534 0.937635 -3.163008 1.836992 -2.5 2.5 
C -1.836992 3.163008 -0.937635 3.535534 0 3.535534 
z
" id="md39cbea9b8" style="stroke:#000000;stroke-opacity:0.9;stroke-width:1.2;"/>
    </defs>
    <g clip-path="url(#p7095f9bbec)">
     <use style="fill:#8792c7;fill-opacity:0.9;stroke:#000000;stroke-opacity:0.9;stroke-width:1.2;" x="262.300987" xlink:href="#md39cbea9b8" y="25.378125"/>
    </g>
   </g>
   <g id="PathCollection_5">
    <defs>
     <path d="M 0 3.535534 
C 0.937635 3.535534 1.836992 3.163008 2.5 2.5 
C 3.163008 1.836992 3.535534 0.937635 3.535534 0 
C 3.535534 -0.937635 3.163008 -1.836992 2.5 -2.5 
C 1.836992 -3.163008 0.937635 -3.535534 0 -3.535534 
C -0.937635 -3.535534 -1.836992 -3.163008 -2.5 -2.5 
C -3.163008 -1.836992 -3.535534 -0.937635 -3.535534 0 
C -3.535534 0.937635 -3.163008 1.836992 -2.5 2.5 
C -1.836992 3.163008 -0.937635 3.535534 0 3.535534 
z
" id="me5f6cbf3c5" style="stroke:#000000;stroke-opacity:0.9;stroke-width:1.2;"/>
    </defs>
    <g clip-path="url(#p7095f9bbec)">
     <use style="fill:#b46ea8;fill-opacity:0.9;stroke:#000000;stroke-opacity:0.9;stroke-width:1.2;" x="367.6677" xlink:href="#me5f6cbf3c5" y="25.378125"/>
    </g>
   </g>
   <g id="PathCollection_6">
    <defs>
     <path d="M 0 3.535534 
C 0.937635 3.535534 1.836992 3.163008 2.5 2.5 
C 3.163008 1.836992 3.535534 0.937635 3.535534 0 
C 3.535534 -0.937635 3.163008 -1.836992 2.5 -2.5 
C 1.836992 -3.163008 0.937635 -3.535534 0 -3.535534 
C -0.937635 -3.535534 -1.836992 -3.163008 -2.5 -2.5 
C -3.163008 -1.836992 -3.535534 -0.937635 -3.535534 0 
C -3.535534 0.937635 -3.163008 1.836992 -2.5 2.5 
C -1.836992 3.163008 -0.937635 3.535534 0 3.535534 
z
" id="m9a8465094d" style="stroke:#000000;stroke-opacity:0.9;stroke-width:1.2;"/>
    </defs>
    <g clip-path="url(#p7095f9bbec)">
     <use style="fill:#d25593;fill-opacity:0.9;stroke:#000000;stroke-opacity:0.9;stroke-width:1.2;" x="356.18543" xlink:href="#m9a8465094d" y="25.378125"/>
    </g>
   </g>
   <g id="PathCollection_7">
    <defs>
     <path d="M 0 3.535534 
C 0.937635 3.535534 1.836992 3.163008 2.5 2.5 
C 3.163008 1.836992 3.535534 0.937635 3.535534 0 
C 3.535534 -0.937635 3.163008 -1.836992 2.5 -2.5 
C 1.836992 -3.163008 0.937635 -3.535534 0 -3.535534 
C -0.937635 -3.535534 -1.836992 -3.163008 -2.5 -2.5 
C -3.163008 -1.836992 -3.535534 -0.937635 -3.535534 0 
C -3.535534 0.937635 -3.163008 1.836992 -2.5 2.5 
C -1.836992 3.163008 -0.937635 3.535534 0 3.535534 
z
" id="m27fb519b18" style="stroke:#000000;stroke-opacity:0.9;stroke-width:1.2;"/>
    </defs>
    <g clip-path="url(#p7095f9bbec)">
     <use style="fill:#9686bd;fill-opacity:0.9;stroke:#000000;stroke-opacity:0.9;stroke-width:1.2;" x="333.896318" xlink:href="#m27fb519b18" y="25.378125"/>
    </g>
   </g>
   <g id="PathCollection_8">
    <defs>
     <path d="M 0 3.535534 
C 0.937635 3.535534 1.836992 3.163008 2.5 2.5 
C 3.163008 1.836992 3.535534 0.937635 3.535534 0 
C 3.535534 -0.937635 3.163008 -1.836992 2.5 -2.5 
C 1.836992 -3.163008 0.937635 -3.535534 0 -3.535534 
C -0.937635 -3.535534 -1.836992 -3.163008 -2.5 -2.5 
C -3.163008 -1.836992 -3.535534 -0.937635 -3.535534 0 
C -3.535534 0.937635 -3.163008 1.836992 -2.5 2.5 
C -1.836992 3.163008 -0.937635 3.535534 0 3.535534 
z
" id="m77c995120c" style="stroke:#000000;stroke-opacity:0.9;stroke-width:1.2;"/>
    </defs>
    <g clip-path="url(#p7095f9bbec)">
     <use style="fill:#c3629e;fill-opacity:0.9;stroke:#000000;stroke-opacity:0.9;stroke-width:1.2;" x="323.089476" xlink:href="#m77c995120c" y="25.378125"/>
    </g>
   </g>
   <g id="line2d_14">
    <path clip-path="url(#p7095f9bbec)" d="M 187.328518 52.979199 
L 206.91592 52.979199 
L 262.300987 52.979199 
L 190.705656 52.979199 
" style="fill:none;stroke:#555555;stroke-linecap:square;stroke-width:3;"/>
   </g>
   <g id="line2d_15">
    <path clip-path="url(#p7095f9bbec)" d="M 206.91592 80.580274 
L 262.300987 80.580274 
L 323.089476 80.580274 
L 190.705656 80.580274 
" style="fill:none;stroke:#555555;stroke-linecap:square;stroke-width:3;"/>
   </g>
   <g id="line2d_16">
    <path clip-path="url(#p7095f9bbec)" d="M 333.896318 108.181348 
L 206.91592 108.181348 
L 262.300987 108.181348 
L 323.089476 108.181348 
" style="fill:none;stroke:#555555;stroke-linecap:square;stroke-width:3;"/>
   </g>
   <g id="line2d_17">
    <path clip-path="url(#p7095f9bbec)" d="M 367.6677 135.782423 
L 356.18543 135.782423 
L 333.896318 135.782423 
L 262.300987 135.782423 
L 323.089476 135.782423 
" style="fill:none;stroke:#555555;stroke-linecap:square;stroke-width:3;"/>
   </g>
   <g id="text_7">
    <!-- LeNet (0.35) -->
    <g style="fill:#69aadb;" transform="translate(105.588125 166.418809)scale(0.11 -0.11)">
     <defs>
      <path d="M 9.1875 72.90625 
L 27.984375 72.90625 
L 27.984375 14.203125 
L 60.984375 14.203125 
L 60.984375 0 
L 9.1875 0 
z
" id="DejaVuSans-Bold-76"/>
      <path d="M 9.1875 72.90625 
L 30.171875 72.90625 
L 56.6875 22.90625 
L 56.6875 72.90625 
L 74.515625 72.90625 
L 74.515625 0 
L 53.515625 0 
L 27 50 
L 27 0 
L 9.1875 0 
z
" id="DejaVuSans-Bold-78"/>
      <path d="M 27.484375 70.21875 
L 27.484375 54.6875 
L 45.515625 54.6875 
L 45.515625 42.1875 
L 27.484375 42.1875 
L 27.484375 19 
Q 27.484375 15.1875 29 13.84375 
Q 30.515625 12.5 35.015625 12.5 
L 44 12.5 
L 44 0 
L 29 0 
Q 18.65625 0 14.328125 4.3125 
Q 10.015625 8.640625 10.015625 19 
L 10.015625 42.1875 
L 1.3125 42.1875 
L 1.3125 54.6875 
L 10.015625 54.6875 
L 10.015625 70.21875 
z
" id="DejaVuSans-Bold-116"/>
      <path d="M 37.703125 -13.1875 
L 23.1875 -13.1875 
Q 15.71875 -1.125 12.15625 9.734375 
Q 8.59375 20.609375 8.59375 31.296875 
Q 8.59375 42 12.171875 52.953125 
Q 15.765625 63.921875 23.1875 75.875 
L 37.703125 75.875 
Q 31.453125 64.3125 28.328125 53.25 
Q 25.203125 42.1875 25.203125 31.390625 
Q 25.203125 20.609375 28.296875 9.515625 
Q 31.390625 -1.5625 37.703125 -13.1875 
z
" id="DejaVuSans-Bold-40"/>
      <path d="M 46.578125 39.3125 
Q 53.953125 37.40625 57.78125 32.6875 
Q 61.625 27.984375 61.625 20.703125 
Q 61.625 9.859375 53.3125 4.21875 
Q 45.015625 -1.421875 29.109375 -1.421875 
Q 23.484375 -1.421875 17.84375 -0.515625 
Q 12.203125 0.390625 6.6875 2.203125 
L 6.6875 16.703125 
Q 11.96875 14.0625 17.15625 12.71875 
Q 22.359375 11.375 27.390625 11.375 
Q 34.859375 11.375 38.84375 13.953125 
Q 42.828125 16.546875 42.828125 21.390625 
Q 42.828125 26.375 38.75 28.9375 
Q 34.671875 31.5 26.703125 31.5 
L 19.1875 31.5 
L 19.1875 43.609375 
L 27.09375 43.609375 
Q 34.1875 43.609375 37.640625 45.828125 
Q 41.109375 48.046875 41.109375 52.59375 
Q 41.109375 56.78125 37.734375 59.078125 
Q 34.375 61.375 28.21875 61.375 
Q 23.6875 61.375 19.046875 60.34375 
Q 14.40625 59.328125 9.8125 57.328125 
L 9.8125 71.09375 
Q 15.375 72.65625 20.84375 73.4375 
Q 26.3125 74.21875 31.59375 74.21875 
Q 45.796875 74.21875 52.84375 69.546875 
Q 59.90625 64.890625 59.90625 55.515625 
Q 59.90625 49.125 56.53125 45.046875 
Q 53.171875 40.96875 46.578125 39.3125 
z
" id="DejaVuSans-Bold-51"/>
      <path d="M 10.59375 72.90625 
L 57.328125 72.90625 
L 57.328125 59.078125 
L 25.59375 59.078125 
L 25.59375 47.796875 
Q 27.734375 48.390625 29.90625 48.703125 
Q 32.078125 49.03125 34.421875 49.03125 
Q 47.75 49.03125 55.171875 42.359375 
Q 62.59375 35.6875 62.59375 23.78125 
Q 62.59375 11.96875 54.515625 5.265625 
Q 46.4375 -1.421875 32.078125 -1.421875 
Q 25.875 -1.421875 19.796875 -0.21875 
Q 13.71875 0.984375 7.71875 3.421875 
L 7.71875 18.21875 
Q 13.671875 14.796875 19.015625 13.078125 
Q 24.359375 11.375 29.109375 11.375 
Q 35.9375 11.375 39.859375 14.71875 
Q 43.796875 18.0625 43.796875 23.78125 
Q 43.796875 29.546875 39.859375 32.859375 
Q 35.9375 36.1875 29.109375 36.1875 
Q 25.046875 36.1875 20.453125 35.125 
Q 15.875 34.078125 10.59375 31.890625 
z
" id="DejaVuSans-Bold-53"/>
      <path d="M 8.015625 -13.1875 
Q 14.265625 -1.5625 17.390625 9.515625 
Q 20.515625 20.609375 20.515625 31.390625 
Q 20.515625 42.1875 17.390625 53.25 
Q 14.265625 64.3125 8.015625 75.875 
L 22.515625 75.875 
Q 29.9375 63.921875 33.515625 52.953125 
Q 37.109375 42 37.109375 31.296875 
Q 37.109375 20.609375 33.546875 9.734375 
Q 29.984375 -1.125 22.515625 -13.1875 
z
" id="DejaVuSans-Bold-41"/>
     </defs>
     <use xlink:href="#DejaVuSans-Bold-76"/>
     <use x="63.720703" xlink:href="#DejaVuSans-Bold-101"/>
     <use x="131.542969" xlink:href="#DejaVuSans-Bold-78"/>
     <use x="215.234375" xlink:href="#DejaVuSans-Bold-101"/>
     <use x="283.056641" xlink:href="#DejaVuSans-Bold-116"/>
     <use x="330.859375" xlink:href="#DejaVuSans-Bold-32"/>
     <use x="365.673828" xlink:href="#DejaVuSans-Bold-40"/>
     <use x="411.376953" xlink:href="#DejaVuSans-Bold-48"/>
     <use x="480.957031" xlink:href="#DejaVuSans-Bold-46"/>
     <use x="518.945312" xlink:href="#DejaVuSans-Bold-51"/>
     <use x="588.525391" xlink:href="#DejaVuSans-Bold-53"/>
     <use x="658.105469" xlink:href="#DejaVuSans-Bold-41"/>
    </g>
   </g>
   <g id="text_8">
    <!-- MS-ResNet34 (0.35) -->
    <g style="fill:#789ed1;" transform="translate(58.839844 194.019884)scale(0.11 -0.11)">
     <defs>
      <path d="M 9.1875 72.90625 
L 33.109375 72.90625 
L 49.703125 33.890625 
L 66.40625 72.90625 
L 90.28125 72.90625 
L 90.28125 0 
L 72.515625 0 
L 72.515625 53.328125 
L 55.71875 14.015625 
L 43.796875 14.015625 
L 27 53.328125 
L 27 0 
L 9.1875 0 
z
" id="DejaVuSans-Bold-77"/>
      <path d="M 59.90625 70.609375 
L 59.90625 55.171875 
Q 53.90625 57.859375 48.1875 59.21875 
Q 42.484375 60.59375 37.40625 60.59375 
Q 30.671875 60.59375 27.4375 58.734375 
Q 24.21875 56.890625 24.21875 52.984375 
Q 24.21875 50.046875 26.390625 48.40625 
Q 28.5625 46.78125 34.28125 45.609375 
L 42.28125 44 
Q 54.4375 41.546875 59.5625 36.5625 
Q 64.703125 31.59375 64.703125 22.40625 
Q 64.703125 10.359375 57.546875 4.46875 
Q 50.390625 -1.421875 35.6875 -1.421875 
Q 28.765625 -1.421875 21.78125 -0.09375 
Q 14.796875 1.21875 7.8125 3.8125 
L 7.8125 19.671875 
Q 14.796875 15.96875 21.3125 14.078125 
Q 27.828125 12.203125 33.890625 12.203125 
Q 40.046875 12.203125 43.3125 14.25 
Q 46.578125 16.3125 46.578125 20.125 
Q 46.578125 23.53125 44.359375 25.390625 
Q 42.140625 27.25 35.5 28.71875 
L 28.21875 30.328125 
Q 17.28125 32.671875 12.21875 37.796875 
Q 7.171875 42.921875 7.171875 51.609375 
Q 7.171875 62.5 14.203125 68.359375 
Q 21.234375 74.21875 34.421875 74.21875 
Q 40.4375 74.21875 46.78125 73.3125 
Q 53.125 72.40625 59.90625 70.609375 
z
" id="DejaVuSans-Bold-83"/>
      <path d="M 5.421875 35.890625 
L 36.078125 35.890625 
L 36.078125 21.6875 
L 5.421875 21.6875 
z
" id="DejaVuSans-Bold-45"/>
      <path d="M 51.125 52.984375 
L 51.125 39.703125 
Q 45.515625 42.046875 40.28125 43.21875 
Q 35.0625 44.390625 30.421875 44.390625 
Q 25.4375 44.390625 23.015625 43.140625 
Q 20.609375 41.890625 20.609375 39.3125 
Q 20.609375 37.203125 22.4375 36.078125 
Q 24.265625 34.96875 29 34.421875 
L 32.078125 33.984375 
Q 45.515625 32.28125 50.140625 28.375 
Q 54.78125 24.46875 54.78125 16.109375 
Q 54.78125 7.375 48.328125 2.96875 
Q 41.890625 -1.421875 29.109375 -1.421875 
Q 23.6875 -1.421875 17.890625 -0.5625 
Q 12.109375 0.296875 6 2 
L 6 15.28125 
Q 11.234375 12.75 16.71875 11.46875 
Q 22.21875 10.203125 27.875 10.203125 
Q 33.015625 10.203125 35.59375 11.609375 
Q 38.1875 13.03125 38.1875 15.828125 
Q 38.1875 18.171875 36.40625 19.3125 
Q 34.625 20.453125 29.296875 21.09375 
L 26.21875 21.484375 
Q 14.546875 22.953125 9.859375 26.90625 
Q 5.171875 30.859375 5.171875 38.921875 
Q 5.171875 47.609375 11.125 51.796875 
Q 17.09375 56 29.390625 56 
Q 34.234375 56 39.546875 55.265625 
Q 44.875 54.546875 51.125 52.984375 
z
" id="DejaVuSans-Bold-115"/>
     </defs>
     <use xlink:href="#DejaVuSans-Bold-77"/>
     <use x="99.511719" xlink:href="#DejaVuSans-Bold-83"/>
     <use x="171.533203" xlink:href="#DejaVuSans-Bold-45"/>
     <use x="213.037109" xlink:href="#DejaVuSans-Bold-82"/>
     <use x="290.039062" xlink:href="#DejaVuSans-Bold-101"/>
     <use x="357.861328" xlink:href="#DejaVuSans-Bold-115"/>
     <use x="417.382812" xlink:href="#DejaVuSans-Bold-78"/>
     <use x="501.074219" xlink:href="#DejaVuSans-Bold-101"/>
     <use x="568.896484" xlink:href="#DejaVuSans-Bold-116"/>
     <use x="616.699219" xlink:href="#DejaVuSans-Bold-51"/>
     <use x="686.279297" xlink:href="#DejaVuSans-Bold-52"/>
     <use x="755.859375" xlink:href="#DejaVuSans-Bold-32"/>
     <use x="790.673828" xlink:href="#DejaVuSans-Bold-40"/>
     <use x="836.376953" xlink:href="#DejaVuSans-Bold-48"/>
     <use x="905.957031" xlink:href="#DejaVuSans-Bold-46"/>
     <use x="943.945312" xlink:href="#DejaVuSans-Bold-51"/>
     <use x="1013.525391" xlink:href="#DejaVuSans-Bold-53"/>
     <use x="1083.105469" xlink:href="#DejaVuSans-Bold-41"/>
    </g>
   </g>
   <g id="text_9">
    <!-- SEW-ResNet34 (0.39) -->
    <g style="fill:#a57ab3;" transform="translate(50.634531 221.620958)scale(0.11 -0.11)">
     <defs>
      <path d="M 9.1875 72.90625 
L 59.90625 72.90625 
L 59.90625 58.6875 
L 27.984375 58.6875 
L 27.984375 45.125 
L 58.015625 45.125 
L 58.015625 30.90625 
L 27.984375 30.90625 
L 27.984375 14.203125 
L 60.984375 14.203125 
L 60.984375 0 
L 9.1875 0 
z
" id="DejaVuSans-Bold-69"/>
      <path d="M 2.984375 72.90625 
L 21 72.90625 
L 33.59375 19.921875 
L 46.09375 72.90625 
L 64.203125 72.90625 
L 76.703125 19.921875 
L 89.3125 72.90625 
L 107.171875 72.90625 
L 89.984375 0 
L 68.3125 0 
L 55.078125 55.421875 
L 42 0 
L 20.3125 0 
z
" id="DejaVuSans-Bold-87"/>
      <path d="M 10.015625 1.609375 
L 10.015625 15.09375 
Q 14.5 12.984375 18.59375 11.9375 
Q 22.703125 10.890625 26.703125 10.890625 
Q 35.109375 10.890625 39.796875 15.546875 
Q 44.484375 20.21875 45.3125 29.390625 
Q 42 26.953125 38.234375 25.734375 
Q 34.46875 24.515625 30.078125 24.515625 
Q 18.890625 24.515625 12.03125 31.03125 
Q 5.171875 37.546875 5.171875 48.1875 
Q 5.171875 59.96875 12.8125 67.046875 
Q 20.453125 74.125 33.296875 74.125 
Q 47.5625 74.125 55.375 64.5 
Q 63.1875 54.890625 63.1875 37.3125 
Q 63.1875 19.234375 54.046875 8.90625 
Q 44.921875 -1.421875 29 -1.421875 
Q 23.875 -1.421875 19.1875 -0.65625 
Q 14.5 0.09375 10.015625 1.609375 
z
M 33.203125 36.71875 
Q 38.140625 36.71875 40.625 39.90625 
Q 43.109375 43.109375 43.109375 49.515625 
Q 43.109375 55.859375 40.625 59.078125 
Q 38.140625 62.3125 33.203125 62.3125 
Q 28.265625 62.3125 25.78125 59.078125 
Q 23.296875 55.859375 23.296875 49.515625 
Q 23.296875 43.109375 25.78125 39.90625 
Q 28.265625 36.71875 33.203125 36.71875 
z
" id="DejaVuSans-Bold-57"/>
     </defs>
     <use xlink:href="#DejaVuSans-Bold-83"/>
     <use x="72.021484" xlink:href="#DejaVuSans-Bold-69"/>
     <use x="140.332031" xlink:href="#DejaVuSans-Bold-87"/>
     <use x="246.134766" xlink:href="#DejaVuSans-Bold-45"/>
     <use x="287.638672" xlink:href="#DejaVuSans-Bold-82"/>
     <use x="364.640625" xlink:href="#DejaVuSans-Bold-101"/>
     <use x="432.462891" xlink:href="#DejaVuSans-Bold-115"/>
     <use x="491.984375" xlink:href="#DejaVuSans-Bold-78"/>
     <use x="575.675781" xlink:href="#DejaVuSans-Bold-101"/>
     <use x="643.498047" xlink:href="#DejaVuSans-Bold-116"/>
     <use x="691.300781" xlink:href="#DejaVuSans-Bold-51"/>
     <use x="760.880859" xlink:href="#DejaVuSans-Bold-52"/>
     <use x="830.460938" xlink:href="#DejaVuSans-Bold-32"/>
     <use x="865.275391" xlink:href="#DejaVuSans-Bold-40"/>
     <use x="910.978516" xlink:href="#DejaVuSans-Bold-48"/>
     <use x="980.558594" xlink:href="#DejaVuSans-Bold-46"/>
     <use x="1018.546875" xlink:href="#DejaVuSans-Bold-51"/>
     <use x="1088.126953" xlink:href="#DejaVuSans-Bold-57"/>
     <use x="1157.707031" xlink:href="#DejaVuSans-Bold-41"/>
    </g>
   </g>
   <g id="text_10">
    <!-- Meta-Spikeformer256 (0.52) -->
    <g style="fill:#8792c7;" transform="translate(7.2 249.222033)scale(0.11 -0.11)">
     <defs>
      <path d="M 25.875 7.90625 
L 25.875 -20.796875 
L 8.40625 -20.796875 
L 8.40625 54.6875 
L 25.875 54.6875 
L 25.875 46.6875 
Q 29.5 51.46875 33.890625 53.734375 
Q 38.28125 56 44 56 
Q 54.109375 56 60.59375 47.96875 
Q 67.09375 39.9375 67.09375 27.296875 
Q 67.09375 14.65625 60.59375 6.609375 
Q 54.109375 -1.421875 44 -1.421875 
Q 38.28125 -1.421875 33.890625 0.84375 
Q 29.5 3.125 25.875 7.90625 
z
M 37.5 43.3125 
Q 31.890625 43.3125 28.875 39.1875 
Q 25.875 35.0625 25.875 27.296875 
Q 25.875 19.53125 28.875 15.40625 
Q 31.890625 11.28125 37.5 11.28125 
Q 43.109375 11.28125 46.0625 15.375 
Q 49.03125 19.484375 49.03125 27.296875 
Q 49.03125 35.109375 46.0625 39.203125 
Q 43.109375 43.3125 37.5 43.3125 
z
" id="DejaVuSans-Bold-112"/>
      <path d="M 8.40625 54.6875 
L 25.875 54.6875 
L 25.875 0 
L 8.40625 0 
z
M 8.40625 75.984375 
L 25.875 75.984375 
L 25.875 61.71875 
L 8.40625 61.71875 
z
" id="DejaVuSans-Bold-105"/>
      <path d="M 44.390625 75.984375 
L 44.390625 64.5 
L 34.71875 64.5 
Q 31 64.5 29.53125 63.15625 
Q 28.078125 61.8125 28.078125 58.5 
L 28.078125 54.6875 
L 43.015625 54.6875 
L 43.015625 42.1875 
L 28.078125 42.1875 
L 28.078125 0 
L 10.59375 0 
L 10.59375 42.1875 
L 1.90625 42.1875 
L 1.90625 54.6875 
L 10.59375 54.6875 
L 10.59375 58.5 
Q 10.59375 67.4375 15.578125 71.703125 
Q 20.5625 75.984375 31 75.984375 
z
" id="DejaVuSans-Bold-102"/>
      <path d="M 34.421875 43.5 
Q 28.609375 43.5 25.5625 39.328125 
Q 22.515625 35.15625 22.515625 27.296875 
Q 22.515625 19.4375 25.5625 15.25 
Q 28.609375 11.078125 34.421875 11.078125 
Q 40.140625 11.078125 43.15625 15.25 
Q 46.1875 19.4375 46.1875 27.296875 
Q 46.1875 35.15625 43.15625 39.328125 
Q 40.140625 43.5 34.421875 43.5 
z
M 34.421875 56 
Q 48.53125 56 56.46875 48.375 
Q 64.40625 40.765625 64.40625 27.296875 
Q 64.40625 13.8125 56.46875 6.1875 
Q 48.53125 -1.421875 34.421875 -1.421875 
Q 20.265625 -1.421875 12.28125 6.1875 
Q 4.296875 13.8125 4.296875 27.296875 
Q 4.296875 40.765625 12.28125 48.375 
Q 20.265625 56 34.421875 56 
z
" id="DejaVuSans-Bold-111"/>
      <path d="M 59.078125 45.609375 
Q 62.40625 50.6875 66.96875 53.34375 
Q 71.53125 56 77 56 
Q 86.421875 56 91.359375 50.1875 
Q 96.296875 44.390625 96.296875 33.296875 
L 96.296875 0 
L 78.71875 0 
L 78.71875 28.515625 
Q 78.765625 29.15625 78.78125 29.828125 
Q 78.8125 30.515625 78.8125 31.78125 
Q 78.8125 37.59375 77.09375 40.203125 
Q 75.390625 42.828125 71.578125 42.828125 
Q 66.609375 42.828125 63.890625 38.71875 
Q 61.1875 34.625 61.078125 26.859375 
L 61.078125 0 
L 43.5 0 
L 43.5 28.515625 
Q 43.5 37.59375 41.9375 40.203125 
Q 40.375 42.828125 36.375 42.828125 
Q 31.34375 42.828125 28.609375 38.703125 
Q 25.875 34.578125 25.875 26.90625 
L 25.875 0 
L 8.296875 0 
L 8.296875 54.6875 
L 25.875 54.6875 
L 25.875 46.6875 
Q 29.109375 51.3125 33.28125 53.65625 
Q 37.453125 56 42.484375 56 
Q 48.140625 56 52.484375 53.265625 
Q 56.84375 50.53125 59.078125 45.609375 
z
" id="DejaVuSans-Bold-109"/>
     </defs>
     <use xlink:href="#DejaVuSans-Bold-77"/>
     <use x="99.511719" xlink:href="#DejaVuSans-Bold-101"/>
     <use x="167.333984" xlink:href="#DejaVuSans-Bold-116"/>
     <use x="215.136719" xlink:href="#DejaVuSans-Bold-97"/>
     <use x="282.617188" xlink:href="#DejaVuSans-Bold-45"/>
     <use x="324.121094" xlink:href="#DejaVuSans-Bold-83"/>
     <use x="396.142578" xlink:href="#DejaVuSans-Bold-112"/>
     <use x="467.724609" xlink:href="#DejaVuSans-Bold-105"/>
     <use x="502.001953" xlink:href="#DejaVuSans-Bold-107"/>
     <use x="565.880859" xlink:href="#DejaVuSans-Bold-101"/>
     <use x="633.703125" xlink:href="#DejaVuSans-Bold-102"/>
     <use x="677.208984" xlink:href="#DejaVuSans-Bold-111"/>
     <use x="745.910156" xlink:href="#DejaVuSans-Bold-114"/>
     <use x="795.226562" xlink:href="#DejaVuSans-Bold-109"/>
     <use x="899.425781" xlink:href="#DejaVuSans-Bold-101"/>
     <use x="967.248047" xlink:href="#DejaVuSans-Bold-114"/>
     <use x="1016.564453" xlink:href="#DejaVuSans-Bold-50"/>
     <use x="1086.144531" xlink:href="#DejaVuSans-Bold-53"/>
     <use x="1155.724609" xlink:href="#DejaVuSans-Bold-54"/>
     <use x="1225.304688" xlink:href="#DejaVuSans-Bold-32"/>
     <use x="1260.119141" xlink:href="#DejaVuSans-Bold-40"/>
     <use x="1305.822266" xlink:href="#DejaVuSans-Bold-48"/>
     <use x="1375.402344" xlink:href="#DejaVuSans-Bold-46"/>
     <use x="1413.390625" xlink:href="#DejaVuSans-Bold-53"/>
     <use x="1482.970703" xlink:href="#DejaVuSans-Bold-50"/>
     <use x="1552.550781" xlink:href="#DejaVuSans-Bold-41"/>
    </g>
   </g>
   <g id="text_11">
    <!-- (0.76) Spikformer256 -->
    <g style="fill:#b46ea8;" transform="translate(371.990437 166.418809)scale(0.11 -0.11)">
     <defs>
      <path d="M 6.6875 72.90625 
L 61.625 72.90625 
L 61.625 62.3125 
L 33.203125 0 
L 14.890625 0 
L 41.796875 59.078125 
L 6.6875 59.078125 
z
" id="DejaVuSans-Bold-55"/>
     </defs>
     <use xlink:href="#DejaVuSans-Bold-40"/>
     <use x="45.703125" xlink:href="#DejaVuSans-Bold-48"/>
     <use x="115.283203" xlink:href="#DejaVuSans-Bold-46"/>
     <use x="153.271484" xlink:href="#DejaVuSans-Bold-55"/>
     <use x="222.851562" xlink:href="#DejaVuSans-Bold-54"/>
     <use x="292.431641" xlink:href="#DejaVuSans-Bold-41"/>
     <use x="338.134766" xlink:href="#DejaVuSans-Bold-32"/>
     <use x="372.949219" xlink:href="#DejaVuSans-Bold-83"/>
     <use x="444.970703" xlink:href="#DejaVuSans-Bold-112"/>
     <use x="516.552734" xlink:href="#DejaVuSans-Bold-105"/>
     <use x="550.830078" xlink:href="#DejaVuSans-Bold-107"/>
     <use x="617.333984" xlink:href="#DejaVuSans-Bold-102"/>
     <use x="660.839844" xlink:href="#DejaVuSans-Bold-111"/>
     <use x="729.541016" xlink:href="#DejaVuSans-Bold-114"/>
     <use x="778.857422" xlink:href="#DejaVuSans-Bold-109"/>
     <use x="883.056641" xlink:href="#DejaVuSans-Bold-101"/>
     <use x="950.878906" xlink:href="#DejaVuSans-Bold-114"/>
     <use x="1000.195312" xlink:href="#DejaVuSans-Bold-50"/>
     <use x="1069.775391" xlink:href="#DejaVuSans-Bold-53"/>
     <use x="1139.355469" xlink:href="#DejaVuSans-Bold-54"/>
    </g>
   </g>
   <g id="text_12">
    <!-- (0.74) SpikingVGG9 -->
    <g style="fill:#d25593;" transform="translate(371.990437 193.976915)scale(0.11 -0.11)">
     <defs>
      <path d="M 0.484375 72.90625 
L 19.390625 72.90625 
L 38.71875 19.09375 
L 58.015625 72.90625 
L 76.90625 72.90625 
L 49.90625 0 
L 27.484375 0 
z
" id="DejaVuSans-Bold-86"/>
      <path d="M 74.703125 5.421875 
Q 67.671875 2 60.109375 0.28125 
Q 52.546875 -1.421875 44.484375 -1.421875 
Q 26.265625 -1.421875 15.625 8.765625 
Q 4.984375 18.953125 4.984375 36.375 
Q 4.984375 54 15.8125 64.109375 
Q 26.65625 74.21875 45.515625 74.21875 
Q 52.78125 74.21875 59.4375 72.84375 
Q 66.109375 71.484375 72.015625 68.796875 
L 72.015625 53.71875 
Q 65.921875 57.171875 59.890625 58.875 
Q 53.859375 60.59375 47.796875 60.59375 
Q 36.578125 60.59375 30.5 54.3125 
Q 24.421875 48.046875 24.421875 36.375 
Q 24.421875 24.8125 30.28125 18.5 
Q 36.140625 12.203125 46.921875 12.203125 
Q 49.859375 12.203125 52.375 12.5625 
Q 54.890625 12.9375 56.890625 13.71875 
L 56.890625 27.875 
L 45.40625 27.875 
L 45.40625 40.484375 
L 74.703125 40.484375 
z
" id="DejaVuSans-Bold-71"/>
     </defs>
     <use xlink:href="#DejaVuSans-Bold-40"/>
     <use x="45.703125" xlink:href="#DejaVuSans-Bold-48"/>
     <use x="115.283203" xlink:href="#DejaVuSans-Bold-46"/>
     <use x="153.271484" xlink:href="#DejaVuSans-Bold-55"/>
     <use x="222.851562" xlink:href="#DejaVuSans-Bold-52"/>
     <use x="292.431641" xlink:href="#DejaVuSans-Bold-41"/>
     <use x="338.134766" xlink:href="#DejaVuSans-Bold-32"/>
     <use x="372.949219" xlink:href="#DejaVuSans-Bold-83"/>
     <use x="444.970703" xlink:href="#DejaVuSans-Bold-112"/>
     <use x="516.552734" xlink:href="#DejaVuSans-Bold-105"/>
     <use x="550.830078" xlink:href="#DejaVuSans-Bold-107"/>
     <use x="617.333984" xlink:href="#DejaVuSans-Bold-105"/>
     <use x="651.611328" xlink:href="#DejaVuSans-Bold-110"/>
     <use x="722.802734" xlink:href="#DejaVuSans-Bold-103"/>
     <use x="794.384766" xlink:href="#DejaVuSans-Bold-86"/>
     <use x="871.777344" xlink:href="#DejaVuSans-Bold-71"/>
     <use x="953.857422" xlink:href="#DejaVuSans-Bold-71"/>
     <use x="1035.9375" xlink:href="#DejaVuSans-Bold-57"/>
    </g>
   </g>
   <g id="text_13">
    <!-- (0.68) QKFormer256 -->
    <g style="fill:#9686bd;" transform="translate(371.990437 221.620958)scale(0.11 -0.11)">
     <defs>
      <path d="M 44.484375 -1.3125 
L 43.015625 -1.3125 
Q 25 -1.3125 14.984375 8.640625 
Q 4.984375 18.609375 4.984375 36.375 
Q 4.984375 54.109375 14.96875 64.15625 
Q 24.953125 74.21875 42.484375 74.21875 
Q 60.203125 74.21875 70.09375 64.25 
Q 79.984375 54.296875 79.984375 36.375 
Q 79.984375 24.078125 74.734375 15.1875 
Q 69.484375 6.296875 59.625 1.8125 
L 74.3125 -14.59375 
L 56.390625 -14.59375 
z
M 42.484375 60.59375 
Q 33.890625 60.59375 29.15625 54.25 
Q 24.421875 47.90625 24.421875 36.375 
Q 24.421875 24.65625 29.046875 18.421875 
Q 33.6875 12.203125 42.484375 12.203125 
Q 51.125 12.203125 55.859375 18.546875 
Q 60.59375 24.90625 60.59375 36.375 
Q 60.59375 47.90625 55.859375 54.25 
Q 51.125 60.59375 42.484375 60.59375 
z
" id="DejaVuSans-Bold-81"/>
      <path d="M 9.1875 72.90625 
L 27.984375 72.90625 
L 27.984375 46.296875 
L 55.078125 72.90625 
L 76.90625 72.90625 
L 41.796875 38.375 
L 80.515625 0 
L 56.984375 0 
L 27.984375 28.71875 
L 27.984375 0 
L 9.1875 0 
z
" id="DejaVuSans-Bold-75"/>
      <path d="M 9.1875 72.90625 
L 59.90625 72.90625 
L 59.90625 58.6875 
L 27.984375 58.6875 
L 27.984375 45.125 
L 58.015625 45.125 
L 58.015625 30.90625 
L 27.984375 30.90625 
L 27.984375 0 
L 9.1875 0 
z
" id="DejaVuSans-Bold-70"/>
     </defs>
     <use xlink:href="#DejaVuSans-Bold-40"/>
     <use x="45.703125" xlink:href="#DejaVuSans-Bold-48"/>
     <use x="115.283203" xlink:href="#DejaVuSans-Bold-46"/>
     <use x="153.271484" xlink:href="#DejaVuSans-Bold-54"/>
     <use x="222.851562" xlink:href="#DejaVuSans-Bold-56"/>
     <use x="292.431641" xlink:href="#DejaVuSans-Bold-41"/>
     <use x="338.134766" xlink:href="#DejaVuSans-Bold-32"/>
     <use x="372.949219" xlink:href="#DejaVuSans-Bold-81"/>
     <use x="457.958984" xlink:href="#DejaVuSans-Bold-75"/>
     <use x="535.449219" xlink:href="#DejaVuSans-Bold-70"/>
     <use x="599.759766" xlink:href="#DejaVuSans-Bold-111"/>
     <use x="668.460938" xlink:href="#DejaVuSans-Bold-114"/>
     <use x="717.777344" xlink:href="#DejaVuSans-Bold-109"/>
     <use x="821.976562" xlink:href="#DejaVuSans-Bold-101"/>
     <use x="889.798828" xlink:href="#DejaVuSans-Bold-114"/>
     <use x="939.115234" xlink:href="#DejaVuSans-Bold-50"/>
     <use x="1008.695312" xlink:href="#DejaVuSans-Bold-53"/>
     <use x="1078.275391" xlink:href="#DejaVuSans-Bold-54"/>
    </g>
   </g>
   <g id="text_14">
    <!-- (0.66) SpikingResFormer256 -->
    <g style="fill:#c3629e;" transform="translate(371.990437 249.179064)scale(0.11 -0.11)">
     <use xlink:href="#DejaVuSans-Bold-40"/>
     <use x="45.703125" xlink:href="#DejaVuSans-Bold-48"/>
     <use x="115.283203" xlink:href="#DejaVuSans-Bold-46"/>
     <use x="153.271484" xlink:href="#DejaVuSans-Bold-54"/>
     <use x="222.851562" xlink:href="#DejaVuSans-Bold-54"/>
     <use x="292.431641" xlink:href="#DejaVuSans-Bold-41"/>
     <use x="338.134766" xlink:href="#DejaVuSans-Bold-32"/>
     <use x="372.949219" xlink:href="#DejaVuSans-Bold-83"/>
     <use x="444.970703" xlink:href="#DejaVuSans-Bold-112"/>
     <use x="516.552734" xlink:href="#DejaVuSans-Bold-105"/>
     <use x="550.830078" xlink:href="#DejaVuSans-Bold-107"/>
     <use x="617.333984" xlink:href="#DejaVuSans-Bold-105"/>
     <use x="651.611328" xlink:href="#DejaVuSans-Bold-110"/>
     <use x="722.802734" xlink:href="#DejaVuSans-Bold-103"/>
     <use x="794.384766" xlink:href="#DejaVuSans-Bold-82"/>
     <use x="871.386719" xlink:href="#DejaVuSans-Bold-101"/>
     <use x="939.208984" xlink:href="#DejaVuSans-Bold-115"/>
     <use x="998.730469" xlink:href="#DejaVuSans-Bold-70"/>
     <use x="1063.041016" xlink:href="#DejaVuSans-Bold-111"/>
     <use x="1131.742188" xlink:href="#DejaVuSans-Bold-114"/>
     <use x="1181.058594" xlink:href="#DejaVuSans-Bold-109"/>
     <use x="1285.257812" xlink:href="#DejaVuSans-Bold-101"/>
     <use x="1353.080078" xlink:href="#DejaVuSans-Bold-114"/>
     <use x="1402.396484" xlink:href="#DejaVuSans-Bold-50"/>
     <use x="1471.976562" xlink:href="#DejaVuSans-Bold-53"/>
     <use x="1541.556641" xlink:href="#DejaVuSans-Bold-54"/>
    </g>
   </g>
  </g>
 </g>
 <defs>
  <clipPath id="p7095f9bbec">
   <rect height="242.889455" width="467.247339" x="43.87444" y="14.337695"/>
  </clipPath>
 </defs>
</svg>
