<?xml version="1.0" encoding="utf-8" standalone="no"?>
<!DOCTYPE svg PUBLIC "-//W3C//DTD SVG 1.1//EN"
  "http://www.w3.org/Graphics/SVG/1.1/DTD/svg11.dtd">
<!-- Created with matplotlib (https://matplotlib.org/) -->
<svg height="315.0725pt" version="1.1" viewBox="0 0 491.378062 315.0725" width="491.378062pt" xmlns="http://www.w3.org/2000/svg" xmlns:xlink="http://www.w3.org/1999/xlink">
 <metadata>
  <rdf:RDF xmlns:cc="http://creativecommons.org/ns#" xmlns:dc="http://purl.org/dc/elements/1.1/" xmlns:rdf="http://www.w3.org/1999/02/22-rdf-syntax-ns#">
   <cc:Work>
    <dc:type rdf:resource="http://purl.org/dc/dcmitype/StillImage"/>
    <dc:date>2026-03-19T12:58:02.515782</dc:date>
    <dc:format>image/svg+xml</dc:format>
    <dc:creator>
     <cc:Agent>
      <dc:title>Matplotlib v3.3.2, https://matplotlib.org/</dc:title>
     </cc:Agent>
    </dc:creator>
   </cc:Work>
  </rdf:RDF>
 </metadata>
 <defs>
  <style type="text/css">*{stroke-linecap:butt;stroke-linejoin:round;}</style>
 </defs>
 <g id="figure_1">
  <g id="patch_1">
   <path d="M -0 315.0725 
L 491.378062 315.0725 
L 491.378062 0 
L -0 0 
z
" style="fill:none;"/>
  </g>
  <g id="axes_1">
   <g id="patch_2">
    <path d="M 40.708125 271.1 
L 480.168125 271.1 
L 480.168125 7.2 
L 40.708125 7.2 
z
" style="fill:#ffffff;"/>
   </g>
   <g id="PathCollection_1">
    <defs>
     <path d="M 0 1.581139 
C 0.419323 1.581139 0.821528 1.41454 1.118034 1.118034 
C 1.41454 0.821528 1.581139 0.419323 1.581139 0 
C 1.581139 -0.419323 1.41454 -0.821528 1.118034 -1.118034 
C 0.821528 -1.41454 0.419323 -1.581139 0 -1.581139 
C -0.419323 -1.581139 -0.821528 -1.41454 -1.118034 -1.118034 
C -1.41454 -0.821528 -1.581139 -0.419323 -1.581139 0 
C -1.581139 0.419323 -1.41454 0.821528 -1.118034 1.118034 
C -0.821528 1.41454 -0.419323 1.581139 0 1.581139 
z
" id="md75581b9ed" style="stroke:#000000;stroke-opacity:0.4;"/>
    </defs>
    <g clip-path="url(#pc93dcdb278)">
     <use style="fill-opacity:0.4;stroke:#000000;stroke-opacity:0.4;" x="85.203704" xlink:href="#md75581b9ed" y="147.46436"/>
     <use style="fill-opacity:0.4;stroke:#000000;stroke-opacity:0.4;" x="83.516665" xlink:href="#md75581b9ed" y="131.750413"/>
     <use style="fill-opacity:0.4;stroke:#000000;stroke-opacity:0.4;" x="86.19929" xlink:href="#md75581b9ed" y="132.630993"/>
     <use style="fill-opacity:0.4;stroke:#000000;stroke-opacity:0.4;" x="86.548904" xlink:href="#md75581b9ed" y="146.99473"/>
     <use style="fill-opacity:0.4;stroke:#000000;stroke-opacity:0.4;" x="84.942388" xlink:href="#md75581b9ed" y="132.630993"/>
     <use style="fill-opacity:0.4;stroke:#000000;stroke-opacity:0.4;" x="92.650334" xlink:href="#md75581b9ed" y="132.770592"/>
     <use style="fill-opacity:0.4;stroke:#000000;stroke-opacity:0.4;" x="84.287" xlink:href="#md75581b9ed" y="143.400226"/>
     <use style="fill-opacity:0.4;stroke:#000000;stroke-opacity:0.4;" x="91.997675" xlink:href="#md75581b9ed" y="49.677431"/>
     <use style="fill-opacity:0.4;stroke:#000000;stroke-opacity:0.4;" x="84.608387" xlink:href="#md75581b9ed" y="124.567963"/>
     <use style="fill-opacity:0.4;stroke:#000000;stroke-opacity:0.4;" x="78.175786" xlink:href="#md75581b9ed" y="215.927797"/>
     <use style="fill-opacity:0.4;stroke:#000000;stroke-opacity:0.4;" x="93.461368" xlink:href="#md75581b9ed" y="195.127935"/>
     <use style="fill-opacity:0.4;stroke:#000000;stroke-opacity:0.4;" x="90.98481" xlink:href="#md75581b9ed" y="169.070096"/>
     <use style="fill-opacity:0.4;stroke:#000000;stroke-opacity:0.4;" x="81.956095" xlink:href="#md75581b9ed" y="139.954059"/>
     <use style="fill-opacity:0.4;stroke:#000000;stroke-opacity:0.4;" x="87.5298" xlink:href="#md75581b9ed" y="144.212892"/>
     <use style="fill-opacity:0.4;stroke:#000000;stroke-opacity:0.4;" x="88.475275" xlink:href="#md75581b9ed" y="138.77701"/>
     <use style="fill-opacity:0.4;stroke:#000000;stroke-opacity:0.4;" x="78.280092" xlink:href="#md75581b9ed" y="142.391663"/>
     <use style="fill-opacity:0.4;stroke:#000000;stroke-opacity:0.4;" x="87.509709" xlink:href="#md75581b9ed" y="193.765014"/>
     <use style="fill-opacity:0.4;stroke:#000000;stroke-opacity:0.4;" x="86.098521" xlink:href="#md75581b9ed" y="193.840349"/>
     <use style="fill-opacity:0.4;stroke:#000000;stroke-opacity:0.4;" x="87.054855" xlink:href="#md75581b9ed" y="185.952245"/>
     <use style="fill-opacity:0.4;stroke:#000000;stroke-opacity:0.4;" x="82.38078" xlink:href="#md75581b9ed" y="186.306805"/>
     <use style="fill-opacity:0.4;stroke:#000000;stroke-opacity:0.4;" x="85.481628" xlink:href="#md75581b9ed" y="220.122285"/>
     <use style="fill-opacity:0.4;stroke:#000000;stroke-opacity:0.4;" x="82.204193" xlink:href="#md75581b9ed" y="214.94499"/>
     <use style="fill-opacity:0.4;stroke:#000000;stroke-opacity:0.4;" x="78.855902" xlink:href="#md75581b9ed" y="209.458349"/>
     <use style="fill-opacity:0.4;stroke:#000000;stroke-opacity:0.4;" x="85.273657" xlink:href="#md75581b9ed" y="211.520608"/>
     <use style="fill-opacity:0.4;stroke:#000000;stroke-opacity:0.4;" x="79.660904" xlink:href="#md75581b9ed" y="217.46182"/>
     <use style="fill-opacity:0.4;stroke:#000000;stroke-opacity:0.4;" x="89.750101" xlink:href="#md75581b9ed" y="224.172777"/>
     <use style="fill-opacity:0.4;stroke:#000000;stroke-opacity:0.4;" x="83.795773" xlink:href="#md75581b9ed" y="230.65292"/>
     <use style="fill-opacity:0.4;stroke:#000000;stroke-opacity:0.4;" x="80.235247" xlink:href="#md75581b9ed" y="210.829456"/>
    </g>
   </g>
   <g id="PathCollection_2">
    <g clip-path="url(#pc93dcdb278)">
     <use style="fill-opacity:0.4;stroke:#000000;stroke-opacity:0.4;" x="163.729393" xlink:href="#md75581b9ed" y="165.344139"/>
     <use style="fill-opacity:0.4;stroke:#000000;stroke-opacity:0.4;" x="179.120061" xlink:href="#md75581b9ed" y="163.848178"/>
     <use style="fill-opacity:0.4;stroke:#000000;stroke-opacity:0.4;" x="168.98566" xlink:href="#md75581b9ed" y="63.997283"/>
     <use style="fill-opacity:0.4;stroke:#000000;stroke-opacity:0.4;" x="174.508279" xlink:href="#md75581b9ed" y="142.391663"/>
     <use style="fill-opacity:0.4;stroke:#000000;stroke-opacity:0.4;" x="179.869046" xlink:href="#md75581b9ed" y="36.571537"/>
     <use style="fill-opacity:0.4;stroke:#000000;stroke-opacity:0.4;" x="167.462501" xlink:href="#md75581b9ed" y="55.719092"/>
     <use style="fill-opacity:0.4;stroke:#000000;stroke-opacity:0.4;" x="164.20708" xlink:href="#md75581b9ed" y="126.325803"/>
     <use style="fill-opacity:0.4;stroke:#000000;stroke-opacity:0.4;" x="173.050896" xlink:href="#md75581b9ed" y="152.693944"/>
     <use style="fill-opacity:0.4;stroke:#000000;stroke-opacity:0.4;" x="181.37224" xlink:href="#md75581b9ed" y="102.731522"/>
     <use style="fill-opacity:0.4;stroke:#000000;stroke-opacity:0.4;" x="174.732729" xlink:href="#md75581b9ed" y="65.412829"/>
     <use style="fill-opacity:0.4;stroke:#000000;stroke-opacity:0.4;" x="172.587183" xlink:href="#md75581b9ed" y="131.151415"/>
     <use style="fill-opacity:0.4;stroke:#000000;stroke-opacity:0.4;" x="170.383305" xlink:href="#md75581b9ed" y="132.956964"/>
     <use style="fill-opacity:0.4;stroke:#000000;stroke-opacity:0.4;" x="172.731088" xlink:href="#md75581b9ed" y="57.019099"/>
     <use style="fill-opacity:0.4;stroke:#000000;stroke-opacity:0.4;" x="174.682724" xlink:href="#md75581b9ed" y="35.550754"/>
     <use style="fill-opacity:0.4;stroke:#000000;stroke-opacity:0.4;" x="169.552678" xlink:href="#md75581b9ed" y="74.401702"/>
     <use style="fill-opacity:0.4;stroke:#000000;stroke-opacity:0.4;" x="168.230783" xlink:href="#md75581b9ed" y="153.021237"/>
     <use style="fill-opacity:0.4;stroke:#000000;stroke-opacity:0.4;" x="168.502409" xlink:href="#md75581b9ed" y="181.157917"/>
     <use style="fill-opacity:0.4;stroke:#000000;stroke-opacity:0.4;" x="176.426375" xlink:href="#md75581b9ed" y="227.273341"/>
     <use style="fill-opacity:0.4;stroke:#000000;stroke-opacity:0.4;" x="174.584553" xlink:href="#md75581b9ed" y="196.582642"/>
     <use style="fill-opacity:0.4;stroke:#000000;stroke-opacity:0.4;" x="173.474805" xlink:href="#md75581b9ed" y="168.698716"/>
     <use style="fill-opacity:0.4;stroke:#000000;stroke-opacity:0.4;" x="179.192937" xlink:href="#md75581b9ed" y="170.190806"/>
     <use style="fill-opacity:0.4;stroke:#000000;stroke-opacity:0.4;" x="173.627401" xlink:href="#md75581b9ed" y="218.007701"/>
     <use style="fill-opacity:0.4;stroke:#000000;stroke-opacity:0.4;" x="173.125033" xlink:href="#md75581b9ed" y="191.156098"/>
     <use style="fill-opacity:0.4;stroke:#000000;stroke-opacity:0.4;" x="166.54433" xlink:href="#md75581b9ed" y="170.253359"/>
     <use style="fill-opacity:0.4;stroke:#000000;stroke-opacity:0.4;" x="167.356552" xlink:href="#md75581b9ed" y="201.369101"/>
     <use style="fill-opacity:0.4;stroke:#000000;stroke-opacity:0.4;" x="168.919882" xlink:href="#md75581b9ed" y="238.014737"/>
     <use style="fill-opacity:0.4;stroke:#000000;stroke-opacity:0.4;" x="176.585866" xlink:href="#md75581b9ed" y="211.780764"/>
     <use style="fill-opacity:0.4;stroke:#000000;stroke-opacity:0.4;" x="173.087328" xlink:href="#md75581b9ed" y="132.445099"/>
    </g>
   </g>
   <g id="PathCollection_3">
    <g clip-path="url(#pc93dcdb278)">
     <use style="fill-opacity:0.4;stroke:#000000;stroke-opacity:0.4;" x="255.571199" xlink:href="#md75581b9ed" y="219.567246"/>
     <use style="fill-opacity:0.4;stroke:#000000;stroke-opacity:0.4;" x="257.001487" xlink:href="#md75581b9ed" y="227.666296"/>
     <use style="fill-opacity:0.4;stroke:#000000;stroke-opacity:0.4;" x="258.814048" xlink:href="#md75581b9ed" y="224.460256"/>
     <use style="fill-opacity:0.4;stroke:#000000;stroke-opacity:0.4;" x="264.788686" xlink:href="#md75581b9ed" y="198.054229"/>
     <use style="fill-opacity:0.4;stroke:#000000;stroke-opacity:0.4;" x="261.716672" xlink:href="#md75581b9ed" y="190.200579"/>
     <use style="fill-opacity:0.4;stroke:#000000;stroke-opacity:0.4;" x="270.090449" xlink:href="#md75581b9ed" y="221.802126"/>
     <use style="fill-opacity:0.4;stroke:#000000;stroke-opacity:0.4;" x="266.747229" xlink:href="#md75581b9ed" y="138.972428"/>
     <use style="fill-opacity:0.4;stroke:#000000;stroke-opacity:0.4;" x="256.440847" xlink:href="#md75581b9ed" y="183.56717"/>
     <use style="fill-opacity:0.4;stroke:#000000;stroke-opacity:0.4;" x="266.493894" xlink:href="#md75581b9ed" y="168.946182"/>
     <use style="fill-opacity:0.4;stroke:#000000;stroke-opacity:0.4;" x="260.788203" xlink:href="#md75581b9ed" y="121.677091"/>
     <use style="fill-opacity:0.4;stroke:#000000;stroke-opacity:0.4;" x="260.478156" xlink:href="#md75581b9ed" y="253.554632"/>
     <use style="fill-opacity:0.4;stroke:#000000;stroke-opacity:0.4;" x="256.373871" xlink:href="#md75581b9ed" y="259.104545"/>
     <use style="fill-opacity:0.4;stroke:#000000;stroke-opacity:0.4;" x="267.046914" xlink:href="#md75581b9ed" y="145.802405"/>
     <use style="fill-opacity:0.4;stroke:#000000;stroke-opacity:0.4;" x="265.86772" xlink:href="#md75581b9ed" y="139.707938"/>
     <use style="fill-opacity:0.4;stroke:#000000;stroke-opacity:0.4;" x="264.51746" xlink:href="#md75581b9ed" y="142.794127"/>
     <use style="fill-opacity:0.4;stroke:#000000;stroke-opacity:0.4;" x="258.505365" xlink:href="#md75581b9ed" y="145.544681"/>
     <use style="fill-opacity:0.4;stroke:#000000;stroke-opacity:0.4;" x="260.992192" xlink:href="#md75581b9ed" y="202.5743"/>
     <use style="fill-opacity:0.4;stroke:#000000;stroke-opacity:0.4;" x="264.362714" xlink:href="#md75581b9ed" y="226.393618"/>
     <use style="fill-opacity:0.4;stroke:#000000;stroke-opacity:0.4;" x="247.362875" xlink:href="#md75581b9ed" y="225.616733"/>
     <use style="fill-opacity:0.4;stroke:#000000;stroke-opacity:0.4;" x="256.584818" xlink:href="#md75581b9ed" y="166.857957"/>
     <use style="fill-opacity:0.4;stroke:#000000;stroke-opacity:0.4;" x="266.977093" xlink:href="#md75581b9ed" y="257.850073"/>
     <use style="fill-opacity:0.4;stroke:#000000;stroke-opacity:0.4;" x="259.588643" xlink:href="#md75581b9ed" y="251.876379"/>
     <use style="fill-opacity:0.4;stroke:#000000;stroke-opacity:0.4;" x="255.661906" xlink:href="#md75581b9ed" y="255.377751"/>
     <use style="fill-opacity:0.4;stroke:#000000;stroke-opacity:0.4;" x="260.053143" xlink:href="#md75581b9ed" y="254.889017"/>
     <use style="fill-opacity:0.4;stroke:#000000;stroke-opacity:0.4;" x="258.793581" xlink:href="#md75581b9ed" y="235.89739"/>
     <use style="fill-opacity:0.4;stroke:#000000;stroke-opacity:0.4;" x="253.087111" xlink:href="#md75581b9ed" y="227.175292"/>
     <use style="fill-opacity:0.4;stroke:#000000;stroke-opacity:0.4;" x="261.990638" xlink:href="#md75581b9ed" y="235.582815"/>
     <use style="fill-opacity:0.4;stroke:#000000;stroke-opacity:0.4;" x="260.423644" xlink:href="#md75581b9ed" y="220.307839"/>
    </g>
   </g>
   <g id="PathCollection_4">
    <g clip-path="url(#pc93dcdb278)">
     <use style="fill-opacity:0.4;stroke:#000000;stroke-opacity:0.4;" x="345.212625" xlink:href="#md75581b9ed" y="161.374018"/>
     <use style="fill-opacity:0.4;stroke:#000000;stroke-opacity:0.4;" x="348.729745" xlink:href="#md75581b9ed" y="158.490171"/>
     <use style="fill-opacity:0.4;stroke:#000000;stroke-opacity:0.4;" x="345.816532" xlink:href="#md75581b9ed" y="160.908173"/>
     <use style="fill-opacity:0.4;stroke:#000000;stroke-opacity:0.4;" x="350.544195" xlink:href="#md75581b9ed" y="166.675342"/>
     <use style="fill-opacity:0.4;stroke:#000000;stroke-opacity:0.4;" x="348.944257" xlink:href="#md75581b9ed" y="31.087578"/>
     <use style="fill-opacity:0.4;stroke:#000000;stroke-opacity:0.4;" x="360.726458" xlink:href="#md75581b9ed" y="170.566587"/>
     <use style="fill-opacity:0.4;stroke:#000000;stroke-opacity:0.4;" x="345.651747" xlink:href="#md75581b9ed" y="175.947897"/>
     <use style="fill-opacity:0.4;stroke:#000000;stroke-opacity:0.4;" x="339.939307" xlink:href="#md75581b9ed" y="174.840238"/>
     <use style="fill-opacity:0.4;stroke:#000000;stroke-opacity:0.4;" x="353.918077" xlink:href="#md75581b9ed" y="140.200659"/>
     <use style="fill-opacity:0.4;stroke:#000000;stroke-opacity:0.4;" x="343.11558" xlink:href="#md75581b9ed" y="134.977953"/>
     <use style="fill-opacity:0.4;stroke:#000000;stroke-opacity:0.4;" x="352.712643" xlink:href="#md75581b9ed" y="146.215856"/>
     <use style="fill-opacity:0.4;stroke:#000000;stroke-opacity:0.4;" x="348.658348" xlink:href="#md75581b9ed" y="145.184744"/>
     <use style="fill-opacity:0.4;stroke:#000000;stroke-opacity:0.4;" x="347.137163" xlink:href="#md75581b9ed" y="115.393784"/>
     <use style="fill-opacity:0.4;stroke:#000000;stroke-opacity:0.4;" x="348.873872" xlink:href="#md75581b9ed" y="63.753881"/>
     <use style="fill-opacity:0.4;stroke:#000000;stroke-opacity:0.4;" x="340.287807" xlink:href="#md75581b9ed" y="124.393512"/>
     <use style="fill-opacity:0.4;stroke:#000000;stroke-opacity:0.4;" x="340.423881" xlink:href="#md75581b9ed" y="115.069421"/>
     <use style="fill-opacity:0.4;stroke:#000000;stroke-opacity:0.4;" x="338.536372" xlink:href="#md75581b9ed" y="210.657255"/>
     <use style="fill-opacity:0.4;stroke:#000000;stroke-opacity:0.4;" x="348.841962" xlink:href="#md75581b9ed" y="210.743326"/>
     <use style="fill-opacity:0.4;stroke:#000000;stroke-opacity:0.4;" x="350.045051" xlink:href="#md75581b9ed" y="210.056385"/>
     <use style="fill-opacity:0.4;stroke:#000000;stroke-opacity:0.4;" x="351.093155" xlink:href="#md75581b9ed" y="210.39939"/>
     <use style="fill-opacity:0.4;stroke:#000000;stroke-opacity:0.4;" x="352.585953" xlink:href="#md75581b9ed" y="208.270671"/>
     <use style="fill-opacity:0.4;stroke:#000000;stroke-opacity:0.4;" x="344.674868" xlink:href="#md75581b9ed" y="208.86312"/>
     <use style="fill-opacity:0.4;stroke:#000000;stroke-opacity:0.4;" x="338.949503" xlink:href="#md75581b9ed" y="207.849181"/>
     <use style="fill-opacity:0.4;stroke:#000000;stroke-opacity:0.4;" x="342.303356" xlink:href="#md75581b9ed" y="208.608874"/>
     <use style="fill-opacity:0.4;stroke:#000000;stroke-opacity:0.4;" x="347.472748" xlink:href="#md75581b9ed" y="190.640693"/>
     <use style="fill-opacity:0.4;stroke:#000000;stroke-opacity:0.4;" x="345.590474" xlink:href="#md75581b9ed" y="187.806878"/>
     <use style="fill-opacity:0.4;stroke:#000000;stroke-opacity:0.4;" x="351.291451" xlink:href="#md75581b9ed" y="189.616126"/>
     <use style="fill-opacity:0.4;stroke:#000000;stroke-opacity:0.4;" x="351.760835" xlink:href="#md75581b9ed" y="190.200579"/>
    </g>
   </g>
   <g id="PathCollection_5">
    <g clip-path="url(#pc93dcdb278)">
     <use style="fill-opacity:0.4;stroke:#000000;stroke-opacity:0.4;" x="434.813893" xlink:href="#md75581b9ed" y="34.452313"/>
     <use style="fill-opacity:0.4;stroke:#000000;stroke-opacity:0.4;" x="433.120854" xlink:href="#md75581b9ed" y="43.979875"/>
     <use style="fill-opacity:0.4;stroke:#000000;stroke-opacity:0.4;" x="431.153893" xlink:href="#md75581b9ed" y="87.483687"/>
     <use style="fill-opacity:0.4;stroke:#000000;stroke-opacity:0.4;" x="435.064829" xlink:href="#md75581b9ed" y="86.477769"/>
     <use style="fill-opacity:0.4;stroke:#000000;stroke-opacity:0.4;" x="435.712352" xlink:href="#md75581b9ed" y="133.658309"/>
     <use style="fill-opacity:0.4;stroke:#000000;stroke-opacity:0.4;" x="448.494746" xlink:href="#md75581b9ed" y="145.699252"/>
     <use style="fill-opacity:0.4;stroke:#000000;stroke-opacity:0.4;" x="424.967479" xlink:href="#md75581b9ed" y="87.418548"/>
     <use style="fill-opacity:0.4;stroke:#000000;stroke-opacity:0.4;" x="437.215936" xlink:href="#md75581b9ed" y="74.961251"/>
     <use style="fill-opacity:0.4;stroke:#000000;stroke-opacity:0.4;" x="441.710181" xlink:href="#md75581b9ed" y="104.47016"/>
     <use style="fill-opacity:0.4;stroke:#000000;stroke-opacity:0.4;" x="437.545826" xlink:href="#md75581b9ed" y="19.195455"/>
     <use style="fill-opacity:0.4;stroke:#000000;stroke-opacity:0.4;" x="436.900917" xlink:href="#md75581b9ed" y="68.68487"/>
     <use style="fill-opacity:0.4;stroke:#000000;stroke-opacity:0.4;" x="429.77086" xlink:href="#md75581b9ed" y="69.304359"/>
     <use style="fill-opacity:0.4;stroke:#000000;stroke-opacity:0.4;" x="444.733437" xlink:href="#md75581b9ed" y="144.723464"/>
     <use style="fill-opacity:0.4;stroke:#000000;stroke-opacity:0.4;" x="435.441078" xlink:href="#md75581b9ed" y="134.22219"/>
     <use style="fill-opacity:0.4;stroke:#000000;stroke-opacity:0.4;" x="439.899595" xlink:href="#md75581b9ed" y="61.424766"/>
     <use style="fill-opacity:0.4;stroke:#000000;stroke-opacity:0.4;" x="445.988562" xlink:href="#md75581b9ed" y="61.212726"/>
     <use style="fill-opacity:0.4;stroke:#000000;stroke-opacity:0.4;" x="431.383625" xlink:href="#md75581b9ed" y="188.961819"/>
     <use style="fill-opacity:0.4;stroke:#000000;stroke-opacity:0.4;" x="440.406263" xlink:href="#md75581b9ed" y="198.757301"/>
     <use style="fill-opacity:0.4;stroke:#000000;stroke-opacity:0.4;" x="434.18009" xlink:href="#md75581b9ed" y="224.652271"/>
     <use style="fill-opacity:0.4;stroke:#000000;stroke-opacity:0.4;" x="433.87285" xlink:href="#md75581b9ed" y="225.037176"/>
     <use style="fill-opacity:0.4;stroke:#000000;stroke-opacity:0.4;" x="443.625416" xlink:href="#md75581b9ed" y="222.555924"/>
     <use style="fill-opacity:0.4;stroke:#000000;stroke-opacity:0.4;" x="429.986628" xlink:href="#md75581b9ed" y="202.171293"/>
     <use style="fill-opacity:0.4;stroke:#000000;stroke-opacity:0.4;" x="436.726395" xlink:href="#md75581b9ed" y="207.933367"/>
     <use style="fill-opacity:0.4;stroke:#000000;stroke-opacity:0.4;" x="429.085904" xlink:href="#md75581b9ed" y="206.011089"/>
     <use style="fill-opacity:0.4;stroke:#000000;stroke-opacity:0.4;" x="425.325987" xlink:href="#md75581b9ed" y="170.003332"/>
     <use style="fill-opacity:0.4;stroke:#000000;stroke-opacity:0.4;" x="441.919628" xlink:href="#md75581b9ed" y="174.581012"/>
     <use style="fill-opacity:0.4;stroke:#000000;stroke-opacity:0.4;" x="430.210136" xlink:href="#md75581b9ed" y="189.689035"/>
     <use style="fill-opacity:0.4;stroke:#000000;stroke-opacity:0.4;" x="437.630289" xlink:href="#md75581b9ed" y="188.455238"/>
    </g>
   </g>
   <g id="matplotlib.axis_1">
    <g id="xtick_1">
     <g id="line2d_1">
      <path clip-path="url(#pc93dcdb278)" d="M 84.654125 271.1 
L 84.654125 7.2 
" style="fill:none;stroke:#808080;stroke-dasharray:2.96,1.28;stroke-dashoffset:0;stroke-opacity:0.3;stroke-width:0.8;"/>
     </g>
     <g id="line2d_2">
      <defs>
       <path d="M 0 0 
L 0 4 
" id="m63ce1c4b07" style="stroke:#000000;stroke-width:1.5;"/>
      </defs>
      <g>
       <use style="stroke:#000000;stroke-width:1.5;" x="84.654125" xlink:href="#m63ce1c4b07" y="271.1"/>
      </g>
     </g>
     <g id="text_1">
      <!-- Vision -->
      <g transform="translate(64.037563 287.718125)scale(0.12 -0.12)">
       <defs>
        <path d="M 0.484375 72.90625 
L 19.390625 72.90625 
L 38.71875 19.09375 
L 58.015625 72.90625 
L 76.90625 72.90625 
L 49.90625 0 
L 27.484375 0 
z
" id="DejaVuSans-Bold-86"/>
        <path d="M 8.40625 54.6875 
L 25.875 54.6875 
L 25.875 0 
L 8.40625 0 
z
M 8.40625 75.984375 
L 25.875 75.984375 
L 25.875 61.71875 
L 8.40625 61.71875 
z
" id="DejaVuSans-Bold-105"/>
        <path d="M 51.125 52.984375 
L 51.125 39.703125 
Q 45.515625 42.046875 40.28125 43.21875 
Q 35.0625 44.390625 30.421875 44.390625 
Q 25.4375 44.390625 23.015625 43.140625 
Q 20.609375 41.890625 20.609375 39.3125 
Q 20.609375 37.203125 22.4375 36.078125 
Q 24.265625 34.96875 29 34.421875 
L 32.078125 33.984375 
Q 45.515625 32.28125 50.140625 28.375 
Q 54.78125 24.46875 54.78125 16.109375 
Q 54.78125 7.375 48.328125 2.96875 
Q 41.890625 -1.421875 29.109375 -1.421875 
Q 23.6875 -1.421875 17.890625 -0.5625 
Q 12.109375 0.296875 6 2 
L 6 15.28125 
Q 11.234375 12.75 16.71875 11.46875 
Q 22.21875 10.203125 27.875 10.203125 
Q 33.015625 10.203125 35.59375 11.609375 
Q 38.1875 13.03125 38.1875 15.828125 
Q 38.1875 18.171875 36.40625 19.3125 
Q 34.625 20.453125 29.296875 21.09375 
L 26.21875 21.484375 
Q 14.546875 22.953125 9.859375 26.90625 
Q 5.171875 30.859375 5.171875 38.921875 
Q 5.171875 47.609375 11.125 51.796875 
Q 17.09375 56 29.390625 56 
Q 34.234375 56 39.546875 55.265625 
Q 44.875 54.546875 51.125 52.984375 
z
" id="DejaVuSans-Bold-115"/>
        <path d="M 34.421875 43.5 
Q 28.609375 43.5 25.5625 39.328125 
Q 22.515625 35.15625 22.515625 27.296875 
Q 22.515625 19.4375 25.5625 15.25 
Q 28.609375 11.078125 34.421875 11.078125 
Q 40.140625 11.078125 43.15625 15.25 
Q 46.1875 19.4375 46.1875 27.296875 
Q 46.1875 35.15625 43.15625 39.328125 
Q 40.140625 43.5 34.421875 43.5 
z
M 34.421875 56 
Q 48.53125 56 56.46875 48.375 
Q 64.40625 40.765625 64.40625 27.296875 
Q 64.40625 13.8125 56.46875 6.1875 
Q 48.53125 -1.421875 34.421875 -1.421875 
Q 20.265625 -1.421875 12.28125 6.1875 
Q 4.296875 13.8125 4.296875 27.296875 
Q 4.296875 40.765625 12.28125 48.375 
Q 20.265625 56 34.421875 56 
z
" id="DejaVuSans-Bold-111"/>
        <path d="M 63.375 33.296875 
L 63.375 0 
L 45.796875 0 
L 45.796875 5.421875 
L 45.796875 25.484375 
Q 45.796875 32.5625 45.484375 35.25 
Q 45.171875 37.9375 44.390625 39.203125 
Q 43.359375 40.921875 41.59375 41.875 
Q 39.84375 42.828125 37.59375 42.828125 
Q 32.125 42.828125 29 38.59375 
Q 25.875 34.375 25.875 26.90625 
L 25.875 0 
L 8.40625 0 
L 8.40625 54.6875 
L 25.875 54.6875 
L 25.875 46.6875 
Q 29.828125 51.46875 34.265625 53.734375 
Q 38.71875 56 44.09375 56 
Q 53.5625 56 58.46875 50.1875 
Q 63.375 44.390625 63.375 33.296875 
z
" id="DejaVuSans-Bold-110"/>
       </defs>
       <use xlink:href="#DejaVuSans-Bold-86"/>
       <use x="75.642578" xlink:href="#DejaVuSans-Bold-105"/>
       <use x="109.919922" xlink:href="#DejaVuSans-Bold-115"/>
       <use x="169.441406" xlink:href="#DejaVuSans-Bold-105"/>
       <use x="203.71875" xlink:href="#DejaVuSans-Bold-111"/>
       <use x="272.419922" xlink:href="#DejaVuSans-Bold-110"/>
      </g>
     </g>
    </g>
    <g id="xtick_2">
     <g id="line2d_3">
      <path clip-path="url(#pc93dcdb278)" d="M 172.546125 271.1 
L 172.546125 7.2 
" style="fill:none;stroke:#808080;stroke-dasharray:2.96,1.28;stroke-dashoffset:0;stroke-opacity:0.3;stroke-width:0.8;"/>
     </g>
     <g id="line2d_4">
      <g>
       <use style="stroke:#000000;stroke-width:1.5;" x="172.546125" xlink:href="#m63ce1c4b07" y="271.1"/>
      </g>
     </g>
     <g id="text_2">
      <!-- Wireless -->
      <g transform="translate(143.574563 287.718125)scale(0.12 -0.12)">
       <defs>
        <path d="M 2.984375 72.90625 
L 21 72.90625 
L 33.59375 19.921875 
L 46.09375 72.90625 
L 64.203125 72.90625 
L 76.703125 19.921875 
L 89.3125 72.90625 
L 107.171875 72.90625 
L 89.984375 0 
L 68.3125 0 
L 55.078125 55.421875 
L 42 0 
L 20.3125 0 
z
" id="DejaVuSans-Bold-87"/>
        <path d="M 49.03125 39.796875 
Q 46.734375 40.875 44.453125 41.375 
Q 42.1875 41.890625 39.890625 41.890625 
Q 33.15625 41.890625 29.515625 37.5625 
Q 25.875 33.25 25.875 25.203125 
L 25.875 0 
L 8.40625 0 
L 8.40625 54.6875 
L 25.875 54.6875 
L 25.875 45.703125 
Q 29.25 51.078125 33.609375 53.53125 
Q 37.984375 56 44.09375 56 
Q 44.96875 56 45.984375 55.921875 
Q 47.015625 55.859375 48.96875 55.609375 
z
" id="DejaVuSans-Bold-114"/>
        <path d="M 62.984375 27.484375 
L 62.984375 22.515625 
L 22.125 22.515625 
Q 22.75 16.359375 26.5625 13.28125 
Q 30.375 10.203125 37.203125 10.203125 
Q 42.71875 10.203125 48.5 11.84375 
Q 54.296875 13.484375 60.40625 16.796875 
L 60.40625 3.328125 
Q 54.203125 0.984375 48 -0.21875 
Q 41.796875 -1.421875 35.59375 -1.421875 
Q 20.75 -1.421875 12.515625 6.125 
Q 4.296875 13.671875 4.296875 27.296875 
Q 4.296875 40.671875 12.375 48.328125 
Q 20.453125 56 34.625 56 
Q 47.515625 56 55.25 48.234375 
Q 62.984375 40.484375 62.984375 27.484375 
z
M 45.015625 33.296875 
Q 45.015625 38.28125 42.109375 41.328125 
Q 39.203125 44.390625 34.515625 44.390625 
Q 29.4375 44.390625 26.265625 41.53125 
Q 23.09375 38.671875 22.3125 33.296875 
z
" id="DejaVuSans-Bold-101"/>
        <path d="M 8.40625 75.984375 
L 25.875 75.984375 
L 25.875 0 
L 8.40625 0 
z
" id="DejaVuSans-Bold-108"/>
       </defs>
       <use xlink:href="#DejaVuSans-Bold-87"/>
       <use x="110.302734" xlink:href="#DejaVuSans-Bold-105"/>
       <use x="144.580078" xlink:href="#DejaVuSans-Bold-114"/>
       <use x="193.896484" xlink:href="#DejaVuSans-Bold-101"/>
       <use x="261.71875" xlink:href="#DejaVuSans-Bold-108"/>
       <use x="295.996094" xlink:href="#DejaVuSans-Bold-101"/>
       <use x="363.818359" xlink:href="#DejaVuSans-Bold-115"/>
       <use x="423.339844" xlink:href="#DejaVuSans-Bold-115"/>
      </g>
     </g>
    </g>
    <g id="xtick_3">
     <g id="line2d_5">
      <path clip-path="url(#pc93dcdb278)" d="M 260.438125 271.1 
L 260.438125 7.2 
" style="fill:none;stroke:#808080;stroke-dasharray:2.96,1.28;stroke-dashoffset:0;stroke-opacity:0.3;stroke-width:0.8;"/>
     </g>
     <g id="line2d_6">
      <g>
       <use style="stroke:#000000;stroke-width:1.5;" x="260.438125" xlink:href="#m63ce1c4b07" y="271.1"/>
      </g>
     </g>
     <g id="text_3">
      <!-- Motion -->
      <g transform="translate(237.026875 287.718125)scale(0.12 -0.12)">
       <defs>
        <path d="M 9.1875 72.90625 
L 33.109375 72.90625 
L 49.703125 33.890625 
L 66.40625 72.90625 
L 90.28125 72.90625 
L 90.28125 0 
L 72.515625 0 
L 72.515625 53.328125 
L 55.71875 14.015625 
L 43.796875 14.015625 
L 27 53.328125 
L 27 0 
L 9.1875 0 
z
" id="DejaVuSans-Bold-77"/>
        <path d="M 27.484375 70.21875 
L 27.484375 54.6875 
L 45.515625 54.6875 
L 45.515625 42.1875 
L 27.484375 42.1875 
L 27.484375 19 
Q 27.484375 15.1875 29 13.84375 
Q 30.515625 12.5 35.015625 12.5 
L 44 12.5 
L 44 0 
L 29 0 
Q 18.65625 0 14.328125 4.3125 
Q 10.015625 8.640625 10.015625 19 
L 10.015625 42.1875 
L 1.3125 42.1875 
L 1.3125 54.6875 
L 10.015625 54.6875 
L 10.015625 70.21875 
z
" id="DejaVuSans-Bold-116"/>
       </defs>
       <use xlink:href="#DejaVuSans-Bold-77"/>
       <use x="99.511719" xlink:href="#DejaVuSans-Bold-111"/>
       <use x="168.212891" xlink:href="#DejaVuSans-Bold-116"/>
       <use x="216.015625" xlink:href="#DejaVuSans-Bold-105"/>
       <use x="250.292969" xlink:href="#DejaVuSans-Bold-111"/>
       <use x="318.994141" xlink:href="#DejaVuSans-Bold-110"/>
      </g>
     </g>
    </g>
    <g id="xtick_4">
     <g id="line2d_7">
      <path clip-path="url(#pc93dcdb278)" d="M 348.330125 271.1 
L 348.330125 7.2 
" style="fill:none;stroke:#808080;stroke-dasharray:2.96,1.28;stroke-dashoffset:0;stroke-opacity:0.3;stroke-width:0.8;"/>
     </g>
     <g id="line2d_8">
      <g>
       <use style="stroke:#000000;stroke-width:1.5;" x="348.330125" xlink:href="#m63ce1c4b07" y="271.1"/>
      </g>
     </g>
     <g id="text_4">
      <!-- Acoustic -->
      <g transform="translate(319.683875 287.718125)scale(0.12 -0.12)">
       <defs>
        <path d="M 53.421875 13.28125 
L 24.03125 13.28125 
L 19.390625 0 
L 0.484375 0 
L 27.484375 72.90625 
L 49.90625 72.90625 
L 76.90625 0 
L 58.015625 0 
z
M 28.71875 26.8125 
L 48.6875 26.8125 
L 38.71875 55.8125 
z
" id="DejaVuSans-Bold-65"/>
        <path d="M 52.59375 52.984375 
L 52.59375 38.71875 
Q 49.03125 41.15625 45.4375 42.328125 
Q 41.84375 43.5 37.984375 43.5 
Q 30.671875 43.5 26.59375 39.234375 
Q 22.515625 34.96875 22.515625 27.296875 
Q 22.515625 19.625 26.59375 15.34375 
Q 30.671875 11.078125 37.984375 11.078125 
Q 42.09375 11.078125 45.78125 12.296875 
Q 49.46875 13.53125 52.59375 15.921875 
L 52.59375 1.609375 
Q 48.484375 0.09375 44.265625 -0.65625 
Q 40.046875 -1.421875 35.796875 -1.421875 
Q 21 -1.421875 12.640625 6.171875 
Q 4.296875 13.765625 4.296875 27.296875 
Q 4.296875 40.828125 12.640625 48.40625 
Q 21 56 35.796875 56 
Q 40.09375 56 44.265625 55.25 
Q 48.4375 54.5 52.59375 52.984375 
z
" id="DejaVuSans-Bold-99"/>
        <path d="M 7.8125 21.296875 
L 7.8125 54.6875 
L 25.390625 54.6875 
L 25.390625 49.21875 
Q 25.390625 44.78125 25.34375 38.0625 
Q 25.296875 31.34375 25.296875 29.109375 
Q 25.296875 22.515625 25.640625 19.609375 
Q 25.984375 16.703125 26.8125 15.375 
Q 27.875 13.671875 29.609375 12.734375 
Q 31.34375 11.8125 33.59375 11.8125 
Q 39.0625 11.8125 42.1875 16.015625 
Q 45.3125 20.21875 45.3125 27.6875 
L 45.3125 54.6875 
L 62.796875 54.6875 
L 62.796875 0 
L 45.3125 0 
L 45.3125 7.90625 
Q 41.359375 3.125 36.9375 0.84375 
Q 32.515625 -1.421875 27.203125 -1.421875 
Q 17.71875 -1.421875 12.765625 4.390625 
Q 7.8125 10.203125 7.8125 21.296875 
z
" id="DejaVuSans-Bold-117"/>
       </defs>
       <use xlink:href="#DejaVuSans-Bold-65"/>
       <use x="77.392578" xlink:href="#DejaVuSans-Bold-99"/>
       <use x="136.669922" xlink:href="#DejaVuSans-Bold-111"/>
       <use x="205.371094" xlink:href="#DejaVuSans-Bold-117"/>
       <use x="276.5625" xlink:href="#DejaVuSans-Bold-115"/>
       <use x="336.083984" xlink:href="#DejaVuSans-Bold-116"/>
       <use x="383.886719" xlink:href="#DejaVuSans-Bold-105"/>
       <use x="418.164062" xlink:href="#DejaVuSans-Bold-99"/>
      </g>
     </g>
    </g>
    <g id="xtick_5">
     <g id="line2d_9">
      <path clip-path="url(#pc93dcdb278)" d="M 436.222125 271.1 
L 436.222125 7.2 
" style="fill:none;stroke:#808080;stroke-dasharray:2.96,1.28;stroke-dashoffset:0;stroke-opacity:0.3;stroke-width:0.8;"/>
     </g>
     <g id="line2d_10">
      <g>
       <use style="stroke:#000000;stroke-width:1.5;" x="436.222125" xlink:href="#m63ce1c4b07" y="271.1"/>
      </g>
     </g>
     <g id="text_5">
      <!-- Neuromorphic -->
      <g transform="translate(388.266188 287.718125)scale(0.12 -0.12)">
       <defs>
        <path d="M 9.1875 72.90625 
L 30.171875 72.90625 
L 56.6875 22.90625 
L 56.6875 72.90625 
L 74.515625 72.90625 
L 74.515625 0 
L 53.515625 0 
L 27 50 
L 27 0 
L 9.1875 0 
z
" id="DejaVuSans-Bold-78"/>
        <path d="M 59.078125 45.609375 
Q 62.40625 50.6875 66.96875 53.34375 
Q 71.53125 56 77 56 
Q 86.421875 56 91.359375 50.1875 
Q 96.296875 44.390625 96.296875 33.296875 
L 96.296875 0 
L 78.71875 0 
L 78.71875 28.515625 
Q 78.765625 29.15625 78.78125 29.828125 
Q 78.8125 30.515625 78.8125 31.78125 
Q 78.8125 37.59375 77.09375 40.203125 
Q 75.390625 42.828125 71.578125 42.828125 
Q 66.609375 42.828125 63.890625 38.71875 
Q 61.1875 34.625 61.078125 26.859375 
L 61.078125 0 
L 43.5 0 
L 43.5 28.515625 
Q 43.5 37.59375 41.9375 40.203125 
Q 40.375 42.828125 36.375 42.828125 
Q 31.34375 42.828125 28.609375 38.703125 
Q 25.875 34.578125 25.875 26.90625 
L 25.875 0 
L 8.296875 0 
L 8.296875 54.6875 
L 25.875 54.6875 
L 25.875 46.6875 
Q 29.109375 51.3125 33.28125 53.65625 
Q 37.453125 56 42.484375 56 
Q 48.140625 56 52.484375 53.265625 
Q 56.84375 50.53125 59.078125 45.609375 
z
" id="DejaVuSans-Bold-109"/>
        <path d="M 25.875 7.90625 
L 25.875 -20.796875 
L 8.40625 -20.796875 
L 8.40625 54.6875 
L 25.875 54.6875 
L 25.875 46.6875 
Q 29.5 51.46875 33.890625 53.734375 
Q 38.28125 56 44 56 
Q 54.109375 56 60.59375 47.96875 
Q 67.09375 39.9375 67.09375 27.296875 
Q 67.09375 14.65625 60.59375 6.609375 
Q 54.109375 -1.421875 44 -1.421875 
Q 38.28125 -1.421875 33.890625 0.84375 
Q 29.5 3.125 25.875 7.90625 
z
M 37.5 43.3125 
Q 31.890625 43.3125 28.875 39.1875 
Q 25.875 35.0625 25.875 27.296875 
Q 25.875 19.53125 28.875 15.40625 
Q 31.890625 11.28125 37.5 11.28125 
Q 43.109375 11.28125 46.0625 15.375 
Q 49.03125 19.484375 49.03125 27.296875 
Q 49.03125 35.109375 46.0625 39.203125 
Q 43.109375 43.3125 37.5 43.3125 
z
" id="DejaVuSans-Bold-112"/>
        <path d="M 63.375 33.296875 
L 63.375 0 
L 45.796875 0 
L 45.796875 5.421875 
L 45.796875 25.390625 
Q 45.796875 32.5625 45.484375 35.25 
Q 45.171875 37.9375 44.390625 39.203125 
Q 43.359375 40.921875 41.59375 41.875 
Q 39.84375 42.828125 37.59375 42.828125 
Q 32.125 42.828125 29 38.59375 
Q 25.875 34.375 25.875 26.90625 
L 25.875 0 
L 8.40625 0 
L 8.40625 75.984375 
L 25.875 75.984375 
L 25.875 46.6875 
Q 29.828125 51.46875 34.265625 53.734375 
Q 38.71875 56 44.09375 56 
Q 53.5625 56 58.46875 50.1875 
Q 63.375 44.390625 63.375 33.296875 
z
" id="DejaVuSans-Bold-104"/>
       </defs>
       <use xlink:href="#DejaVuSans-Bold-78"/>
       <use x="83.691406" xlink:href="#DejaVuSans-Bold-101"/>
       <use x="151.513672" xlink:href="#DejaVuSans-Bold-117"/>
       <use x="222.705078" xlink:href="#DejaVuSans-Bold-114"/>
       <use x="272.021484" xlink:href="#DejaVuSans-Bold-111"/>
       <use x="340.722656" xlink:href="#DejaVuSans-Bold-109"/>
       <use x="444.921875" xlink:href="#DejaVuSans-Bold-111"/>
       <use x="513.623047" xlink:href="#DejaVuSans-Bold-114"/>
       <use x="562.939453" xlink:href="#DejaVuSans-Bold-112"/>
       <use x="634.521484" xlink:href="#DejaVuSans-Bold-104"/>
       <use x="705.712891" xlink:href="#DejaVuSans-Bold-105"/>
       <use x="739.990234" xlink:href="#DejaVuSans-Bold-99"/>
      </g>
     </g>
    </g>
    <g id="text_6">
     <!-- Sensing Modality -->
     <g transform="translate(192.451719 304.851562)scale(0.14 -0.14)">
      <defs>
       <path d="M 59.90625 70.609375 
L 59.90625 55.171875 
Q 53.90625 57.859375 48.1875 59.21875 
Q 42.484375 60.59375 37.40625 60.59375 
Q 30.671875 60.59375 27.4375 58.734375 
Q 24.21875 56.890625 24.21875 52.984375 
Q 24.21875 50.046875 26.390625 48.40625 
Q 28.5625 46.78125 34.28125 45.609375 
L 42.28125 44 
Q 54.4375 41.546875 59.5625 36.5625 
Q 64.703125 31.59375 64.703125 22.40625 
Q 64.703125 10.359375 57.546875 4.46875 
Q 50.390625 -1.421875 35.6875 -1.421875 
Q 28.765625 -1.421875 21.78125 -0.09375 
Q 14.796875 1.21875 7.8125 3.8125 
L 7.8125 19.671875 
Q 14.796875 15.96875 21.3125 14.078125 
Q 27.828125 12.203125 33.890625 12.203125 
Q 40.046875 12.203125 43.3125 14.25 
Q 46.578125 16.3125 46.578125 20.125 
Q 46.578125 23.53125 44.359375 25.390625 
Q 42.140625 27.25 35.5 28.71875 
L 28.21875 30.328125 
Q 17.28125 32.671875 12.21875 37.796875 
Q 7.171875 42.921875 7.171875 51.609375 
Q 7.171875 62.5 14.203125 68.359375 
Q 21.234375 74.21875 34.421875 74.21875 
Q 40.4375 74.21875 46.78125 73.3125 
Q 53.125 72.40625 59.90625 70.609375 
z
" id="DejaVuSans-Bold-83"/>
       <path d="M 45.609375 9.28125 
Q 42 4.5 37.640625 2.25 
Q 33.296875 0 27.59375 0 
Q 17.578125 0 11.03125 7.875 
Q 4.5 15.765625 4.5 27.984375 
Q 4.5 40.234375 11.03125 48.0625 
Q 17.578125 55.90625 27.59375 55.90625 
Q 33.296875 55.90625 37.640625 53.65625 
Q 42 51.421875 45.609375 46.578125 
L 45.609375 54.6875 
L 63.1875 54.6875 
L 63.1875 5.515625 
Q 63.1875 -7.671875 54.859375 -14.625 
Q 46.53125 -21.578125 30.71875 -21.578125 
Q 25.59375 -21.578125 20.796875 -20.796875 
Q 16.015625 -20.015625 11.1875 -18.40625 
L 11.1875 -4.78125 
Q 15.765625 -7.421875 20.15625 -8.71875 
Q 24.5625 -10.015625 29 -10.015625 
Q 37.59375 -10.015625 41.59375 -6.25 
Q 45.609375 -2.484375 45.609375 5.515625 
z
M 34.078125 43.3125 
Q 28.65625 43.3125 25.625 39.296875 
Q 22.609375 35.296875 22.609375 27.984375 
Q 22.609375 20.453125 25.53125 16.578125 
Q 28.46875 12.703125 34.078125 12.703125 
Q 39.546875 12.703125 42.578125 16.703125 
Q 45.609375 20.703125 45.609375 27.984375 
Q 45.609375 35.296875 42.578125 39.296875 
Q 39.546875 43.3125 34.078125 43.3125 
z
" id="DejaVuSans-Bold-103"/>
       <path id="DejaVuSans-Bold-32"/>
       <path d="M 45.609375 46.6875 
L 45.609375 75.984375 
L 63.1875 75.984375 
L 63.1875 0 
L 45.609375 0 
L 45.609375 7.90625 
Q 42 3.078125 37.640625 0.828125 
Q 33.296875 -1.421875 27.59375 -1.421875 
Q 17.484375 -1.421875 10.984375 6.609375 
Q 4.5 14.65625 4.5 27.296875 
Q 4.5 39.9375 10.984375 47.96875 
Q 17.484375 56 27.59375 56 
Q 33.25 56 37.625 53.734375 
Q 42 51.46875 45.609375 46.6875 
z
M 34.078125 11.28125 
Q 39.703125 11.28125 42.65625 15.375 
Q 45.609375 19.484375 45.609375 27.296875 
Q 45.609375 35.109375 42.65625 39.203125 
Q 39.703125 43.3125 34.078125 43.3125 
Q 28.515625 43.3125 25.5625 39.203125 
Q 22.609375 35.109375 22.609375 27.296875 
Q 22.609375 19.484375 25.5625 15.375 
Q 28.515625 11.28125 34.078125 11.28125 
z
" id="DejaVuSans-Bold-100"/>
       <path d="M 32.90625 24.609375 
Q 27.4375 24.609375 24.671875 22.75 
Q 21.921875 20.90625 21.921875 17.28125 
Q 21.921875 13.96875 24.140625 12.078125 
Q 26.375 10.203125 30.328125 10.203125 
Q 35.25 10.203125 38.625 13.734375 
Q 42 17.28125 42 22.609375 
L 42 24.609375 
z
M 59.625 31.203125 
L 59.625 0 
L 42 0 
L 42 8.109375 
Q 38.484375 3.125 34.078125 0.84375 
Q 29.6875 -1.421875 23.390625 -1.421875 
Q 14.890625 -1.421875 9.59375 3.53125 
Q 4.296875 8.5 4.296875 16.40625 
Q 4.296875 26.03125 10.90625 30.515625 
Q 17.53125 35.015625 31.6875 35.015625 
L 42 35.015625 
L 42 36.375 
Q 42 40.53125 38.71875 42.453125 
Q 35.453125 44.390625 28.515625 44.390625 
Q 22.90625 44.390625 18.0625 43.265625 
Q 13.234375 42.140625 9.078125 39.890625 
L 9.078125 53.21875 
Q 14.703125 54.59375 20.359375 55.296875 
Q 26.03125 56 31.6875 56 
Q 46.484375 56 53.046875 50.171875 
Q 59.625 44.34375 59.625 31.203125 
z
" id="DejaVuSans-Bold-97"/>
       <path d="M 1.21875 54.6875 
L 18.703125 54.6875 
L 33.40625 17.578125 
L 45.90625 54.6875 
L 63.375 54.6875 
L 40.375 -5.171875 
Q 36.921875 -14.3125 32.296875 -17.9375 
Q 27.6875 -21.578125 20.125 -21.578125 
L 10.015625 -21.578125 
L 10.015625 -10.109375 
L 15.484375 -10.109375 
Q 19.921875 -10.109375 21.9375 -8.6875 
Q 23.96875 -7.28125 25.09375 -3.609375 
L 25.59375 -2.09375 
z
" id="DejaVuSans-Bold-121"/>
      </defs>
      <use xlink:href="#DejaVuSans-Bold-83"/>
      <use x="72.021484" xlink:href="#DejaVuSans-Bold-101"/>
      <use x="139.84375" xlink:href="#DejaVuSans-Bold-110"/>
      <use x="211.035156" xlink:href="#DejaVuSans-Bold-115"/>
      <use x="270.556641" xlink:href="#DejaVuSans-Bold-105"/>
      <use x="304.833984" xlink:href="#DejaVuSans-Bold-110"/>
      <use x="376.025391" xlink:href="#DejaVuSans-Bold-103"/>
      <use x="447.607422" xlink:href="#DejaVuSans-Bold-32"/>
      <use x="482.421875" xlink:href="#DejaVuSans-Bold-77"/>
      <use x="581.933594" xlink:href="#DejaVuSans-Bold-111"/>
      <use x="650.634766" xlink:href="#DejaVuSans-Bold-100"/>
      <use x="722.216797" xlink:href="#DejaVuSans-Bold-97"/>
      <use x="789.697266" xlink:href="#DejaVuSans-Bold-108"/>
      <use x="823.974609" xlink:href="#DejaVuSans-Bold-105"/>
      <use x="858.251953" xlink:href="#DejaVuSans-Bold-116"/>
      <use x="906.054688" xlink:href="#DejaVuSans-Bold-121"/>
     </g>
    </g>
   </g>
   <g id="matplotlib.axis_2">
    <g id="ytick_1">
     <g id="line2d_11">
      <path clip-path="url(#pc93dcdb278)" d="M 40.708125 259.863228 
L 480.168125 259.863228 
" style="fill:none;stroke:#808080;stroke-dasharray:2.96,1.28;stroke-dashoffset:0;stroke-opacity:0.3;stroke-width:0.8;"/>
     </g>
     <g id="line2d_12">
      <defs>
       <path d="M 0 0 
L -4 0 
" id="mc7f0879e80" style="stroke:#000000;stroke-width:1.5;"/>
      </defs>
      <g>
       <use style="stroke:#000000;stroke-width:1.5;" x="40.708125" xlink:href="#mc7f0879e80" y="259.863228"/>
      </g>
     </g>
     <g id="text_7">
      <!-- 1 -->
      <g transform="translate(24.85875 264.422291)scale(0.12 -0.12)">
       <defs>
        <path d="M 11.71875 12.984375 
L 28.328125 12.984375 
L 28.328125 60.109375 
L 11.28125 56.59375 
L 11.28125 69.390625 
L 28.21875 72.90625 
L 46.09375 72.90625 
L 46.09375 12.984375 
L 62.703125 12.984375 
L 62.703125 0 
L 11.71875 0 
z
" id="DejaVuSans-Bold-49"/>
       </defs>
       <use xlink:href="#DejaVuSans-Bold-49"/>
      </g>
     </g>
    </g>
    <g id="ytick_2">
     <g id="line2d_13">
      <path clip-path="url(#pc93dcdb278)" d="M 40.708125 171.954057 
L 480.168125 171.954057 
" style="fill:none;stroke:#808080;stroke-dasharray:2.96,1.28;stroke-dashoffset:0;stroke-opacity:0.3;stroke-width:0.8;"/>
     </g>
     <g id="line2d_14">
      <g>
       <use style="stroke:#000000;stroke-width:1.5;" x="40.708125" xlink:href="#mc7f0879e80" y="171.954057"/>
      </g>
     </g>
     <g id="text_8">
      <!-- 2 -->
      <g transform="translate(24.85875 176.51312)scale(0.12 -0.12)">
       <defs>
        <path d="M 28.8125 13.8125 
L 60.890625 13.8125 
L 60.890625 0 
L 7.90625 0 
L 7.90625 13.8125 
L 34.515625 37.3125 
Q 38.09375 40.53125 39.796875 43.609375 
Q 41.5 46.6875 41.5 50 
Q 41.5 55.125 38.0625 58.25 
Q 34.625 61.375 28.90625 61.375 
Q 24.515625 61.375 19.28125 59.5 
Q 14.0625 57.625 8.109375 53.90625 
L 8.109375 69.921875 
Q 14.453125 72.015625 20.65625 73.109375 
Q 26.859375 74.21875 32.8125 74.21875 
Q 45.90625 74.21875 53.15625 68.453125 
Q 60.40625 62.703125 60.40625 52.390625 
Q 60.40625 46.4375 57.328125 41.28125 
Q 54.25 36.140625 44.390625 27.484375 
z
" id="DejaVuSans-Bold-50"/>
       </defs>
       <use xlink:href="#DejaVuSans-Bold-50"/>
      </g>
     </g>
    </g>
    <g id="ytick_3">
     <g id="line2d_15">
      <path clip-path="url(#pc93dcdb278)" d="M 40.708125 120.530489 
L 480.168125 120.530489 
" style="fill:none;stroke:#808080;stroke-dasharray:2.96,1.28;stroke-dashoffset:0;stroke-opacity:0.3;stroke-width:0.8;"/>
     </g>
     <g id="line2d_16">
      <g>
       <use style="stroke:#000000;stroke-width:1.5;" x="40.708125" xlink:href="#mc7f0879e80" y="120.530489"/>
      </g>
     </g>
     <g id="text_9">
      <!-- 3 -->
      <g transform="translate(24.85875 125.089551)scale(0.12 -0.12)">
       <defs>
        <path d="M 46.578125 39.3125 
Q 53.953125 37.40625 57.78125 32.6875 
Q 61.625 27.984375 61.625 20.703125 
Q 61.625 9.859375 53.3125 4.21875 
Q 45.015625 -1.421875 29.109375 -1.421875 
Q 23.484375 -1.421875 17.84375 -0.515625 
Q 12.203125 0.390625 6.6875 2.203125 
L 6.6875 16.703125 
Q 11.96875 14.0625 17.15625 12.71875 
Q 22.359375 11.375 27.390625 11.375 
Q 34.859375 11.375 38.84375 13.953125 
Q 42.828125 16.546875 42.828125 21.390625 
Q 42.828125 26.375 38.75 28.9375 
Q 34.671875 31.5 26.703125 31.5 
L 19.1875 31.5 
L 19.1875 43.609375 
L 27.09375 43.609375 
Q 34.1875 43.609375 37.640625 45.828125 
Q 41.109375 48.046875 41.109375 52.59375 
Q 41.109375 56.78125 37.734375 59.078125 
Q 34.375 61.375 28.21875 61.375 
Q 23.6875 61.375 19.046875 60.34375 
Q 14.40625 59.328125 9.8125 57.328125 
L 9.8125 71.09375 
Q 15.375 72.65625 20.84375 73.4375 
Q 26.3125 74.21875 31.59375 74.21875 
Q 45.796875 74.21875 52.84375 69.546875 
Q 59.90625 64.890625 59.90625 55.515625 
Q 59.90625 49.125 56.53125 45.046875 
Q 53.171875 40.96875 46.578125 39.3125 
z
" id="DejaVuSans-Bold-51"/>
       </defs>
       <use xlink:href="#DejaVuSans-Bold-51"/>
      </g>
     </g>
    </g>
    <g id="ytick_4">
     <g id="line2d_17">
      <path clip-path="url(#pc93dcdb278)" d="M 40.708125 84.044886 
L 480.168125 84.044886 
" style="fill:none;stroke:#808080;stroke-dasharray:2.96,1.28;stroke-dashoffset:0;stroke-opacity:0.3;stroke-width:0.8;"/>
     </g>
     <g id="line2d_18">
      <g>
       <use style="stroke:#000000;stroke-width:1.5;" x="40.708125" xlink:href="#mc7f0879e80" y="84.044886"/>
      </g>
     </g>
     <g id="text_10">
      <!-- 4 -->
      <g transform="translate(24.85875 88.603949)scale(0.12 -0.12)">
       <defs>
        <path d="M 36.8125 57.421875 
L 16.21875 26.90625 
L 36.8125 26.90625 
z
M 33.6875 72.90625 
L 54.59375 72.90625 
L 54.59375 26.90625 
L 64.984375 26.90625 
L 64.984375 13.28125 
L 54.59375 13.28125 
L 54.59375 0 
L 36.8125 0 
L 36.8125 13.28125 
L 4.5 13.28125 
L 4.5 29.390625 
z
" id="DejaVuSans-Bold-52"/>
       </defs>
       <use xlink:href="#DejaVuSans-Bold-52"/>
      </g>
     </g>
    </g>
    <g id="ytick_5">
     <g id="line2d_19">
      <path clip-path="url(#pc93dcdb278)" d="M 40.708125 55.744454 
L 480.168125 55.744454 
" style="fill:none;stroke:#808080;stroke-dasharray:2.96,1.28;stroke-dashoffset:0;stroke-opacity:0.3;stroke-width:0.8;"/>
     </g>
     <g id="line2d_20">
      <g>
       <use style="stroke:#000000;stroke-width:1.5;" x="40.708125" xlink:href="#mc7f0879e80" y="55.744454"/>
      </g>
     </g>
     <g id="text_11">
      <!-- 5 -->
      <g transform="translate(24.85875 60.303517)scale(0.12 -0.12)">
       <defs>
        <path d="M 10.59375 72.90625 
L 57.328125 72.90625 
L 57.328125 59.078125 
L 25.59375 59.078125 
L 25.59375 47.796875 
Q 27.734375 48.390625 29.90625 48.703125 
Q 32.078125 49.03125 34.421875 49.03125 
Q 47.75 49.03125 55.171875 42.359375 
Q 62.59375 35.6875 62.59375 23.78125 
Q 62.59375 11.96875 54.515625 5.265625 
Q 46.4375 -1.421875 32.078125 -1.421875 
Q 25.875 -1.421875 19.796875 -0.21875 
Q 13.71875 0.984375 7.71875 3.421875 
L 7.71875 18.21875 
Q 13.671875 14.796875 19.015625 13.078125 
Q 24.359375 11.375 29.109375 11.375 
Q 35.9375 11.375 39.859375 14.71875 
Q 43.796875 18.0625 43.796875 23.78125 
Q 43.796875 29.546875 39.859375 32.859375 
Q 35.9375 36.1875 29.109375 36.1875 
Q 25.046875 36.1875 20.453125 35.125 
Q 15.875 34.078125 10.59375 31.890625 
z
" id="DejaVuSans-Bold-53"/>
       </defs>
       <use xlink:href="#DejaVuSans-Bold-53"/>
      </g>
     </g>
    </g>
    <g id="ytick_6">
     <g id="line2d_21">
      <path clip-path="url(#pc93dcdb278)" d="M 40.708125 32.621318 
L 480.168125 32.621318 
" style="fill:none;stroke:#808080;stroke-dasharray:2.96,1.28;stroke-dashoffset:0;stroke-opacity:0.3;stroke-width:0.8;"/>
     </g>
     <g id="line2d_22">
      <g>
       <use style="stroke:#000000;stroke-width:1.5;" x="40.708125" xlink:href="#mc7f0879e80" y="32.621318"/>
      </g>
     </g>
     <g id="text_12">
      <!-- 6 -->
      <g transform="translate(24.85875 37.18038)scale(0.12 -0.12)">
       <defs>
        <path d="M 36.1875 35.984375 
Q 31.25 35.984375 28.78125 32.78125 
Q 26.3125 29.59375 26.3125 23.1875 
Q 26.3125 16.796875 28.78125 13.59375 
Q 31.25 10.40625 36.1875 10.40625 
Q 41.15625 10.40625 43.625 13.59375 
Q 46.09375 16.796875 46.09375 23.1875 
Q 46.09375 29.59375 43.625 32.78125 
Q 41.15625 35.984375 36.1875 35.984375 
z
M 59.421875 71 
L 59.421875 57.515625 
Q 54.78125 59.71875 50.671875 60.765625 
Q 46.578125 61.8125 42.671875 61.8125 
Q 34.28125 61.8125 29.59375 57.140625 
Q 24.90625 52.484375 24.125 43.3125 
Q 27.34375 45.703125 31.09375 46.890625 
Q 34.859375 48.09375 39.3125 48.09375 
Q 50.484375 48.09375 57.34375 41.546875 
Q 64.203125 35.015625 64.203125 24.421875 
Q 64.203125 12.703125 56.53125 5.640625 
Q 48.875 -1.421875 35.984375 -1.421875 
Q 21.78125 -1.421875 13.984375 8.171875 
Q 6.203125 17.78125 6.203125 35.40625 
Q 6.203125 53.46875 15.3125 63.796875 
Q 24.421875 74.125 40.28125 74.125 
Q 45.3125 74.125 50.046875 73.34375 
Q 54.78125 72.5625 59.421875 71 
z
" id="DejaVuSans-Bold-54"/>
       </defs>
       <use xlink:href="#DejaVuSans-Bold-54"/>
      </g>
     </g>
    </g>
    <g id="ytick_7">
     <g id="line2d_23">
      <path clip-path="url(#pc93dcdb278)" d="M 40.708125 13.070984 
L 480.168125 13.070984 
" style="fill:none;stroke:#808080;stroke-dasharray:2.96,1.28;stroke-dashoffset:0;stroke-opacity:0.3;stroke-width:0.8;"/>
     </g>
     <g id="line2d_24">
      <g>
       <use style="stroke:#000000;stroke-width:1.5;" x="40.708125" xlink:href="#mc7f0879e80" y="13.070984"/>
      </g>
     </g>
     <g id="text_13">
      <!-- 7 -->
      <g transform="translate(24.85875 17.630047)scale(0.12 -0.12)">
       <defs>
        <path d="M 6.6875 72.90625 
L 61.625 72.90625 
L 61.625 62.3125 
L 33.203125 0 
L 14.890625 0 
L 41.796875 59.078125 
L 6.6875 59.078125 
z
" id="DejaVuSans-Bold-55"/>
       </defs>
       <use xlink:href="#DejaVuSans-Bold-55"/>
      </g>
     </g>
    </g>
    <g id="text_14">
     <!-- Latency Reduction Ratio -->
     <g transform="translate(17.837813 235.485312)rotate(-90)scale(0.14 -0.14)">
      <defs>
       <path d="M 9.1875 72.90625 
L 27.984375 72.90625 
L 27.984375 14.203125 
L 60.984375 14.203125 
L 60.984375 0 
L 9.1875 0 
z
" id="DejaVuSans-Bold-76"/>
       <path d="M 35.890625 40.578125 
Q 41.796875 40.578125 44.359375 42.765625 
Q 46.921875 44.96875 46.921875 50 
Q 46.921875 54.984375 44.359375 57.125 
Q 41.796875 59.28125 35.890625 59.28125 
L 27.984375 59.28125 
L 27.984375 40.578125 
z
M 27.984375 27.59375 
L 27.984375 0 
L 9.1875 0 
L 9.1875 72.90625 
L 37.890625 72.90625 
Q 52.296875 72.90625 59 68.0625 
Q 65.71875 63.234375 65.71875 52.78125 
Q 65.71875 45.5625 62.21875 40.921875 
Q 58.734375 36.28125 51.703125 34.078125 
Q 55.5625 33.203125 58.609375 30.09375 
Q 61.671875 27 64.796875 20.703125 
L 75 0 
L 54.984375 0 
L 46.09375 18.109375 
Q 43.40625 23.578125 40.640625 25.578125 
Q 37.890625 27.59375 33.296875 27.59375 
z
" id="DejaVuSans-Bold-82"/>
      </defs>
      <use xlink:href="#DejaVuSans-Bold-76"/>
      <use x="63.720703" xlink:href="#DejaVuSans-Bold-97"/>
      <use x="131.201172" xlink:href="#DejaVuSans-Bold-116"/>
      <use x="179.003906" xlink:href="#DejaVuSans-Bold-101"/>
      <use x="246.826172" xlink:href="#DejaVuSans-Bold-110"/>
      <use x="318.017578" xlink:href="#DejaVuSans-Bold-99"/>
      <use x="377.294922" xlink:href="#DejaVuSans-Bold-121"/>
      <use x="442.480469" xlink:href="#DejaVuSans-Bold-32"/>
      <use x="477.294922" xlink:href="#DejaVuSans-Bold-82"/>
      <use x="554.296875" xlink:href="#DejaVuSans-Bold-101"/>
      <use x="622.119141" xlink:href="#DejaVuSans-Bold-100"/>
      <use x="693.701172" xlink:href="#DejaVuSans-Bold-117"/>
      <use x="764.892578" xlink:href="#DejaVuSans-Bold-99"/>
      <use x="824.169922" xlink:href="#DejaVuSans-Bold-116"/>
      <use x="871.972656" xlink:href="#DejaVuSans-Bold-105"/>
      <use x="906.25" xlink:href="#DejaVuSans-Bold-111"/>
      <use x="974.951172" xlink:href="#DejaVuSans-Bold-110"/>
      <use x="1046.142578" xlink:href="#DejaVuSans-Bold-32"/>
      <use x="1080.957031" xlink:href="#DejaVuSans-Bold-82"/>
      <use x="1157.958984" xlink:href="#DejaVuSans-Bold-97"/>
      <use x="1225.439453" xlink:href="#DejaVuSans-Bold-116"/>
      <use x="1273.242188" xlink:href="#DejaVuSans-Bold-105"/>
      <use x="1307.519531" xlink:href="#DejaVuSans-Bold-111"/>
     </g>
    </g>
   </g>
   <g id="line2d_25">
    <path clip-path="url(#pc93dcdb278)" d="M 84.654125 211.001891 
L 84.654125 230.65292 
" style="fill:none;stroke:#000000;stroke-linecap:square;"/>
   </g>
   <g id="line2d_26">
    <path clip-path="url(#pc93dcdb278)" d="M 84.654125 139.658771 
L 84.654125 124.567963 
" style="fill:none;stroke:#000000;stroke-linecap:square;"/>
   </g>
   <g id="line2d_27">
    <path clip-path="url(#pc93dcdb278)" d="M 75.864925 230.65292 
L 93.443325 230.65292 
" style="fill:none;stroke:#000000;stroke-linecap:square;"/>
   </g>
   <g id="line2d_28">
    <path clip-path="url(#pc93dcdb278)" d="M 75.864925 124.567963 
L 93.443325 124.567963 
" style="fill:none;stroke:#000000;stroke-linecap:square;"/>
   </g>
   <g id="line2d_29">
    <defs>
     <path d="M 0 3 
C 0.795609 3 1.55874 2.683901 2.12132 2.12132 
C 2.683901 1.55874 3 0.795609 3 0 
C 3 -0.795609 2.683901 -1.55874 2.12132 -2.12132 
C 1.55874 -2.683901 0.795609 -3 0 -3 
C -0.795609 -3 -1.55874 -2.683901 -2.12132 -2.12132 
C -2.683901 -1.55874 -3 -0.795609 -3 0 
C -3 0.795609 -2.683901 1.55874 -2.12132 2.12132 
C -1.55874 2.683901 -0.795609 3 0 3 
z
" id="m06804def67" style="stroke:#000000;"/>
    </defs>
    <g clip-path="url(#pc93dcdb278)">
     <use style="fill-opacity:0;stroke:#000000;" x="84.654125" xlink:href="#m06804def67" y="49.677431"/>
    </g>
   </g>
   <g id="line2d_30">
    <path clip-path="url(#pc93dcdb278)" d="M 172.546125 183.584544 
L 172.546125 238.014737 
" style="fill:none;stroke:#000000;stroke-linecap:square;"/>
   </g>
   <g id="line2d_31">
    <path clip-path="url(#pc93dcdb278)" d="M 172.546125 95.034092 
L 172.546125 35.550754 
" style="fill:none;stroke:#000000;stroke-linecap:square;"/>
   </g>
   <g id="line2d_32">
    <path clip-path="url(#pc93dcdb278)" d="M 163.756925 238.014737 
L 181.335325 238.014737 
" style="fill:none;stroke:#000000;stroke-linecap:square;"/>
   </g>
   <g id="line2d_33">
    <path clip-path="url(#pc93dcdb278)" d="M 163.756925 35.550754 
L 181.335325 35.550754 
" style="fill:none;stroke:#000000;stroke-linecap:square;"/>
   </g>
   <g id="line2d_34"/>
   <g id="line2d_35">
    <path clip-path="url(#pc93dcdb278)" d="M 260.438125 235.661386 
L 260.438125 259.104545 
" style="fill:none;stroke:#000000;stroke-linecap:square;"/>
   </g>
   <g id="line2d_36">
    <path clip-path="url(#pc93dcdb278)" d="M 260.438125 168.420894 
L 260.438125 121.677091 
" style="fill:none;stroke:#000000;stroke-linecap:square;"/>
   </g>
   <g id="line2d_37">
    <path clip-path="url(#pc93dcdb278)" d="M 251.648925 259.104545 
L 269.227325 259.104545 
" style="fill:none;stroke:#000000;stroke-linecap:square;"/>
   </g>
   <g id="line2d_38">
    <path clip-path="url(#pc93dcdb278)" d="M 251.648925 121.677091 
L 269.227325 121.677091 
" style="fill:none;stroke:#000000;stroke-linecap:square;"/>
   </g>
   <g id="line2d_39"/>
   <g id="line2d_40">
    <path clip-path="url(#pc93dcdb278)" d="M 348.330125 207.954423 
L 348.330125 210.743326 
" style="fill:none;stroke:#000000;stroke-linecap:square;"/>
   </g>
   <g id="line2d_41">
    <path clip-path="url(#pc93dcdb278)" d="M 348.330125 143.92024 
L 348.330125 115.069421 
" style="fill:none;stroke:#000000;stroke-linecap:square;"/>
   </g>
   <g id="line2d_42">
    <path clip-path="url(#pc93dcdb278)" d="M 339.540925 210.743326 
L 357.119325 210.743326 
" style="fill:none;stroke:#000000;stroke-linecap:square;"/>
   </g>
   <g id="line2d_43">
    <path clip-path="url(#pc93dcdb278)" d="M 339.540925 115.069421 
L 357.119325 115.069421 
" style="fill:none;stroke:#000000;stroke-linecap:square;"/>
   </g>
   <g id="line2d_44">
    <g clip-path="url(#pc93dcdb278)">
     <use style="fill-opacity:0;stroke:#000000;" x="348.330125" xlink:href="#m06804def67" y="31.087578"/>
     <use style="fill-opacity:0;stroke:#000000;" x="348.330125" xlink:href="#m06804def67" y="63.753881"/>
    </g>
   </g>
   <g id="line2d_45">
    <path clip-path="url(#pc93dcdb278)" d="M 436.222125 191.896042 
L 436.222125 225.037176 
" style="fill:none;stroke:#000000;stroke-linecap:square;"/>
   </g>
   <g id="line2d_46">
    <path clip-path="url(#pc93dcdb278)" d="M 436.222125 73.523198 
L 436.222125 19.195455 
" style="fill:none;stroke:#000000;stroke-linecap:square;"/>
   </g>
   <g id="line2d_47">
    <path clip-path="url(#pc93dcdb278)" d="M 427.432925 225.037176 
L 445.011325 225.037176 
" style="fill:none;stroke:#000000;stroke-linecap:square;"/>
   </g>
   <g id="line2d_48">
    <path clip-path="url(#pc93dcdb278)" d="M 427.432925 19.195455 
L 445.011325 19.195455 
" style="fill:none;stroke:#000000;stroke-linecap:square;"/>
   </g>
   <g id="line2d_49"/>
   <g id="patch_3">
    <path clip-path="url(#pc93dcdb278)" d="M 67.075725 211.001891 
L 102.232525 211.001891 
L 102.232525 139.658771 
L 67.075725 139.658771 
L 67.075725 211.001891 
z
" style="fill:#cae5f8;opacity:0.6;stroke:#000000;stroke-linejoin:miter;"/>
   </g>
   <g id="patch_4">
    <path clip-path="url(#pc93dcdb278)" d="M 154.967725 183.584544 
L 190.124525 183.584544 
L 190.124525 95.034092 
L 154.967725 95.034092 
L 154.967725 183.584544 
z
" style="fill:#9dcbed;opacity:0.6;stroke:#000000;stroke-linejoin:miter;"/>
   </g>
   <g id="patch_5">
    <path clip-path="url(#pc93dcdb278)" d="M 242.859725 235.661386 
L 278.016525 235.661386 
L 278.016525 168.420894 
L 242.859725 168.420894 
L 242.859725 235.661386 
z
" style="fill:#faeff5;opacity:0.6;stroke:#000000;stroke-linejoin:miter;"/>
   </g>
   <g id="patch_6">
    <path clip-path="url(#pc93dcdb278)" d="M 330.751725 207.954423 
L 365.908525 207.954423 
L 365.908525 143.92024 
L 330.751725 143.92024 
L 330.751725 207.954423 
z
" style="fill:#f2c5da;opacity:0.6;stroke:#000000;stroke-linejoin:miter;"/>
   </g>
   <g id="patch_7">
    <path clip-path="url(#pc93dcdb278)" d="M 418.643725 191.896042 
L 453.800525 191.896042 
L 453.800525 73.523198 
L 418.643725 73.523198 
L 418.643725 191.896042 
z
" style="fill:#e286af;opacity:0.6;stroke:#000000;stroke-linejoin:miter;"/>
   </g>
   <g id="line2d_50">
    <path clip-path="url(#pc93dcdb278)" d="M 67.075725 177.230474 
L 102.232525 177.230474 
" style="fill:none;stroke:#ff7f0e;stroke-linecap:square;"/>
   </g>
   <g id="line2d_51">
    <path clip-path="url(#pc93dcdb278)" d="M 154.967725 152.857485 
L 190.124525 152.857485 
" style="fill:none;stroke:#ff7f0e;stroke-linecap:square;"/>
   </g>
   <g id="line2d_52">
    <path clip-path="url(#pc93dcdb278)" d="M 242.859725 221.052782 
L 278.016525 221.052782 
" style="fill:none;stroke:#ff7f0e;stroke-linecap:square;"/>
   </g>
   <g id="line2d_53">
    <path clip-path="url(#pc93dcdb278)" d="M 330.751725 172.685412 
L 365.908525 172.685412 
" style="fill:none;stroke:#ff7f0e;stroke-linecap:square;"/>
   </g>
   <g id="line2d_54">
    <path clip-path="url(#pc93dcdb278)" d="M 418.643725 139.364169 
L 453.800525 139.364169 
" style="fill:none;stroke:#ff7f0e;stroke-linecap:square;"/>
   </g>
   <g id="patch_8">
    <path d="M 40.708125 271.1 
L 40.708125 7.2 
" style="fill:none;stroke:#000000;stroke-linecap:square;stroke-linejoin:miter;stroke-width:1.5;"/>
   </g>
   <g id="patch_9">
    <path d="M 40.708125 271.1 
L 480.168125 271.1 
" style="fill:none;stroke:#000000;stroke-linecap:square;stroke-linejoin:miter;stroke-width:1.5;"/>
   </g>
  </g>
 </g>
 <defs>
  <clipPath id="pc93dcdb278">
   <rect height="263.9" width="439.46" x="40.708125" y="7.2"/>
  </clipPath>
 </defs>
</svg>
