<?xml version="1.0" encoding="utf-8" standalone="no"?>
<!DOCTYPE svg PUBLIC "-//W3C//DTD SVG 1.1//EN"
  "http://www.w3.org/Graphics/SVG/1.1/DTD/svg11.dtd">
<!-- Created with matplotlib (https://matplotlib.org/) -->
<svg height="423.074961pt" version="1.1" viewBox="0 0 712.120625 423.074961" width="712.120625pt" xmlns="http://www.w3.org/2000/svg" xmlns:xlink="http://www.w3.org/1999/xlink">
 <metadata>
  <rdf:RDF xmlns:cc="http://creativecommons.org/ns#" xmlns:dc="http://purl.org/dc/elements/1.1/" xmlns:rdf="http://www.w3.org/1999/02/22-rdf-syntax-ns#">
   <cc:Work>
    <dc:type rdf:resource="http://purl.org/dc/dcmitype/StillImage"/>
    <dc:date>2026-03-19T12:59:21.656722</dc:date>
    <dc:format>image/svg+xml</dc:format>
    <dc:creator>
     <cc:Agent>
      <dc:title>Matplotlib v3.3.2, https://matplotlib.org/</dc:title>
     </cc:Agent>
    </dc:creator>
   </cc:Work>
  </rdf:RDF>
 </metadata>
 <defs>
  <style type="text/css">*{stroke-linecap:butt;stroke-linejoin:round;}</style>
 </defs>
 <g id="figure_1">
  <g id="patch_1">
   <path d="M 0 423.074961 
L 712.120625 423.074961 
L 712.120625 0 
L 0 0 
z
" style="fill:none;"/>
  </g>
  <g id="axes_1">
   <g id="patch_2">
    <path d="M 128.270625 379.102461 
L 704.920625 379.102461 
L 704.920625 36.725661 
L 128.270625 36.725661 
z
" style="fill:#ffffff;"/>
   </g>
   <g id="matplotlib.axis_1">
    <g id="xtick_1">
     <g id="line2d_1">
      <path clip-path="url(#p9fd4356299)" d="M 128.270625 379.102461 
L 128.270625 36.725661 
" style="fill:none;stroke:#808080;stroke-dasharray:2.96,1.28;stroke-dashoffset:0;stroke-opacity:0.3;stroke-width:0.8;"/>
     </g>
     <g id="line2d_2">
      <defs>
       <path d="M 0 0 
L 0 4 
" id="m3db18dacc2" style="stroke:#000000;stroke-width:1.5;"/>
      </defs>
      <g>
       <use style="stroke:#000000;stroke-width:1.5;" x="128.270625" xlink:href="#m3db18dacc2" y="379.102461"/>
      </g>
     </g>
     <g id="text_1">
      <!-- 0 -->
      <g transform="translate(124.095937 395.720586)scale(0.12 -0.12)">
       <defs>
        <path d="M 46 36.53125 
Q 46 50.203125 43.4375 55.78125 
Q 40.875 61.375 34.8125 61.375 
Q 28.765625 61.375 26.171875 55.78125 
Q 23.578125 50.203125 23.578125 36.53125 
Q 23.578125 22.703125 26.171875 17.03125 
Q 28.765625 11.375 34.8125 11.375 
Q 40.828125 11.375 43.40625 17.03125 
Q 46 22.703125 46 36.53125 
z
M 64.796875 36.375 
Q 64.796875 18.265625 56.984375 8.421875 
Q 49.171875 -1.421875 34.8125 -1.421875 
Q 20.40625 -1.421875 12.59375 8.421875 
Q 4.78125 18.265625 4.78125 36.375 
Q 4.78125 54.546875 12.59375 64.375 
Q 20.40625 74.21875 34.8125 74.21875 
Q 49.171875 74.21875 56.984375 64.375 
Q 64.796875 54.546875 64.796875 36.375 
z
" id="DejaVuSans-Bold-48"/>
       </defs>
       <use xlink:href="#DejaVuSans-Bold-48"/>
      </g>
     </g>
    </g>
    <g id="xtick_2">
     <g id="line2d_3">
      <path clip-path="url(#p9fd4356299)" d="M 198.170587 379.102461 
L 198.170587 36.725661 
" style="fill:none;stroke:#808080;stroke-dasharray:2.96,1.28;stroke-dashoffset:0;stroke-opacity:0.3;stroke-width:0.8;"/>
     </g>
     <g id="line2d_4">
      <g>
       <use style="stroke:#000000;stroke-width:1.5;" x="198.170587" xlink:href="#m3db18dacc2" y="379.102461"/>
      </g>
     </g>
     <g id="text_2">
      <!-- 50 -->
      <g transform="translate(189.821212 395.720586)scale(0.12 -0.12)">
       <defs>
        <path d="M 10.59375 72.90625 
L 57.328125 72.90625 
L 57.328125 59.078125 
L 25.59375 59.078125 
L 25.59375 47.796875 
Q 27.734375 48.390625 29.90625 48.703125 
Q 32.078125 49.03125 34.421875 49.03125 
Q 47.75 49.03125 55.171875 42.359375 
Q 62.59375 35.6875 62.59375 23.78125 
Q 62.59375 11.96875 54.515625 5.265625 
Q 46.4375 -1.421875 32.078125 -1.421875 
Q 25.875 -1.421875 19.796875 -0.21875 
Q 13.71875 0.984375 7.71875 3.421875 
L 7.71875 18.21875 
Q 13.671875 14.796875 19.015625 13.078125 
Q 24.359375 11.375 29.109375 11.375 
Q 35.9375 11.375 39.859375 14.71875 
Q 43.796875 18.0625 43.796875 23.78125 
Q 43.796875 29.546875 39.859375 32.859375 
Q 35.9375 36.1875 29.109375 36.1875 
Q 25.046875 36.1875 20.453125 35.125 
Q 15.875 34.078125 10.59375 31.890625 
z
" id="DejaVuSans-Bold-53"/>
       </defs>
       <use xlink:href="#DejaVuSans-Bold-53"/>
       <use x="69.580078" xlink:href="#DejaVuSans-Bold-48"/>
      </g>
     </g>
    </g>
    <g id="xtick_3">
     <g id="line2d_5">
      <path clip-path="url(#p9fd4356299)" d="M 268.070549 379.102461 
L 268.070549 36.725661 
" style="fill:none;stroke:#808080;stroke-dasharray:2.96,1.28;stroke-dashoffset:0;stroke-opacity:0.3;stroke-width:0.8;"/>
     </g>
     <g id="line2d_6">
      <g>
       <use style="stroke:#000000;stroke-width:1.5;" x="268.070549" xlink:href="#m3db18dacc2" y="379.102461"/>
      </g>
     </g>
     <g id="text_3">
      <!-- 100 -->
      <g transform="translate(255.546486 395.720586)scale(0.12 -0.12)">
       <defs>
        <path d="M 11.71875 12.984375 
L 28.328125 12.984375 
L 28.328125 60.109375 
L 11.28125 56.59375 
L 11.28125 69.390625 
L 28.21875 72.90625 
L 46.09375 72.90625 
L 46.09375 12.984375 
L 62.703125 12.984375 
L 62.703125 0 
L 11.71875 0 
z
" id="DejaVuSans-Bold-49"/>
       </defs>
       <use xlink:href="#DejaVuSans-Bold-49"/>
       <use x="69.580078" xlink:href="#DejaVuSans-Bold-48"/>
       <use x="139.160156" xlink:href="#DejaVuSans-Bold-48"/>
      </g>
     </g>
    </g>
    <g id="xtick_4">
     <g id="line2d_7">
      <path clip-path="url(#p9fd4356299)" d="M 337.970511 379.102461 
L 337.970511 36.725661 
" style="fill:none;stroke:#808080;stroke-dasharray:2.96,1.28;stroke-dashoffset:0;stroke-opacity:0.3;stroke-width:0.8;"/>
     </g>
     <g id="line2d_8">
      <g>
       <use style="stroke:#000000;stroke-width:1.5;" x="337.970511" xlink:href="#m3db18dacc2" y="379.102461"/>
      </g>
     </g>
     <g id="text_4">
      <!-- 150 -->
      <g transform="translate(325.446448 395.720586)scale(0.12 -0.12)">
       <use xlink:href="#DejaVuSans-Bold-49"/>
       <use x="69.580078" xlink:href="#DejaVuSans-Bold-53"/>
       <use x="139.160156" xlink:href="#DejaVuSans-Bold-48"/>
      </g>
     </g>
    </g>
    <g id="xtick_5">
     <g id="line2d_9">
      <path clip-path="url(#p9fd4356299)" d="M 407.870472 379.102461 
L 407.870472 36.725661 
" style="fill:none;stroke:#808080;stroke-dasharray:2.96,1.28;stroke-dashoffset:0;stroke-opacity:0.3;stroke-width:0.8;"/>
     </g>
     <g id="line2d_10">
      <g>
       <use style="stroke:#000000;stroke-width:1.5;" x="407.870472" xlink:href="#m3db18dacc2" y="379.102461"/>
      </g>
     </g>
     <g id="text_5">
      <!-- 200 -->
      <g transform="translate(395.34641 395.720586)scale(0.12 -0.12)">
       <defs>
        <path d="M 28.8125 13.8125 
L 60.890625 13.8125 
L 60.890625 0 
L 7.90625 0 
L 7.90625 13.8125 
L 34.515625 37.3125 
Q 38.09375 40.53125 39.796875 43.609375 
Q 41.5 46.6875 41.5 50 
Q 41.5 55.125 38.0625 58.25 
Q 34.625 61.375 28.90625 61.375 
Q 24.515625 61.375 19.28125 59.5 
Q 14.0625 57.625 8.109375 53.90625 
L 8.109375 69.921875 
Q 14.453125 72.015625 20.65625 73.109375 
Q 26.859375 74.21875 32.8125 74.21875 
Q 45.90625 74.21875 53.15625 68.453125 
Q 60.40625 62.703125 60.40625 52.390625 
Q 60.40625 46.4375 57.328125 41.28125 
Q 54.25 36.140625 44.390625 27.484375 
z
" id="DejaVuSans-Bold-50"/>
       </defs>
       <use xlink:href="#DejaVuSans-Bold-50"/>
       <use x="69.580078" xlink:href="#DejaVuSans-Bold-48"/>
       <use x="139.160156" xlink:href="#DejaVuSans-Bold-48"/>
      </g>
     </g>
    </g>
    <g id="xtick_6">
     <g id="line2d_11">
      <path clip-path="url(#p9fd4356299)" d="M 477.770434 379.102461 
L 477.770434 36.725661 
" style="fill:none;stroke:#808080;stroke-dasharray:2.96,1.28;stroke-dashoffset:0;stroke-opacity:0.3;stroke-width:0.8;"/>
     </g>
     <g id="line2d_12">
      <g>
       <use style="stroke:#000000;stroke-width:1.5;" x="477.770434" xlink:href="#m3db18dacc2" y="379.102461"/>
      </g>
     </g>
     <g id="text_6">
      <!-- 250 -->
      <g transform="translate(465.246372 395.720586)scale(0.12 -0.12)">
       <use xlink:href="#DejaVuSans-Bold-50"/>
       <use x="69.580078" xlink:href="#DejaVuSans-Bold-53"/>
       <use x="139.160156" xlink:href="#DejaVuSans-Bold-48"/>
      </g>
     </g>
    </g>
    <g id="xtick_7">
     <g id="line2d_13">
      <path clip-path="url(#p9fd4356299)" d="M 547.670396 379.102461 
L 547.670396 36.725661 
" style="fill:none;stroke:#808080;stroke-dasharray:2.96,1.28;stroke-dashoffset:0;stroke-opacity:0.3;stroke-width:0.8;"/>
     </g>
     <g id="line2d_14">
      <g>
       <use style="stroke:#000000;stroke-width:1.5;" x="547.670396" xlink:href="#m3db18dacc2" y="379.102461"/>
      </g>
     </g>
     <g id="text_7">
      <!-- 300 -->
      <g transform="translate(535.146334 395.720586)scale(0.12 -0.12)">
       <defs>
        <path d="M 46.578125 39.3125 
Q 53.953125 37.40625 57.78125 32.6875 
Q 61.625 27.984375 61.625 20.703125 
Q 61.625 9.859375 53.3125 4.21875 
Q 45.015625 -1.421875 29.109375 -1.421875 
Q 23.484375 -1.421875 17.84375 -0.515625 
Q 12.203125 0.390625 6.6875 2.203125 
L 6.6875 16.703125 
Q 11.96875 14.0625 17.15625 12.71875 
Q 22.359375 11.375 27.390625 11.375 
Q 34.859375 11.375 38.84375 13.953125 
Q 42.828125 16.546875 42.828125 21.390625 
Q 42.828125 26.375 38.75 28.9375 
Q 34.671875 31.5 26.703125 31.5 
L 19.1875 31.5 
L 19.1875 43.609375 
L 27.09375 43.609375 
Q 34.1875 43.609375 37.640625 45.828125 
Q 41.109375 48.046875 41.109375 52.59375 
Q 41.109375 56.78125 37.734375 59.078125 
Q 34.375 61.375 28.21875 61.375 
Q 23.6875 61.375 19.046875 60.34375 
Q 14.40625 59.328125 9.8125 57.328125 
L 9.8125 71.09375 
Q 15.375 72.65625 20.84375 73.4375 
Q 26.3125 74.21875 31.59375 74.21875 
Q 45.796875 74.21875 52.84375 69.546875 
Q 59.90625 64.890625 59.90625 55.515625 
Q 59.90625 49.125 56.53125 45.046875 
Q 53.171875 40.96875 46.578125 39.3125 
z
" id="DejaVuSans-Bold-51"/>
       </defs>
       <use xlink:href="#DejaVuSans-Bold-51"/>
       <use x="69.580078" xlink:href="#DejaVuSans-Bold-48"/>
       <use x="139.160156" xlink:href="#DejaVuSans-Bold-48"/>
      </g>
     </g>
    </g>
    <g id="xtick_8">
     <g id="line2d_15">
      <path clip-path="url(#p9fd4356299)" d="M 617.570358 379.102461 
L 617.570358 36.725661 
" style="fill:none;stroke:#808080;stroke-dasharray:2.96,1.28;stroke-dashoffset:0;stroke-opacity:0.3;stroke-width:0.8;"/>
     </g>
     <g id="line2d_16">
      <g>
       <use style="stroke:#000000;stroke-width:1.5;" x="617.570358" xlink:href="#m3db18dacc2" y="379.102461"/>
      </g>
     </g>
     <g id="text_8">
      <!-- 350 -->
      <g transform="translate(605.046295 395.720586)scale(0.12 -0.12)">
       <use xlink:href="#DejaVuSans-Bold-51"/>
       <use x="69.580078" xlink:href="#DejaVuSans-Bold-53"/>
       <use x="139.160156" xlink:href="#DejaVuSans-Bold-48"/>
      </g>
     </g>
    </g>
    <g id="xtick_9">
     <g id="line2d_17">
      <path clip-path="url(#p9fd4356299)" d="M 687.47032 379.102461 
L 687.47032 36.725661 
" style="fill:none;stroke:#808080;stroke-dasharray:2.96,1.28;stroke-dashoffset:0;stroke-opacity:0.3;stroke-width:0.8;"/>
     </g>
     <g id="line2d_18">
      <g>
       <use style="stroke:#000000;stroke-width:1.5;" x="687.47032" xlink:href="#m3db18dacc2" y="379.102461"/>
      </g>
     </g>
     <g id="text_9">
      <!-- 400 -->
      <g transform="translate(674.946257 395.720586)scale(0.12 -0.12)">
       <defs>
        <path d="M 36.8125 57.421875 
L 16.21875 26.90625 
L 36.8125 26.90625 
z
M 33.6875 72.90625 
L 54.59375 72.90625 
L 54.59375 26.90625 
L 64.984375 26.90625 
L 64.984375 13.28125 
L 54.59375 13.28125 
L 54.59375 0 
L 36.8125 0 
L 36.8125 13.28125 
L 4.5 13.28125 
L 4.5 29.390625 
z
" id="DejaVuSans-Bold-52"/>
       </defs>
       <use xlink:href="#DejaVuSans-Bold-52"/>
       <use x="69.580078" xlink:href="#DejaVuSans-Bold-48"/>
       <use x="139.160156" xlink:href="#DejaVuSans-Bold-48"/>
      </g>
     </g>
    </g>
    <g id="text_10">
     <!-- Peak Memory (MB) -->
     <g transform="translate(341.931875 412.854023)scale(0.14 -0.14)">
      <defs>
       <path d="M 9.1875 72.90625 
L 40.375 72.90625 
Q 54.296875 72.90625 61.734375 66.71875 
Q 69.1875 60.546875 69.1875 49.125 
Q 69.1875 37.640625 61.734375 31.46875 
Q 54.296875 25.296875 40.375 25.296875 
L 27.984375 25.296875 
L 27.984375 0 
L 9.1875 0 
z
M 27.984375 59.28125 
L 27.984375 38.921875 
L 38.375 38.921875 
Q 43.84375 38.921875 46.828125 41.578125 
Q 49.8125 44.234375 49.8125 49.125 
Q 49.8125 54 46.828125 56.640625 
Q 43.84375 59.28125 38.375 59.28125 
z
" id="DejaVuSans-Bold-80"/>
       <path d="M 62.984375 27.484375 
L 62.984375 22.515625 
L 22.125 22.515625 
Q 22.75 16.359375 26.5625 13.28125 
Q 30.375 10.203125 37.203125 10.203125 
Q 42.71875 10.203125 48.5 11.84375 
Q 54.296875 13.484375 60.40625 16.796875 
L 60.40625 3.328125 
Q 54.203125 0.984375 48 -0.21875 
Q 41.796875 -1.421875 35.59375 -1.421875 
Q 20.75 -1.421875 12.515625 6.125 
Q 4.296875 13.671875 4.296875 27.296875 
Q 4.296875 40.671875 12.375 48.328125 
Q 20.453125 56 34.625 56 
Q 47.515625 56 55.25 48.234375 
Q 62.984375 40.484375 62.984375 27.484375 
z
M 45.015625 33.296875 
Q 45.015625 38.28125 42.109375 41.328125 
Q 39.203125 44.390625 34.515625 44.390625 
Q 29.4375 44.390625 26.265625 41.53125 
Q 23.09375 38.671875 22.3125 33.296875 
z
" id="DejaVuSans-Bold-101"/>
       <path d="M 32.90625 24.609375 
Q 27.4375 24.609375 24.671875 22.75 
Q 21.921875 20.90625 21.921875 17.28125 
Q 21.921875 13.96875 24.140625 12.078125 
Q 26.375 10.203125 30.328125 10.203125 
Q 35.25 10.203125 38.625 13.734375 
Q 42 17.28125 42 22.609375 
L 42 24.609375 
z
M 59.625 31.203125 
L 59.625 0 
L 42 0 
L 42 8.109375 
Q 38.484375 3.125 34.078125 0.84375 
Q 29.6875 -1.421875 23.390625 -1.421875 
Q 14.890625 -1.421875 9.59375 3.53125 
Q 4.296875 8.5 4.296875 16.40625 
Q 4.296875 26.03125 10.90625 30.515625 
Q 17.53125 35.015625 31.6875 35.015625 
L 42 35.015625 
L 42 36.375 
Q 42 40.53125 38.71875 42.453125 
Q 35.453125 44.390625 28.515625 44.390625 
Q 22.90625 44.390625 18.0625 43.265625 
Q 13.234375 42.140625 9.078125 39.890625 
L 9.078125 53.21875 
Q 14.703125 54.59375 20.359375 55.296875 
Q 26.03125 56 31.6875 56 
Q 46.484375 56 53.046875 50.171875 
Q 59.625 44.34375 59.625 31.203125 
z
" id="DejaVuSans-Bold-97"/>
       <path d="M 8.40625 75.984375 
L 25.875 75.984375 
L 25.875 34.625 
L 46 54.6875 
L 66.3125 54.6875 
L 39.59375 29.59375 
L 68.40625 0 
L 47.21875 0 
L 25.875 22.796875 
L 25.875 0 
L 8.40625 0 
z
" id="DejaVuSans-Bold-107"/>
       <path id="DejaVuSans-Bold-32"/>
       <path d="M 9.1875 72.90625 
L 33.109375 72.90625 
L 49.703125 33.890625 
L 66.40625 72.90625 
L 90.28125 72.90625 
L 90.28125 0 
L 72.515625 0 
L 72.515625 53.328125 
L 55.71875 14.015625 
L 43.796875 14.015625 
L 27 53.328125 
L 27 0 
L 9.1875 0 
z
" id="DejaVuSans-Bold-77"/>
       <path d="M 59.078125 45.609375 
Q 62.40625 50.6875 66.96875 53.34375 
Q 71.53125 56 77 56 
Q 86.421875 56 91.359375 50.1875 
Q 96.296875 44.390625 96.296875 33.296875 
L 96.296875 0 
L 78.71875 0 
L 78.71875 28.515625 
Q 78.765625 29.15625 78.78125 29.828125 
Q 78.8125 30.515625 78.8125 31.78125 
Q 78.8125 37.59375 77.09375 40.203125 
Q 75.390625 42.828125 71.578125 42.828125 
Q 66.609375 42.828125 63.890625 38.71875 
Q 61.1875 34.625 61.078125 26.859375 
L 61.078125 0 
L 43.5 0 
L 43.5 28.515625 
Q 43.5 37.59375 41.9375 40.203125 
Q 40.375 42.828125 36.375 42.828125 
Q 31.34375 42.828125 28.609375 38.703125 
Q 25.875 34.578125 25.875 26.90625 
L 25.875 0 
L 8.296875 0 
L 8.296875 54.6875 
L 25.875 54.6875 
L 25.875 46.6875 
Q 29.109375 51.3125 33.28125 53.65625 
Q 37.453125 56 42.484375 56 
Q 48.140625 56 52.484375 53.265625 
Q 56.84375 50.53125 59.078125 45.609375 
z
" id="DejaVuSans-Bold-109"/>
       <path d="M 34.421875 43.5 
Q 28.609375 43.5 25.5625 39.328125 
Q 22.515625 35.15625 22.515625 27.296875 
Q 22.515625 19.4375 25.5625 15.25 
Q 28.609375 11.078125 34.421875 11.078125 
Q 40.140625 11.078125 43.15625 15.25 
Q 46.1875 19.4375 46.1875 27.296875 
Q 46.1875 35.15625 43.15625 39.328125 
Q 40.140625 43.5 34.421875 43.5 
z
M 34.421875 56 
Q 48.53125 56 56.46875 48.375 
Q 64.40625 40.765625 64.40625 27.296875 
Q 64.40625 13.8125 56.46875 6.1875 
Q 48.53125 -1.421875 34.421875 -1.421875 
Q 20.265625 -1.421875 12.28125 6.1875 
Q 4.296875 13.8125 4.296875 27.296875 
Q 4.296875 40.765625 12.28125 48.375 
Q 20.265625 56 34.421875 56 
z
" id="DejaVuSans-Bold-111"/>
       <path d="M 49.03125 39.796875 
Q 46.734375 40.875 44.453125 41.375 
Q 42.1875 41.890625 39.890625 41.890625 
Q 33.15625 41.890625 29.515625 37.5625 
Q 25.875 33.25 25.875 25.203125 
L 25.875 0 
L 8.40625 0 
L 8.40625 54.6875 
L 25.875 54.6875 
L 25.875 45.703125 
Q 29.25 51.078125 33.609375 53.53125 
Q 37.984375 56 44.09375 56 
Q 44.96875 56 45.984375 55.921875 
Q 47.015625 55.859375 48.96875 55.609375 
z
" id="DejaVuSans-Bold-114"/>
       <path d="M 1.21875 54.6875 
L 18.703125 54.6875 
L 33.40625 17.578125 
L 45.90625 54.6875 
L 63.375 54.6875 
L 40.375 -5.171875 
Q 36.921875 -14.3125 32.296875 -17.9375 
Q 27.6875 -21.578125 20.125 -21.578125 
L 10.015625 -21.578125 
L 10.015625 -10.109375 
L 15.484375 -10.109375 
Q 19.921875 -10.109375 21.9375 -8.6875 
Q 23.96875 -7.28125 25.09375 -3.609375 
L 25.59375 -2.09375 
z
" id="DejaVuSans-Bold-121"/>
       <path d="M 37.703125 -13.1875 
L 23.1875 -13.1875 
Q 15.71875 -1.125 12.15625 9.734375 
Q 8.59375 20.609375 8.59375 31.296875 
Q 8.59375 42 12.171875 52.953125 
Q 15.765625 63.921875 23.1875 75.875 
L 37.703125 75.875 
Q 31.453125 64.3125 28.328125 53.25 
Q 25.203125 42.1875 25.203125 31.390625 
Q 25.203125 20.609375 28.296875 9.515625 
Q 31.390625 -1.5625 37.703125 -13.1875 
z
" id="DejaVuSans-Bold-40"/>
       <path d="M 38.375 44.671875 
Q 42.828125 44.671875 45.109375 46.625 
Q 47.40625 48.578125 47.40625 52.390625 
Q 47.40625 56.15625 45.109375 58.125 
Q 42.828125 60.109375 38.375 60.109375 
L 27.984375 60.109375 
L 27.984375 44.671875 
z
M 39.015625 12.796875 
Q 44.671875 12.796875 47.53125 15.1875 
Q 50.390625 17.578125 50.390625 22.40625 
Q 50.390625 27.15625 47.5625 29.515625 
Q 44.734375 31.890625 39.015625 31.890625 
L 27.984375 31.890625 
L 27.984375 12.796875 
z
M 56.5 39.015625 
Q 62.546875 37.25 65.859375 32.515625 
Q 69.1875 27.78125 69.1875 20.90625 
Q 69.1875 10.359375 62.0625 5.171875 
Q 54.9375 0 40.375 0 
L 9.1875 0 
L 9.1875 72.90625 
L 37.40625 72.90625 
Q 52.59375 72.90625 59.40625 68.3125 
Q 66.21875 63.71875 66.21875 53.609375 
Q 66.21875 48.296875 63.71875 44.5625 
Q 61.234375 40.828125 56.5 39.015625 
z
" id="DejaVuSans-Bold-66"/>
       <path d="M 8.015625 -13.1875 
Q 14.265625 -1.5625 17.390625 9.515625 
Q 20.515625 20.609375 20.515625 31.390625 
Q 20.515625 42.1875 17.390625 53.25 
Q 14.265625 64.3125 8.015625 75.875 
L 22.515625 75.875 
Q 29.9375 63.921875 33.515625 52.953125 
Q 37.109375 42 37.109375 31.296875 
Q 37.109375 20.609375 33.546875 9.734375 
Q 29.984375 -1.125 22.515625 -13.1875 
z
" id="DejaVuSans-Bold-41"/>
      </defs>
      <use xlink:href="#DejaVuSans-Bold-80"/>
      <use x="73.291016" xlink:href="#DejaVuSans-Bold-101"/>
      <use x="141.113281" xlink:href="#DejaVuSans-Bold-97"/>
      <use x="208.59375" xlink:href="#DejaVuSans-Bold-107"/>
      <use x="275.097656" xlink:href="#DejaVuSans-Bold-32"/>
      <use x="309.912109" xlink:href="#DejaVuSans-Bold-77"/>
      <use x="409.423828" xlink:href="#DejaVuSans-Bold-101"/>
      <use x="477.246094" xlink:href="#DejaVuSans-Bold-109"/>
      <use x="581.445312" xlink:href="#DejaVuSans-Bold-111"/>
      <use x="650.146484" xlink:href="#DejaVuSans-Bold-114"/>
      <use x="699.462891" xlink:href="#DejaVuSans-Bold-121"/>
      <use x="764.648438" xlink:href="#DejaVuSans-Bold-32"/>
      <use x="799.462891" xlink:href="#DejaVuSans-Bold-40"/>
      <use x="845.166016" xlink:href="#DejaVuSans-Bold-77"/>
      <use x="944.677734" xlink:href="#DejaVuSans-Bold-66"/>
      <use x="1020.898438" xlink:href="#DejaVuSans-Bold-41"/>
     </g>
    </g>
   </g>
   <g id="matplotlib.axis_2">
    <g id="ytick_1">
     <g id="line2d_19">
      <defs>
       <path d="M 0 0 
L -4 0 
" id="mddcac126ce" style="stroke:#000000;stroke-width:1.5;"/>
      </defs>
      <g>
       <use style="stroke:#000000;stroke-width:1.5;" x="128.270625" xlink:href="#mddcac126ce" y="343.240859"/>
      </g>
     </g>
     <g id="text_11">
      <!-- Vision -->
      <g transform="translate(79.5375 347.799922)scale(0.12 -0.12)">
       <defs>
        <path d="M 0.484375 72.90625 
L 19.390625 72.90625 
L 38.71875 19.09375 
L 58.015625 72.90625 
L 76.90625 72.90625 
L 49.90625 0 
L 27.484375 0 
z
" id="DejaVuSans-Bold-86"/>
        <path d="M 8.40625 54.6875 
L 25.875 54.6875 
L 25.875 0 
L 8.40625 0 
z
M 8.40625 75.984375 
L 25.875 75.984375 
L 25.875 61.71875 
L 8.40625 61.71875 
z
" id="DejaVuSans-Bold-105"/>
        <path d="M 51.125 52.984375 
L 51.125 39.703125 
Q 45.515625 42.046875 40.28125 43.21875 
Q 35.0625 44.390625 30.421875 44.390625 
Q 25.4375 44.390625 23.015625 43.140625 
Q 20.609375 41.890625 20.609375 39.3125 
Q 20.609375 37.203125 22.4375 36.078125 
Q 24.265625 34.96875 29 34.421875 
L 32.078125 33.984375 
Q 45.515625 32.28125 50.140625 28.375 
Q 54.78125 24.46875 54.78125 16.109375 
Q 54.78125 7.375 48.328125 2.96875 
Q 41.890625 -1.421875 29.109375 -1.421875 
Q 23.6875 -1.421875 17.890625 -0.5625 
Q 12.109375 0.296875 6 2 
L 6 15.28125 
Q 11.234375 12.75 16.71875 11.46875 
Q 22.21875 10.203125 27.875 10.203125 
Q 33.015625 10.203125 35.59375 11.609375 
Q 38.1875 13.03125 38.1875 15.828125 
Q 38.1875 18.171875 36.40625 19.3125 
Q 34.625 20.453125 29.296875 21.09375 
L 26.21875 21.484375 
Q 14.546875 22.953125 9.859375 26.90625 
Q 5.171875 30.859375 5.171875 38.921875 
Q 5.171875 47.609375 11.125 51.796875 
Q 17.09375 56 29.390625 56 
Q 34.234375 56 39.546875 55.265625 
Q 44.875 54.546875 51.125 52.984375 
z
" id="DejaVuSans-Bold-115"/>
        <path d="M 63.375 33.296875 
L 63.375 0 
L 45.796875 0 
L 45.796875 5.421875 
L 45.796875 25.484375 
Q 45.796875 32.5625 45.484375 35.25 
Q 45.171875 37.9375 44.390625 39.203125 
Q 43.359375 40.921875 41.59375 41.875 
Q 39.84375 42.828125 37.59375 42.828125 
Q 32.125 42.828125 29 38.59375 
Q 25.875 34.375 25.875 26.90625 
L 25.875 0 
L 8.40625 0 
L 8.40625 54.6875 
L 25.875 54.6875 
L 25.875 46.6875 
Q 29.828125 51.46875 34.265625 53.734375 
Q 38.71875 56 44.09375 56 
Q 53.5625 56 58.46875 50.1875 
Q 63.375 44.390625 63.375 33.296875 
z
" id="DejaVuSans-Bold-110"/>
       </defs>
       <use xlink:href="#DejaVuSans-Bold-86"/>
       <use x="75.642578" xlink:href="#DejaVuSans-Bold-105"/>
       <use x="109.919922" xlink:href="#DejaVuSans-Bold-115"/>
       <use x="169.441406" xlink:href="#DejaVuSans-Bold-105"/>
       <use x="203.71875" xlink:href="#DejaVuSans-Bold-111"/>
       <use x="272.419922" xlink:href="#DejaVuSans-Bold-110"/>
      </g>
     </g>
    </g>
    <g id="ytick_2">
     <g id="line2d_20">
      <g>
       <use style="stroke:#000000;stroke-width:1.5;" x="128.270625" xlink:href="#mddcac126ce" y="275.57746"/>
      </g>
     </g>
     <g id="text_12">
      <!-- Acoustic -->
      <g transform="translate(63.478125 280.136523)scale(0.12 -0.12)">
       <defs>
        <path d="M 53.421875 13.28125 
L 24.03125 13.28125 
L 19.390625 0 
L 0.484375 0 
L 27.484375 72.90625 
L 49.90625 72.90625 
L 76.90625 0 
L 58.015625 0 
z
M 28.71875 26.8125 
L 48.6875 26.8125 
L 38.71875 55.8125 
z
" id="DejaVuSans-Bold-65"/>
        <path d="M 52.59375 52.984375 
L 52.59375 38.71875 
Q 49.03125 41.15625 45.4375 42.328125 
Q 41.84375 43.5 37.984375 43.5 
Q 30.671875 43.5 26.59375 39.234375 
Q 22.515625 34.96875 22.515625 27.296875 
Q 22.515625 19.625 26.59375 15.34375 
Q 30.671875 11.078125 37.984375 11.078125 
Q 42.09375 11.078125 45.78125 12.296875 
Q 49.46875 13.53125 52.59375 15.921875 
L 52.59375 1.609375 
Q 48.484375 0.09375 44.265625 -0.65625 
Q 40.046875 -1.421875 35.796875 -1.421875 
Q 21 -1.421875 12.640625 6.171875 
Q 4.296875 13.765625 4.296875 27.296875 
Q 4.296875 40.828125 12.640625 48.40625 
Q 21 56 35.796875 56 
Q 40.09375 56 44.265625 55.25 
Q 48.4375 54.5 52.59375 52.984375 
z
" id="DejaVuSans-Bold-99"/>
        <path d="M 7.8125 21.296875 
L 7.8125 54.6875 
L 25.390625 54.6875 
L 25.390625 49.21875 
Q 25.390625 44.78125 25.34375 38.0625 
Q 25.296875 31.34375 25.296875 29.109375 
Q 25.296875 22.515625 25.640625 19.609375 
Q 25.984375 16.703125 26.8125 15.375 
Q 27.875 13.671875 29.609375 12.734375 
Q 31.34375 11.8125 33.59375 11.8125 
Q 39.0625 11.8125 42.1875 16.015625 
Q 45.3125 20.21875 45.3125 27.6875 
L 45.3125 54.6875 
L 62.796875 54.6875 
L 62.796875 0 
L 45.3125 0 
L 45.3125 7.90625 
Q 41.359375 3.125 36.9375 0.84375 
Q 32.515625 -1.421875 27.203125 -1.421875 
Q 17.71875 -1.421875 12.765625 4.390625 
Q 7.8125 10.203125 7.8125 21.296875 
z
" id="DejaVuSans-Bold-117"/>
        <path d="M 27.484375 70.21875 
L 27.484375 54.6875 
L 45.515625 54.6875 
L 45.515625 42.1875 
L 27.484375 42.1875 
L 27.484375 19 
Q 27.484375 15.1875 29 13.84375 
Q 30.515625 12.5 35.015625 12.5 
L 44 12.5 
L 44 0 
L 29 0 
Q 18.65625 0 14.328125 4.3125 
Q 10.015625 8.640625 10.015625 19 
L 10.015625 42.1875 
L 1.3125 42.1875 
L 1.3125 54.6875 
L 10.015625 54.6875 
L 10.015625 70.21875 
z
" id="DejaVuSans-Bold-116"/>
       </defs>
       <use xlink:href="#DejaVuSans-Bold-65"/>
       <use x="77.392578" xlink:href="#DejaVuSans-Bold-99"/>
       <use x="136.669922" xlink:href="#DejaVuSans-Bold-111"/>
       <use x="205.371094" xlink:href="#DejaVuSans-Bold-117"/>
       <use x="276.5625" xlink:href="#DejaVuSans-Bold-115"/>
       <use x="336.083984" xlink:href="#DejaVuSans-Bold-116"/>
       <use x="383.886719" xlink:href="#DejaVuSans-Bold-105"/>
       <use x="418.164062" xlink:href="#DejaVuSans-Bold-99"/>
      </g>
     </g>
    </g>
    <g id="ytick_3">
     <g id="line2d_21">
      <g>
       <use style="stroke:#000000;stroke-width:1.5;" x="128.270625" xlink:href="#mddcac126ce" y="207.914061"/>
      </g>
     </g>
     <g id="text_13">
      <!-- Motion -->
      <g transform="translate(73.948125 212.473123)scale(0.12 -0.12)">
       <use xlink:href="#DejaVuSans-Bold-77"/>
       <use x="99.511719" xlink:href="#DejaVuSans-Bold-111"/>
       <use x="168.212891" xlink:href="#DejaVuSans-Bold-116"/>
       <use x="216.015625" xlink:href="#DejaVuSans-Bold-105"/>
       <use x="250.292969" xlink:href="#DejaVuSans-Bold-111"/>
       <use x="318.994141" xlink:href="#DejaVuSans-Bold-110"/>
      </g>
     </g>
    </g>
    <g id="ytick_4">
     <g id="line2d_22">
      <g>
       <use style="stroke:#000000;stroke-width:1.5;" x="128.270625" xlink:href="#mddcac126ce" y="140.250662"/>
      </g>
     </g>
     <g id="text_14">
      <!-- Wireless -->
      <g transform="translate(62.8275 144.809724)scale(0.12 -0.12)">
       <defs>
        <path d="M 2.984375 72.90625 
L 21 72.90625 
L 33.59375 19.921875 
L 46.09375 72.90625 
L 64.203125 72.90625 
L 76.703125 19.921875 
L 89.3125 72.90625 
L 107.171875 72.90625 
L 89.984375 0 
L 68.3125 0 
L 55.078125 55.421875 
L 42 0 
L 20.3125 0 
z
" id="DejaVuSans-Bold-87"/>
        <path d="M 8.40625 75.984375 
L 25.875 75.984375 
L 25.875 0 
L 8.40625 0 
z
" id="DejaVuSans-Bold-108"/>
       </defs>
       <use xlink:href="#DejaVuSans-Bold-87"/>
       <use x="110.302734" xlink:href="#DejaVuSans-Bold-105"/>
       <use x="144.580078" xlink:href="#DejaVuSans-Bold-114"/>
       <use x="193.896484" xlink:href="#DejaVuSans-Bold-101"/>
       <use x="261.71875" xlink:href="#DejaVuSans-Bold-108"/>
       <use x="295.996094" xlink:href="#DejaVuSans-Bold-101"/>
       <use x="363.818359" xlink:href="#DejaVuSans-Bold-115"/>
       <use x="423.339844" xlink:href="#DejaVuSans-Bold-115"/>
      </g>
     </g>
    </g>
    <g id="ytick_5">
     <g id="line2d_23">
      <g>
       <use style="stroke:#000000;stroke-width:1.5;" x="128.270625" xlink:href="#mddcac126ce" y="72.587263"/>
      </g>
     </g>
     <g id="text_15">
      <!-- Neuromorphic -->
      <g transform="translate(24.85875 77.146325)scale(0.12 -0.12)">
       <defs>
        <path d="M 9.1875 72.90625 
L 30.171875 72.90625 
L 56.6875 22.90625 
L 56.6875 72.90625 
L 74.515625 72.90625 
L 74.515625 0 
L 53.515625 0 
L 27 50 
L 27 0 
L 9.1875 0 
z
" id="DejaVuSans-Bold-78"/>
        <path d="M 25.875 7.90625 
L 25.875 -20.796875 
L 8.40625 -20.796875 
L 8.40625 54.6875 
L 25.875 54.6875 
L 25.875 46.6875 
Q 29.5 51.46875 33.890625 53.734375 
Q 38.28125 56 44 56 
Q 54.109375 56 60.59375 47.96875 
Q 67.09375 39.9375 67.09375 27.296875 
Q 67.09375 14.65625 60.59375 6.609375 
Q 54.109375 -1.421875 44 -1.421875 
Q 38.28125 -1.421875 33.890625 0.84375 
Q 29.5 3.125 25.875 7.90625 
z
M 37.5 43.3125 
Q 31.890625 43.3125 28.875 39.1875 
Q 25.875 35.0625 25.875 27.296875 
Q 25.875 19.53125 28.875 15.40625 
Q 31.890625 11.28125 37.5 11.28125 
Q 43.109375 11.28125 46.0625 15.375 
Q 49.03125 19.484375 49.03125 27.296875 
Q 49.03125 35.109375 46.0625 39.203125 
Q 43.109375 43.3125 37.5 43.3125 
z
" id="DejaVuSans-Bold-112"/>
        <path d="M 63.375 33.296875 
L 63.375 0 
L 45.796875 0 
L 45.796875 5.421875 
L 45.796875 25.390625 
Q 45.796875 32.5625 45.484375 35.25 
Q 45.171875 37.9375 44.390625 39.203125 
Q 43.359375 40.921875 41.59375 41.875 
Q 39.84375 42.828125 37.59375 42.828125 
Q 32.125 42.828125 29 38.59375 
Q 25.875 34.375 25.875 26.90625 
L 25.875 0 
L 8.40625 0 
L 8.40625 75.984375 
L 25.875 75.984375 
L 25.875 46.6875 
Q 29.828125 51.46875 34.265625 53.734375 
Q 38.71875 56 44.09375 56 
Q 53.5625 56 58.46875 50.1875 
Q 63.375 44.390625 63.375 33.296875 
z
" id="DejaVuSans-Bold-104"/>
       </defs>
       <use xlink:href="#DejaVuSans-Bold-78"/>
       <use x="83.691406" xlink:href="#DejaVuSans-Bold-101"/>
       <use x="151.513672" xlink:href="#DejaVuSans-Bold-117"/>
       <use x="222.705078" xlink:href="#DejaVuSans-Bold-114"/>
       <use x="272.021484" xlink:href="#DejaVuSans-Bold-111"/>
       <use x="340.722656" xlink:href="#DejaVuSans-Bold-109"/>
       <use x="444.921875" xlink:href="#DejaVuSans-Bold-111"/>
       <use x="513.623047" xlink:href="#DejaVuSans-Bold-114"/>
       <use x="562.939453" xlink:href="#DejaVuSans-Bold-112"/>
       <use x="634.521484" xlink:href="#DejaVuSans-Bold-104"/>
       <use x="705.712891" xlink:href="#DejaVuSans-Bold-105"/>
       <use x="739.990234" xlink:href="#DejaVuSans-Bold-99"/>
      </g>
     </g>
    </g>
    <g id="text_16">
     <!-- Sensing Modality -->
     <g transform="translate(17.837812 275.900467)rotate(-90)scale(0.14 -0.14)">
      <defs>
       <path d="M 59.90625 70.609375 
L 59.90625 55.171875 
Q 53.90625 57.859375 48.1875 59.21875 
Q 42.484375 60.59375 37.40625 60.59375 
Q 30.671875 60.59375 27.4375 58.734375 
Q 24.21875 56.890625 24.21875 52.984375 
Q 24.21875 50.046875 26.390625 48.40625 
Q 28.5625 46.78125 34.28125 45.609375 
L 42.28125 44 
Q 54.4375 41.546875 59.5625 36.5625 
Q 64.703125 31.59375 64.703125 22.40625 
Q 64.703125 10.359375 57.546875 4.46875 
Q 50.390625 -1.421875 35.6875 -1.421875 
Q 28.765625 -1.421875 21.78125 -0.09375 
Q 14.796875 1.21875 7.8125 3.8125 
L 7.8125 19.671875 
Q 14.796875 15.96875 21.3125 14.078125 
Q 27.828125 12.203125 33.890625 12.203125 
Q 40.046875 12.203125 43.3125 14.25 
Q 46.578125 16.3125 46.578125 20.125 
Q 46.578125 23.53125 44.359375 25.390625 
Q 42.140625 27.25 35.5 28.71875 
L 28.21875 30.328125 
Q 17.28125 32.671875 12.21875 37.796875 
Q 7.171875 42.921875 7.171875 51.609375 
Q 7.171875 62.5 14.203125 68.359375 
Q 21.234375 74.21875 34.421875 74.21875 
Q 40.4375 74.21875 46.78125 73.3125 
Q 53.125 72.40625 59.90625 70.609375 
z
" id="DejaVuSans-Bold-83"/>
       <path d="M 45.609375 9.28125 
Q 42 4.5 37.640625 2.25 
Q 33.296875 0 27.59375 0 
Q 17.578125 0 11.03125 7.875 
Q 4.5 15.765625 4.5 27.984375 
Q 4.5 40.234375 11.03125 48.0625 
Q 17.578125 55.90625 27.59375 55.90625 
Q 33.296875 55.90625 37.640625 53.65625 
Q 42 51.421875 45.609375 46.578125 
L 45.609375 54.6875 
L 63.1875 54.6875 
L 63.1875 5.515625 
Q 63.1875 -7.671875 54.859375 -14.625 
Q 46.53125 -21.578125 30.71875 -21.578125 
Q 25.59375 -21.578125 20.796875 -20.796875 
Q 16.015625 -20.015625 11.1875 -18.40625 
L 11.1875 -4.78125 
Q 15.765625 -7.421875 20.15625 -8.71875 
Q 24.5625 -10.015625 29 -10.015625 
Q 37.59375 -10.015625 41.59375 -6.25 
Q 45.609375 -2.484375 45.609375 5.515625 
z
M 34.078125 43.3125 
Q 28.65625 43.3125 25.625 39.296875 
Q 22.609375 35.296875 22.609375 27.984375 
Q 22.609375 20.453125 25.53125 16.578125 
Q 28.46875 12.703125 34.078125 12.703125 
Q 39.546875 12.703125 42.578125 16.703125 
Q 45.609375 20.703125 45.609375 27.984375 
Q 45.609375 35.296875 42.578125 39.296875 
Q 39.546875 43.3125 34.078125 43.3125 
z
" id="DejaVuSans-Bold-103"/>
       <path d="M 45.609375 46.6875 
L 45.609375 75.984375 
L 63.1875 75.984375 
L 63.1875 0 
L 45.609375 0 
L 45.609375 7.90625 
Q 42 3.078125 37.640625 0.828125 
Q 33.296875 -1.421875 27.59375 -1.421875 
Q 17.484375 -1.421875 10.984375 6.609375 
Q 4.5 14.65625 4.5 27.296875 
Q 4.5 39.9375 10.984375 47.96875 
Q 17.484375 56 27.59375 56 
Q 33.25 56 37.625 53.734375 
Q 42 51.46875 45.609375 46.6875 
z
M 34.078125 11.28125 
Q 39.703125 11.28125 42.65625 15.375 
Q 45.609375 19.484375 45.609375 27.296875 
Q 45.609375 35.109375 42.65625 39.203125 
Q 39.703125 43.3125 34.078125 43.3125 
Q 28.515625 43.3125 25.5625 39.203125 
Q 22.609375 35.109375 22.609375 27.296875 
Q 22.609375 19.484375 25.5625 15.375 
Q 28.515625 11.28125 34.078125 11.28125 
z
" id="DejaVuSans-Bold-100"/>
      </defs>
      <use xlink:href="#DejaVuSans-Bold-83"/>
      <use x="72.021484" xlink:href="#DejaVuSans-Bold-101"/>
      <use x="139.84375" xlink:href="#DejaVuSans-Bold-110"/>
      <use x="211.035156" xlink:href="#DejaVuSans-Bold-115"/>
      <use x="270.556641" xlink:href="#DejaVuSans-Bold-105"/>
      <use x="304.833984" xlink:href="#DejaVuSans-Bold-110"/>
      <use x="376.025391" xlink:href="#DejaVuSans-Bold-103"/>
      <use x="447.607422" xlink:href="#DejaVuSans-Bold-32"/>
      <use x="482.421875" xlink:href="#DejaVuSans-Bold-77"/>
      <use x="581.933594" xlink:href="#DejaVuSans-Bold-111"/>
      <use x="650.634766" xlink:href="#DejaVuSans-Bold-100"/>
      <use x="722.216797" xlink:href="#DejaVuSans-Bold-97"/>
      <use x="789.697266" xlink:href="#DejaVuSans-Bold-108"/>
      <use x="823.974609" xlink:href="#DejaVuSans-Bold-105"/>
      <use x="858.251953" xlink:href="#DejaVuSans-Bold-116"/>
      <use x="906.054688" xlink:href="#DejaVuSans-Bold-121"/>
     </g>
    </g>
   </g>
   <g id="LineCollection_1">
    <path clip-path="url(#p9fd4356299)" d="M 128.270625 363.539879 
L 246.469652 363.539879 
" style="fill:none;stroke:#08306b;stroke-width:2;"/>
   </g>
   <g id="LineCollection_2">
    <path clip-path="url(#p9fd4356299)" d="M 128.270625 295.87648 
L 310.57633 295.87648 
" style="fill:none;stroke:#155f9e;stroke-width:2;"/>
   </g>
   <g id="LineCollection_3">
    <path clip-path="url(#p9fd4356299)" d="M 128.270625 228.213081 
L 214.746827 228.213081 
" style="fill:none;stroke:#3085c6;stroke-width:2;"/>
   </g>
   <g id="LineCollection_4">
    <path clip-path="url(#p9fd4356299)" d="M 128.270625 160.549682 
L 390.689434 160.549682 
" style="fill:none;stroke:#5da2d7;stroke-width:2;"/>
   </g>
   <g id="LineCollection_5">
    <path clip-path="url(#p9fd4356299)" d="M 128.270625 92.886282 
L 286.32048 92.886282 
" style="fill:none;stroke:#92c4de;stroke-width:2;"/>
   </g>
   <g id="LineCollection_6">
    <path clip-path="url(#p9fd4356299)" d="M 128.270625 356.773539 
L 362.780475 356.773539 
" style="fill:none;stroke:#08306b;stroke-width:2;"/>
   </g>
   <g id="LineCollection_7">
    <path clip-path="url(#p9fd4356299)" d="M 128.270625 289.11014 
L 435.407491 289.11014 
" style="fill:none;stroke:#155f9e;stroke-width:2;"/>
   </g>
   <g id="LineCollection_8">
    <path clip-path="url(#p9fd4356299)" d="M 128.270625 221.446741 
L 319.343092 221.446741 
" style="fill:none;stroke:#3085c6;stroke-width:2;"/>
   </g>
   <g id="LineCollection_9">
    <path clip-path="url(#p9fd4356299)" d="M 128.270625 153.783342 
L 576.131031 153.783342 
" style="fill:none;stroke:#5da2d7;stroke-width:2;"/>
   </g>
   <g id="LineCollection_10">
    <path clip-path="url(#p9fd4356299)" d="M 128.270625 86.119942 
L 425.520042 86.119942 
" style="fill:none;stroke:#92c4de;stroke-width:2;"/>
   </g>
   <g id="LineCollection_11">
    <path clip-path="url(#p9fd4356299)" d="M 128.270625 350.007199 
L 362.024562 350.007199 
" style="fill:none;stroke:#08306b;stroke-width:2;"/>
   </g>
   <g id="LineCollection_12">
    <path clip-path="url(#p9fd4356299)" d="M 128.270625 282.3438 
L 442.601163 282.3438 
" style="fill:none;stroke:#155f9e;stroke-width:2;"/>
   </g>
   <g id="LineCollection_13">
    <path clip-path="url(#p9fd4356299)" d="M 128.270625 214.680401 
L 322.871795 214.680401 
" style="fill:none;stroke:#3085c6;stroke-width:2;"/>
   </g>
   <g id="LineCollection_14">
    <path clip-path="url(#p9fd4356299)" d="M 128.270625 147.017002 
L 588.768536 147.017002 
" style="fill:none;stroke:#5da2d7;stroke-width:2;"/>
   </g>
   <g id="LineCollection_15">
    <path clip-path="url(#p9fd4356299)" d="M 128.270625 79.353603 
L 431.056918 79.353603 
" style="fill:none;stroke:#92c4de;stroke-width:2;"/>
   </g>
   <g id="LineCollection_16">
    <path clip-path="url(#p9fd4356299)" d="M 128.270625 343.240859 
L 366.986674 343.240859 
" style="fill:none;stroke:#08306b;stroke-width:2;"/>
   </g>
   <g id="LineCollection_17">
    <path clip-path="url(#p9fd4356299)" d="M 128.270625 275.57746 
L 448.934225 275.57746 
" style="fill:none;stroke:#155f9e;stroke-width:2;"/>
   </g>
   <g id="LineCollection_18">
    <path clip-path="url(#p9fd4356299)" d="M 128.270625 207.914061 
L 330.449865 207.914061 
" style="fill:none;stroke:#3085c6;stroke-width:2;"/>
   </g>
   <g id="LineCollection_19">
    <path clip-path="url(#p9fd4356299)" d="M 128.270625 140.250662 
L 595.61979 140.250662 
" style="fill:none;stroke:#5da2d7;stroke-width:2;"/>
   </g>
   <g id="LineCollection_20">
    <path clip-path="url(#p9fd4356299)" d="M 128.270625 72.587263 
L 436.46128 72.587263 
" style="fill:none;stroke:#92c4de;stroke-width:2;"/>
   </g>
   <g id="LineCollection_21">
    <path clip-path="url(#p9fd4356299)" d="M 128.270625 336.474519 
L 371.910475 336.474519 
" style="fill:none;stroke:#08306b;stroke-width:2;"/>
   </g>
   <g id="LineCollection_22">
    <path clip-path="url(#p9fd4356299)" d="M 128.270625 268.81112 
L 447.800826 268.81112 
" style="fill:none;stroke:#155f9e;stroke-width:2;"/>
   </g>
   <g id="LineCollection_23">
    <path clip-path="url(#p9fd4356299)" d="M 128.270625 201.147721 
L 336.055429 201.147721 
" style="fill:none;stroke:#3085c6;stroke-width:2;"/>
   </g>
   <g id="LineCollection_24">
    <path clip-path="url(#p9fd4356299)" d="M 128.270625 133.484322 
L 574.022306 133.484322 
" style="fill:none;stroke:#5da2d7;stroke-width:2;"/>
   </g>
   <g id="LineCollection_25">
    <path clip-path="url(#p9fd4356299)" d="M 128.270625 65.820923 
L 416.703193 65.820923 
" style="fill:none;stroke:#92c4de;stroke-width:2;"/>
   </g>
   <g id="LineCollection_26">
    <path clip-path="url(#p9fd4356299)" d="M 128.270625 329.70818 
L 420.856233 329.70818 
" style="fill:none;stroke:#08306b;stroke-width:2;"/>
   </g>
   <g id="LineCollection_27">
    <path clip-path="url(#p9fd4356299)" d="M 128.270625 262.04478 
L 500.856105 262.04478 
" style="fill:none;stroke:#155f9e;stroke-width:2;"/>
   </g>
   <g id="LineCollection_28">
    <path clip-path="url(#p9fd4356299)" d="M 128.270625 194.381381 
L 254.338176 194.381381 
" style="fill:none;stroke:#3085c6;stroke-width:2;"/>
   </g>
   <g id="LineCollection_29">
    <path clip-path="url(#p9fd4356299)" d="M 128.270625 126.717982 
L 652.497898 126.717982 
" style="fill:none;stroke:#5da2d7;stroke-width:2;"/>
   </g>
   <g id="LineCollection_30">
    <path clip-path="url(#p9fd4356299)" d="M 128.270625 59.054583 
L 470.812777 59.054583 
" style="fill:none;stroke:#92c4de;stroke-width:2;"/>
   </g>
   <g id="LineCollection_31">
    <path clip-path="url(#p9fd4356299)" d="M 128.270625 322.94184 
L 386.891268 322.94184 
" style="fill:none;stroke:#08306b;stroke-width:2;"/>
   </g>
   <g id="LineCollection_32">
    <path clip-path="url(#p9fd4356299)" d="M 128.270625 255.27844 
L 473.902557 255.27844 
" style="fill:none;stroke:#155f9e;stroke-width:2;"/>
   </g>
   <g id="LineCollection_33">
    <path clip-path="url(#p9fd4356299)" d="M 128.270625 187.615041 
L 233.578262 187.615041 
" style="fill:none;stroke:#3085c6;stroke-width:2;"/>
   </g>
   <g id="LineCollection_34">
    <path clip-path="url(#p9fd4356299)" d="M 128.270625 119.951642 
L 617.38844 119.951642 
" style="fill:none;stroke:#5da2d7;stroke-width:2;"/>
   </g>
   <g id="LineCollection_35">
    <path clip-path="url(#p9fd4356299)" d="M 128.270625 52.288243 
L 437.45628 52.288243 
" style="fill:none;stroke:#92c4de;stroke-width:2;"/>
   </g>
   <g id="patch_3">
    <path d="M 128.270625 379.102461 
L 128.270625 36.725661 
" style="fill:none;stroke:#000000;stroke-linecap:square;stroke-linejoin:miter;stroke-width:1.5;"/>
   </g>
   <g id="patch_4">
    <path d="M 128.270625 379.102461 
L 704.920625 379.102461 
" style="fill:none;stroke:#000000;stroke-linecap:square;stroke-linejoin:miter;stroke-width:1.5;"/>
   </g>
   <g id="PathCollection_1">
    <defs>
     <path d="M 0 3.535534 
C 0.937635 3.535534 1.836992 3.163008 2.5 2.5 
C 3.163008 1.836992 3.535534 0.937635 3.535534 0 
C 3.535534 -0.937635 3.163008 -1.836992 2.5 -2.5 
C 1.836992 -3.163008 0.937635 -3.535534 0 -3.535534 
C -0.937635 -3.535534 -1.836992 -3.163008 -2.5 -2.5 
C -3.163008 -1.836992 -3.535534 -0.937635 -3.535534 0 
C -3.535534 0.937635 -3.163008 1.836992 -2.5 2.5 
C -1.836992 3.163008 -0.937635 3.535534 0 3.535534 
z
" id="m9d61867485" style="stroke:#000000;"/>
    </defs>
    <g clip-path="url(#p9fd4356299)">
     <use style="fill:#ffffff;stroke:#000000;" x="246.469652" xlink:href="#m9d61867485" y="363.539879"/>
    </g>
   </g>
   <g id="PathCollection_2">
    <g clip-path="url(#p9fd4356299)">
     <use style="fill:#ffffff;stroke:#000000;" x="310.57633" xlink:href="#m9d61867485" y="295.87648"/>
    </g>
   </g>
   <g id="PathCollection_3">
    <g clip-path="url(#p9fd4356299)">
     <use style="fill:#ffffff;stroke:#000000;" x="214.746827" xlink:href="#m9d61867485" y="228.213081"/>
    </g>
   </g>
   <g id="PathCollection_4">
    <g clip-path="url(#p9fd4356299)">
     <use style="fill:#ffffff;stroke:#000000;" x="390.689434" xlink:href="#m9d61867485" y="160.549682"/>
    </g>
   </g>
   <g id="PathCollection_5">
    <g clip-path="url(#p9fd4356299)">
     <use style="fill:#ffffff;stroke:#000000;" x="286.32048" xlink:href="#m9d61867485" y="92.886282"/>
    </g>
   </g>
   <g id="PathCollection_6">
    <defs>
     <path d="M -1.767767 3.535534 
L 0 1.767767 
L 1.767767 3.535534 
L 3.535534 1.767767 
L 1.767767 0 
L 3.535534 -1.767767 
L 1.767767 -3.535534 
L 0 -1.767767 
L -1.767767 -3.535534 
L -3.535534 -1.767767 
L -1.767767 0 
L -3.535534 1.767767 
z
" id="m16ec764e7e" style="stroke:#000000;"/>
    </defs>
    <g clip-path="url(#p9fd4356299)">
     <use style="fill:#ffffff;stroke:#000000;" x="362.780475" xlink:href="#m16ec764e7e" y="356.773539"/>
    </g>
   </g>
   <g id="PathCollection_7">
    <g clip-path="url(#p9fd4356299)">
     <use style="fill:#ffffff;stroke:#000000;" x="435.407491" xlink:href="#m16ec764e7e" y="289.11014"/>
    </g>
   </g>
   <g id="PathCollection_8">
    <g clip-path="url(#p9fd4356299)">
     <use style="fill:#ffffff;stroke:#000000;" x="319.343092" xlink:href="#m16ec764e7e" y="221.446741"/>
    </g>
   </g>
   <g id="PathCollection_9">
    <g clip-path="url(#p9fd4356299)">
     <use style="fill:#ffffff;stroke:#000000;" x="576.131031" xlink:href="#m16ec764e7e" y="153.783342"/>
    </g>
   </g>
   <g id="PathCollection_10">
    <g clip-path="url(#p9fd4356299)">
     <use style="fill:#ffffff;stroke:#000000;" x="425.520042" xlink:href="#m16ec764e7e" y="86.119942"/>
    </g>
   </g>
   <g id="PathCollection_11">
    <defs>
     <path d="M -3.535534 3.535534 
L 3.535534 3.535534 
L 3.535534 -3.535534 
L -3.535534 -3.535534 
z
" id="mbc0e6689e4" style="stroke:#000000;"/>
    </defs>
    <g clip-path="url(#p9fd4356299)">
     <use style="fill:#ffffff;stroke:#000000;" x="362.024562" xlink:href="#mbc0e6689e4" y="350.007199"/>
    </g>
   </g>
   <g id="PathCollection_12">
    <g clip-path="url(#p9fd4356299)">
     <use style="fill:#ffffff;stroke:#000000;" x="442.601163" xlink:href="#mbc0e6689e4" y="282.3438"/>
    </g>
   </g>
   <g id="PathCollection_13">
    <g clip-path="url(#p9fd4356299)">
     <use style="fill:#ffffff;stroke:#000000;" x="322.871795" xlink:href="#mbc0e6689e4" y="214.680401"/>
    </g>
   </g>
   <g id="PathCollection_14">
    <g clip-path="url(#p9fd4356299)">
     <use style="fill:#ffffff;stroke:#000000;" x="588.768536" xlink:href="#mbc0e6689e4" y="147.017002"/>
    </g>
   </g>
   <g id="PathCollection_15">
    <g clip-path="url(#p9fd4356299)">
     <use style="fill:#ffffff;stroke:#000000;" x="431.056918" xlink:href="#mbc0e6689e4" y="79.353603"/>
    </g>
   </g>
   <g id="PathCollection_16">
    <defs>
     <path d="M -1.178511 3.535534 
L 1.178511 3.535534 
L 1.178511 1.178511 
L 3.535534 1.178511 
L 3.535534 -1.178511 
L 1.178511 -1.178511 
L 1.178511 -3.535534 
L -1.178511 -3.535534 
L -1.178511 -1.178511 
L -3.535534 -1.178511 
L -3.535534 1.178511 
L -1.178511 1.178511 
z
" id="mb8b6645b6e" style="stroke:#000000;"/>
    </defs>
    <g clip-path="url(#p9fd4356299)">
     <use style="fill:#ffffff;stroke:#000000;" x="366.986674" xlink:href="#mb8b6645b6e" y="343.240859"/>
    </g>
   </g>
   <g id="PathCollection_17">
    <g clip-path="url(#p9fd4356299)">
     <use style="fill:#ffffff;stroke:#000000;" x="448.934225" xlink:href="#mb8b6645b6e" y="275.57746"/>
    </g>
   </g>
   <g id="PathCollection_18">
    <g clip-path="url(#p9fd4356299)">
     <use style="fill:#ffffff;stroke:#000000;" x="330.449865" xlink:href="#mb8b6645b6e" y="207.914061"/>
    </g>
   </g>
   <g id="PathCollection_19">
    <g clip-path="url(#p9fd4356299)">
     <use style="fill:#ffffff;stroke:#000000;" x="595.61979" xlink:href="#mb8b6645b6e" y="140.250662"/>
    </g>
   </g>
   <g id="PathCollection_20">
    <g clip-path="url(#p9fd4356299)">
     <use style="fill:#ffffff;stroke:#000000;" x="436.46128" xlink:href="#mb8b6645b6e" y="72.587263"/>
    </g>
   </g>
   <g id="PathCollection_21">
    <defs>
     <path d="M 0 -3.535534 
L -3.535534 3.535534 
L 3.535534 3.535534 
z
" id="mc412f04aa4" style="stroke:#000000;"/>
    </defs>
    <g clip-path="url(#p9fd4356299)">
     <use style="fill:#ffffff;stroke:#000000;" x="371.910475" xlink:href="#mc412f04aa4" y="336.474519"/>
    </g>
   </g>
   <g id="PathCollection_22">
    <g clip-path="url(#p9fd4356299)">
     <use style="fill:#ffffff;stroke:#000000;" x="447.800826" xlink:href="#mc412f04aa4" y="268.81112"/>
    </g>
   </g>
   <g id="PathCollection_23">
    <g clip-path="url(#p9fd4356299)">
     <use style="fill:#ffffff;stroke:#000000;" x="336.055429" xlink:href="#mc412f04aa4" y="201.147721"/>
    </g>
   </g>
   <g id="PathCollection_24">
    <g clip-path="url(#p9fd4356299)">
     <use style="fill:#ffffff;stroke:#000000;" x="574.022306" xlink:href="#mc412f04aa4" y="133.484322"/>
    </g>
   </g>
   <g id="PathCollection_25">
    <g clip-path="url(#p9fd4356299)">
     <use style="fill:#ffffff;stroke:#000000;" x="416.703193" xlink:href="#mc412f04aa4" y="65.820923"/>
    </g>
   </g>
   <g id="PathCollection_26">
    <defs>
     <path d="M -0 5 
L 5 0 
L 0 -5 
L -5 -0 
z
" id="mfdbf1d3e30" style="stroke:#000000;"/>
    </defs>
    <g clip-path="url(#p9fd4356299)">
     <use style="fill:#ffffff;stroke:#000000;" x="420.856233" xlink:href="#mfdbf1d3e30" y="329.70818"/>
    </g>
   </g>
   <g id="PathCollection_27">
    <g clip-path="url(#p9fd4356299)">
     <use style="fill:#ffffff;stroke:#000000;" x="500.856105" xlink:href="#mfdbf1d3e30" y="262.04478"/>
    </g>
   </g>
   <g id="PathCollection_28">
    <g clip-path="url(#p9fd4356299)">
     <use style="fill:#ffffff;stroke:#000000;" x="254.338176" xlink:href="#mfdbf1d3e30" y="194.381381"/>
    </g>
   </g>
   <g id="PathCollection_29">
    <g clip-path="url(#p9fd4356299)">
     <use style="fill:#ffffff;stroke:#000000;" x="652.497898" xlink:href="#mfdbf1d3e30" y="126.717982"/>
    </g>
   </g>
   <g id="PathCollection_30">
    <g clip-path="url(#p9fd4356299)">
     <use style="fill:#ffffff;stroke:#000000;" x="470.812777" xlink:href="#mfdbf1d3e30" y="59.054583"/>
    </g>
   </g>
   <g id="PathCollection_31">
    <defs>
     <path d="M -0 3.535534 
L 3.535534 -3.535534 
L -3.535534 -3.535534 
z
" id="m641ecb25e3" style="stroke:#000000;"/>
    </defs>
    <g clip-path="url(#p9fd4356299)">
     <use style="fill:#ffffff;stroke:#000000;" x="386.891268" xlink:href="#m641ecb25e3" y="322.94184"/>
    </g>
   </g>
   <g id="PathCollection_32">
    <g clip-path="url(#p9fd4356299)">
     <use style="fill:#ffffff;stroke:#000000;" x="473.902557" xlink:href="#m641ecb25e3" y="255.27844"/>
    </g>
   </g>
   <g id="PathCollection_33">
    <g clip-path="url(#p9fd4356299)">
     <use style="fill:#ffffff;stroke:#000000;" x="233.578262" xlink:href="#m641ecb25e3" y="187.615041"/>
    </g>
   </g>
   <g id="PathCollection_34">
    <g clip-path="url(#p9fd4356299)">
     <use style="fill:#ffffff;stroke:#000000;" x="617.38844" xlink:href="#m641ecb25e3" y="119.951642"/>
    </g>
   </g>
   <g id="PathCollection_35">
    <g clip-path="url(#p9fd4356299)">
     <use style="fill:#ffffff;stroke:#000000;" x="437.45628" xlink:href="#m641ecb25e3" y="52.288243"/>
    </g>
   </g>
   <g id="legend_1">
    <g id="line2d_24">
     <path d="M 166.868281 15.298437 
L 186.868281 15.298437 
" style="fill:none;"/>
    </g>
    <g id="line2d_25">
     <defs>
      <path d="M 0 4.5 
C 1.193414 4.5 2.338109 4.025852 3.181981 3.181981 
C 4.025852 2.338109 4.5 1.193414 4.5 0 
C 4.5 -1.193414 4.025852 -2.338109 3.181981 -3.181981 
C 2.338109 -4.025852 1.193414 -4.5 0 -4.5 
C -1.193414 -4.5 -2.338109 -4.025852 -3.181981 -3.181981 
C -4.025852 -2.338109 -4.5 -1.193414 -4.5 0 
C -4.5 1.193414 -4.025852 2.338109 -3.181981 3.181981 
C -2.338109 4.025852 -1.193414 4.5 0 4.5 
z
" id="m996e5ae49b" style="stroke:#000000;"/>
     </defs>
     <g>
      <use style="fill:#ffffff;stroke:#000000;" x="176.868281" xlink:href="#m996e5ae49b" y="15.298437"/>
     </g>
    </g>
    <g id="text_17">
     <!-- RPI4 -->
     <g transform="translate(194.868281 18.798437)scale(0.1 -0.1)">
      <defs>
       <path d="M 35.890625 40.578125 
Q 41.796875 40.578125 44.359375 42.765625 
Q 46.921875 44.96875 46.921875 50 
Q 46.921875 54.984375 44.359375 57.125 
Q 41.796875 59.28125 35.890625 59.28125 
L 27.984375 59.28125 
L 27.984375 40.578125 
z
M 27.984375 27.59375 
L 27.984375 0 
L 9.1875 0 
L 9.1875 72.90625 
L 37.890625 72.90625 
Q 52.296875 72.90625 59 68.0625 
Q 65.71875 63.234375 65.71875 52.78125 
Q 65.71875 45.5625 62.21875 40.921875 
Q 58.734375 36.28125 51.703125 34.078125 
Q 55.5625 33.203125 58.609375 30.09375 
Q 61.671875 27 64.796875 20.703125 
L 75 0 
L 54.984375 0 
L 46.09375 18.109375 
Q 43.40625 23.578125 40.640625 25.578125 
Q 37.890625 27.59375 33.296875 27.59375 
z
" id="DejaVuSans-Bold-82"/>
       <path d="M 9.1875 72.90625 
L 27.984375 72.90625 
L 27.984375 0 
L 9.1875 0 
z
" id="DejaVuSans-Bold-73"/>
      </defs>
      <use xlink:href="#DejaVuSans-Bold-82"/>
      <use x="77.001953" xlink:href="#DejaVuSans-Bold-80"/>
      <use x="150.292969" xlink:href="#DejaVuSans-Bold-73"/>
      <use x="187.5" xlink:href="#DejaVuSans-Bold-52"/>
     </g>
    </g>
    <g id="line2d_26">
     <path d="M 240.576094 15.298437 
L 260.576094 15.298437 
" style="fill:none;"/>
    </g>
    <g id="line2d_27">
     <defs>
      <path d="M -2.25 4.5 
L 0 2.25 
L 2.25 4.5 
L 4.5 2.25 
L 2.25 0 
L 4.5 -2.25 
L 2.25 -4.5 
L 0 -2.25 
L -2.25 -4.5 
L -4.5 -2.25 
L -2.25 0 
L -4.5 2.25 
z
" id="m3bd544191c" style="stroke:#000000;stroke-linejoin:miter;"/>
     </defs>
     <g>
      <use style="fill:#ffffff;stroke:#000000;stroke-linejoin:miter;" x="250.576094" xlink:href="#m3bd544191c" y="15.298437"/>
     </g>
    </g>
    <g id="text_18">
     <!-- NANO -->
     <g transform="translate(268.576094 18.798437)scale(0.1 -0.1)">
      <defs>
       <path d="M 42.484375 60.59375 
Q 33.890625 60.59375 29.15625 54.25 
Q 24.421875 47.90625 24.421875 36.375 
Q 24.421875 24.90625 29.15625 18.546875 
Q 33.890625 12.203125 42.484375 12.203125 
Q 51.125 12.203125 55.859375 18.546875 
Q 60.59375 24.90625 60.59375 36.375 
Q 60.59375 47.90625 55.859375 54.25 
Q 51.125 60.59375 42.484375 60.59375 
z
M 42.484375 74.21875 
Q 60.0625 74.21875 70.015625 64.15625 
Q 79.984375 54.109375 79.984375 36.375 
Q 79.984375 18.703125 70.015625 8.640625 
Q 60.0625 -1.421875 42.484375 -1.421875 
Q 24.953125 -1.421875 14.96875 8.640625 
Q 4.984375 18.703125 4.984375 36.375 
Q 4.984375 54.109375 14.96875 64.15625 
Q 24.953125 74.21875 42.484375 74.21875 
z
" id="DejaVuSans-Bold-79"/>
      </defs>
      <use xlink:href="#DejaVuSans-Bold-78"/>
      <use x="83.691406" xlink:href="#DejaVuSans-Bold-65"/>
      <use x="161.083984" xlink:href="#DejaVuSans-Bold-78"/>
      <use x="244.775391" xlink:href="#DejaVuSans-Bold-79"/>
     </g>
    </g>
    <g id="line2d_28">
     <path d="M 321.554219 15.298437 
L 341.554219 15.298437 
" style="fill:none;"/>
    </g>
    <g id="line2d_29">
     <defs>
      <path d="M -4.5 4.5 
L 4.5 4.5 
L 4.5 -4.5 
L -4.5 -4.5 
z
" id="m96cebfeaba" style="stroke:#000000;stroke-linejoin:miter;"/>
     </defs>
     <g>
      <use style="fill:#ffffff;stroke:#000000;stroke-linejoin:miter;" x="331.554219" xlink:href="#m96cebfeaba" y="15.298437"/>
     </g>
    </g>
    <g id="text_19">
     <!-- NX -->
     <g transform="translate(349.554219 18.798437)scale(0.1 -0.1)">
      <defs>
       <path d="M 49.8125 37.203125 
L 75.09375 0 
L 55.515625 0 
L 38.484375 24.90625 
L 21.578125 0 
L 1.90625 0 
L 27.203125 37.203125 
L 2.875 72.90625 
L 22.515625 72.90625 
L 38.484375 49.421875 
L 54.390625 72.90625 
L 74.125 72.90625 
z
" id="DejaVuSans-Bold-88"/>
      </defs>
      <use xlink:href="#DejaVuSans-Bold-78"/>
      <use x="83.691406" xlink:href="#DejaVuSans-Bold-88"/>
     </g>
    </g>
    <g id="line2d_30">
     <path d="M 385.632344 15.298437 
L 405.632344 15.298437 
" style="fill:none;"/>
    </g>
    <g id="line2d_31">
     <defs>
      <path d="M -1.5 4.5 
L 1.5 4.5 
L 1.5 1.5 
L 4.5 1.5 
L 4.5 -1.5 
L 1.5 -1.5 
L 1.5 -4.5 
L -1.5 -4.5 
L -1.5 -1.5 
L -4.5 -1.5 
L -4.5 1.5 
L -1.5 1.5 
z
" id="me3f83db5ab" style="stroke:#000000;stroke-linejoin:miter;"/>
     </defs>
     <g>
      <use style="fill:#ffffff;stroke:#000000;stroke-linejoin:miter;" x="395.632344" xlink:href="#me3f83db5ab" y="15.298437"/>
     </g>
    </g>
    <g id="text_20">
     <!-- AGX -->
     <g transform="translate(413.632344 18.798437)scale(0.1 -0.1)">
      <defs>
       <path d="M 74.703125 5.421875 
Q 67.671875 2 60.109375 0.28125 
Q 52.546875 -1.421875 44.484375 -1.421875 
Q 26.265625 -1.421875 15.625 8.765625 
Q 4.984375 18.953125 4.984375 36.375 
Q 4.984375 54 15.8125 64.109375 
Q 26.65625 74.21875 45.515625 74.21875 
Q 52.78125 74.21875 59.4375 72.84375 
Q 66.109375 71.484375 72.015625 68.796875 
L 72.015625 53.71875 
Q 65.921875 57.171875 59.890625 58.875 
Q 53.859375 60.59375 47.796875 60.59375 
Q 36.578125 60.59375 30.5 54.3125 
Q 24.421875 48.046875 24.421875 36.375 
Q 24.421875 24.8125 30.28125 18.5 
Q 36.140625 12.203125 46.921875 12.203125 
Q 49.859375 12.203125 52.375 12.5625 
Q 54.890625 12.9375 56.890625 13.71875 
L 56.890625 27.875 
L 45.40625 27.875 
L 45.40625 40.484375 
L 74.703125 40.484375 
z
" id="DejaVuSans-Bold-71"/>
      </defs>
      <use xlink:href="#DejaVuSans-Bold-65"/>
      <use x="77.392578" xlink:href="#DejaVuSans-Bold-71"/>
      <use x="159.472656" xlink:href="#DejaVuSans-Bold-88"/>
     </g>
    </g>
    <g id="line2d_32">
     <path d="M 457.288594 15.298437 
L 477.288594 15.298437 
" style="fill:none;"/>
    </g>
    <g id="line2d_33">
     <defs>
      <path d="M 0 -4.5 
L -4.5 4.5 
L 4.5 4.5 
z
" id="m63e54b9dc4" style="stroke:#000000;stroke-linejoin:miter;"/>
     </defs>
     <g>
      <use style="fill:#ffffff;stroke:#000000;stroke-linejoin:miter;" x="467.288594" xlink:href="#m63e54b9dc4" y="15.298437"/>
     </g>
    </g>
    <g id="text_21">
     <!-- K80 -->
     <g transform="translate(485.288594 18.798437)scale(0.1 -0.1)">
      <defs>
       <path d="M 9.1875 72.90625 
L 27.984375 72.90625 
L 27.984375 46.296875 
L 55.078125 72.90625 
L 76.90625 72.90625 
L 41.796875 38.375 
L 80.515625 0 
L 56.984375 0 
L 27.984375 28.71875 
L 27.984375 0 
L 9.1875 0 
z
" id="DejaVuSans-Bold-75"/>
       <path d="M 34.8125 32.625 
Q 29.546875 32.625 26.703125 29.734375 
Q 23.875 26.859375 23.875 21.484375 
Q 23.875 16.109375 26.703125 13.25 
Q 29.546875 10.40625 34.8125 10.40625 
Q 40.046875 10.40625 42.828125 13.25 
Q 45.609375 16.109375 45.609375 21.484375 
Q 45.609375 26.90625 42.828125 29.765625 
Q 40.046875 32.625 34.8125 32.625 
z
M 21.09375 38.8125 
Q 14.453125 40.828125 11.078125 44.96875 
Q 7.71875 49.125 7.71875 55.328125 
Q 7.71875 64.546875 14.59375 69.375 
Q 21.484375 74.21875 34.8125 74.21875 
Q 48.046875 74.21875 54.921875 69.40625 
Q 61.8125 64.59375 61.8125 55.328125 
Q 61.8125 49.125 58.421875 44.96875 
Q 55.03125 40.828125 48.390625 38.8125 
Q 55.8125 36.765625 59.59375 32.15625 
Q 63.375 27.546875 63.375 20.515625 
Q 63.375 9.671875 56.171875 4.125 
Q 48.96875 -1.421875 34.8125 -1.421875 
Q 20.609375 -1.421875 13.359375 4.125 
Q 6.109375 9.671875 6.109375 20.515625 
Q 6.109375 27.546875 9.890625 32.15625 
Q 13.671875 36.765625 21.09375 38.8125 
z
M 25.484375 53.421875 
Q 25.484375 49.078125 27.90625 46.734375 
Q 30.328125 44.390625 34.8125 44.390625 
Q 39.203125 44.390625 41.59375 46.734375 
Q 44 49.078125 44 53.421875 
Q 44 57.765625 41.59375 60.078125 
Q 39.203125 62.40625 34.8125 62.40625 
Q 30.328125 62.40625 27.90625 60.0625 
Q 25.484375 57.71875 25.484375 53.421875 
z
" id="DejaVuSans-Bold-56"/>
      </defs>
      <use xlink:href="#DejaVuSans-Bold-75"/>
      <use x="77.490234" xlink:href="#DejaVuSans-Bold-56"/>
      <use x="147.070312" xlink:href="#DejaVuSans-Bold-48"/>
     </g>
    </g>
    <g id="line2d_34">
     <path d="M 526.952656 15.298437 
L 546.952656 15.298437 
" style="fill:none;"/>
    </g>
    <g id="line2d_35">
     <defs>
      <path d="M -0 6.363961 
L 6.363961 0 
L 0 -6.363961 
L -6.363961 -0 
z
" id="m127d37595e" style="stroke:#000000;stroke-linejoin:miter;"/>
     </defs>
     <g>
      <use style="fill:#ffffff;stroke:#000000;stroke-linejoin:miter;" x="536.952656" xlink:href="#m127d37595e" y="15.298437"/>
     </g>
    </g>
    <g id="text_22">
     <!-- PIX6 -->
     <g transform="translate(554.952656 18.798437)scale(0.1 -0.1)">
      <defs>
       <path d="M 36.1875 35.984375 
Q 31.25 35.984375 28.78125 32.78125 
Q 26.3125 29.59375 26.3125 23.1875 
Q 26.3125 16.796875 28.78125 13.59375 
Q 31.25 10.40625 36.1875 10.40625 
Q 41.15625 10.40625 43.625 13.59375 
Q 46.09375 16.796875 46.09375 23.1875 
Q 46.09375 29.59375 43.625 32.78125 
Q 41.15625 35.984375 36.1875 35.984375 
z
M 59.421875 71 
L 59.421875 57.515625 
Q 54.78125 59.71875 50.671875 60.765625 
Q 46.578125 61.8125 42.671875 61.8125 
Q 34.28125 61.8125 29.59375 57.140625 
Q 24.90625 52.484375 24.125 43.3125 
Q 27.34375 45.703125 31.09375 46.890625 
Q 34.859375 48.09375 39.3125 48.09375 
Q 50.484375 48.09375 57.34375 41.546875 
Q 64.203125 35.015625 64.203125 24.421875 
Q 64.203125 12.703125 56.53125 5.640625 
Q 48.875 -1.421875 35.984375 -1.421875 
Q 21.78125 -1.421875 13.984375 8.171875 
Q 6.203125 17.78125 6.203125 35.40625 
Q 6.203125 53.46875 15.3125 63.796875 
Q 24.421875 74.125 40.28125 74.125 
Q 45.3125 74.125 50.046875 73.34375 
Q 54.78125 72.5625 59.421875 71 
z
" id="DejaVuSans-Bold-54"/>
      </defs>
      <use xlink:href="#DejaVuSans-Bold-80"/>
      <use x="73.291016" xlink:href="#DejaVuSans-Bold-73"/>
      <use x="110.498047" xlink:href="#DejaVuSans-Bold-88"/>
      <use x="187.597656" xlink:href="#DejaVuSans-Bold-54"/>
     </g>
    </g>
    <g id="line2d_36">
     <path d="M 600.669844 15.298437 
L 620.669844 15.298437 
" style="fill:none;"/>
    </g>
    <g id="line2d_37">
     <defs>
      <path d="M -0 4.5 
L 4.5 -4.5 
L -4.5 -4.5 
z
" id="mc75c96e75c" style="stroke:#000000;stroke-linejoin:miter;"/>
     </defs>
     <g>
      <use style="fill:#ffffff;stroke:#000000;stroke-linejoin:miter;" x="610.669844" xlink:href="#mc75c96e75c" y="15.298437"/>
     </g>
    </g>
    <g id="text_23">
     <!-- MAT40 -->
     <g transform="translate(628.669844 18.798437)scale(0.1 -0.1)">
      <defs>
       <path d="M 0.484375 72.90625 
L 67.671875 72.90625 
L 67.671875 58.6875 
L 43.5 58.6875 
L 43.5 0 
L 24.703125 0 
L 24.703125 58.6875 
L 0.484375 58.6875 
z
" id="DejaVuSans-Bold-84"/>
      </defs>
      <use xlink:href="#DejaVuSans-Bold-77"/>
      <use x="99.511719" xlink:href="#DejaVuSans-Bold-65"/>
      <use x="169.154297" xlink:href="#DejaVuSans-Bold-84"/>
      <use x="237.367188" xlink:href="#DejaVuSans-Bold-52"/>
      <use x="306.947266" xlink:href="#DejaVuSans-Bold-48"/>
     </g>
    </g>
   </g>
  </g>
 </g>
 <defs>
  <clipPath id="p9fd4356299">
   <rect height="342.3768" width="576.65" x="128.270625" y="36.725661"/>
  </clipPath>
 </defs>
</svg>
