<?xml version="1.0" encoding="utf-8" standalone="no"?>
<!DOCTYPE svg PUBLIC "-//W3C//DTD SVG 1.1//EN"
  "http://www.w3.org/Graphics/SVG/1.1/DTD/svg11.dtd">
<!-- Created with matplotlib (https://matplotlib.org/) -->
<svg height="309.027261pt" version="1.1" viewBox="0 0 917.048314 309.027261" width="917.048314pt" xmlns="http://www.w3.org/2000/svg" xmlns:xlink="http://www.w3.org/1999/xlink">
 <metadata>
  <rdf:RDF xmlns:cc="http://creativecommons.org/ns#" xmlns:dc="http://purl.org/dc/elements/1.1/" xmlns:rdf="http://www.w3.org/1999/02/22-rdf-syntax-ns#">
   <cc:Work>
    <dc:type rdf:resource="http://purl.org/dc/dcmitype/StillImage"/>
    <dc:date>2026-03-19T13:00:18.723134</dc:date>
    <dc:format>image/svg+xml</dc:format>
    <dc:creator>
     <cc:Agent>
      <dc:title>Matplotlib v3.3.2, https://matplotlib.org/</dc:title>
     </cc:Agent>
    </dc:creator>
   </cc:Work>
  </rdf:RDF>
 </metadata>
 <defs>
  <style type="text/css">*{stroke-linecap:butt;stroke-linejoin:round;}</style>
 </defs>
 <g id="figure_1">
  <g id="patch_1">
   <path d="M 0 309.027261 
L 917.048314 309.027261 
L 917.048314 0 
L 0 0 
z
" style="fill:none;"/>
  </g>
  <g id="axes_1">
   <g id="patch_2">
    <path d="M 260.210484 194.028235 
C 260.210484 179.755329 257.399033 165.621208 251.937028 152.434762 
C 246.475023 139.248316 238.468687 127.265987 228.376218 117.173518 
C 218.283749 107.081049 206.30142 99.074713 193.114974 93.612708 
C 179.928528 88.150703 165.794407 85.339252 151.521501 85.339252 
C 137.248594 85.339252 123.114474 88.150703 109.928027 93.612708 
C 96.741581 99.074713 84.759252 107.081049 74.666783 117.173518 
C 64.574314 127.265987 56.567978 139.248316 51.105973 152.434762 
C 45.643969 165.621208 42.832517 179.755329 42.832517 194.028235 
C 42.832517 208.301142 45.643969 222.435262 51.105973 235.621709 
C 56.567978 248.808155 64.574314 260.790484 74.666783 270.882953 
C 84.759252 280.975422 96.741581 288.981758 109.928027 294.443763 
C 123.114474 299.905767 137.248594 302.717219 151.521501 302.717219 
C 165.794407 302.717219 179.928528 299.905767 193.114974 294.443763 
C 206.30142 288.981758 218.283749 280.975422 228.376218 270.882953 
C 238.468687 260.790484 246.475023 248.808155 251.937028 235.621709 
C 257.399033 222.435262 260.210484 208.301142 260.210484 194.028235 
M 151.521501 194.028235 
C 151.521501 194.028235 151.521501 194.028235 151.521501 194.028235 
C 151.521501 194.028235 151.521501 194.028235 151.521501 194.028235 
C 151.521501 194.028235 151.521501 194.028235 151.521501 194.028235 
C 151.521501 194.028235 151.521501 194.028235 151.521501 194.028235 
C 151.521501 194.028235 151.521501 194.028235 151.521501 194.028235 
C 151.521501 194.028235 151.521501 194.028235 151.521501 194.028235 
C 151.521501 194.028235 151.521501 194.028235 151.521501 194.028235 
C 151.521501 194.028235 151.521501 194.028235 151.521501 194.028235 
C 151.521501 194.028235 151.521501 194.028235 151.521501 194.028235 
C 151.521501 194.028235 151.521501 194.028235 151.521501 194.028235 
C 151.521501 194.028235 151.521501 194.028235 151.521501 194.028235 
C 151.521501 194.028235 151.521501 194.028235 151.521501 194.028235 
C 151.521501 194.028235 151.521501 194.028235 151.521501 194.028235 
C 151.521501 194.028235 151.521501 194.028235 151.521501 194.028235 
C 151.521501 194.028235 151.521501 194.028235 151.521501 194.028235 
C 151.521501 194.028235 151.521501 194.028235 151.521501 194.028235 
M 260.210484 194.028235 
z
" style="fill:#ffffff;"/>
   </g>
   <g id="patch_3">
    <path clip-path="url(#p30d8b36145)" d="M 151.521501 99.831269 
L 202.623034 177.424341 
L 206.889104 270.235204 
L 96.1539 270.2352 
L 121.554353 184.291319 
z
" style="fill:none;opacity:0;"/>
   </g>
   <g id="patch_4">
    <path clip-path="url(#p30d8b36145)" d="M 151.521501 170.229103 
L 184.505243 183.311168 
L 160.384677 206.227351 
L 142.136994 206.9449 
L 127.208274 186.128389 
z
" style="fill:none;opacity:0;"/>
   </g>
   <g id="patch_5">
    <path clip-path="url(#p30d8b36145)" d="M 151.521501 184.97082 
L 160.135614 191.22934 
L 156.845316 201.355838 
L 146.197685 201.355838 
L 142.907387 191.22934 
z
" style="fill:none;opacity:0;"/>
   </g>
   <g id="patch_6">
    <path clip-path="url(#p30d8b36145)" d="M 151.521501 109.589936 
L 237.662621 166.039289 
L 176.116564 227.880436 
L 116.85264 241.745829 
L 65.380371 166.039286 
z
" style="fill:none;opacity:0;"/>
   </g>
   <g id="matplotlib.axis_1">
    <g id="xtick_1">
     <g id="line2d_1">
      <path clip-path="url(#p30d8b36145)" d="M 151.521501 194.028235 
L 151.521501 85.339252 
" style="fill:none;stroke:#b0b0b0;stroke-dasharray:2.96,1.28;stroke-dashoffset:0;stroke-opacity:0.9;stroke-width:0.8;"/>
     </g>
     <g id="text_1">
      <!-- Neuromorphic -->
      <g transform="translate(103.565563 64.150502)scale(0.12 -0.12)">
       <defs>
        <path d="M 9.1875 72.90625 
L 30.171875 72.90625 
L 56.6875 22.90625 
L 56.6875 72.90625 
L 74.515625 72.90625 
L 74.515625 0 
L 53.515625 0 
L 27 50 
L 27 0 
L 9.1875 0 
z
" id="DejaVuSans-Bold-78"/>
        <path d="M 62.984375 27.484375 
L 62.984375 22.515625 
L 22.125 22.515625 
Q 22.75 16.359375 26.5625 13.28125 
Q 30.375 10.203125 37.203125 10.203125 
Q 42.71875 10.203125 48.5 11.84375 
Q 54.296875 13.484375 60.40625 16.796875 
L 60.40625 3.328125 
Q 54.203125 0.984375 48 -0.21875 
Q 41.796875 -1.421875 35.59375 -1.421875 
Q 20.75 -1.421875 12.515625 6.125 
Q 4.296875 13.671875 4.296875 27.296875 
Q 4.296875 40.671875 12.375 48.328125 
Q 20.453125 56 34.625 56 
Q 47.515625 56 55.25 48.234375 
Q 62.984375 40.484375 62.984375 27.484375 
z
M 45.015625 33.296875 
Q 45.015625 38.28125 42.109375 41.328125 
Q 39.203125 44.390625 34.515625 44.390625 
Q 29.4375 44.390625 26.265625 41.53125 
Q 23.09375 38.671875 22.3125 33.296875 
z
" id="DejaVuSans-Bold-101"/>
        <path d="M 7.8125 21.296875 
L 7.8125 54.6875 
L 25.390625 54.6875 
L 25.390625 49.21875 
Q 25.390625 44.78125 25.34375 38.0625 
Q 25.296875 31.34375 25.296875 29.109375 
Q 25.296875 22.515625 25.640625 19.609375 
Q 25.984375 16.703125 26.8125 15.375 
Q 27.875 13.671875 29.609375 12.734375 
Q 31.34375 11.8125 33.59375 11.8125 
Q 39.0625 11.8125 42.1875 16.015625 
Q 45.3125 20.21875 45.3125 27.6875 
L 45.3125 54.6875 
L 62.796875 54.6875 
L 62.796875 0 
L 45.3125 0 
L 45.3125 7.90625 
Q 41.359375 3.125 36.9375 0.84375 
Q 32.515625 -1.421875 27.203125 -1.421875 
Q 17.71875 -1.421875 12.765625 4.390625 
Q 7.8125 10.203125 7.8125 21.296875 
z
" id="DejaVuSans-Bold-117"/>
        <path d="M 49.03125 39.796875 
Q 46.734375 40.875 44.453125 41.375 
Q 42.1875 41.890625 39.890625 41.890625 
Q 33.15625 41.890625 29.515625 37.5625 
Q 25.875 33.25 25.875 25.203125 
L 25.875 0 
L 8.40625 0 
L 8.40625 54.6875 
L 25.875 54.6875 
L 25.875 45.703125 
Q 29.25 51.078125 33.609375 53.53125 
Q 37.984375 56 44.09375 56 
Q 44.96875 56 45.984375 55.921875 
Q 47.015625 55.859375 48.96875 55.609375 
z
" id="DejaVuSans-Bold-114"/>
        <path d="M 34.421875 43.5 
Q 28.609375 43.5 25.5625 39.328125 
Q 22.515625 35.15625 22.515625 27.296875 
Q 22.515625 19.4375 25.5625 15.25 
Q 28.609375 11.078125 34.421875 11.078125 
Q 40.140625 11.078125 43.15625 15.25 
Q 46.1875 19.4375 46.1875 27.296875 
Q 46.1875 35.15625 43.15625 39.328125 
Q 40.140625 43.5 34.421875 43.5 
z
M 34.421875 56 
Q 48.53125 56 56.46875 48.375 
Q 64.40625 40.765625 64.40625 27.296875 
Q 64.40625 13.8125 56.46875 6.1875 
Q 48.53125 -1.421875 34.421875 -1.421875 
Q 20.265625 -1.421875 12.28125 6.1875 
Q 4.296875 13.8125 4.296875 27.296875 
Q 4.296875 40.765625 12.28125 48.375 
Q 20.265625 56 34.421875 56 
z
" id="DejaVuSans-Bold-111"/>
        <path d="M 59.078125 45.609375 
Q 62.40625 50.6875 66.96875 53.34375 
Q 71.53125 56 77 56 
Q 86.421875 56 91.359375 50.1875 
Q 96.296875 44.390625 96.296875 33.296875 
L 96.296875 0 
L 78.71875 0 
L 78.71875 28.515625 
Q 78.765625 29.15625 78.78125 29.828125 
Q 78.8125 30.515625 78.8125 31.78125 
Q 78.8125 37.59375 77.09375 40.203125 
Q 75.390625 42.828125 71.578125 42.828125 
Q 66.609375 42.828125 63.890625 38.71875 
Q 61.1875 34.625 61.078125 26.859375 
L 61.078125 0 
L 43.5 0 
L 43.5 28.515625 
Q 43.5 37.59375 41.9375 40.203125 
Q 40.375 42.828125 36.375 42.828125 
Q 31.34375 42.828125 28.609375 38.703125 
Q 25.875 34.578125 25.875 26.90625 
L 25.875 0 
L 8.296875 0 
L 8.296875 54.6875 
L 25.875 54.6875 
L 25.875 46.6875 
Q 29.109375 51.3125 33.28125 53.65625 
Q 37.453125 56 42.484375 56 
Q 48.140625 56 52.484375 53.265625 
Q 56.84375 50.53125 59.078125 45.609375 
z
" id="DejaVuSans-Bold-109"/>
        <path d="M 25.875 7.90625 
L 25.875 -20.796875 
L 8.40625 -20.796875 
L 8.40625 54.6875 
L 25.875 54.6875 
L 25.875 46.6875 
Q 29.5 51.46875 33.890625 53.734375 
Q 38.28125 56 44 56 
Q 54.109375 56 60.59375 47.96875 
Q 67.09375 39.9375 67.09375 27.296875 
Q 67.09375 14.65625 60.59375 6.609375 
Q 54.109375 -1.421875 44 -1.421875 
Q 38.28125 -1.421875 33.890625 0.84375 
Q 29.5 3.125 25.875 7.90625 
z
M 37.5 43.3125 
Q 31.890625 43.3125 28.875 39.1875 
Q 25.875 35.0625 25.875 27.296875 
Q 25.875 19.53125 28.875 15.40625 
Q 31.890625 11.28125 37.5 11.28125 
Q 43.109375 11.28125 46.0625 15.375 
Q 49.03125 19.484375 49.03125 27.296875 
Q 49.03125 35.109375 46.0625 39.203125 
Q 43.109375 43.3125 37.5 43.3125 
z
" id="DejaVuSans-Bold-112"/>
        <path d="M 63.375 33.296875 
L 63.375 0 
L 45.796875 0 
L 45.796875 5.421875 
L 45.796875 25.390625 
Q 45.796875 32.5625 45.484375 35.25 
Q 45.171875 37.9375 44.390625 39.203125 
Q 43.359375 40.921875 41.59375 41.875 
Q 39.84375 42.828125 37.59375 42.828125 
Q 32.125 42.828125 29 38.59375 
Q 25.875 34.375 25.875 26.90625 
L 25.875 0 
L 8.40625 0 
L 8.40625 75.984375 
L 25.875 75.984375 
L 25.875 46.6875 
Q 29.828125 51.46875 34.265625 53.734375 
Q 38.71875 56 44.09375 56 
Q 53.5625 56 58.46875 50.1875 
Q 63.375 44.390625 63.375 33.296875 
z
" id="DejaVuSans-Bold-104"/>
        <path d="M 8.40625 54.6875 
L 25.875 54.6875 
L 25.875 0 
L 8.40625 0 
z
M 8.40625 75.984375 
L 25.875 75.984375 
L 25.875 61.71875 
L 8.40625 61.71875 
z
" id="DejaVuSans-Bold-105"/>
        <path d="M 52.59375 52.984375 
L 52.59375 38.71875 
Q 49.03125 41.15625 45.4375 42.328125 
Q 41.84375 43.5 37.984375 43.5 
Q 30.671875 43.5 26.59375 39.234375 
Q 22.515625 34.96875 22.515625 27.296875 
Q 22.515625 19.625 26.59375 15.34375 
Q 30.671875 11.078125 37.984375 11.078125 
Q 42.09375 11.078125 45.78125 12.296875 
Q 49.46875 13.53125 52.59375 15.921875 
L 52.59375 1.609375 
Q 48.484375 0.09375 44.265625 -0.65625 
Q 40.046875 -1.421875 35.796875 -1.421875 
Q 21 -1.421875 12.640625 6.171875 
Q 4.296875 13.765625 4.296875 27.296875 
Q 4.296875 40.828125 12.640625 48.40625 
Q 21 56 35.796875 56 
Q 40.09375 56 44.265625 55.25 
Q 48.4375 54.5 52.59375 52.984375 
z
" id="DejaVuSans-Bold-99"/>
       </defs>
       <use xlink:href="#DejaVuSans-Bold-78"/>
       <use x="83.691406" xlink:href="#DejaVuSans-Bold-101"/>
       <use x="151.513672" xlink:href="#DejaVuSans-Bold-117"/>
       <use x="222.705078" xlink:href="#DejaVuSans-Bold-114"/>
       <use x="272.021484" xlink:href="#DejaVuSans-Bold-111"/>
       <use x="340.722656" xlink:href="#DejaVuSans-Bold-109"/>
       <use x="444.921875" xlink:href="#DejaVuSans-Bold-111"/>
       <use x="513.623047" xlink:href="#DejaVuSans-Bold-114"/>
       <use x="562.939453" xlink:href="#DejaVuSans-Bold-112"/>
       <use x="634.521484" xlink:href="#DejaVuSans-Bold-104"/>
       <use x="705.712891" xlink:href="#DejaVuSans-Bold-105"/>
       <use x="739.990234" xlink:href="#DejaVuSans-Bold-99"/>
      </g>
     </g>
    </g>
    <g id="xtick_2">
     <g id="line2d_2">
      <path clip-path="url(#p30d8b36145)" d="M 151.521501 194.028235 
L 254.890867 160.441492 
" style="fill:none;stroke:#b0b0b0;stroke-dasharray:2.96,1.28;stroke-dashoffset:0;stroke-opacity:0.9;stroke-width:0.8;"/>
     </g>
     <g id="text_2">
      <!-- Vision -->
      <g transform="translate(257.575189 156.181826)scale(0.12 -0.12)">
       <defs>
        <path d="M 0.484375 72.90625 
L 19.390625 72.90625 
L 38.71875 19.09375 
L 58.015625 72.90625 
L 76.90625 72.90625 
L 49.90625 0 
L 27.484375 0 
z
" id="DejaVuSans-Bold-86"/>
        <path d="M 51.125 52.984375 
L 51.125 39.703125 
Q 45.515625 42.046875 40.28125 43.21875 
Q 35.0625 44.390625 30.421875 44.390625 
Q 25.4375 44.390625 23.015625 43.140625 
Q 20.609375 41.890625 20.609375 39.3125 
Q 20.609375 37.203125 22.4375 36.078125 
Q 24.265625 34.96875 29 34.421875 
L 32.078125 33.984375 
Q 45.515625 32.28125 50.140625 28.375 
Q 54.78125 24.46875 54.78125 16.109375 
Q 54.78125 7.375 48.328125 2.96875 
Q 41.890625 -1.421875 29.109375 -1.421875 
Q 23.6875 -1.421875 17.890625 -0.5625 
Q 12.109375 0.296875 6 2 
L 6 15.28125 
Q 11.234375 12.75 16.71875 11.46875 
Q 22.21875 10.203125 27.875 10.203125 
Q 33.015625 10.203125 35.59375 11.609375 
Q 38.1875 13.03125 38.1875 15.828125 
Q 38.1875 18.171875 36.40625 19.3125 
Q 34.625 20.453125 29.296875 21.09375 
L 26.21875 21.484375 
Q 14.546875 22.953125 9.859375 26.90625 
Q 5.171875 30.859375 5.171875 38.921875 
Q 5.171875 47.609375 11.125 51.796875 
Q 17.09375 56 29.390625 56 
Q 34.234375 56 39.546875 55.265625 
Q 44.875 54.546875 51.125 52.984375 
z
" id="DejaVuSans-Bold-115"/>
        <path d="M 63.375 33.296875 
L 63.375 0 
L 45.796875 0 
L 45.796875 5.421875 
L 45.796875 25.484375 
Q 45.796875 32.5625 45.484375 35.25 
Q 45.171875 37.9375 44.390625 39.203125 
Q 43.359375 40.921875 41.59375 41.875 
Q 39.84375 42.828125 37.59375 42.828125 
Q 32.125 42.828125 29 38.59375 
Q 25.875 34.375 25.875 26.90625 
L 25.875 0 
L 8.40625 0 
L 8.40625 54.6875 
L 25.875 54.6875 
L 25.875 46.6875 
Q 29.828125 51.46875 34.265625 53.734375 
Q 38.71875 56 44.09375 56 
Q 53.5625 56 58.46875 50.1875 
Q 63.375 44.390625 63.375 33.296875 
z
" id="DejaVuSans-Bold-110"/>
       </defs>
       <use xlink:href="#DejaVuSans-Bold-86"/>
       <use x="75.642578" xlink:href="#DejaVuSans-Bold-105"/>
       <use x="109.919922" xlink:href="#DejaVuSans-Bold-115"/>
       <use x="169.441406" xlink:href="#DejaVuSans-Bold-105"/>
       <use x="203.71875" xlink:href="#DejaVuSans-Bold-111"/>
       <use x="272.419922" xlink:href="#DejaVuSans-Bold-110"/>
      </g>
     </g>
    </g>
    <g id="xtick_3">
     <g id="line2d_3">
      <path clip-path="url(#p30d8b36145)" d="M 151.521501 194.028235 
L 215.407282 281.95947 
" style="fill:none;stroke:#b0b0b0;stroke-dasharray:2.96,1.28;stroke-dashoffset:0;stroke-opacity:0.9;stroke-width:0.8;"/>
     </g>
     <g id="text_3">
      <!-- Wireless -->
      <g transform="translate(200.836458 305.091636)scale(0.12 -0.12)">
       <defs>
        <path d="M 2.984375 72.90625 
L 21 72.90625 
L 33.59375 19.921875 
L 46.09375 72.90625 
L 64.203125 72.90625 
L 76.703125 19.921875 
L 89.3125 72.90625 
L 107.171875 72.90625 
L 89.984375 0 
L 68.3125 0 
L 55.078125 55.421875 
L 42 0 
L 20.3125 0 
z
" id="DejaVuSans-Bold-87"/>
        <path d="M 8.40625 75.984375 
L 25.875 75.984375 
L 25.875 0 
L 8.40625 0 
z
" id="DejaVuSans-Bold-108"/>
       </defs>
       <use xlink:href="#DejaVuSans-Bold-87"/>
       <use x="110.302734" xlink:href="#DejaVuSans-Bold-105"/>
       <use x="144.580078" xlink:href="#DejaVuSans-Bold-114"/>
       <use x="193.896484" xlink:href="#DejaVuSans-Bold-101"/>
       <use x="261.71875" xlink:href="#DejaVuSans-Bold-108"/>
       <use x="295.996094" xlink:href="#DejaVuSans-Bold-101"/>
       <use x="363.818359" xlink:href="#DejaVuSans-Bold-115"/>
       <use x="423.339844" xlink:href="#DejaVuSans-Bold-115"/>
      </g>
     </g>
    </g>
    <g id="xtick_4">
     <g id="line2d_4">
      <path clip-path="url(#p30d8b36145)" d="M 151.521501 194.028235 
L 87.635719 281.95947 
" style="fill:none;stroke:#b0b0b0;stroke-dasharray:2.96,1.28;stroke-dashoffset:0;stroke-opacity:0.9;stroke-width:0.8;"/>
     </g>
     <g id="text_4">
      <!-- Acoustic -->
      <g transform="translate(44.58873 305.091636)scale(0.12 -0.12)">
       <defs>
        <path d="M 53.421875 13.28125 
L 24.03125 13.28125 
L 19.390625 0 
L 0.484375 0 
L 27.484375 72.90625 
L 49.90625 72.90625 
L 76.90625 0 
L 58.015625 0 
z
M 28.71875 26.8125 
L 48.6875 26.8125 
L 38.71875 55.8125 
z
" id="DejaVuSans-Bold-65"/>
        <path d="M 27.484375 70.21875 
L 27.484375 54.6875 
L 45.515625 54.6875 
L 45.515625 42.1875 
L 27.484375 42.1875 
L 27.484375 19 
Q 27.484375 15.1875 29 13.84375 
Q 30.515625 12.5 35.015625 12.5 
L 44 12.5 
L 44 0 
L 29 0 
Q 18.65625 0 14.328125 4.3125 
Q 10.015625 8.640625 10.015625 19 
L 10.015625 42.1875 
L 1.3125 42.1875 
L 1.3125 54.6875 
L 10.015625 54.6875 
L 10.015625 70.21875 
z
" id="DejaVuSans-Bold-116"/>
       </defs>
       <use xlink:href="#DejaVuSans-Bold-65"/>
       <use x="77.392578" xlink:href="#DejaVuSans-Bold-99"/>
       <use x="136.669922" xlink:href="#DejaVuSans-Bold-111"/>
       <use x="205.371094" xlink:href="#DejaVuSans-Bold-117"/>
       <use x="276.5625" xlink:href="#DejaVuSans-Bold-115"/>
       <use x="336.083984" xlink:href="#DejaVuSans-Bold-116"/>
       <use x="383.886719" xlink:href="#DejaVuSans-Bold-105"/>
       <use x="418.164062" xlink:href="#DejaVuSans-Bold-99"/>
      </g>
     </g>
    </g>
    <g id="xtick_5">
     <g id="line2d_5">
      <path clip-path="url(#p30d8b36145)" d="M 151.521501 194.028235 
L 48.152135 160.441492 
" style="fill:none;stroke:#b0b0b0;stroke-dasharray:2.96,1.28;stroke-dashoffset:0;stroke-opacity:0.9;stroke-width:0.8;"/>
     </g>
     <g id="text_5">
      <!-- Motion -->
      <g transform="translate(1.44 156.181826)scale(0.12 -0.12)">
       <defs>
        <path d="M 9.1875 72.90625 
L 33.109375 72.90625 
L 49.703125 33.890625 
L 66.40625 72.90625 
L 90.28125 72.90625 
L 90.28125 0 
L 72.515625 0 
L 72.515625 53.328125 
L 55.71875 14.015625 
L 43.796875 14.015625 
L 27 53.328125 
L 27 0 
L 9.1875 0 
z
" id="DejaVuSans-Bold-77"/>
       </defs>
       <use xlink:href="#DejaVuSans-Bold-77"/>
       <use x="99.511719" xlink:href="#DejaVuSans-Bold-111"/>
       <use x="168.212891" xlink:href="#DejaVuSans-Bold-116"/>
       <use x="216.015625" xlink:href="#DejaVuSans-Bold-105"/>
       <use x="250.292969" xlink:href="#DejaVuSans-Bold-111"/>
       <use x="318.994141" xlink:href="#DejaVuSans-Bold-110"/>
      </g>
     </g>
    </g>
   </g>
   <g id="matplotlib.axis_2">
    <g id="ytick_1">
     <g id="line2d_6">
      <path clip-path="url(#p30d8b36145)" d="M 151.521501 175.913405 
C 153.900318 175.913405 156.256005 176.38198 158.453746 177.292314 
C 160.651487 178.202648 162.648542 179.537038 164.33062 181.219116 
C 166.012698 182.901194 167.347088 184.898249 168.257422 187.09599 
C 169.167756 189.293731 169.636331 191.649418 169.636331 194.028235 
C 169.636331 196.407053 169.167756 198.76274 168.257422 200.960481 
C 167.347088 203.158222 166.012698 205.155277 164.33062 206.837355 
C 162.648542 208.519433 160.651487 209.853822 158.453746 210.764156 
C 156.256005 211.674491 153.900318 212.143066 151.521501 212.143066 
C 149.142683 212.143066 146.786996 211.674491 144.589255 210.764156 
C 142.391514 209.853822 140.394459 208.519433 138.712381 206.837355 
C 137.030303 205.155277 135.695914 203.158222 134.785579 200.960481 
C 133.875245 198.76274 133.40667 196.407053 133.40667 194.028235 
C 133.40667 191.649418 133.875245 189.293731 134.785579 187.09599 
C 135.695914 184.898249 137.030303 182.901194 138.712381 181.219116 
C 140.394459 179.537038 142.391514 178.202648 144.589255 177.292314 
C 146.786996 176.38198 149.142683 175.913405 151.521501 175.913405 
" style="fill:none;stroke:#b0b0b0;stroke-dasharray:2.96,1.28;stroke-dashoffset:0;stroke-opacity:0.9;stroke-width:0.8;"/>
     </g>
    </g>
    <g id="ytick_2">
     <g id="line2d_7">
      <path clip-path="url(#p30d8b36145)" d="M 151.521501 157.798574 
C 156.279136 157.798574 160.99051 158.735725 165.385992 160.556393 
C 169.781474 162.377061 173.775583 165.04584 177.13974 168.409996 
C 180.503896 171.774153 183.172675 175.768262 184.993343 180.163744 
C 186.814011 184.559226 187.751162 189.2706 187.751162 194.028235 
C 187.751162 198.785871 186.814011 203.497244 184.993343 207.892726 
C 183.172675 212.288208 180.503896 216.282318 177.13974 219.646474 
C 173.775583 223.010631 169.781474 225.679409 165.385992 227.500078 
C 160.99051 229.320746 156.279136 230.257896 151.521501 230.257896 
C 146.763865 230.257896 142.052492 229.320746 137.65701 227.500078 
C 133.261527 225.679409 129.267418 223.010631 125.903262 219.646474 
C 122.539105 216.282318 119.870326 212.288208 118.049658 207.892726 
C 116.22899 203.497244 115.291839 198.785871 115.291839 194.028235 
C 115.291839 189.2706 116.22899 184.559226 118.049658 180.163744 
C 119.870326 175.768262 122.539105 171.774153 125.903262 168.409996 
C 129.267418 165.04584 133.261527 162.377061 137.65701 160.556393 
C 142.052492 158.735725 146.763865 157.798574 151.521501 157.798574 
" style="fill:none;stroke:#b0b0b0;stroke-dasharray:2.96,1.28;stroke-dashoffset:0;stroke-opacity:0.9;stroke-width:0.8;"/>
     </g>
    </g>
    <g id="ytick_3">
     <g id="line2d_8">
      <path clip-path="url(#p30d8b36145)" d="M 151.521501 139.683744 
C 158.657954 139.683744 165.725014 141.089469 172.318237 143.820472 
C 178.91146 146.551474 184.902625 150.554642 189.948859 155.600877 
C 194.995094 160.647111 198.998262 166.638276 201.729264 173.231499 
C 204.460267 179.824722 205.865992 186.891782 205.865992 194.028235 
C 205.865992 201.164689 204.460267 208.231749 201.729264 214.824972 
C 198.998262 221.418195 194.995094 227.409359 189.948859 232.455594 
C 184.902625 237.501828 178.91146 241.504996 172.318237 244.235999 
C 165.725014 246.967001 158.657954 248.372727 151.521501 248.372727 
C 144.385047 248.372727 137.317987 246.967001 130.724764 244.235999 
C 124.131541 241.504996 118.140376 237.501828 113.094142 232.455594 
C 108.047907 227.409359 104.044739 221.418195 101.313737 214.824972 
C 98.582735 208.231749 97.177009 201.164689 97.177009 194.028235 
C 97.177009 186.891782 98.582735 179.824722 101.313737 173.231499 
C 104.044739 166.638276 108.047907 160.647111 113.094142 155.600877 
C 118.140376 150.554642 124.131541 146.551474 130.724764 143.820472 
C 137.317987 141.089469 144.385047 139.683744 151.521501 139.683744 
" style="fill:none;stroke:#b0b0b0;stroke-dasharray:2.96,1.28;stroke-dashoffset:0;stroke-opacity:0.9;stroke-width:0.8;"/>
     </g>
    </g>
    <g id="ytick_4">
     <g id="line2d_9">
      <path clip-path="url(#p30d8b36145)" d="M 151.521501 121.568913 
C 161.036772 121.568913 170.459519 123.443214 179.250483 127.08455 
C 188.041447 130.725887 196.029666 136.063444 202.757979 142.791757 
C 209.486291 149.52007 214.823849 157.508289 218.465185 166.299253 
C 222.106522 175.090217 223.980823 184.512964 223.980823 194.028235 
C 223.980823 203.543506 222.106522 212.966253 218.465185 221.757217 
C 214.823849 230.548182 209.486291 238.536401 202.757979 245.264713 
C 196.029666 251.993026 188.041447 257.330584 179.250483 260.97192 
C 170.459519 264.613257 161.036772 266.487558 151.521501 266.487558 
C 142.00623 266.487558 132.583483 264.613257 123.792518 260.97192 
C 115.001554 257.330584 107.013335 251.993026 100.285022 245.264713 
C 93.55671 238.536401 88.219152 230.548182 84.577816 221.757217 
C 80.936479 212.966253 79.062178 203.543506 79.062178 194.028235 
C 79.062178 184.512964 80.936479 175.090217 84.577816 166.299253 
C 88.219152 157.508289 93.55671 149.52007 100.285022 142.791757 
C 107.013335 136.063444 115.001554 130.725887 123.792518 127.08455 
C 132.583483 123.443214 142.00623 121.568913 151.521501 121.568913 
" style="fill:none;stroke:#b0b0b0;stroke-dasharray:2.96,1.28;stroke-dashoffset:0;stroke-opacity:0.9;stroke-width:0.8;"/>
     </g>
    </g>
    <g id="ytick_5">
     <g id="line2d_10">
      <path clip-path="url(#p30d8b36145)" d="M 151.521501 103.454082 
C 163.415589 103.454082 175.194023 105.796959 186.182728 110.348629 
C 197.171433 114.9003 207.156707 121.572247 215.567098 129.982638 
C 223.977489 138.393028 230.649436 148.378302 235.201107 159.367008 
C 239.752777 170.355713 242.095653 182.134147 242.095653 194.028235 
C 242.095653 205.922324 239.752777 217.700758 235.201107 228.689463 
C 230.649436 239.678168 223.977489 249.663442 215.567098 258.073833 
C 207.156707 266.484224 197.171433 273.156171 186.182728 277.707841 
C 175.194023 282.259512 163.415589 284.602388 151.521501 284.602388 
C 139.627412 284.602388 127.848978 282.259512 116.860273 277.707841 
C 105.871568 273.156171 95.886294 266.484224 87.475903 258.073833 
C 79.065512 249.663442 72.393565 239.678168 67.841895 228.689463 
C 63.290224 217.700758 60.947348 205.922324 60.947348 194.028235 
C 60.947348 182.134147 63.290224 170.355713 67.841895 159.367008 
C 72.393565 148.378302 79.065512 138.393028 87.475903 129.982638 
C 95.886294 121.572247 105.871568 114.9003 116.860273 110.348629 
C 127.848978 105.796959 139.627412 103.454082 151.521501 103.454082 
" style="fill:none;stroke:#b0b0b0;stroke-dasharray:2.96,1.28;stroke-dashoffset:0;stroke-opacity:0.9;stroke-width:0.8;"/>
     </g>
    </g>
    <g id="ytick_6">
     <g id="line2d_11">
      <path clip-path="url(#p30d8b36145)" d="M 151.521501 85.339252 
C 165.794407 85.339252 179.928528 88.150703 193.114974 93.612708 
C 206.30142 99.074713 218.283749 107.081049 228.376218 117.173518 
C 238.468687 127.265987 246.475023 139.248316 251.937028 152.434762 
C 257.399033 165.621208 260.210484 179.755329 260.210484 194.028235 
C 260.210484 208.301142 257.399033 222.435262 251.937028 235.621709 
C 246.475023 248.808155 238.468687 260.790484 228.376218 270.882953 
C 218.283749 280.975422 206.30142 288.981758 193.114974 294.443763 
C 179.928528 299.905767 165.794407 302.717219 151.521501 302.717219 
C 137.248594 302.717219 123.114474 299.905767 109.928027 294.443763 
C 96.741581 288.981758 84.759252 280.975422 74.666783 270.882953 
C 64.574314 260.790484 56.567978 248.808155 51.105973 235.621709 
C 45.643969 222.435262 42.832517 208.301142 42.832517 194.028235 
C 42.832517 179.755329 45.643969 165.621208 51.105973 152.434762 
C 56.567978 139.248316 64.574314 127.265987 74.666783 117.173518 
C 84.759252 107.081049 96.741581 99.074713 109.928027 93.612708 
C 123.114474 88.150703 137.248594 85.339252 151.521501 85.339252 
" style="fill:none;stroke:#b0b0b0;stroke-dasharray:2.96,1.28;stroke-dashoffset:0;stroke-opacity:0.9;stroke-width:0.8;"/>
     </g>
    </g>
   </g>
   <g id="patch_7">
    <path d="M 151.521501 85.339252 
C 137.248594 85.339252 123.114474 88.150703 109.928027 93.612708 
C 96.741581 99.074713 84.759252 107.081049 74.666783 117.173518 
C 64.574314 127.265987 56.567978 139.248316 51.105973 152.434762 
C 45.643969 165.621208 42.832517 179.755329 42.832517 194.028235 
C 42.832517 208.301142 45.643969 222.435262 51.105973 235.621709 
C 56.567978 248.808155 64.574314 260.790484 74.666783 270.882953 
C 84.759252 280.975422 96.741581 288.981758 109.928027 294.443763 
C 123.114474 299.905767 137.248594 302.717219 151.521501 302.717219 
C 165.794407 302.717219 179.928528 299.905767 193.114974 294.443763 
C 206.30142 288.981758 218.283749 280.975422 228.376218 270.882953 
C 238.468687 260.790484 246.475023 248.808155 251.937028 235.621709 
C 257.399033 222.435262 260.210484 208.301142 260.210484 194.028235 
C 260.210484 179.755329 257.399033 165.621208 251.937028 152.434762 
C 246.475023 139.248316 238.468687 127.265987 228.376218 117.173518 
C 218.283749 107.081049 206.30142 99.074713 193.114974 93.612708 
C 179.928528 88.150703 165.794407 85.339252 151.521501 85.339252 
" style="fill:none;stroke:#000000;stroke-linecap:square;stroke-linejoin:miter;stroke-width:1.5;"/>
   </g>
   <g id="line2d_12">
    <path clip-path="url(#p30d8b36145)" d="M 151.521501 99.831269 
L 202.623034 177.424341 
L 206.889104 270.235204 
L 96.1539 270.2352 
L 121.554353 184.291319 
L 151.521501 99.831269 
" style="fill:none;stroke:#1e88e5;stroke-linecap:square;stroke-width:2;"/>
    <defs>
     <path d="M 0 3 
C 0.795609 3 1.55874 2.683901 2.12132 2.12132 
C 2.683901 1.55874 3 0.795609 3 0 
C 3 -0.795609 2.683901 -1.55874 2.12132 -2.12132 
C 1.55874 -2.683901 0.795609 -3 0 -3 
C -0.795609 -3 -1.55874 -2.683901 -2.12132 -2.12132 
C -2.683901 -1.55874 -3 -0.795609 -3 0 
C -3 0.795609 -2.683901 1.55874 -2.12132 2.12132 
C -1.55874 2.683901 -0.795609 3 0 3 
z
" id="md4057b2c5a" style="stroke:#ffffff;stroke-width:0.5;"/>
    </defs>
    <g clip-path="url(#p30d8b36145)">
     <use style="fill:#1e88e5;stroke:#ffffff;stroke-width:0.5;" x="151.521501" xlink:href="#md4057b2c5a" y="99.831269"/>
     <use style="fill:#1e88e5;stroke:#ffffff;stroke-width:0.5;" x="202.623034" xlink:href="#md4057b2c5a" y="177.424341"/>
     <use style="fill:#1e88e5;stroke:#ffffff;stroke-width:0.5;" x="206.889104" xlink:href="#md4057b2c5a" y="270.235204"/>
     <use style="fill:#1e88e5;stroke:#ffffff;stroke-width:0.5;" x="96.1539" xlink:href="#md4057b2c5a" y="270.2352"/>
     <use style="fill:#1e88e5;stroke:#ffffff;stroke-width:0.5;" x="121.554353" xlink:href="#md4057b2c5a" y="184.291319"/>
     <use style="fill:#1e88e5;stroke:#ffffff;stroke-width:0.5;" x="151.521501" xlink:href="#md4057b2c5a" y="99.831269"/>
    </g>
   </g>
   <g id="line2d_13">
    <path clip-path="url(#p30d8b36145)" d="M 151.521501 184.97082 
L 160.135614 191.22934 
L 156.845316 201.355838 
L 146.197685 201.355838 
L 142.907387 191.22934 
L 151.521501 184.97082 
" style="fill:none;stroke:#f48fb1;stroke-linecap:square;stroke-width:2;"/>
    <defs>
     <path d="M 0 3 
C 0.795609 3 1.55874 2.683901 2.12132 2.12132 
C 2.683901 1.55874 3 0.795609 3 0 
C 3 -0.795609 2.683901 -1.55874 2.12132 -2.12132 
C 1.55874 -2.683901 0.795609 -3 0 -3 
C -0.795609 -3 -1.55874 -2.683901 -2.12132 -2.12132 
C -2.683901 -1.55874 -3 -0.795609 -3 0 
C -3 0.795609 -2.683901 1.55874 -2.12132 2.12132 
C -1.55874 2.683901 -0.795609 3 0 3 
z
" id="ma0efaeba2a" style="stroke:#ffffff;stroke-width:0.5;"/>
    </defs>
    <g clip-path="url(#p30d8b36145)">
     <use style="fill:#f48fb1;stroke:#ffffff;stroke-width:0.5;" x="151.521501" xlink:href="#ma0efaeba2a" y="184.97082"/>
     <use style="fill:#f48fb1;stroke:#ffffff;stroke-width:0.5;" x="160.135614" xlink:href="#ma0efaeba2a" y="191.22934"/>
     <use style="fill:#f48fb1;stroke:#ffffff;stroke-width:0.5;" x="156.845316" xlink:href="#ma0efaeba2a" y="201.355838"/>
     <use style="fill:#f48fb1;stroke:#ffffff;stroke-width:0.5;" x="146.197685" xlink:href="#ma0efaeba2a" y="201.355838"/>
     <use style="fill:#f48fb1;stroke:#ffffff;stroke-width:0.5;" x="142.907387" xlink:href="#ma0efaeba2a" y="191.22934"/>
     <use style="fill:#f48fb1;stroke:#ffffff;stroke-width:0.5;" x="151.521501" xlink:href="#ma0efaeba2a" y="184.97082"/>
    </g>
   </g>
   <g id="line2d_14">
    <path clip-path="url(#p30d8b36145)" d="M 151.521501 109.589936 
L 237.662621 166.039289 
L 176.116564 227.880436 
L 116.85264 241.745829 
L 65.380371 166.039286 
L 151.521501 109.589936 
" style="fill:none;stroke:#c2185b;stroke-linecap:square;stroke-width:2;"/>
    <defs>
     <path d="M 0 3 
C 0.795609 3 1.55874 2.683901 2.12132 2.12132 
C 2.683901 1.55874 3 0.795609 3 0 
C 3 -0.795609 2.683901 -1.55874 2.12132 -2.12132 
C 1.55874 -2.683901 0.795609 -3 0 -3 
C -0.795609 -3 -1.55874 -2.683901 -2.12132 -2.12132 
C -2.683901 -1.55874 -3 -0.795609 -3 0 
C -3 0.795609 -2.683901 1.55874 -2.12132 2.12132 
C -1.55874 2.683901 -0.795609 3 0 3 
z
" id="m1373f2b424" style="stroke:#ffffff;stroke-width:0.5;"/>
    </defs>
    <g clip-path="url(#p30d8b36145)">
     <use style="fill:#c2185b;stroke:#ffffff;stroke-width:0.5;" x="151.521501" xlink:href="#m1373f2b424" y="109.589936"/>
     <use style="fill:#c2185b;stroke:#ffffff;stroke-width:0.5;" x="237.662621" xlink:href="#m1373f2b424" y="166.039289"/>
     <use style="fill:#c2185b;stroke:#ffffff;stroke-width:0.5;" x="176.116564" xlink:href="#m1373f2b424" y="227.880436"/>
     <use style="fill:#c2185b;stroke:#ffffff;stroke-width:0.5;" x="116.85264" xlink:href="#m1373f2b424" y="241.745829"/>
     <use style="fill:#c2185b;stroke:#ffffff;stroke-width:0.5;" x="65.380371" xlink:href="#m1373f2b424" y="166.039286"/>
     <use style="fill:#c2185b;stroke:#ffffff;stroke-width:0.5;" x="151.521501" xlink:href="#m1373f2b424" y="109.589936"/>
    </g>
   </g>
   <g id="text_6">
    <!-- Latency -->
    <g transform="translate(120.547594 37.032377)scale(0.14 -0.14)">
     <defs>
      <path d="M 9.1875 72.90625 
L 27.984375 72.90625 
L 27.984375 14.203125 
L 60.984375 14.203125 
L 60.984375 0 
L 9.1875 0 
z
" id="DejaVuSans-Bold-76"/>
      <path d="M 32.90625 24.609375 
Q 27.4375 24.609375 24.671875 22.75 
Q 21.921875 20.90625 21.921875 17.28125 
Q 21.921875 13.96875 24.140625 12.078125 
Q 26.375 10.203125 30.328125 10.203125 
Q 35.25 10.203125 38.625 13.734375 
Q 42 17.28125 42 22.609375 
L 42 24.609375 
z
M 59.625 31.203125 
L 59.625 0 
L 42 0 
L 42 8.109375 
Q 38.484375 3.125 34.078125 0.84375 
Q 29.6875 -1.421875 23.390625 -1.421875 
Q 14.890625 -1.421875 9.59375 3.53125 
Q 4.296875 8.5 4.296875 16.40625 
Q 4.296875 26.03125 10.90625 30.515625 
Q 17.53125 35.015625 31.6875 35.015625 
L 42 35.015625 
L 42 36.375 
Q 42 40.53125 38.71875 42.453125 
Q 35.453125 44.390625 28.515625 44.390625 
Q 22.90625 44.390625 18.0625 43.265625 
Q 13.234375 42.140625 9.078125 39.890625 
L 9.078125 53.21875 
Q 14.703125 54.59375 20.359375 55.296875 
Q 26.03125 56 31.6875 56 
Q 46.484375 56 53.046875 50.171875 
Q 59.625 44.34375 59.625 31.203125 
z
" id="DejaVuSans-Bold-97"/>
      <path d="M 1.21875 54.6875 
L 18.703125 54.6875 
L 33.40625 17.578125 
L 45.90625 54.6875 
L 63.375 54.6875 
L 40.375 -5.171875 
Q 36.921875 -14.3125 32.296875 -17.9375 
Q 27.6875 -21.578125 20.125 -21.578125 
L 10.015625 -21.578125 
L 10.015625 -10.109375 
L 15.484375 -10.109375 
Q 19.921875 -10.109375 21.9375 -8.6875 
Q 23.96875 -7.28125 25.09375 -3.609375 
L 25.59375 -2.09375 
z
" id="DejaVuSans-Bold-121"/>
     </defs>
     <use xlink:href="#DejaVuSans-Bold-76"/>
     <use x="63.720703" xlink:href="#DejaVuSans-Bold-97"/>
     <use x="131.201172" xlink:href="#DejaVuSans-Bold-116"/>
     <use x="179.003906" xlink:href="#DejaVuSans-Bold-101"/>
     <use x="246.826172" xlink:href="#DejaVuSans-Bold-110"/>
     <use x="318.017578" xlink:href="#DejaVuSans-Bold-99"/>
     <use x="377.294922" xlink:href="#DejaVuSans-Bold-121"/>
    </g>
   </g>
   <g id="line2d_15">
    <path clip-path="url(#p30d8b36145)" d="M 151.521501 170.229103 
L 184.505243 183.311168 
L 160.384677 206.227351 
L 142.136994 206.9449 
L 127.208274 186.128389 
L 151.521501 170.229103 
" style="fill:none;stroke:#64b5f6;stroke-linecap:square;stroke-width:2;"/>
    <defs>
     <path d="M 0 3 
C 0.795609 3 1.55874 2.683901 2.12132 2.12132 
C 2.683901 1.55874 3 0.795609 3 0 
C 3 -0.795609 2.683901 -1.55874 2.12132 -2.12132 
C 1.55874 -2.683901 0.795609 -3 0 -3 
C -0.795609 -3 -1.55874 -2.683901 -2.12132 -2.12132 
C -2.683901 -1.55874 -3 -0.795609 -3 0 
C -3 0.795609 -2.683901 1.55874 -2.12132 2.12132 
C -1.55874 2.683901 -0.795609 3 0 3 
z
" id="m7745775792" style="stroke:#ffffff;stroke-width:0.5;"/>
    </defs>
    <g clip-path="url(#p30d8b36145)">
     <use style="fill:#64b5f6;stroke:#ffffff;stroke-width:0.5;" x="151.521501" xlink:href="#m7745775792" y="170.229103"/>
     <use style="fill:#64b5f6;stroke:#ffffff;stroke-width:0.5;" x="184.505243" xlink:href="#m7745775792" y="183.311168"/>
     <use style="fill:#64b5f6;stroke:#ffffff;stroke-width:0.5;" x="160.384677" xlink:href="#m7745775792" y="206.227351"/>
     <use style="fill:#64b5f6;stroke:#ffffff;stroke-width:0.5;" x="142.136994" xlink:href="#m7745775792" y="206.9449"/>
     <use style="fill:#64b5f6;stroke:#ffffff;stroke-width:0.5;" x="127.208274" xlink:href="#m7745775792" y="186.128389"/>
     <use style="fill:#64b5f6;stroke:#ffffff;stroke-width:0.5;" x="151.521501" xlink:href="#m7745775792" y="170.229103"/>
    </g>
   </g>
  </g>
  <g id="axes_2">
   <g id="patch_8">
    <path d="M 568.610484 194.028235 
C 568.610484 179.755329 565.799033 165.621208 560.337028 152.434762 
C 554.875023 139.248316 546.868687 127.265987 536.776218 117.173518 
C 526.683749 107.081049 514.70142 99.074713 501.514974 93.612708 
C 488.328528 88.150703 474.194407 85.339252 459.921501 85.339252 
C 445.648594 85.339252 431.514474 88.150703 418.328027 93.612708 
C 405.141581 99.074713 393.159252 107.081049 383.066783 117.173518 
C 372.974314 127.265987 364.967978 139.248316 359.505973 152.434762 
C 354.043969 165.621208 351.232517 179.755329 351.232517 194.028235 
C 351.232517 208.301142 354.043969 222.435262 359.505973 235.621709 
C 364.967978 248.808155 372.974314 260.790484 383.066783 270.882953 
C 393.159252 280.975422 405.141581 288.981758 418.328027 294.443763 
C 431.514474 299.905767 445.648594 302.717219 459.921501 302.717219 
C 474.194407 302.717219 488.328528 299.905767 501.514974 294.443763 
C 514.70142 288.981758 526.683749 280.975422 536.776218 270.882953 
C 546.868687 260.790484 554.875023 248.808155 560.337028 235.621709 
C 565.799033 222.435262 568.610484 208.301142 568.610484 194.028235 
M 459.921501 194.028235 
C 459.921501 194.028235 459.921501 194.028235 459.921501 194.028235 
C 459.921501 194.028235 459.921501 194.028235 459.921501 194.028235 
C 459.921501 194.028235 459.921501 194.028235 459.921501 194.028235 
C 459.921501 194.028235 459.921501 194.028235 459.921501 194.028235 
C 459.921501 194.028235 459.921501 194.028235 459.921501 194.028235 
C 459.921501 194.028235 459.921501 194.028235 459.921501 194.028235 
C 459.921501 194.028235 459.921501 194.028235 459.921501 194.028235 
C 459.921501 194.028235 459.921501 194.028235 459.921501 194.028235 
C 459.921501 194.028235 459.921501 194.028235 459.921501 194.028235 
C 459.921501 194.028235 459.921501 194.028235 459.921501 194.028235 
C 459.921501 194.028235 459.921501 194.028235 459.921501 194.028235 
C 459.921501 194.028235 459.921501 194.028235 459.921501 194.028235 
C 459.921501 194.028235 459.921501 194.028235 459.921501 194.028235 
C 459.921501 194.028235 459.921501 194.028235 459.921501 194.028235 
C 459.921501 194.028235 459.921501 194.028235 459.921501 194.028235 
C 459.921501 194.028235 459.921501 194.028235 459.921501 194.028235 
M 568.610484 194.028235 
z
" style="fill:#ffffff;"/>
   </g>
   <g id="patch_9">
    <path clip-path="url(#pc234223ac4)" d="M 459.921501 99.831129 
L 549.508283 164.919725 
L 515.289159 270.235279 
L 404.553833 270.235292 
L 370.334717 164.919725 
z
" style="fill:none;opacity:0;"/>
   </g>
   <g id="patch_10">
    <path clip-path="url(#pc234223ac4)" d="M 459.921501 175.831797 
L 473.670153 189.561027 
L 469.138927 206.714935 
L 449.270918 208.687504 
L 447.234093 189.905847 
z
" style="fill:none;opacity:0;"/>
   </g>
   <g id="patch_11">
    <path clip-path="url(#pc234223ac4)" d="M 459.921501 184.97082 
L 468.535614 191.22934 
L 465.245316 201.355838 
L 454.597685 201.355838 
L 451.307387 191.22934 
z
" style="fill:none;opacity:0;"/>
   </g>
   <g id="patch_12">
    <path clip-path="url(#pc234223ac4)" d="M 459.921501 158.410176 
L 508.695186 178.180704 
L 479.933338 221.572166 
L 439.383314 222.296624 
L 418.137756 180.451874 
z
" style="fill:none;opacity:0;"/>
   </g>
   <g id="matplotlib.axis_3">
    <g id="xtick_6">
     <g id="line2d_16">
      <path clip-path="url(#pc234223ac4)" d="M 459.921501 194.028235 
L 459.921501 85.339252 
" style="fill:none;stroke:#b0b0b0;stroke-dasharray:2.96,1.28;stroke-dashoffset:0;stroke-opacity:0.9;stroke-width:0.8;"/>
     </g>
     <g id="text_7">
      <!-- Neuromorphic -->
      <g transform="translate(411.965563 64.150502)scale(0.12 -0.12)">
       <use xlink:href="#DejaVuSans-Bold-78"/>
       <use x="83.691406" xlink:href="#DejaVuSans-Bold-101"/>
       <use x="151.513672" xlink:href="#DejaVuSans-Bold-117"/>
       <use x="222.705078" xlink:href="#DejaVuSans-Bold-114"/>
       <use x="272.021484" xlink:href="#DejaVuSans-Bold-111"/>
       <use x="340.722656" xlink:href="#DejaVuSans-Bold-109"/>
       <use x="444.921875" xlink:href="#DejaVuSans-Bold-111"/>
       <use x="513.623047" xlink:href="#DejaVuSans-Bold-114"/>
       <use x="562.939453" xlink:href="#DejaVuSans-Bold-112"/>
       <use x="634.521484" xlink:href="#DejaVuSans-Bold-104"/>
       <use x="705.712891" xlink:href="#DejaVuSans-Bold-105"/>
       <use x="739.990234" xlink:href="#DejaVuSans-Bold-99"/>
      </g>
     </g>
    </g>
    <g id="xtick_7">
     <g id="line2d_17">
      <path clip-path="url(#pc234223ac4)" d="M 459.921501 194.028235 
L 563.290867 160.441492 
" style="fill:none;stroke:#b0b0b0;stroke-dasharray:2.96,1.28;stroke-dashoffset:0;stroke-opacity:0.9;stroke-width:0.8;"/>
     </g>
     <g id="text_8">
      <!-- Vision -->
      <g transform="translate(565.975189 156.181826)scale(0.12 -0.12)">
       <use xlink:href="#DejaVuSans-Bold-86"/>
       <use x="75.642578" xlink:href="#DejaVuSans-Bold-105"/>
       <use x="109.919922" xlink:href="#DejaVuSans-Bold-115"/>
       <use x="169.441406" xlink:href="#DejaVuSans-Bold-105"/>
       <use x="203.71875" xlink:href="#DejaVuSans-Bold-111"/>
       <use x="272.419922" xlink:href="#DejaVuSans-Bold-110"/>
      </g>
     </g>
    </g>
    <g id="xtick_8">
     <g id="line2d_18">
      <path clip-path="url(#pc234223ac4)" d="M 459.921501 194.028235 
L 523.807282 281.95947 
" style="fill:none;stroke:#b0b0b0;stroke-dasharray:2.96,1.28;stroke-dashoffset:0;stroke-opacity:0.9;stroke-width:0.8;"/>
     </g>
     <g id="text_9">
      <!-- Wireless -->
      <g transform="translate(509.236458 305.091636)scale(0.12 -0.12)">
       <use xlink:href="#DejaVuSans-Bold-87"/>
       <use x="110.302734" xlink:href="#DejaVuSans-Bold-105"/>
       <use x="144.580078" xlink:href="#DejaVuSans-Bold-114"/>
       <use x="193.896484" xlink:href="#DejaVuSans-Bold-101"/>
       <use x="261.71875" xlink:href="#DejaVuSans-Bold-108"/>
       <use x="295.996094" xlink:href="#DejaVuSans-Bold-101"/>
       <use x="363.818359" xlink:href="#DejaVuSans-Bold-115"/>
       <use x="423.339844" xlink:href="#DejaVuSans-Bold-115"/>
      </g>
     </g>
    </g>
    <g id="xtick_9">
     <g id="line2d_19">
      <path clip-path="url(#pc234223ac4)" d="M 459.921501 194.028235 
L 396.035719 281.95947 
" style="fill:none;stroke:#b0b0b0;stroke-dasharray:2.96,1.28;stroke-dashoffset:0;stroke-opacity:0.9;stroke-width:0.8;"/>
     </g>
     <g id="text_10">
      <!-- Acoustic -->
      <g transform="translate(352.98873 305.091636)scale(0.12 -0.12)">
       <use xlink:href="#DejaVuSans-Bold-65"/>
       <use x="77.392578" xlink:href="#DejaVuSans-Bold-99"/>
       <use x="136.669922" xlink:href="#DejaVuSans-Bold-111"/>
       <use x="205.371094" xlink:href="#DejaVuSans-Bold-117"/>
       <use x="276.5625" xlink:href="#DejaVuSans-Bold-115"/>
       <use x="336.083984" xlink:href="#DejaVuSans-Bold-116"/>
       <use x="383.886719" xlink:href="#DejaVuSans-Bold-105"/>
       <use x="418.164062" xlink:href="#DejaVuSans-Bold-99"/>
      </g>
     </g>
    </g>
    <g id="xtick_10">
     <g id="line2d_20">
      <path clip-path="url(#pc234223ac4)" d="M 459.921501 194.028235 
L 356.552135 160.441492 
" style="fill:none;stroke:#b0b0b0;stroke-dasharray:2.96,1.28;stroke-dashoffset:0;stroke-opacity:0.9;stroke-width:0.8;"/>
     </g>
     <g id="text_11">
      <!-- Motion -->
      <g transform="translate(309.84 156.181826)scale(0.12 -0.12)">
       <use xlink:href="#DejaVuSans-Bold-77"/>
       <use x="99.511719" xlink:href="#DejaVuSans-Bold-111"/>
       <use x="168.212891" xlink:href="#DejaVuSans-Bold-116"/>
       <use x="216.015625" xlink:href="#DejaVuSans-Bold-105"/>
       <use x="250.292969" xlink:href="#DejaVuSans-Bold-111"/>
       <use x="318.994141" xlink:href="#DejaVuSans-Bold-110"/>
      </g>
     </g>
    </g>
   </g>
   <g id="matplotlib.axis_4">
    <g id="ytick_7">
     <g id="line2d_21">
      <path clip-path="url(#pc234223ac4)" d="M 459.921501 175.913405 
C 462.300318 175.913405 464.656005 176.38198 466.853746 177.292314 
C 469.051487 178.202648 471.048542 179.537038 472.73062 181.219116 
C 474.412698 182.901194 475.747088 184.898249 476.657422 187.09599 
C 477.567756 189.293731 478.036331 191.649418 478.036331 194.028235 
C 478.036331 196.407053 477.567756 198.76274 476.657422 200.960481 
C 475.747088 203.158222 474.412698 205.155277 472.73062 206.837355 
C 471.048542 208.519433 469.051487 209.853822 466.853746 210.764156 
C 464.656005 211.674491 462.300318 212.143066 459.921501 212.143066 
C 457.542683 212.143066 455.186996 211.674491 452.989255 210.764156 
C 450.791514 209.853822 448.794459 208.519433 447.112381 206.837355 
C 445.430303 205.155277 444.095914 203.158222 443.185579 200.960481 
C 442.275245 198.76274 441.80667 196.407053 441.80667 194.028235 
C 441.80667 191.649418 442.275245 189.293731 443.185579 187.09599 
C 444.095914 184.898249 445.430303 182.901194 447.112381 181.219116 
C 448.794459 179.537038 450.791514 178.202648 452.989255 177.292314 
C 455.186996 176.38198 457.542683 175.913405 459.921501 175.913405 
" style="fill:none;stroke:#b0b0b0;stroke-dasharray:2.96,1.28;stroke-dashoffset:0;stroke-opacity:0.9;stroke-width:0.8;"/>
     </g>
    </g>
    <g id="ytick_8">
     <g id="line2d_22">
      <path clip-path="url(#pc234223ac4)" d="M 459.921501 157.798574 
C 464.679136 157.798574 469.39051 158.735725 473.785992 160.556393 
C 478.181474 162.377061 482.175583 165.04584 485.53974 168.409996 
C 488.903896 171.774153 491.572675 175.768262 493.393343 180.163744 
C 495.214011 184.559226 496.151162 189.2706 496.151162 194.028235 
C 496.151162 198.785871 495.214011 203.497244 493.393343 207.892726 
C 491.572675 212.288208 488.903896 216.282318 485.53974 219.646474 
C 482.175583 223.010631 478.181474 225.679409 473.785992 227.500078 
C 469.39051 229.320746 464.679136 230.257896 459.921501 230.257896 
C 455.163865 230.257896 450.452492 229.320746 446.05701 227.500078 
C 441.661527 225.679409 437.667418 223.010631 434.303262 219.646474 
C 430.939105 216.282318 428.270326 212.288208 426.449658 207.892726 
C 424.62899 203.497244 423.691839 198.785871 423.691839 194.028235 
C 423.691839 189.2706 424.62899 184.559226 426.449658 180.163744 
C 428.270326 175.768262 430.939105 171.774153 434.303262 168.409996 
C 437.667418 165.04584 441.661527 162.377061 446.05701 160.556393 
C 450.452492 158.735725 455.163865 157.798574 459.921501 157.798574 
" style="fill:none;stroke:#b0b0b0;stroke-dasharray:2.96,1.28;stroke-dashoffset:0;stroke-opacity:0.9;stroke-width:0.8;"/>
     </g>
    </g>
    <g id="ytick_9">
     <g id="line2d_23">
      <path clip-path="url(#pc234223ac4)" d="M 459.921501 139.683744 
C 467.057954 139.683744 474.125014 141.089469 480.718237 143.820472 
C 487.31146 146.551474 493.302625 150.554642 498.348859 155.600877 
C 503.395094 160.647111 507.398262 166.638276 510.129264 173.231499 
C 512.860267 179.824722 514.265992 186.891782 514.265992 194.028235 
C 514.265992 201.164689 512.860267 208.231749 510.129264 214.824972 
C 507.398262 221.418195 503.395094 227.409359 498.348859 232.455594 
C 493.302625 237.501828 487.31146 241.504996 480.718237 244.235999 
C 474.125014 246.967001 467.057954 248.372727 459.921501 248.372727 
C 452.785047 248.372727 445.717987 246.967001 439.124764 244.235999 
C 432.531541 241.504996 426.540376 237.501828 421.494142 232.455594 
C 416.447907 227.409359 412.444739 221.418195 409.713737 214.824972 
C 406.982735 208.231749 405.577009 201.164689 405.577009 194.028235 
C 405.577009 186.891782 406.982735 179.824722 409.713737 173.231499 
C 412.444739 166.638276 416.447907 160.647111 421.494142 155.600877 
C 426.540376 150.554642 432.531541 146.551474 439.124764 143.820472 
C 445.717987 141.089469 452.785047 139.683744 459.921501 139.683744 
" style="fill:none;stroke:#b0b0b0;stroke-dasharray:2.96,1.28;stroke-dashoffset:0;stroke-opacity:0.9;stroke-width:0.8;"/>
     </g>
    </g>
    <g id="ytick_10">
     <g id="line2d_24">
      <path clip-path="url(#pc234223ac4)" d="M 459.921501 121.568913 
C 469.436772 121.568913 478.859519 123.443214 487.650483 127.08455 
C 496.441447 130.725887 504.429666 136.063444 511.157979 142.791757 
C 517.886291 149.52007 523.223849 157.508289 526.865185 166.299253 
C 530.506522 175.090217 532.380823 184.512964 532.380823 194.028235 
C 532.380823 203.543506 530.506522 212.966253 526.865185 221.757217 
C 523.223849 230.548182 517.886291 238.536401 511.157979 245.264713 
C 504.429666 251.993026 496.441447 257.330584 487.650483 260.97192 
C 478.859519 264.613257 469.436772 266.487558 459.921501 266.487558 
C 450.40623 266.487558 440.983483 264.613257 432.192518 260.97192 
C 423.401554 257.330584 415.413335 251.993026 408.685022 245.264713 
C 401.95671 238.536401 396.619152 230.548182 392.977816 221.757217 
C 389.336479 212.966253 387.462178 203.543506 387.462178 194.028235 
C 387.462178 184.512964 389.336479 175.090217 392.977816 166.299253 
C 396.619152 157.508289 401.95671 149.52007 408.685022 142.791757 
C 415.413335 136.063444 423.401554 130.725887 432.192518 127.08455 
C 440.983483 123.443214 450.40623 121.568913 459.921501 121.568913 
" style="fill:none;stroke:#b0b0b0;stroke-dasharray:2.96,1.28;stroke-dashoffset:0;stroke-opacity:0.9;stroke-width:0.8;"/>
     </g>
    </g>
    <g id="ytick_11">
     <g id="line2d_25">
      <path clip-path="url(#pc234223ac4)" d="M 459.921501 103.454082 
C 471.815589 103.454082 483.594023 105.796959 494.582728 110.348629 
C 505.571433 114.9003 515.556707 121.572247 523.967098 129.982638 
C 532.377489 138.393028 539.049436 148.378302 543.601107 159.367008 
C 548.152777 170.355713 550.495653 182.134147 550.495653 194.028235 
C 550.495653 205.922324 548.152777 217.700758 543.601107 228.689463 
C 539.049436 239.678168 532.377489 249.663442 523.967098 258.073833 
C 515.556707 266.484224 505.571433 273.156171 494.582728 277.707841 
C 483.594023 282.259512 471.815589 284.602388 459.921501 284.602388 
C 448.027412 284.602388 436.248978 282.259512 425.260273 277.707841 
C 414.271568 273.156171 404.286294 266.484224 395.875903 258.073833 
C 387.465512 249.663442 380.793565 239.678168 376.241895 228.689463 
C 371.690224 217.700758 369.347348 205.922324 369.347348 194.028235 
C 369.347348 182.134147 371.690224 170.355713 376.241895 159.367008 
C 380.793565 148.378302 387.465512 138.393028 395.875903 129.982638 
C 404.286294 121.572247 414.271568 114.9003 425.260273 110.348629 
C 436.248978 105.796959 448.027412 103.454082 459.921501 103.454082 
" style="fill:none;stroke:#b0b0b0;stroke-dasharray:2.96,1.28;stroke-dashoffset:0;stroke-opacity:0.9;stroke-width:0.8;"/>
     </g>
    </g>
    <g id="ytick_12">
     <g id="line2d_26">
      <path clip-path="url(#pc234223ac4)" d="M 459.921501 85.339252 
C 474.194407 85.339252 488.328528 88.150703 501.514974 93.612708 
C 514.70142 99.074713 526.683749 107.081049 536.776218 117.173518 
C 546.868687 127.265987 554.875023 139.248316 560.337028 152.434762 
C 565.799033 165.621208 568.610484 179.755329 568.610484 194.028235 
C 568.610484 208.301142 565.799033 222.435262 560.337028 235.621709 
C 554.875023 248.808155 546.868687 260.790484 536.776218 270.882953 
C 526.683749 280.975422 514.70142 288.981758 501.514974 294.443763 
C 488.328528 299.905767 474.194407 302.717219 459.921501 302.717219 
C 445.648594 302.717219 431.514474 299.905767 418.328027 294.443763 
C 405.141581 288.981758 393.159252 280.975422 383.066783 270.882953 
C 372.974314 260.790484 364.967978 248.808155 359.505973 235.621709 
C 354.043969 222.435262 351.232517 208.301142 351.232517 194.028235 
C 351.232517 179.755329 354.043969 165.621208 359.505973 152.434762 
C 364.967978 139.248316 372.974314 127.265987 383.066783 117.173518 
C 393.159252 107.081049 405.141581 99.074713 418.328027 93.612708 
C 431.514474 88.150703 445.648594 85.339252 459.921501 85.339252 
" style="fill:none;stroke:#b0b0b0;stroke-dasharray:2.96,1.28;stroke-dashoffset:0;stroke-opacity:0.9;stroke-width:0.8;"/>
     </g>
    </g>
   </g>
   <g id="patch_13">
    <path d="M 459.921501 85.339252 
C 445.648594 85.339252 431.514474 88.150703 418.328027 93.612708 
C 405.141581 99.074713 393.159252 107.081049 383.066783 117.173518 
C 372.974314 127.265987 364.967978 139.248316 359.505973 152.434762 
C 354.043969 165.621208 351.232517 179.755329 351.232517 194.028235 
C 351.232517 208.301142 354.043969 222.435262 359.505973 235.621709 
C 364.967978 248.808155 372.974314 260.790484 383.066783 270.882953 
C 393.159252 280.975422 405.141581 288.981758 418.328027 294.443763 
C 431.514474 299.905767 445.648594 302.717219 459.921501 302.717219 
C 474.194407 302.717219 488.328528 299.905767 501.514974 294.443763 
C 514.70142 288.981758 526.683749 280.975422 536.776218 270.882953 
C 546.868687 260.790484 554.875023 248.808155 560.337028 235.621709 
C 565.799033 222.435262 568.610484 208.301142 568.610484 194.028235 
C 568.610484 179.755329 565.799033 165.621208 560.337028 152.434762 
C 554.875023 139.248316 546.868687 127.265987 536.776218 117.173518 
C 526.683749 107.081049 514.70142 99.074713 501.514974 93.612708 
C 488.328528 88.150703 474.194407 85.339252 459.921501 85.339252 
" style="fill:none;stroke:#000000;stroke-linecap:square;stroke-linejoin:miter;stroke-width:1.5;"/>
   </g>
   <g id="line2d_27">
    <path clip-path="url(#pc234223ac4)" d="M 459.921501 99.831129 
L 549.508283 164.919725 
L 515.289159 270.235279 
L 404.553833 270.235292 
L 370.334717 164.919725 
L 459.921501 99.831129 
" style="fill:none;stroke:#1e88e5;stroke-linecap:square;stroke-width:2;"/>
    <g clip-path="url(#pc234223ac4)">
     <use style="fill:#1e88e5;stroke:#ffffff;stroke-width:0.5;" x="459.921501" xlink:href="#md4057b2c5a" y="99.831129"/>
     <use style="fill:#1e88e5;stroke:#ffffff;stroke-width:0.5;" x="549.508283" xlink:href="#md4057b2c5a" y="164.919725"/>
     <use style="fill:#1e88e5;stroke:#ffffff;stroke-width:0.5;" x="515.289159" xlink:href="#md4057b2c5a" y="270.235279"/>
     <use style="fill:#1e88e5;stroke:#ffffff;stroke-width:0.5;" x="404.553833" xlink:href="#md4057b2c5a" y="270.235292"/>
     <use style="fill:#1e88e5;stroke:#ffffff;stroke-width:0.5;" x="370.334717" xlink:href="#md4057b2c5a" y="164.919725"/>
     <use style="fill:#1e88e5;stroke:#ffffff;stroke-width:0.5;" x="459.921501" xlink:href="#md4057b2c5a" y="99.831129"/>
    </g>
   </g>
   <g id="line2d_28">
    <path clip-path="url(#pc234223ac4)" d="M 459.921501 184.97082 
L 468.535614 191.22934 
L 465.245316 201.355838 
L 454.597685 201.355838 
L 451.307387 191.22934 
L 459.921501 184.97082 
" style="fill:none;stroke:#f48fb1;stroke-linecap:square;stroke-width:2;"/>
    <g clip-path="url(#pc234223ac4)">
     <use style="fill:#f48fb1;stroke:#ffffff;stroke-width:0.5;" x="459.921501" xlink:href="#ma0efaeba2a" y="184.97082"/>
     <use style="fill:#f48fb1;stroke:#ffffff;stroke-width:0.5;" x="468.535614" xlink:href="#ma0efaeba2a" y="191.22934"/>
     <use style="fill:#f48fb1;stroke:#ffffff;stroke-width:0.5;" x="465.245316" xlink:href="#ma0efaeba2a" y="201.355838"/>
     <use style="fill:#f48fb1;stroke:#ffffff;stroke-width:0.5;" x="454.597685" xlink:href="#ma0efaeba2a" y="201.355838"/>
     <use style="fill:#f48fb1;stroke:#ffffff;stroke-width:0.5;" x="451.307387" xlink:href="#ma0efaeba2a" y="191.22934"/>
     <use style="fill:#f48fb1;stroke:#ffffff;stroke-width:0.5;" x="459.921501" xlink:href="#ma0efaeba2a" y="184.97082"/>
    </g>
   </g>
   <g id="line2d_29">
    <path clip-path="url(#pc234223ac4)" d="M 459.921501 158.410176 
L 508.695186 178.180704 
L 479.933338 221.572166 
L 439.383314 222.296624 
L 418.137756 180.451874 
L 459.921501 158.410176 
" style="fill:none;stroke:#c2185b;stroke-linecap:square;stroke-width:2;"/>
    <g clip-path="url(#pc234223ac4)">
     <use style="fill:#c2185b;stroke:#ffffff;stroke-width:0.5;" x="459.921501" xlink:href="#m1373f2b424" y="158.410176"/>
     <use style="fill:#c2185b;stroke:#ffffff;stroke-width:0.5;" x="508.695186" xlink:href="#m1373f2b424" y="178.180704"/>
     <use style="fill:#c2185b;stroke:#ffffff;stroke-width:0.5;" x="479.933338" xlink:href="#m1373f2b424" y="221.572166"/>
     <use style="fill:#c2185b;stroke:#ffffff;stroke-width:0.5;" x="439.383314" xlink:href="#m1373f2b424" y="222.296624"/>
     <use style="fill:#c2185b;stroke:#ffffff;stroke-width:0.5;" x="418.137756" xlink:href="#m1373f2b424" y="180.451874"/>
     <use style="fill:#c2185b;stroke:#ffffff;stroke-width:0.5;" x="459.921501" xlink:href="#m1373f2b424" y="158.410176"/>
    </g>
   </g>
   <g id="text_12">
    <!-- Energy -->
    <g transform="translate(432.383063 37.032377)scale(0.14 -0.14)">
     <defs>
      <path d="M 9.1875 72.90625 
L 59.90625 72.90625 
L 59.90625 58.6875 
L 27.984375 58.6875 
L 27.984375 45.125 
L 58.015625 45.125 
L 58.015625 30.90625 
L 27.984375 30.90625 
L 27.984375 14.203125 
L 60.984375 14.203125 
L 60.984375 0 
L 9.1875 0 
z
" id="DejaVuSans-Bold-69"/>
      <path d="M 45.609375 9.28125 
Q 42 4.5 37.640625 2.25 
Q 33.296875 0 27.59375 0 
Q 17.578125 0 11.03125 7.875 
Q 4.5 15.765625 4.5 27.984375 
Q 4.5 40.234375 11.03125 48.0625 
Q 17.578125 55.90625 27.59375 55.90625 
Q 33.296875 55.90625 37.640625 53.65625 
Q 42 51.421875 45.609375 46.578125 
L 45.609375 54.6875 
L 63.1875 54.6875 
L 63.1875 5.515625 
Q 63.1875 -7.671875 54.859375 -14.625 
Q 46.53125 -21.578125 30.71875 -21.578125 
Q 25.59375 -21.578125 20.796875 -20.796875 
Q 16.015625 -20.015625 11.1875 -18.40625 
L 11.1875 -4.78125 
Q 15.765625 -7.421875 20.15625 -8.71875 
Q 24.5625 -10.015625 29 -10.015625 
Q 37.59375 -10.015625 41.59375 -6.25 
Q 45.609375 -2.484375 45.609375 5.515625 
z
M 34.078125 43.3125 
Q 28.65625 43.3125 25.625 39.296875 
Q 22.609375 35.296875 22.609375 27.984375 
Q 22.609375 20.453125 25.53125 16.578125 
Q 28.46875 12.703125 34.078125 12.703125 
Q 39.546875 12.703125 42.578125 16.703125 
Q 45.609375 20.703125 45.609375 27.984375 
Q 45.609375 35.296875 42.578125 39.296875 
Q 39.546875 43.3125 34.078125 43.3125 
z
" id="DejaVuSans-Bold-103"/>
     </defs>
     <use xlink:href="#DejaVuSans-Bold-69"/>
     <use x="68.310547" xlink:href="#DejaVuSans-Bold-110"/>
     <use x="139.501953" xlink:href="#DejaVuSans-Bold-101"/>
     <use x="207.324219" xlink:href="#DejaVuSans-Bold-114"/>
     <use x="256.640625" xlink:href="#DejaVuSans-Bold-103"/>
     <use x="328.222656" xlink:href="#DejaVuSans-Bold-121"/>
    </g>
   </g>
   <g id="line2d_30">
    <path clip-path="url(#pc234223ac4)" d="M 459.921501 175.831797 
L 473.670153 189.561027 
L 469.138927 206.714935 
L 449.270918 208.687504 
L 447.234093 189.905847 
L 459.921501 175.831797 
" style="fill:none;stroke:#64b5f6;stroke-linecap:square;stroke-width:2;"/>
    <g clip-path="url(#pc234223ac4)">
     <use style="fill:#64b5f6;stroke:#ffffff;stroke-width:0.5;" x="459.921501" xlink:href="#m7745775792" y="175.831797"/>
     <use style="fill:#64b5f6;stroke:#ffffff;stroke-width:0.5;" x="473.670153" xlink:href="#m7745775792" y="189.561027"/>
     <use style="fill:#64b5f6;stroke:#ffffff;stroke-width:0.5;" x="469.138927" xlink:href="#m7745775792" y="206.714935"/>
     <use style="fill:#64b5f6;stroke:#ffffff;stroke-width:0.5;" x="449.270918" xlink:href="#m7745775792" y="208.687504"/>
     <use style="fill:#64b5f6;stroke:#ffffff;stroke-width:0.5;" x="447.234093" xlink:href="#m7745775792" y="189.905847"/>
     <use style="fill:#64b5f6;stroke:#ffffff;stroke-width:0.5;" x="459.921501" xlink:href="#m7745775792" y="175.831797"/>
    </g>
   </g>
  </g>
  <g id="axes_3">
   <g id="patch_14">
    <path d="M 877.010484 194.028235 
C 877.010484 179.755329 874.199033 165.621208 868.737028 152.434762 
C 863.275023 139.248316 855.268687 127.265987 845.176218 117.173518 
C 835.083749 107.081049 823.10142 99.074713 809.914974 93.612708 
C 796.728528 88.150703 782.594407 85.339252 768.321501 85.339252 
C 754.048594 85.339252 739.914474 88.150703 726.728027 93.612708 
C 713.541581 99.074713 701.559252 107.081049 691.466783 117.173518 
C 681.374314 127.265987 673.367978 139.248316 667.905973 152.434762 
C 662.443969 165.621208 659.632517 179.755329 659.632517 194.028235 
C 659.632517 208.301142 662.443969 222.435262 667.905973 235.621709 
C 673.367978 248.808155 681.374314 260.790484 691.466783 270.882953 
C 701.559252 280.975422 713.541581 288.981758 726.728027 294.443763 
C 739.914474 299.905767 754.048594 302.717219 768.321501 302.717219 
C 782.594407 302.717219 796.728528 299.905767 809.914974 294.443763 
C 823.10142 288.981758 835.083749 280.975422 845.176218 270.882953 
C 855.268687 260.790484 863.275023 248.808155 868.737028 235.621709 
C 874.199033 222.435262 877.010484 208.301142 877.010484 194.028235 
M 768.321501 194.028235 
C 768.321501 194.028235 768.321501 194.028235 768.321501 194.028235 
C 768.321501 194.028235 768.321501 194.028235 768.321501 194.028235 
C 768.321501 194.028235 768.321501 194.028235 768.321501 194.028235 
C 768.321501 194.028235 768.321501 194.028235 768.321501 194.028235 
C 768.321501 194.028235 768.321501 194.028235 768.321501 194.028235 
C 768.321501 194.028235 768.321501 194.028235 768.321501 194.028235 
C 768.321501 194.028235 768.321501 194.028235 768.321501 194.028235 
C 768.321501 194.028235 768.321501 194.028235 768.321501 194.028235 
C 768.321501 194.028235 768.321501 194.028235 768.321501 194.028235 
C 768.321501 194.028235 768.321501 194.028235 768.321501 194.028235 
C 768.321501 194.028235 768.321501 194.028235 768.321501 194.028235 
C 768.321501 194.028235 768.321501 194.028235 768.321501 194.028235 
C 768.321501 194.028235 768.321501 194.028235 768.321501 194.028235 
C 768.321501 194.028235 768.321501 194.028235 768.321501 194.028235 
C 768.321501 194.028235 768.321501 194.028235 768.321501 194.028235 
C 768.321501 194.028235 768.321501 194.028235 768.321501 194.028235 
M 877.010484 194.028235 
z
" style="fill:#ffffff;"/>
   </g>
   <g id="patch_15">
    <path clip-path="url(#p1c97dfe957)" d="M 768.321501 165.077171 
L 794.499387 185.522525 
L 785.465975 217.62558 
L 751.307507 217.445988 
L 741.910682 185.44684 
z
" style="fill:none;opacity:0;"/>
   </g>
   <g id="patch_16">
    <path clip-path="url(#p1c97dfe957)" d="M 768.321501 170.31022 
L 790.291611 186.889714 
L 782.311468 213.283773 
L 754.360625 213.243732 
L 746.518085 186.943876 
z
" style="fill:none;opacity:0;"/>
   </g>
   <g id="patch_17">
    <path clip-path="url(#p1c97dfe957)" d="M 768.321501 103.462326 
L 854.461684 166.039593 
L 821.544822 267.283853 
L 715.091309 267.293308 
L 682.180805 166.039427 
z
" style="fill:none;opacity:0;"/>
   </g>
   <g id="patch_18">
    <path clip-path="url(#p1c97dfe957)" d="M 768.321501 184.97082 
L 776.935614 191.22934 
L 773.645316 201.355838 
L 762.997685 201.355838 
L 759.707387 191.22934 
z
" style="fill:none;opacity:0;"/>
   </g>
   <g id="matplotlib.axis_5">
    <g id="xtick_11">
     <g id="line2d_31">
      <path clip-path="url(#p1c97dfe957)" d="M 768.321501 194.028235 
L 768.321501 85.339252 
" style="fill:none;stroke:#b0b0b0;stroke-dasharray:2.96,1.28;stroke-dashoffset:0;stroke-opacity:0.9;stroke-width:0.8;"/>
     </g>
     <g id="text_13">
      <!-- Neuromorphic -->
      <g transform="translate(720.365563 64.150502)scale(0.12 -0.12)">
       <use xlink:href="#DejaVuSans-Bold-78"/>
       <use x="83.691406" xlink:href="#DejaVuSans-Bold-101"/>
       <use x="151.513672" xlink:href="#DejaVuSans-Bold-117"/>
       <use x="222.705078" xlink:href="#DejaVuSans-Bold-114"/>
       <use x="272.021484" xlink:href="#DejaVuSans-Bold-111"/>
       <use x="340.722656" xlink:href="#DejaVuSans-Bold-109"/>
       <use x="444.921875" xlink:href="#DejaVuSans-Bold-111"/>
       <use x="513.623047" xlink:href="#DejaVuSans-Bold-114"/>
       <use x="562.939453" xlink:href="#DejaVuSans-Bold-112"/>
       <use x="634.521484" xlink:href="#DejaVuSans-Bold-104"/>
       <use x="705.712891" xlink:href="#DejaVuSans-Bold-105"/>
       <use x="739.990234" xlink:href="#DejaVuSans-Bold-99"/>
      </g>
     </g>
    </g>
    <g id="xtick_12">
     <g id="line2d_32">
      <path clip-path="url(#p1c97dfe957)" d="M 768.321501 194.028235 
L 871.690867 160.441492 
" style="fill:none;stroke:#b0b0b0;stroke-dasharray:2.96,1.28;stroke-dashoffset:0;stroke-opacity:0.9;stroke-width:0.8;"/>
     </g>
     <g id="text_14">
      <!-- Vision -->
      <g transform="translate(874.375189 156.181826)scale(0.12 -0.12)">
       <use xlink:href="#DejaVuSans-Bold-86"/>
       <use x="75.642578" xlink:href="#DejaVuSans-Bold-105"/>
       <use x="109.919922" xlink:href="#DejaVuSans-Bold-115"/>
       <use x="169.441406" xlink:href="#DejaVuSans-Bold-105"/>
       <use x="203.71875" xlink:href="#DejaVuSans-Bold-111"/>
       <use x="272.419922" xlink:href="#DejaVuSans-Bold-110"/>
      </g>
     </g>
    </g>
    <g id="xtick_13">
     <g id="line2d_33">
      <path clip-path="url(#p1c97dfe957)" d="M 768.321501 194.028235 
L 832.207282 281.95947 
" style="fill:none;stroke:#b0b0b0;stroke-dasharray:2.96,1.28;stroke-dashoffset:0;stroke-opacity:0.9;stroke-width:0.8;"/>
     </g>
     <g id="text_15">
      <!-- Wireless -->
      <g transform="translate(817.636458 305.091636)scale(0.12 -0.12)">
       <use xlink:href="#DejaVuSans-Bold-87"/>
       <use x="110.302734" xlink:href="#DejaVuSans-Bold-105"/>
       <use x="144.580078" xlink:href="#DejaVuSans-Bold-114"/>
       <use x="193.896484" xlink:href="#DejaVuSans-Bold-101"/>
       <use x="261.71875" xlink:href="#DejaVuSans-Bold-108"/>
       <use x="295.996094" xlink:href="#DejaVuSans-Bold-101"/>
       <use x="363.818359" xlink:href="#DejaVuSans-Bold-115"/>
       <use x="423.339844" xlink:href="#DejaVuSans-Bold-115"/>
      </g>
     </g>
    </g>
    <g id="xtick_14">
     <g id="line2d_34">
      <path clip-path="url(#p1c97dfe957)" d="M 768.321501 194.028235 
L 704.435719 281.95947 
" style="fill:none;stroke:#b0b0b0;stroke-dasharray:2.96,1.28;stroke-dashoffset:0;stroke-opacity:0.9;stroke-width:0.8;"/>
     </g>
     <g id="text_16">
      <!-- Acoustic -->
      <g transform="translate(661.38873 305.091636)scale(0.12 -0.12)">
       <use xlink:href="#DejaVuSans-Bold-65"/>
       <use x="77.392578" xlink:href="#DejaVuSans-Bold-99"/>
       <use x="136.669922" xlink:href="#DejaVuSans-Bold-111"/>
       <use x="205.371094" xlink:href="#DejaVuSans-Bold-117"/>
       <use x="276.5625" xlink:href="#DejaVuSans-Bold-115"/>
       <use x="336.083984" xlink:href="#DejaVuSans-Bold-116"/>
       <use x="383.886719" xlink:href="#DejaVuSans-Bold-105"/>
       <use x="418.164062" xlink:href="#DejaVuSans-Bold-99"/>
      </g>
     </g>
    </g>
    <g id="xtick_15">
     <g id="line2d_35">
      <path clip-path="url(#p1c97dfe957)" d="M 768.321501 194.028235 
L 664.952135 160.441492 
" style="fill:none;stroke:#b0b0b0;stroke-dasharray:2.96,1.28;stroke-dashoffset:0;stroke-opacity:0.9;stroke-width:0.8;"/>
     </g>
     <g id="text_17">
      <!-- Motion -->
      <g transform="translate(618.24 156.181826)scale(0.12 -0.12)">
       <use xlink:href="#DejaVuSans-Bold-77"/>
       <use x="99.511719" xlink:href="#DejaVuSans-Bold-111"/>
       <use x="168.212891" xlink:href="#DejaVuSans-Bold-116"/>
       <use x="216.015625" xlink:href="#DejaVuSans-Bold-105"/>
       <use x="250.292969" xlink:href="#DejaVuSans-Bold-111"/>
       <use x="318.994141" xlink:href="#DejaVuSans-Bold-110"/>
      </g>
     </g>
    </g>
   </g>
   <g id="matplotlib.axis_6">
    <g id="ytick_13">
     <g id="line2d_36">
      <path clip-path="url(#p1c97dfe957)" d="M 768.321501 175.913405 
C 770.700318 175.913405 773.056005 176.38198 775.253746 177.292314 
C 777.451487 178.202648 779.448542 179.537038 781.13062 181.219116 
C 782.812698 182.901194 784.147088 184.898249 785.057422 187.09599 
C 785.967756 189.293731 786.436331 191.649418 786.436331 194.028235 
C 786.436331 196.407053 785.967756 198.76274 785.057422 200.960481 
C 784.147088 203.158222 782.812698 205.155277 781.13062 206.837355 
C 779.448542 208.519433 777.451487 209.853822 775.253746 210.764156 
C 773.056005 211.674491 770.700318 212.143066 768.321501 212.143066 
C 765.942683 212.143066 763.586996 211.674491 761.389255 210.764156 
C 759.191514 209.853822 757.194459 208.519433 755.512381 206.837355 
C 753.830303 205.155277 752.495914 203.158222 751.585579 200.960481 
C 750.675245 198.76274 750.20667 196.407053 750.20667 194.028235 
C 750.20667 191.649418 750.675245 189.293731 751.585579 187.09599 
C 752.495914 184.898249 753.830303 182.901194 755.512381 181.219116 
C 757.194459 179.537038 759.191514 178.202648 761.389255 177.292314 
C 763.586996 176.38198 765.942683 175.913405 768.321501 175.913405 
" style="fill:none;stroke:#b0b0b0;stroke-dasharray:2.96,1.28;stroke-dashoffset:0;stroke-opacity:0.9;stroke-width:0.8;"/>
     </g>
    </g>
    <g id="ytick_14">
     <g id="line2d_37">
      <path clip-path="url(#p1c97dfe957)" d="M 768.321501 157.798574 
C 773.079136 157.798574 777.79051 158.735725 782.185992 160.556393 
C 786.581474 162.377061 790.575583 165.04584 793.93974 168.409996 
C 797.303896 171.774153 799.972675 175.768262 801.793343 180.163744 
C 803.614011 184.559226 804.551162 189.2706 804.551162 194.028235 
C 804.551162 198.785871 803.614011 203.497244 801.793343 207.892726 
C 799.972675 212.288208 797.303896 216.282318 793.93974 219.646474 
C 790.575583 223.010631 786.581474 225.679409 782.185992 227.500078 
C 777.79051 229.320746 773.079136 230.257896 768.321501 230.257896 
C 763.563865 230.257896 758.852492 229.320746 754.45701 227.500078 
C 750.061527 225.679409 746.067418 223.010631 742.703262 219.646474 
C 739.339105 216.282318 736.670326 212.288208 734.849658 207.892726 
C 733.02899 203.497244 732.091839 198.785871 732.091839 194.028235 
C 732.091839 189.2706 733.02899 184.559226 734.849658 180.163744 
C 736.670326 175.768262 739.339105 171.774153 742.703262 168.409996 
C 746.067418 165.04584 750.061527 162.377061 754.45701 160.556393 
C 758.852492 158.735725 763.563865 157.798574 768.321501 157.798574 
" style="fill:none;stroke:#b0b0b0;stroke-dasharray:2.96,1.28;stroke-dashoffset:0;stroke-opacity:0.9;stroke-width:0.8;"/>
     </g>
    </g>
    <g id="ytick_15">
     <g id="line2d_38">
      <path clip-path="url(#p1c97dfe957)" d="M 768.321501 139.683744 
C 775.457954 139.683744 782.525014 141.089469 789.118237 143.820472 
C 795.71146 146.551474 801.702625 150.554642 806.748859 155.600877 
C 811.795094 160.647111 815.798262 166.638276 818.529264 173.231499 
C 821.260267 179.824722 822.665992 186.891782 822.665992 194.028235 
C 822.665992 201.164689 821.260267 208.231749 818.529264 214.824972 
C 815.798262 221.418195 811.795094 227.409359 806.748859 232.455594 
C 801.702625 237.501828 795.71146 241.504996 789.118237 244.235999 
C 782.525014 246.967001 775.457954 248.372727 768.321501 248.372727 
C 761.185047 248.372727 754.117987 246.967001 747.524764 244.235999 
C 740.931541 241.504996 734.940376 237.501828 729.894142 232.455594 
C 724.847907 227.409359 720.844739 221.418195 718.113737 214.824972 
C 715.382735 208.231749 713.977009 201.164689 713.977009 194.028235 
C 713.977009 186.891782 715.382735 179.824722 718.113737 173.231499 
C 720.844739 166.638276 724.847907 160.647111 729.894142 155.600877 
C 734.940376 150.554642 740.931541 146.551474 747.524764 143.820472 
C 754.117987 141.089469 761.185047 139.683744 768.321501 139.683744 
" style="fill:none;stroke:#b0b0b0;stroke-dasharray:2.96,1.28;stroke-dashoffset:0;stroke-opacity:0.9;stroke-width:0.8;"/>
     </g>
    </g>
    <g id="ytick_16">
     <g id="line2d_39">
      <path clip-path="url(#p1c97dfe957)" d="M 768.321501 121.568913 
C 777.836772 121.568913 787.259519 123.443214 796.050483 127.08455 
C 804.841447 130.725887 812.829666 136.063444 819.557979 142.791757 
C 826.286291 149.52007 831.623849 157.508289 835.265185 166.299253 
C 838.906522 175.090217 840.780823 184.512964 840.780823 194.028235 
C 840.780823 203.543506 838.906522 212.966253 835.265185 221.757217 
C 831.623849 230.548182 826.286291 238.536401 819.557979 245.264713 
C 812.829666 251.993026 804.841447 257.330584 796.050483 260.97192 
C 787.259519 264.613257 777.836772 266.487558 768.321501 266.487558 
C 758.80623 266.487558 749.383483 264.613257 740.592518 260.97192 
C 731.801554 257.330584 723.813335 251.993026 717.085022 245.264713 
C 710.35671 238.536401 705.019152 230.548182 701.377816 221.757217 
C 697.736479 212.966253 695.862178 203.543506 695.862178 194.028235 
C 695.862178 184.512964 697.736479 175.090217 701.377816 166.299253 
C 705.019152 157.508289 710.35671 149.52007 717.085022 142.791757 
C 723.813335 136.063444 731.801554 130.725887 740.592518 127.08455 
C 749.383483 123.443214 758.80623 121.568913 768.321501 121.568913 
" style="fill:none;stroke:#b0b0b0;stroke-dasharray:2.96,1.28;stroke-dashoffset:0;stroke-opacity:0.9;stroke-width:0.8;"/>
     </g>
    </g>
    <g id="ytick_17">
     <g id="line2d_40">
      <path clip-path="url(#p1c97dfe957)" d="M 768.321501 103.454082 
C 780.215589 103.454082 791.994023 105.796959 802.982728 110.348629 
C 813.971433 114.9003 823.956707 121.572247 832.367098 129.982638 
C 840.777489 138.393028 847.449436 148.378302 852.001107 159.367008 
C 856.552777 170.355713 858.895653 182.134147 858.895653 194.028235 
C 858.895653 205.922324 856.552777 217.700758 852.001107 228.689463 
C 847.449436 239.678168 840.777489 249.663442 832.367098 258.073833 
C 823.956707 266.484224 813.971433 273.156171 802.982728 277.707841 
C 791.994023 282.259512 780.215589 284.602388 768.321501 284.602388 
C 756.427412 284.602388 744.648978 282.259512 733.660273 277.707841 
C 722.671568 273.156171 712.686294 266.484224 704.275903 258.073833 
C 695.865512 249.663442 689.193565 239.678168 684.641895 228.689463 
C 680.090224 217.700758 677.747348 205.922324 677.747348 194.028235 
C 677.747348 182.134147 680.090224 170.355713 684.641895 159.367008 
C 689.193565 148.378302 695.865512 138.393028 704.275903 129.982638 
C 712.686294 121.572247 722.671568 114.9003 733.660273 110.348629 
C 744.648978 105.796959 756.427412 103.454082 768.321501 103.454082 
" style="fill:none;stroke:#b0b0b0;stroke-dasharray:2.96,1.28;stroke-dashoffset:0;stroke-opacity:0.9;stroke-width:0.8;"/>
     </g>
    </g>
    <g id="ytick_18">
     <g id="line2d_41">
      <path clip-path="url(#p1c97dfe957)" d="M 768.321501 85.339252 
C 782.594407 85.339252 796.728528 88.150703 809.914974 93.612708 
C 823.10142 99.074713 835.083749 107.081049 845.176218 117.173518 
C 855.268687 127.265987 863.275023 139.248316 868.737028 152.434762 
C 874.199033 165.621208 877.010484 179.755329 877.010484 194.028235 
C 877.010484 208.301142 874.199033 222.435262 868.737028 235.621709 
C 863.275023 248.808155 855.268687 260.790484 845.176218 270.882953 
C 835.083749 280.975422 823.10142 288.981758 809.914974 294.443763 
C 796.728528 299.905767 782.594407 302.717219 768.321501 302.717219 
C 754.048594 302.717219 739.914474 299.905767 726.728027 294.443763 
C 713.541581 288.981758 701.559252 280.975422 691.466783 270.882953 
C 681.374314 260.790484 673.367978 248.808155 667.905973 235.621709 
C 662.443969 222.435262 659.632517 208.301142 659.632517 194.028235 
C 659.632517 179.755329 662.443969 165.621208 667.905973 152.434762 
C 673.367978 139.248316 681.374314 127.265987 691.466783 117.173518 
C 701.559252 107.081049 713.541581 99.074713 726.728027 93.612708 
C 739.914474 88.150703 754.048594 85.339252 768.321501 85.339252 
" style="fill:none;stroke:#b0b0b0;stroke-dasharray:2.96,1.28;stroke-dashoffset:0;stroke-opacity:0.9;stroke-width:0.8;"/>
     </g>
    </g>
   </g>
   <g id="patch_19">
    <path d="M 768.321501 85.339252 
C 754.048594 85.339252 739.914474 88.150703 726.728027 93.612708 
C 713.541581 99.074713 701.559252 107.081049 691.466783 117.173518 
C 681.374314 127.265987 673.367978 139.248316 667.905973 152.434762 
C 662.443969 165.621208 659.632517 179.755329 659.632517 194.028235 
C 659.632517 208.301142 662.443969 222.435262 667.905973 235.621709 
C 673.367978 248.808155 681.374314 260.790484 691.466783 270.882953 
C 701.559252 280.975422 713.541581 288.981758 726.728027 294.443763 
C 739.914474 299.905767 754.048594 302.717219 768.321501 302.717219 
C 782.594407 302.717219 796.728528 299.905767 809.914974 294.443763 
C 823.10142 288.981758 835.083749 280.975422 845.176218 270.882953 
C 855.268687 260.790484 863.275023 248.808155 868.737028 235.621709 
C 874.199033 222.435262 877.010484 208.301142 877.010484 194.028235 
C 877.010484 179.755329 874.199033 165.621208 868.737028 152.434762 
C 863.275023 139.248316 855.268687 127.265987 845.176218 117.173518 
C 835.083749 107.081049 823.10142 99.074713 809.914974 93.612708 
C 796.728528 88.150703 782.594407 85.339252 768.321501 85.339252 
" style="fill:none;stroke:#000000;stroke-linecap:square;stroke-linejoin:miter;stroke-width:1.5;"/>
   </g>
   <g id="line2d_42">
    <path clip-path="url(#p1c97dfe957)" d="M 768.321501 165.077171 
L 794.499387 185.522525 
L 785.465975 217.62558 
L 751.307507 217.445988 
L 741.910682 185.44684 
L 768.321501 165.077171 
" style="fill:none;stroke:#1e88e5;stroke-linecap:square;stroke-width:2;"/>
    <g clip-path="url(#p1c97dfe957)">
     <use style="fill:#1e88e5;stroke:#ffffff;stroke-width:0.5;" x="768.321501" xlink:href="#md4057b2c5a" y="165.077171"/>
     <use style="fill:#1e88e5;stroke:#ffffff;stroke-width:0.5;" x="794.499387" xlink:href="#md4057b2c5a" y="185.522525"/>
     <use style="fill:#1e88e5;stroke:#ffffff;stroke-width:0.5;" x="785.465975" xlink:href="#md4057b2c5a" y="217.62558"/>
     <use style="fill:#1e88e5;stroke:#ffffff;stroke-width:0.5;" x="751.307507" xlink:href="#md4057b2c5a" y="217.445988"/>
     <use style="fill:#1e88e5;stroke:#ffffff;stroke-width:0.5;" x="741.910682" xlink:href="#md4057b2c5a" y="185.44684"/>
     <use style="fill:#1e88e5;stroke:#ffffff;stroke-width:0.5;" x="768.321501" xlink:href="#md4057b2c5a" y="165.077171"/>
    </g>
   </g>
   <g id="line2d_43">
    <path clip-path="url(#p1c97dfe957)" d="M 768.321501 103.462326 
L 854.461684 166.039593 
L 821.544822 267.283853 
L 715.091309 267.293308 
L 682.180805 166.039427 
L 768.321501 103.462326 
" style="fill:none;stroke:#f48fb1;stroke-linecap:square;stroke-width:2;"/>
    <g clip-path="url(#p1c97dfe957)">
     <use style="fill:#f48fb1;stroke:#ffffff;stroke-width:0.5;" x="768.321501" xlink:href="#ma0efaeba2a" y="103.462326"/>
     <use style="fill:#f48fb1;stroke:#ffffff;stroke-width:0.5;" x="854.461684" xlink:href="#ma0efaeba2a" y="166.039593"/>
     <use style="fill:#f48fb1;stroke:#ffffff;stroke-width:0.5;" x="821.544822" xlink:href="#ma0efaeba2a" y="267.283853"/>
     <use style="fill:#f48fb1;stroke:#ffffff;stroke-width:0.5;" x="715.091309" xlink:href="#ma0efaeba2a" y="267.293308"/>
     <use style="fill:#f48fb1;stroke:#ffffff;stroke-width:0.5;" x="682.180805" xlink:href="#ma0efaeba2a" y="166.039427"/>
     <use style="fill:#f48fb1;stroke:#ffffff;stroke-width:0.5;" x="768.321501" xlink:href="#ma0efaeba2a" y="103.462326"/>
    </g>
   </g>
   <g id="line2d_44">
    <path clip-path="url(#p1c97dfe957)" d="M 768.321501 184.97082 
L 776.935614 191.22934 
L 773.645316 201.355838 
L 762.997685 201.355838 
L 759.707387 191.22934 
L 768.321501 184.97082 
" style="fill:none;stroke:#c2185b;stroke-linecap:square;stroke-width:2;"/>
    <g clip-path="url(#p1c97dfe957)">
     <use style="fill:#c2185b;stroke:#ffffff;stroke-width:0.5;" x="768.321501" xlink:href="#m1373f2b424" y="184.97082"/>
     <use style="fill:#c2185b;stroke:#ffffff;stroke-width:0.5;" x="776.935614" xlink:href="#m1373f2b424" y="191.22934"/>
     <use style="fill:#c2185b;stroke:#ffffff;stroke-width:0.5;" x="773.645316" xlink:href="#m1373f2b424" y="201.355838"/>
     <use style="fill:#c2185b;stroke:#ffffff;stroke-width:0.5;" x="762.997685" xlink:href="#m1373f2b424" y="201.355838"/>
     <use style="fill:#c2185b;stroke:#ffffff;stroke-width:0.5;" x="759.707387" xlink:href="#m1373f2b424" y="191.22934"/>
     <use style="fill:#c2185b;stroke:#ffffff;stroke-width:0.5;" x="768.321501" xlink:href="#m1373f2b424" y="184.97082"/>
    </g>
   </g>
   <g id="text_18">
    <!-- Memory -->
    <g transform="translate(736.489001 37.032377)scale(0.14 -0.14)">
     <use xlink:href="#DejaVuSans-Bold-77"/>
     <use x="99.511719" xlink:href="#DejaVuSans-Bold-101"/>
     <use x="167.333984" xlink:href="#DejaVuSans-Bold-109"/>
     <use x="271.533203" xlink:href="#DejaVuSans-Bold-111"/>
     <use x="340.234375" xlink:href="#DejaVuSans-Bold-114"/>
     <use x="389.550781" xlink:href="#DejaVuSans-Bold-121"/>
    </g>
   </g>
   <g id="line2d_45">
    <path clip-path="url(#p1c97dfe957)" d="M 768.321501 170.31022 
L 790.291611 186.889714 
L 782.311468 213.283773 
L 754.360625 213.243732 
L 746.518085 186.943876 
L 768.321501 170.31022 
" style="fill:none;stroke:#64b5f6;stroke-linecap:square;stroke-width:2;"/>
    <g clip-path="url(#p1c97dfe957)">
     <use style="fill:#64b5f6;stroke:#ffffff;stroke-width:0.5;" x="768.321501" xlink:href="#m7745775792" y="170.31022"/>
     <use style="fill:#64b5f6;stroke:#ffffff;stroke-width:0.5;" x="790.291611" xlink:href="#m7745775792" y="186.889714"/>
     <use style="fill:#64b5f6;stroke:#ffffff;stroke-width:0.5;" x="782.311468" xlink:href="#m7745775792" y="213.283773"/>
     <use style="fill:#64b5f6;stroke:#ffffff;stroke-width:0.5;" x="754.360625" xlink:href="#m7745775792" y="213.243732"/>
     <use style="fill:#64b5f6;stroke:#ffffff;stroke-width:0.5;" x="746.518085" xlink:href="#m7745775792" y="186.943876"/>
     <use style="fill:#64b5f6;stroke:#ffffff;stroke-width:0.5;" x="768.321501" xlink:href="#m7745775792" y="170.31022"/>
    </g>
   </g>
  </g>
  <g id="legend_1">
   <g id="line2d_46">
    <path d="M 298.52111 7.048281 
L 315.02111 7.048281 
" style="fill:none;stroke:#64b5f6;stroke-linecap:square;stroke-width:2;"/>
   </g>
   <g id="line2d_47">
    <g>
     <use style="fill:#64b5f6;stroke:#ffffff;stroke-width:0.5;" x="306.77111" xlink:href="#m7745775792" y="7.048281"/>
    </g>
   </g>
   <g id="text_19">
    <!-- Loihi -->
    <g transform="translate(316.12111 10.898281)scale(0.11 -0.11)">
     <use xlink:href="#DejaVuSans-Bold-76"/>
     <use x="63.720703" xlink:href="#DejaVuSans-Bold-111"/>
     <use x="132.421875" xlink:href="#DejaVuSans-Bold-105"/>
     <use x="166.699219" xlink:href="#DejaVuSans-Bold-104"/>
     <use x="237.890625" xlink:href="#DejaVuSans-Bold-105"/>
    </g>
   </g>
   <g id="line2d_48">
    <path d="M 357.060016 7.048281 
L 373.560016 7.048281 
" style="fill:none;stroke:#1e88e5;stroke-linecap:square;stroke-width:2;"/>
   </g>
   <g id="line2d_49">
    <g>
     <use style="fill:#1e88e5;stroke:#ffffff;stroke-width:0.5;" x="365.310016" xlink:href="#md4057b2c5a" y="7.048281"/>
    </g>
   </g>
   <g id="text_20">
    <!-- Darwin3 -->
    <g transform="translate(374.660016 10.898281)scale(0.11 -0.11)">
     <defs>
      <path d="M 27.984375 58.6875 
L 27.984375 14.203125 
L 34.71875 14.203125 
Q 46.234375 14.203125 52.3125 19.921875 
Q 58.40625 25.640625 58.40625 36.53125 
Q 58.40625 47.359375 52.34375 53.015625 
Q 46.296875 58.6875 34.71875 58.6875 
z
M 9.1875 72.90625 
L 29 72.90625 
Q 45.609375 72.90625 53.734375 70.53125 
Q 61.859375 68.171875 67.671875 62.5 
Q 72.796875 57.5625 75.28125 51.109375 
Q 77.78125 44.671875 77.78125 36.53125 
Q 77.78125 28.265625 75.28125 21.796875 
Q 72.796875 15.328125 67.671875 10.40625 
Q 61.8125 4.734375 53.609375 2.359375 
Q 45.40625 0 29 0 
L 9.1875 0 
z
" id="DejaVuSans-Bold-68"/>
      <path d="M 3.515625 54.6875 
L 20.515625 54.6875 
L 29.6875 17 
L 38.921875 54.6875 
L 53.515625 54.6875 
L 62.703125 17.390625 
L 71.921875 54.6875 
L 88.921875 54.6875 
L 74.515625 0 
L 55.421875 0 
L 46.1875 37.59375 
L 37.015625 0 
L 17.921875 0 
z
" id="DejaVuSans-Bold-119"/>
      <path d="M 46.578125 39.3125 
Q 53.953125 37.40625 57.78125 32.6875 
Q 61.625 27.984375 61.625 20.703125 
Q 61.625 9.859375 53.3125 4.21875 
Q 45.015625 -1.421875 29.109375 -1.421875 
Q 23.484375 -1.421875 17.84375 -0.515625 
Q 12.203125 0.390625 6.6875 2.203125 
L 6.6875 16.703125 
Q 11.96875 14.0625 17.15625 12.71875 
Q 22.359375 11.375 27.390625 11.375 
Q 34.859375 11.375 38.84375 13.953125 
Q 42.828125 16.546875 42.828125 21.390625 
Q 42.828125 26.375 38.75 28.9375 
Q 34.671875 31.5 26.703125 31.5 
L 19.1875 31.5 
L 19.1875 43.609375 
L 27.09375 43.609375 
Q 34.1875 43.609375 37.640625 45.828125 
Q 41.109375 48.046875 41.109375 52.59375 
Q 41.109375 56.78125 37.734375 59.078125 
Q 34.375 61.375 28.21875 61.375 
Q 23.6875 61.375 19.046875 60.34375 
Q 14.40625 59.328125 9.8125 57.328125 
L 9.8125 71.09375 
Q 15.375 72.65625 20.84375 73.4375 
Q 26.3125 74.21875 31.59375 74.21875 
Q 45.796875 74.21875 52.84375 69.546875 
Q 59.90625 64.890625 59.90625 55.515625 
Q 59.90625 49.125 56.53125 45.046875 
Q 53.171875 40.96875 46.578125 39.3125 
z
" id="DejaVuSans-Bold-51"/>
     </defs>
     <use xlink:href="#DejaVuSans-Bold-68"/>
     <use x="83.007812" xlink:href="#DejaVuSans-Bold-97"/>
     <use x="150.488281" xlink:href="#DejaVuSans-Bold-114"/>
     <use x="199.804688" xlink:href="#DejaVuSans-Bold-119"/>
     <use x="292.1875" xlink:href="#DejaVuSans-Bold-105"/>
     <use x="326.464844" xlink:href="#DejaVuSans-Bold-110"/>
     <use x="397.65625" xlink:href="#DejaVuSans-Bold-51"/>
    </g>
   </g>
   <g id="line2d_50">
    <path d="M 437.057516 7.048281 
L 453.557516 7.048281 
" style="fill:none;stroke:#f48fb1;stroke-linecap:square;stroke-width:2;"/>
   </g>
   <g id="line2d_51">
    <g>
     <use style="fill:#f48fb1;stroke:#ffffff;stroke-width:0.5;" x="445.307516" xlink:href="#ma0efaeba2a" y="7.048281"/>
    </g>
   </g>
   <g id="text_21">
    <!-- TrueNorth -->
    <g transform="translate(454.657516 10.898281)scale(0.11 -0.11)">
     <defs>
      <path d="M 0.484375 72.90625 
L 67.671875 72.90625 
L 67.671875 58.6875 
L 43.5 58.6875 
L 43.5 0 
L 24.703125 0 
L 24.703125 58.6875 
L 0.484375 58.6875 
z
" id="DejaVuSans-Bold-84"/>
     </defs>
     <use xlink:href="#DejaVuSans-Bold-84"/>
     <use x="57.212891" xlink:href="#DejaVuSans-Bold-114"/>
     <use x="106.529297" xlink:href="#DejaVuSans-Bold-117"/>
     <use x="177.720703" xlink:href="#DejaVuSans-Bold-101"/>
     <use x="245.542969" xlink:href="#DejaVuSans-Bold-78"/>
     <use x="329.234375" xlink:href="#DejaVuSans-Bold-111"/>
     <use x="397.935547" xlink:href="#DejaVuSans-Bold-114"/>
     <use x="447.251953" xlink:href="#DejaVuSans-Bold-116"/>
     <use x="495.054688" xlink:href="#DejaVuSans-Bold-104"/>
    </g>
   </g>
   <g id="line2d_52">
    <path d="M 527.943297 7.048281 
L 544.443297 7.048281 
" style="fill:none;stroke:#c2185b;stroke-linecap:square;stroke-width:2;"/>
   </g>
   <g id="line2d_53">
    <g>
     <use style="fill:#c2185b;stroke:#ffffff;stroke-width:0.5;" x="536.193297" xlink:href="#m1373f2b424" y="7.048281"/>
    </g>
   </g>
   <g id="text_22">
    <!-- SpiNNaker2 -->
    <g transform="translate(545.543297 10.898281)scale(0.11 -0.11)">
     <defs>
      <path d="M 59.90625 70.609375 
L 59.90625 55.171875 
Q 53.90625 57.859375 48.1875 59.21875 
Q 42.484375 60.59375 37.40625 60.59375 
Q 30.671875 60.59375 27.4375 58.734375 
Q 24.21875 56.890625 24.21875 52.984375 
Q 24.21875 50.046875 26.390625 48.40625 
Q 28.5625 46.78125 34.28125 45.609375 
L 42.28125 44 
Q 54.4375 41.546875 59.5625 36.5625 
Q 64.703125 31.59375 64.703125 22.40625 
Q 64.703125 10.359375 57.546875 4.46875 
Q 50.390625 -1.421875 35.6875 -1.421875 
Q 28.765625 -1.421875 21.78125 -0.09375 
Q 14.796875 1.21875 7.8125 3.8125 
L 7.8125 19.671875 
Q 14.796875 15.96875 21.3125 14.078125 
Q 27.828125 12.203125 33.890625 12.203125 
Q 40.046875 12.203125 43.3125 14.25 
Q 46.578125 16.3125 46.578125 20.125 
Q 46.578125 23.53125 44.359375 25.390625 
Q 42.140625 27.25 35.5 28.71875 
L 28.21875 30.328125 
Q 17.28125 32.671875 12.21875 37.796875 
Q 7.171875 42.921875 7.171875 51.609375 
Q 7.171875 62.5 14.203125 68.359375 
Q 21.234375 74.21875 34.421875 74.21875 
Q 40.4375 74.21875 46.78125 73.3125 
Q 53.125 72.40625 59.90625 70.609375 
z
" id="DejaVuSans-Bold-83"/>
      <path d="M 8.40625 75.984375 
L 25.875 75.984375 
L 25.875 34.625 
L 46 54.6875 
L 66.3125 54.6875 
L 39.59375 29.59375 
L 68.40625 0 
L 47.21875 0 
L 25.875 22.796875 
L 25.875 0 
L 8.40625 0 
z
" id="DejaVuSans-Bold-107"/>
      <path d="M 28.8125 13.8125 
L 60.890625 13.8125 
L 60.890625 0 
L 7.90625 0 
L 7.90625 13.8125 
L 34.515625 37.3125 
Q 38.09375 40.53125 39.796875 43.609375 
Q 41.5 46.6875 41.5 50 
Q 41.5 55.125 38.0625 58.25 
Q 34.625 61.375 28.90625 61.375 
Q 24.515625 61.375 19.28125 59.5 
Q 14.0625 57.625 8.109375 53.90625 
L 8.109375 69.921875 
Q 14.453125 72.015625 20.65625 73.109375 
Q 26.859375 74.21875 32.8125 74.21875 
Q 45.90625 74.21875 53.15625 68.453125 
Q 60.40625 62.703125 60.40625 52.390625 
Q 60.40625 46.4375 57.328125 41.28125 
Q 54.25 36.140625 44.390625 27.484375 
z
" id="DejaVuSans-Bold-50"/>
     </defs>
     <use xlink:href="#DejaVuSans-Bold-83"/>
     <use x="72.021484" xlink:href="#DejaVuSans-Bold-112"/>
     <use x="143.603516" xlink:href="#DejaVuSans-Bold-105"/>
     <use x="177.880859" xlink:href="#DejaVuSans-Bold-78"/>
     <use x="261.572266" xlink:href="#DejaVuSans-Bold-78"/>
     <use x="345.263672" xlink:href="#DejaVuSans-Bold-97"/>
     <use x="412.744141" xlink:href="#DejaVuSans-Bold-107"/>
     <use x="476.623047" xlink:href="#DejaVuSans-Bold-101"/>
     <use x="544.445312" xlink:href="#DejaVuSans-Bold-114"/>
     <use x="593.761719" xlink:href="#DejaVuSans-Bold-50"/>
    </g>
   </g>
  </g>
 </g>
 <defs>
  <clipPath id="p30d8b36145">
   <path d="M 260.210484 194.028235 
C 260.210484 179.755329 257.399033 165.621208 251.937028 152.434762 
C 246.475023 139.248316 238.468687 127.265987 228.376218 117.173518 
C 218.283749 107.081049 206.30142 99.074713 193.114974 93.612708 
C 179.928528 88.150703 165.794407 85.339252 151.521501 85.339252 
C 137.248594 85.339252 123.114474 88.150703 109.928027 93.612708 
C 96.741581 99.074713 84.759252 107.081049 74.666783 117.173518 
C 64.574314 127.265987 56.567978 139.248316 51.105973 152.434762 
C 45.643969 165.621208 42.832517 179.755329 42.832517 194.028235 
C 42.832517 208.301142 45.643969 222.435262 51.105973 235.621709 
C 56.567978 248.808155 64.574314 260.790484 74.666783 270.882953 
C 84.759252 280.975422 96.741581 288.981758 109.928027 294.443763 
C 123.114474 299.905767 137.248594 302.717219 151.521501 302.717219 
C 165.794407 302.717219 179.928528 299.905767 193.114974 294.443763 
C 206.30142 288.981758 218.283749 280.975422 228.376218 270.882953 
C 238.468687 260.790484 246.475023 248.808155 251.937028 235.621709 
C 257.399033 222.435262 260.210484 208.301142 260.210484 194.028235 
M 151.521501 194.028235 
C 151.521501 194.028235 151.521501 194.028235 151.521501 194.028235 
C 151.521501 194.028235 151.521501 194.028235 151.521501 194.028235 
C 151.521501 194.028235 151.521501 194.028235 151.521501 194.028235 
C 151.521501 194.028235 151.521501 194.028235 151.521501 194.028235 
C 151.521501 194.028235 151.521501 194.028235 151.521501 194.028235 
C 151.521501 194.028235 151.521501 194.028235 151.521501 194.028235 
C 151.521501 194.028235 151.521501 194.028235 151.521501 194.028235 
C 151.521501 194.028235 151.521501 194.028235 151.521501 194.028235 
C 151.521501 194.028235 151.521501 194.028235 151.521501 194.028235 
C 151.521501 194.028235 151.521501 194.028235 151.521501 194.028235 
C 151.521501 194.028235 151.521501 194.028235 151.521501 194.028235 
C 151.521501 194.028235 151.521501 194.028235 151.521501 194.028235 
C 151.521501 194.028235 151.521501 194.028235 151.521501 194.028235 
C 151.521501 194.028235 151.521501 194.028235 151.521501 194.028235 
C 151.521501 194.028235 151.521501 194.028235 151.521501 194.028235 
C 151.521501 194.028235 151.521501 194.028235 151.521501 194.028235 
M 260.210484 194.028235 
z
"/>
  </clipPath>
  <clipPath id="pc234223ac4">
   <path d="M 568.610484 194.028235 
C 568.610484 179.755329 565.799033 165.621208 560.337028 152.434762 
C 554.875023 139.248316 546.868687 127.265987 536.776218 117.173518 
C 526.683749 107.081049 514.70142 99.074713 501.514974 93.612708 
C 488.328528 88.150703 474.194407 85.339252 459.921501 85.339252 
C 445.648594 85.339252 431.514474 88.150703 418.328027 93.612708 
C 405.141581 99.074713 393.159252 107.081049 383.066783 117.173518 
C 372.974314 127.265987 364.967978 139.248316 359.505973 152.434762 
C 354.043969 165.621208 351.232517 179.755329 351.232517 194.028235 
C 351.232517 208.301142 354.043969 222.435262 359.505973 235.621709 
C 364.967978 248.808155 372.974314 260.790484 383.066783 270.882953 
C 393.159252 280.975422 405.141581 288.981758 418.328027 294.443763 
C 431.514474 299.905767 445.648594 302.717219 459.921501 302.717219 
C 474.194407 302.717219 488.328528 299.905767 501.514974 294.443763 
C 514.70142 288.981758 526.683749 280.975422 536.776218 270.882953 
C 546.868687 260.790484 554.875023 248.808155 560.337028 235.621709 
C 565.799033 222.435262 568.610484 208.301142 568.610484 194.028235 
M 459.921501 194.028235 
C 459.921501 194.028235 459.921501 194.028235 459.921501 194.028235 
C 459.921501 194.028235 459.921501 194.028235 459.921501 194.028235 
C 459.921501 194.028235 459.921501 194.028235 459.921501 194.028235 
C 459.921501 194.028235 459.921501 194.028235 459.921501 194.028235 
C 459.921501 194.028235 459.921501 194.028235 459.921501 194.028235 
C 459.921501 194.028235 459.921501 194.028235 459.921501 194.028235 
C 459.921501 194.028235 459.921501 194.028235 459.921501 194.028235 
C 459.921501 194.028235 459.921501 194.028235 459.921501 194.028235 
C 459.921501 194.028235 459.921501 194.028235 459.921501 194.028235 
C 459.921501 194.028235 459.921501 194.028235 459.921501 194.028235 
C 459.921501 194.028235 459.921501 194.028235 459.921501 194.028235 
C 459.921501 194.028235 459.921501 194.028235 459.921501 194.028235 
C 459.921501 194.028235 459.921501 194.028235 459.921501 194.028235 
C 459.921501 194.028235 459.921501 194.028235 459.921501 194.028235 
C 459.921501 194.028235 459.921501 194.028235 459.921501 194.028235 
C 459.921501 194.028235 459.921501 194.028235 459.921501 194.028235 
M 568.610484 194.028235 
z
"/>
  </clipPath>
  <clipPath id="p1c97dfe957">
   <path d="M 877.010484 194.028235 
C 877.010484 179.755329 874.199033 165.621208 868.737028 152.434762 
C 863.275023 139.248316 855.268687 127.265987 845.176218 117.173518 
C 835.083749 107.081049 823.10142 99.074713 809.914974 93.612708 
C 796.728528 88.150703 782.594407 85.339252 768.321501 85.339252 
C 754.048594 85.339252 739.914474 88.150703 726.728027 93.612708 
C 713.541581 99.074713 701.559252 107.081049 691.466783 117.173518 
C 681.374314 127.265987 673.367978 139.248316 667.905973 152.434762 
C 662.443969 165.621208 659.632517 179.755329 659.632517 194.028235 
C 659.632517 208.301142 662.443969 222.435262 667.905973 235.621709 
C 673.367978 248.808155 681.374314 260.790484 691.466783 270.882953 
C 701.559252 280.975422 713.541581 288.981758 726.728027 294.443763 
C 739.914474 299.905767 754.048594 302.717219 768.321501 302.717219 
C 782.594407 302.717219 796.728528 299.905767 809.914974 294.443763 
C 823.10142 288.981758 835.083749 280.975422 845.176218 270.882953 
C 855.268687 260.790484 863.275023 248.808155 868.737028 235.621709 
C 874.199033 222.435262 877.010484 208.301142 877.010484 194.028235 
M 768.321501 194.028235 
C 768.321501 194.028235 768.321501 194.028235 768.321501 194.028235 
C 768.321501 194.028235 768.321501 194.028235 768.321501 194.028235 
C 768.321501 194.028235 768.321501 194.028235 768.321501 194.028235 
C 768.321501 194.028235 768.321501 194.028235 768.321501 194.028235 
C 768.321501 194.028235 768.321501 194.028235 768.321501 194.028235 
C 768.321501 194.028235 768.321501 194.028235 768.321501 194.028235 
C 768.321501 194.028235 768.321501 194.028235 768.321501 194.028235 
C 768.321501 194.028235 768.321501 194.028235 768.321501 194.028235 
C 768.321501 194.028235 768.321501 194.028235 768.321501 194.028235 
C 768.321501 194.028235 768.321501 194.028235 768.321501 194.028235 
C 768.321501 194.028235 768.321501 194.028235 768.321501 194.028235 
C 768.321501 194.028235 768.321501 194.028235 768.321501 194.028235 
C 768.321501 194.028235 768.321501 194.028235 768.321501 194.028235 
C 768.321501 194.028235 768.321501 194.028235 768.321501 194.028235 
C 768.321501 194.028235 768.321501 194.028235 768.321501 194.028235 
C 768.321501 194.028235 768.321501 194.028235 768.321501 194.028235 
M 877.010484 194.028235 
z
"/>
  </clipPath>
 </defs>
</svg>
