<?xml version="1.0" encoding="utf-8" standalone="no"?>
<!DOCTYPE svg PUBLIC "-//W3C//DTD SVG 1.1//EN"
  "http://www.w3.org/Graphics/SVG/1.1/DTD/svg11.dtd">
<!-- Created with matplotlib (https://matplotlib.org/) -->
<svg height="343.466767pt" version="1.1" viewBox="0 0 367.914915 343.466767" width="367.914915pt" xmlns="http://www.w3.org/2000/svg" xmlns:xlink="http://www.w3.org/1999/xlink">
 <metadata>
  <rdf:RDF xmlns:cc="http://creativecommons.org/ns#" xmlns:dc="http://purl.org/dc/elements/1.1/" xmlns:rdf="http://www.w3.org/1999/02/22-rdf-syntax-ns#">
   <cc:Work>
    <dc:type rdf:resource="http://purl.org/dc/dcmitype/StillImage"/>
    <dc:date>2026-03-19T12:57:48.177539</dc:date>
    <dc:format>image/svg+xml</dc:format>
    <dc:creator>
     <cc:Agent>
      <dc:title>Matplotlib v3.3.2, https://matplotlib.org/</dc:title>
     </cc:Agent>
    </dc:creator>
   </cc:Work>
  </rdf:RDF>
 </metadata>
 <defs>
  <style type="text/css">*{stroke-linecap:butt;stroke-linejoin:round;}</style>
 </defs>
 <g id="figure_1">
  <g id="patch_1">
   <path d="M 0 343.466767 
L 367.914915 343.466767 
L 367.914915 0 
L 0 0 
z
" style="fill:none;"/>
  </g>
  <g id="axes_1">
   <g id="patch_2">
    <path d="M 276.329869 205.321451 
C 276.329869 191.918959 273.68987 178.64679 268.560959 166.264502 
C 263.432047 153.882214 255.913967 142.630612 246.436975 133.15362 
C 236.959982 123.676627 225.70838 116.158547 213.326092 111.029635 
C 200.943804 105.900724 187.671635 103.260725 174.269144 103.260725 
C 160.866652 103.260725 147.594483 105.900724 135.212195 111.029635 
C 122.829907 116.158547 111.578305 123.676627 102.101313 133.15362 
C 92.62432 142.630612 85.10624 153.882214 79.977328 166.264502 
C 74.848417 178.64679 72.208418 191.918959 72.208418 205.321451 
C 72.208418 218.723942 74.848417 231.996112 79.977328 244.378399 
C 85.10624 256.760687 92.62432 268.012289 102.101313 277.489282 
C 111.578305 286.966274 122.829907 294.484354 135.212195 299.613266 
C 147.594483 304.742177 160.866652 307.382176 174.269144 307.382176 
C 187.671635 307.382176 200.943804 304.742177 213.326092 299.613266 
C 225.70838 294.484354 236.959982 286.966274 246.436975 277.489282 
C 255.913967 268.012289 263.432047 256.760687 268.560959 244.378399 
C 273.68987 231.996112 276.329869 218.723942 276.329869 205.321451 
M 174.269144 205.321451 
C 174.269144 205.321451 174.269144 205.321451 174.269144 205.321451 
C 174.269144 205.321451 174.269144 205.321451 174.269144 205.321451 
C 174.269144 205.321451 174.269144 205.321451 174.269144 205.321451 
C 174.269144 205.321451 174.269144 205.321451 174.269144 205.321451 
C 174.269144 205.321451 174.269144 205.321451 174.269144 205.321451 
C 174.269144 205.321451 174.269144 205.321451 174.269144 205.321451 
C 174.269144 205.321451 174.269144 205.321451 174.269144 205.321451 
C 174.269144 205.321451 174.269144 205.321451 174.269144 205.321451 
C 174.269144 205.321451 174.269144 205.321451 174.269144 205.321451 
C 174.269144 205.321451 174.269144 205.321451 174.269144 205.321451 
C 174.269144 205.321451 174.269144 205.321451 174.269144 205.321451 
C 174.269144 205.321451 174.269144 205.321451 174.269144 205.321451 
C 174.269144 205.321451 174.269144 205.321451 174.269144 205.321451 
C 174.269144 205.321451 174.269144 205.321451 174.269144 205.321451 
C 174.269144 205.321451 174.269144 205.321451 174.269144 205.321451 
C 174.269144 205.321451 174.269144 205.321451 174.269144 205.321451 
M 276.329869 205.321451 
z
" style="fill:#ffffff;"/>
   </g>
   <g id="matplotlib.axis_1">
    <g id="xtick_1">
     <g id="line2d_1">
      <path clip-path="url(#pf0be457af7)" d="M 174.269144 205.321451 
L 276.329869 205.321451 
" style="fill:none;stroke:#b0b0b0;stroke-dasharray:2.96,1.28;stroke-dashoffset:0;stroke-opacity:0.9;stroke-width:0.8;"/>
     </g>
     <g id="text_1">
      <!-- Versatility -->
      <g transform="translate(279.56304 209.129888)scale(0.14 -0.14)">
       <defs>
        <path d="M 0.484375 72.90625 
L 19.390625 72.90625 
L 38.71875 19.09375 
L 58.015625 72.90625 
L 76.90625 72.90625 
L 49.90625 0 
L 27.484375 0 
z
" id="DejaVuSans-Bold-86"/>
        <path d="M 62.984375 27.484375 
L 62.984375 22.515625 
L 22.125 22.515625 
Q 22.75 16.359375 26.5625 13.28125 
Q 30.375 10.203125 37.203125 10.203125 
Q 42.71875 10.203125 48.5 11.84375 
Q 54.296875 13.484375 60.40625 16.796875 
L 60.40625 3.328125 
Q 54.203125 0.984375 48 -0.21875 
Q 41.796875 -1.421875 35.59375 -1.421875 
Q 20.75 -1.421875 12.515625 6.125 
Q 4.296875 13.671875 4.296875 27.296875 
Q 4.296875 40.671875 12.375 48.328125 
Q 20.453125 56 34.625 56 
Q 47.515625 56 55.25 48.234375 
Q 62.984375 40.484375 62.984375 27.484375 
z
M 45.015625 33.296875 
Q 45.015625 38.28125 42.109375 41.328125 
Q 39.203125 44.390625 34.515625 44.390625 
Q 29.4375 44.390625 26.265625 41.53125 
Q 23.09375 38.671875 22.3125 33.296875 
z
" id="DejaVuSans-Bold-101"/>
        <path d="M 49.03125 39.796875 
Q 46.734375 40.875 44.453125 41.375 
Q 42.1875 41.890625 39.890625 41.890625 
Q 33.15625 41.890625 29.515625 37.5625 
Q 25.875 33.25 25.875 25.203125 
L 25.875 0 
L 8.40625 0 
L 8.40625 54.6875 
L 25.875 54.6875 
L 25.875 45.703125 
Q 29.25 51.078125 33.609375 53.53125 
Q 37.984375 56 44.09375 56 
Q 44.96875 56 45.984375 55.921875 
Q 47.015625 55.859375 48.96875 55.609375 
z
" id="DejaVuSans-Bold-114"/>
        <path d="M 51.125 52.984375 
L 51.125 39.703125 
Q 45.515625 42.046875 40.28125 43.21875 
Q 35.0625 44.390625 30.421875 44.390625 
Q 25.4375 44.390625 23.015625 43.140625 
Q 20.609375 41.890625 20.609375 39.3125 
Q 20.609375 37.203125 22.4375 36.078125 
Q 24.265625 34.96875 29 34.421875 
L 32.078125 33.984375 
Q 45.515625 32.28125 50.140625 28.375 
Q 54.78125 24.46875 54.78125 16.109375 
Q 54.78125 7.375 48.328125 2.96875 
Q 41.890625 -1.421875 29.109375 -1.421875 
Q 23.6875 -1.421875 17.890625 -0.5625 
Q 12.109375 0.296875 6 2 
L 6 15.28125 
Q 11.234375 12.75 16.71875 11.46875 
Q 22.21875 10.203125 27.875 10.203125 
Q 33.015625 10.203125 35.59375 11.609375 
Q 38.1875 13.03125 38.1875 15.828125 
Q 38.1875 18.171875 36.40625 19.3125 
Q 34.625 20.453125 29.296875 21.09375 
L 26.21875 21.484375 
Q 14.546875 22.953125 9.859375 26.90625 
Q 5.171875 30.859375 5.171875 38.921875 
Q 5.171875 47.609375 11.125 51.796875 
Q 17.09375 56 29.390625 56 
Q 34.234375 56 39.546875 55.265625 
Q 44.875 54.546875 51.125 52.984375 
z
" id="DejaVuSans-Bold-115"/>
        <path d="M 32.90625 24.609375 
Q 27.4375 24.609375 24.671875 22.75 
Q 21.921875 20.90625 21.921875 17.28125 
Q 21.921875 13.96875 24.140625 12.078125 
Q 26.375 10.203125 30.328125 10.203125 
Q 35.25 10.203125 38.625 13.734375 
Q 42 17.28125 42 22.609375 
L 42 24.609375 
z
M 59.625 31.203125 
L 59.625 0 
L 42 0 
L 42 8.109375 
Q 38.484375 3.125 34.078125 0.84375 
Q 29.6875 -1.421875 23.390625 -1.421875 
Q 14.890625 -1.421875 9.59375 3.53125 
Q 4.296875 8.5 4.296875 16.40625 
Q 4.296875 26.03125 10.90625 30.515625 
Q 17.53125 35.015625 31.6875 35.015625 
L 42 35.015625 
L 42 36.375 
Q 42 40.53125 38.71875 42.453125 
Q 35.453125 44.390625 28.515625 44.390625 
Q 22.90625 44.390625 18.0625 43.265625 
Q 13.234375 42.140625 9.078125 39.890625 
L 9.078125 53.21875 
Q 14.703125 54.59375 20.359375 55.296875 
Q 26.03125 56 31.6875 56 
Q 46.484375 56 53.046875 50.171875 
Q 59.625 44.34375 59.625 31.203125 
z
" id="DejaVuSans-Bold-97"/>
        <path d="M 27.484375 70.21875 
L 27.484375 54.6875 
L 45.515625 54.6875 
L 45.515625 42.1875 
L 27.484375 42.1875 
L 27.484375 19 
Q 27.484375 15.1875 29 13.84375 
Q 30.515625 12.5 35.015625 12.5 
L 44 12.5 
L 44 0 
L 29 0 
Q 18.65625 0 14.328125 4.3125 
Q 10.015625 8.640625 10.015625 19 
L 10.015625 42.1875 
L 1.3125 42.1875 
L 1.3125 54.6875 
L 10.015625 54.6875 
L 10.015625 70.21875 
z
" id="DejaVuSans-Bold-116"/>
        <path d="M 8.40625 54.6875 
L 25.875 54.6875 
L 25.875 0 
L 8.40625 0 
z
M 8.40625 75.984375 
L 25.875 75.984375 
L 25.875 61.71875 
L 8.40625 61.71875 
z
" id="DejaVuSans-Bold-105"/>
        <path d="M 8.40625 75.984375 
L 25.875 75.984375 
L 25.875 0 
L 8.40625 0 
z
" id="DejaVuSans-Bold-108"/>
        <path d="M 1.21875 54.6875 
L 18.703125 54.6875 
L 33.40625 17.578125 
L 45.90625 54.6875 
L 63.375 54.6875 
L 40.375 -5.171875 
Q 36.921875 -14.3125 32.296875 -17.9375 
Q 27.6875 -21.578125 20.125 -21.578125 
L 10.015625 -21.578125 
L 10.015625 -10.109375 
L 15.484375 -10.109375 
Q 19.921875 -10.109375 21.9375 -8.6875 
Q 23.96875 -7.28125 25.09375 -3.609375 
L 25.59375 -2.09375 
z
" id="DejaVuSans-Bold-121"/>
       </defs>
       <use xlink:href="#DejaVuSans-Bold-86"/>
       <use x="71.892578" xlink:href="#DejaVuSans-Bold-101"/>
       <use x="139.714844" xlink:href="#DejaVuSans-Bold-114"/>
       <use x="189.03125" xlink:href="#DejaVuSans-Bold-115"/>
       <use x="248.552734" xlink:href="#DejaVuSans-Bold-97"/>
       <use x="316.033203" xlink:href="#DejaVuSans-Bold-116"/>
       <use x="363.835938" xlink:href="#DejaVuSans-Bold-105"/>
       <use x="398.113281" xlink:href="#DejaVuSans-Bold-108"/>
       <use x="432.390625" xlink:href="#DejaVuSans-Bold-105"/>
       <use x="466.667969" xlink:href="#DejaVuSans-Bold-116"/>
       <use x="514.470703" xlink:href="#DejaVuSans-Bold-121"/>
      </g>
     </g>
    </g>
    <g id="xtick_2">
     <g id="line2d_2">
      <path clip-path="url(#pf0be457af7)" d="M 174.269144 205.321451 
L 205.807642 108.255933 
" style="fill:none;stroke:#b0b0b0;stroke-dasharray:2.96,1.28;stroke-dashoffset:0;stroke-opacity:0.9;stroke-width:0.8;"/>
     </g>
     <g id="text_2">
      <!-- Neuromorphic Support -->
      <g transform="translate(124.577126 85.013947)scale(0.14 -0.14)">
       <defs>
        <path d="M 9.1875 72.90625 
L 30.171875 72.90625 
L 56.6875 22.90625 
L 56.6875 72.90625 
L 74.515625 72.90625 
L 74.515625 0 
L 53.515625 0 
L 27 50 
L 27 0 
L 9.1875 0 
z
" id="DejaVuSans-Bold-78"/>
        <path d="M 7.8125 21.296875 
L 7.8125 54.6875 
L 25.390625 54.6875 
L 25.390625 49.21875 
Q 25.390625 44.78125 25.34375 38.0625 
Q 25.296875 31.34375 25.296875 29.109375 
Q 25.296875 22.515625 25.640625 19.609375 
Q 25.984375 16.703125 26.8125 15.375 
Q 27.875 13.671875 29.609375 12.734375 
Q 31.34375 11.8125 33.59375 11.8125 
Q 39.0625 11.8125 42.1875 16.015625 
Q 45.3125 20.21875 45.3125 27.6875 
L 45.3125 54.6875 
L 62.796875 54.6875 
L 62.796875 0 
L 45.3125 0 
L 45.3125 7.90625 
Q 41.359375 3.125 36.9375 0.84375 
Q 32.515625 -1.421875 27.203125 -1.421875 
Q 17.71875 -1.421875 12.765625 4.390625 
Q 7.8125 10.203125 7.8125 21.296875 
z
" id="DejaVuSans-Bold-117"/>
        <path d="M 34.421875 43.5 
Q 28.609375 43.5 25.5625 39.328125 
Q 22.515625 35.15625 22.515625 27.296875 
Q 22.515625 19.4375 25.5625 15.25 
Q 28.609375 11.078125 34.421875 11.078125 
Q 40.140625 11.078125 43.15625 15.25 
Q 46.1875 19.4375 46.1875 27.296875 
Q 46.1875 35.15625 43.15625 39.328125 
Q 40.140625 43.5 34.421875 43.5 
z
M 34.421875 56 
Q 48.53125 56 56.46875 48.375 
Q 64.40625 40.765625 64.40625 27.296875 
Q 64.40625 13.8125 56.46875 6.1875 
Q 48.53125 -1.421875 34.421875 -1.421875 
Q 20.265625 -1.421875 12.28125 6.1875 
Q 4.296875 13.8125 4.296875 27.296875 
Q 4.296875 40.765625 12.28125 48.375 
Q 20.265625 56 34.421875 56 
z
" id="DejaVuSans-Bold-111"/>
        <path d="M 59.078125 45.609375 
Q 62.40625 50.6875 66.96875 53.34375 
Q 71.53125 56 77 56 
Q 86.421875 56 91.359375 50.1875 
Q 96.296875 44.390625 96.296875 33.296875 
L 96.296875 0 
L 78.71875 0 
L 78.71875 28.515625 
Q 78.765625 29.15625 78.78125 29.828125 
Q 78.8125 30.515625 78.8125 31.78125 
Q 78.8125 37.59375 77.09375 40.203125 
Q 75.390625 42.828125 71.578125 42.828125 
Q 66.609375 42.828125 63.890625 38.71875 
Q 61.1875 34.625 61.078125 26.859375 
L 61.078125 0 
L 43.5 0 
L 43.5 28.515625 
Q 43.5 37.59375 41.9375 40.203125 
Q 40.375 42.828125 36.375 42.828125 
Q 31.34375 42.828125 28.609375 38.703125 
Q 25.875 34.578125 25.875 26.90625 
L 25.875 0 
L 8.296875 0 
L 8.296875 54.6875 
L 25.875 54.6875 
L 25.875 46.6875 
Q 29.109375 51.3125 33.28125 53.65625 
Q 37.453125 56 42.484375 56 
Q 48.140625 56 52.484375 53.265625 
Q 56.84375 50.53125 59.078125 45.609375 
z
" id="DejaVuSans-Bold-109"/>
        <path d="M 25.875 7.90625 
L 25.875 -20.796875 
L 8.40625 -20.796875 
L 8.40625 54.6875 
L 25.875 54.6875 
L 25.875 46.6875 
Q 29.5 51.46875 33.890625 53.734375 
Q 38.28125 56 44 56 
Q 54.109375 56 60.59375 47.96875 
Q 67.09375 39.9375 67.09375 27.296875 
Q 67.09375 14.65625 60.59375 6.609375 
Q 54.109375 -1.421875 44 -1.421875 
Q 38.28125 -1.421875 33.890625 0.84375 
Q 29.5 3.125 25.875 7.90625 
z
M 37.5 43.3125 
Q 31.890625 43.3125 28.875 39.1875 
Q 25.875 35.0625 25.875 27.296875 
Q 25.875 19.53125 28.875 15.40625 
Q 31.890625 11.28125 37.5 11.28125 
Q 43.109375 11.28125 46.0625 15.375 
Q 49.03125 19.484375 49.03125 27.296875 
Q 49.03125 35.109375 46.0625 39.203125 
Q 43.109375 43.3125 37.5 43.3125 
z
" id="DejaVuSans-Bold-112"/>
        <path d="M 63.375 33.296875 
L 63.375 0 
L 45.796875 0 
L 45.796875 5.421875 
L 45.796875 25.390625 
Q 45.796875 32.5625 45.484375 35.25 
Q 45.171875 37.9375 44.390625 39.203125 
Q 43.359375 40.921875 41.59375 41.875 
Q 39.84375 42.828125 37.59375 42.828125 
Q 32.125 42.828125 29 38.59375 
Q 25.875 34.375 25.875 26.90625 
L 25.875 0 
L 8.40625 0 
L 8.40625 75.984375 
L 25.875 75.984375 
L 25.875 46.6875 
Q 29.828125 51.46875 34.265625 53.734375 
Q 38.71875 56 44.09375 56 
Q 53.5625 56 58.46875 50.1875 
Q 63.375 44.390625 63.375 33.296875 
z
" id="DejaVuSans-Bold-104"/>
        <path d="M 52.59375 52.984375 
L 52.59375 38.71875 
Q 49.03125 41.15625 45.4375 42.328125 
Q 41.84375 43.5 37.984375 43.5 
Q 30.671875 43.5 26.59375 39.234375 
Q 22.515625 34.96875 22.515625 27.296875 
Q 22.515625 19.625 26.59375 15.34375 
Q 30.671875 11.078125 37.984375 11.078125 
Q 42.09375 11.078125 45.78125 12.296875 
Q 49.46875 13.53125 52.59375 15.921875 
L 52.59375 1.609375 
Q 48.484375 0.09375 44.265625 -0.65625 
Q 40.046875 -1.421875 35.796875 -1.421875 
Q 21 -1.421875 12.640625 6.171875 
Q 4.296875 13.765625 4.296875 27.296875 
Q 4.296875 40.828125 12.640625 48.40625 
Q 21 56 35.796875 56 
Q 40.09375 56 44.265625 55.25 
Q 48.4375 54.5 52.59375 52.984375 
z
" id="DejaVuSans-Bold-99"/>
        <path id="DejaVuSans-Bold-32"/>
        <path d="M 59.90625 70.609375 
L 59.90625 55.171875 
Q 53.90625 57.859375 48.1875 59.21875 
Q 42.484375 60.59375 37.40625 60.59375 
Q 30.671875 60.59375 27.4375 58.734375 
Q 24.21875 56.890625 24.21875 52.984375 
Q 24.21875 50.046875 26.390625 48.40625 
Q 28.5625 46.78125 34.28125 45.609375 
L 42.28125 44 
Q 54.4375 41.546875 59.5625 36.5625 
Q 64.703125 31.59375 64.703125 22.40625 
Q 64.703125 10.359375 57.546875 4.46875 
Q 50.390625 -1.421875 35.6875 -1.421875 
Q 28.765625 -1.421875 21.78125 -0.09375 
Q 14.796875 1.21875 7.8125 3.8125 
L 7.8125 19.671875 
Q 14.796875 15.96875 21.3125 14.078125 
Q 27.828125 12.203125 33.890625 12.203125 
Q 40.046875 12.203125 43.3125 14.25 
Q 46.578125 16.3125 46.578125 20.125 
Q 46.578125 23.53125 44.359375 25.390625 
Q 42.140625 27.25 35.5 28.71875 
L 28.21875 30.328125 
Q 17.28125 32.671875 12.21875 37.796875 
Q 7.171875 42.921875 7.171875 51.609375 
Q 7.171875 62.5 14.203125 68.359375 
Q 21.234375 74.21875 34.421875 74.21875 
Q 40.4375 74.21875 46.78125 73.3125 
Q 53.125 72.40625 59.90625 70.609375 
z
" id="DejaVuSans-Bold-83"/>
       </defs>
       <use xlink:href="#DejaVuSans-Bold-78"/>
       <use x="83.691406" xlink:href="#DejaVuSans-Bold-101"/>
       <use x="151.513672" xlink:href="#DejaVuSans-Bold-117"/>
       <use x="222.705078" xlink:href="#DejaVuSans-Bold-114"/>
       <use x="272.021484" xlink:href="#DejaVuSans-Bold-111"/>
       <use x="340.722656" xlink:href="#DejaVuSans-Bold-109"/>
       <use x="444.921875" xlink:href="#DejaVuSans-Bold-111"/>
       <use x="513.623047" xlink:href="#DejaVuSans-Bold-114"/>
       <use x="562.939453" xlink:href="#DejaVuSans-Bold-112"/>
       <use x="634.521484" xlink:href="#DejaVuSans-Bold-104"/>
       <use x="705.712891" xlink:href="#DejaVuSans-Bold-105"/>
       <use x="739.990234" xlink:href="#DejaVuSans-Bold-99"/>
       <use x="799.267578" xlink:href="#DejaVuSans-Bold-32"/>
       <use x="834.082031" xlink:href="#DejaVuSans-Bold-83"/>
       <use x="906.103516" xlink:href="#DejaVuSans-Bold-117"/>
       <use x="977.294922" xlink:href="#DejaVuSans-Bold-112"/>
       <use x="1048.876953" xlink:href="#DejaVuSans-Bold-112"/>
       <use x="1120.458984" xlink:href="#DejaVuSans-Bold-111"/>
       <use x="1189.160156" xlink:href="#DejaVuSans-Bold-114"/>
       <use x="1238.476562" xlink:href="#DejaVuSans-Bold-116"/>
      </g>
     </g>
    </g>
    <g id="xtick_3">
     <g id="line2d_3">
      <path clip-path="url(#pf0be457af7)" d="M 174.269144 205.321451 
L 91.700282 145.331661 
" style="fill:none;stroke:#b0b0b0;stroke-dasharray:2.96,1.28;stroke-dashoffset:0;stroke-opacity:0.9;stroke-width:0.8;"/>
     </g>
     <g id="text_3">
      <!-- Usability -->
      <g transform="translate(33.950642 132.388219)scale(0.14 -0.14)">
       <defs>
        <path d="M 9.1875 72.90625 
L 27.984375 72.90625 
L 27.984375 29.203125 
Q 27.984375 20.171875 30.9375 16.28125 
Q 33.890625 12.40625 40.578125 12.40625 
Q 47.3125 12.40625 50.265625 16.28125 
Q 53.21875 20.171875 53.21875 29.203125 
L 53.21875 72.90625 
L 72.015625 72.90625 
L 72.015625 29.203125 
Q 72.015625 13.71875 64.25 6.140625 
Q 56.5 -1.421875 40.578125 -1.421875 
Q 24.703125 -1.421875 16.9375 6.140625 
Q 9.1875 13.71875 9.1875 29.203125 
z
" id="DejaVuSans-Bold-85"/>
        <path d="M 37.5 11.28125 
Q 43.109375 11.28125 46.0625 15.375 
Q 49.03125 19.484375 49.03125 27.296875 
Q 49.03125 35.109375 46.0625 39.203125 
Q 43.109375 43.3125 37.5 43.3125 
Q 31.890625 43.3125 28.875 39.1875 
Q 25.875 35.0625 25.875 27.296875 
Q 25.875 19.53125 28.875 15.40625 
Q 31.890625 11.28125 37.5 11.28125 
z
M 25.875 46.6875 
Q 29.5 51.46875 33.890625 53.734375 
Q 38.28125 56 44 56 
Q 54.109375 56 60.59375 47.96875 
Q 67.09375 39.9375 67.09375 27.296875 
Q 67.09375 14.65625 60.59375 6.609375 
Q 54.109375 -1.421875 44 -1.421875 
Q 38.28125 -1.421875 33.890625 0.84375 
Q 29.5 3.125 25.875 7.90625 
L 25.875 0 
L 8.40625 0 
L 8.40625 75.984375 
L 25.875 75.984375 
z
" id="DejaVuSans-Bold-98"/>
       </defs>
       <use xlink:href="#DejaVuSans-Bold-85"/>
       <use x="81.201172" xlink:href="#DejaVuSans-Bold-115"/>
       <use x="140.722656" xlink:href="#DejaVuSans-Bold-97"/>
       <use x="208.203125" xlink:href="#DejaVuSans-Bold-98"/>
       <use x="279.785156" xlink:href="#DejaVuSans-Bold-105"/>
       <use x="314.0625" xlink:href="#DejaVuSans-Bold-108"/>
       <use x="348.339844" xlink:href="#DejaVuSans-Bold-105"/>
       <use x="382.617188" xlink:href="#DejaVuSans-Bold-116"/>
       <use x="430.419922" xlink:href="#DejaVuSans-Bold-121"/>
      </g>
     </g>
    </g>
    <g id="xtick_4">
     <g id="line2d_4">
      <path clip-path="url(#pf0be457af7)" d="M 174.269144 205.321451 
L 91.700282 265.31124 
" style="fill:none;stroke:#b0b0b0;stroke-dasharray:2.96,1.28;stroke-dashoffset:0;stroke-opacity:0.9;stroke-width:0.8;"/>
     </g>
     <g id="text_4">
      <!-- Extensibility -->
      <g transform="translate(7.2 294.870025)scale(0.14 -0.14)">
       <defs>
        <path d="M 9.1875 72.90625 
L 59.90625 72.90625 
L 59.90625 58.6875 
L 27.984375 58.6875 
L 27.984375 45.125 
L 58.015625 45.125 
L 58.015625 30.90625 
L 27.984375 30.90625 
L 27.984375 14.203125 
L 60.984375 14.203125 
L 60.984375 0 
L 9.1875 0 
z
" id="DejaVuSans-Bold-69"/>
        <path d="M 22.21875 27.984375 
L 2.484375 54.6875 
L 21 54.6875 
L 32.171875 38.484375 
L 43.5 54.6875 
L 62.015625 54.6875 
L 42.28125 28.078125 
L 62.984375 0 
L 44.484375 0 
L 32.171875 17.28125 
L 20.015625 0 
L 1.515625 0 
z
" id="DejaVuSans-Bold-120"/>
        <path d="M 63.375 33.296875 
L 63.375 0 
L 45.796875 0 
L 45.796875 5.421875 
L 45.796875 25.484375 
Q 45.796875 32.5625 45.484375 35.25 
Q 45.171875 37.9375 44.390625 39.203125 
Q 43.359375 40.921875 41.59375 41.875 
Q 39.84375 42.828125 37.59375 42.828125 
Q 32.125 42.828125 29 38.59375 
Q 25.875 34.375 25.875 26.90625 
L 25.875 0 
L 8.40625 0 
L 8.40625 54.6875 
L 25.875 54.6875 
L 25.875 46.6875 
Q 29.828125 51.46875 34.265625 53.734375 
Q 38.71875 56 44.09375 56 
Q 53.5625 56 58.46875 50.1875 
Q 63.375 44.390625 63.375 33.296875 
z
" id="DejaVuSans-Bold-110"/>
       </defs>
       <use xlink:href="#DejaVuSans-Bold-69"/>
       <use x="68.310547" xlink:href="#DejaVuSans-Bold-120"/>
       <use x="132.8125" xlink:href="#DejaVuSans-Bold-116"/>
       <use x="180.615234" xlink:href="#DejaVuSans-Bold-101"/>
       <use x="248.4375" xlink:href="#DejaVuSans-Bold-110"/>
       <use x="319.628906" xlink:href="#DejaVuSans-Bold-115"/>
       <use x="379.150391" xlink:href="#DejaVuSans-Bold-105"/>
       <use x="413.427734" xlink:href="#DejaVuSans-Bold-98"/>
       <use x="485.009766" xlink:href="#DejaVuSans-Bold-105"/>
       <use x="519.287109" xlink:href="#DejaVuSans-Bold-108"/>
       <use x="553.564453" xlink:href="#DejaVuSans-Bold-105"/>
       <use x="587.841797" xlink:href="#DejaVuSans-Bold-116"/>
       <use x="635.644531" xlink:href="#DejaVuSans-Bold-121"/>
      </g>
     </g>
    </g>
    <g id="xtick_5">
     <g id="line2d_5">
      <path clip-path="url(#pf0be457af7)" d="M 174.269144 205.321451 
L 205.807642 302.386969 
" style="fill:none;stroke:#b0b0b0;stroke-dasharray:2.96,1.28;stroke-dashoffset:0;stroke-opacity:0.9;stroke-width:0.8;"/>
     </g>
     <g id="text_5">
      <!-- Performance -->
      <g transform="translate(164.079001 333.355204)scale(0.14 -0.14)">
       <defs>
        <path d="M 9.1875 72.90625 
L 40.375 72.90625 
Q 54.296875 72.90625 61.734375 66.71875 
Q 69.1875 60.546875 69.1875 49.125 
Q 69.1875 37.640625 61.734375 31.46875 
Q 54.296875 25.296875 40.375 25.296875 
L 27.984375 25.296875 
L 27.984375 0 
L 9.1875 0 
z
M 27.984375 59.28125 
L 27.984375 38.921875 
L 38.375 38.921875 
Q 43.84375 38.921875 46.828125 41.578125 
Q 49.8125 44.234375 49.8125 49.125 
Q 49.8125 54 46.828125 56.640625 
Q 43.84375 59.28125 38.375 59.28125 
z
" id="DejaVuSans-Bold-80"/>
        <path d="M 44.390625 75.984375 
L 44.390625 64.5 
L 34.71875 64.5 
Q 31 64.5 29.53125 63.15625 
Q 28.078125 61.8125 28.078125 58.5 
L 28.078125 54.6875 
L 43.015625 54.6875 
L 43.015625 42.1875 
L 28.078125 42.1875 
L 28.078125 0 
L 10.59375 0 
L 10.59375 42.1875 
L 1.90625 42.1875 
L 1.90625 54.6875 
L 10.59375 54.6875 
L 10.59375 58.5 
Q 10.59375 67.4375 15.578125 71.703125 
Q 20.5625 75.984375 31 75.984375 
z
" id="DejaVuSans-Bold-102"/>
       </defs>
       <use xlink:href="#DejaVuSans-Bold-80"/>
       <use x="73.291016" xlink:href="#DejaVuSans-Bold-101"/>
       <use x="141.113281" xlink:href="#DejaVuSans-Bold-114"/>
       <use x="190.429688" xlink:href="#DejaVuSans-Bold-102"/>
       <use x="233.935547" xlink:href="#DejaVuSans-Bold-111"/>
       <use x="302.636719" xlink:href="#DejaVuSans-Bold-114"/>
       <use x="351.953125" xlink:href="#DejaVuSans-Bold-109"/>
       <use x="456.152344" xlink:href="#DejaVuSans-Bold-97"/>
       <use x="523.632812" xlink:href="#DejaVuSans-Bold-110"/>
       <use x="594.824219" xlink:href="#DejaVuSans-Bold-99"/>
       <use x="654.101562" xlink:href="#DejaVuSans-Bold-101"/>
      </g>
     </g>
    </g>
   </g>
   <g id="matplotlib.axis_2">
    <g id="ytick_1">
     <g id="line2d_6">
      <path clip-path="url(#pf0be457af7)" d="M 193.896206 205.321451 
C 193.896206 202.744048 193.388514 200.191708 192.402185 197.810499 
C 191.415856 195.42929 189.970071 193.26552 188.147573 191.443022 
C 186.325074 189.620523 184.161304 188.174738 181.780095 187.188409 
C 179.398886 186.20208 176.846546 185.694388 174.269144 185.694388 
C 171.691741 185.694388 169.139401 186.20208 166.758192 187.188409 
C 164.376983 188.174738 162.213213 189.620523 160.390714 191.443022 
C 158.568216 193.26552 157.122431 195.42929 156.136102 197.810499 
C 155.149773 200.191708 154.642081 202.744048 154.642081 205.321451 
C 154.642081 207.898853 155.149773 210.451193 156.136102 212.832402 
C 157.122431 215.213612 158.568216 217.377381 160.390714 219.19988 
C 162.213213 221.022378 164.376983 222.468163 166.758192 223.454492 
C 169.139401 224.440821 171.691741 224.948513 174.269144 224.948513 
C 176.846546 224.948513 179.398886 224.440821 181.780095 223.454492 
C 184.161304 222.468163 186.325074 221.022378 188.147573 219.19988 
C 189.970071 217.377381 191.415856 215.213612 192.402185 212.832402 
C 193.388514 210.451193 193.896206 207.898853 193.896206 205.321451 
" style="fill:none;stroke:#b0b0b0;stroke-dasharray:2.96,1.28;stroke-dashoffset:0;stroke-opacity:0.9;stroke-width:0.8;"/>
     </g>
    </g>
    <g id="ytick_2">
     <g id="line2d_7">
      <path clip-path="url(#pf0be457af7)" d="M 213.523269 205.321451 
C 213.523269 200.166646 212.507885 195.061966 210.535226 190.299547 
C 208.562568 185.537129 205.670999 181.20959 202.026002 177.564593 
C 198.381004 173.919595 194.053465 171.028026 189.291047 169.055368 
C 184.528629 167.08271 179.423948 166.067326 174.269144 166.067326 
C 169.114339 166.067326 164.009659 167.08271 159.24724 169.055368 
C 154.484822 171.028026 150.157283 173.919595 146.512285 177.564593 
C 142.867288 181.20959 139.975719 185.537129 138.003061 190.299547 
C 136.030402 195.061966 135.015018 200.166646 135.015018 205.321451 
C 135.015018 210.476255 136.030402 215.580936 138.003061 220.343354 
C 139.975719 225.105772 142.867288 229.433312 146.512285 233.078309 
C 150.157283 236.723306 154.484822 239.614875 159.24724 241.587533 
C 164.009659 243.560192 169.114339 244.575576 174.269144 244.575576 
C 179.423948 244.575576 184.528629 243.560192 189.291047 241.587533 
C 194.053465 239.614875 198.381004 236.723306 202.026002 233.078309 
C 205.670999 229.433312 208.562568 225.105772 210.535226 220.343354 
C 212.507885 215.580936 213.523269 210.476255 213.523269 205.321451 
" style="fill:none;stroke:#b0b0b0;stroke-dasharray:2.96,1.28;stroke-dashoffset:0;stroke-opacity:0.9;stroke-width:0.8;"/>
     </g>
    </g>
    <g id="ytick_3">
     <g id="line2d_8">
      <path clip-path="url(#pf0be457af7)" d="M 233.150331 205.321451 
C 233.150331 197.589244 231.627255 189.932223 228.668268 182.788596 
C 225.70928 175.644968 221.371926 169.153659 215.904431 163.686164 
C 210.436935 158.218668 203.945626 153.881314 196.801999 150.922327 
C 189.658371 147.963339 182.00135 146.440263 174.269144 146.440263 
C 166.536937 146.440263 158.879916 147.963339 151.736289 150.922327 
C 144.592661 153.881314 138.101352 158.218668 132.633856 163.686164 
C 127.166361 169.153659 122.829007 175.644968 119.870019 182.788596 
C 116.911032 189.932223 115.387956 197.589244 115.387956 205.321451 
C 115.387956 213.053657 116.911032 220.710678 119.870019 227.854306 
C 122.829007 234.997933 127.166361 241.489242 132.633856 246.956738 
C 138.101352 252.424234 144.592661 256.761587 151.736289 259.720575 
C 158.879916 262.679562 166.536937 264.202638 174.269144 264.202638 
C 182.00135 264.202638 189.658371 262.679562 196.801999 259.720575 
C 203.945626 256.761587 210.436935 252.424234 215.904431 246.956738 
C 221.371926 241.489242 225.70928 234.997933 228.668268 227.854306 
C 231.627255 220.710678 233.150331 213.053657 233.150331 205.321451 
" style="fill:none;stroke:#b0b0b0;stroke-dasharray:2.96,1.28;stroke-dashoffset:0;stroke-opacity:0.9;stroke-width:0.8;"/>
     </g>
    </g>
    <g id="ytick_4">
     <g id="line2d_9">
      <path clip-path="url(#pf0be457af7)" d="M 252.777394 205.321451 
C 252.777394 195.011842 250.746626 184.802481 246.801309 175.277644 
C 242.855993 165.752807 237.072854 157.097729 229.78286 149.807735 
C 222.492865 142.51774 213.837787 136.734602 204.31295 132.789285 
C 194.788113 128.843969 184.578752 126.8132 174.269144 126.8132 
C 163.959535 126.8132 153.750174 128.843969 144.225337 132.789285 
C 134.7005 136.734602 126.045422 142.51774 118.755427 149.807735 
C 111.465433 157.097729 105.682295 165.752807 101.736978 175.277644 
C 97.791661 184.802481 95.760893 195.011842 95.760893 205.321451 
C 95.760893 215.63106 97.791661 225.840421 101.736978 235.365257 
C 105.682295 244.890094 111.465433 253.545172 118.755427 260.835167 
C 126.045422 268.125161 134.7005 273.9083 144.225337 277.853616 
C 153.750174 281.798933 163.959535 283.829701 174.269144 283.829701 
C 184.578752 283.829701 194.788113 281.798933 204.31295 277.853616 
C 213.837787 273.9083 222.492865 268.125161 229.78286 260.835167 
C 237.072854 253.545172 242.855993 244.890094 246.801309 235.365257 
C 250.746626 225.840421 252.777394 215.63106 252.777394 205.321451 
" style="fill:none;stroke:#b0b0b0;stroke-dasharray:2.96,1.28;stroke-dashoffset:0;stroke-opacity:0.9;stroke-width:0.8;"/>
     </g>
    </g>
    <g id="ytick_5">
     <g id="line2d_10">
      <path clip-path="url(#pf0be457af7)" d="M 272.404456 205.321451 
C 272.404456 192.434439 269.865996 179.672738 264.93435 167.766692 
C 260.002705 155.860646 252.773782 145.041799 243.661289 135.929305 
C 234.548796 126.816812 223.729948 119.587889 211.823902 114.656244 
C 199.917856 109.724598 187.156155 107.186138 174.269144 107.186138 
C 161.382132 107.186138 148.620431 109.724598 136.714385 114.656244 
C 124.808339 119.587889 113.989491 126.816812 104.876998 135.929305 
C 95.764505 145.041799 88.535582 155.860646 83.603937 167.766692 
C 78.672291 179.672738 76.133831 192.434439 76.133831 205.321451 
C 76.133831 218.208462 78.672291 230.970163 83.603937 242.876209 
C 88.535582 254.782255 95.764505 265.601103 104.876998 274.713596 
C 113.989491 283.826089 124.808339 291.055012 136.714385 295.986658 
C 148.620431 300.918303 161.382132 303.456763 174.269144 303.456763 
C 187.156155 303.456763 199.917856 300.918303 211.823902 295.986658 
C 223.729948 291.055012 234.548796 283.826089 243.661289 274.713596 
C 252.773782 265.601103 260.002705 254.782255 264.93435 242.876209 
C 269.865996 230.970163 272.404456 218.208462 272.404456 205.321451 
" style="fill:none;stroke:#b0b0b0;stroke-dasharray:2.96,1.28;stroke-dashoffset:0;stroke-opacity:0.9;stroke-width:0.8;"/>
     </g>
    </g>
   </g>
   <g id="line2d_11">
    <path clip-path="url(#pf0be457af7)" d="M 272.404456 205.321451 
L 204.594623 111.989222 
L 94.876008 147.638961 
L 94.876008 263.00394 
L 204.594623 298.653679 
L 272.404456 205.321451 
" style="fill:none;stroke:#e64b35;stroke-linecap:square;stroke-width:2.5;"/>
   </g>
   <g id="line2d_12">
    <path clip-path="url(#pf0be457af7)" d="M 213.523269 205.321451 
L 192.464431 149.322113 
L 110.754635 159.175459 
L 94.876008 263.00394 
L 204.594623 298.653679 
L 213.523269 205.321451 
" style="fill:none;stroke:#4dbbd5;stroke-dasharray:9.25,4;stroke-dashoffset:0;stroke-width:2.5;"/>
   </g>
   <g id="line2d_13">
    <path clip-path="url(#pf0be457af7)" d="M 213.523269 205.321451 
L 180.334239 186.655005 
L 110.754635 159.175459 
L 126.633262 239.930944 
L 198.529527 279.987234 
L 213.523269 205.321451 
" style="fill:none;stroke:#00a087;stroke-dasharray:9.25,4;stroke-dashoffset:0;stroke-width:2.5;"/>
   </g>
   <g id="line2d_14">
    <path clip-path="url(#pf0be457af7)" d="M 193.896206 205.321451 
L 180.334239 186.655005 
L 142.511889 182.248455 
L 158.390516 216.857949 
L 198.529527 279.987234 
L 193.896206 205.321451 
" style="fill:none;stroke:#3c5488;stroke-dasharray:9.25,4;stroke-dashoffset:0;stroke-width:2.5;"/>
   </g>
   <g id="line2d_15">
    <path clip-path="url(#pf0be457af7)" d="M 252.777394 205.321451 
L 204.594623 111.989222 
L 126.633262 170.711957 
L 142.511889 228.394447 
L 192.464431 261.320788 
L 252.777394 205.321451 
" style="fill:none;stroke:#f39b7f;stroke-dasharray:9.25,4;stroke-dashoffset:0;stroke-width:2.5;"/>
   </g>
   <g id="line2d_16">
    <path clip-path="url(#pf0be457af7)" d="M 233.150331 205.321451 
L 198.529527 130.655668 
L 126.633262 170.711957 
L 158.390516 216.857949 
L 192.464431 261.320788 
L 233.150331 205.321451 
" style="fill:none;stroke:#8491b4;stroke-dasharray:9.25,4;stroke-dashoffset:0;stroke-width:2.5;"/>
   </g>
   <g id="patch_3">
    <path d="M 276.329869 205.321451 
C 276.329869 191.918959 273.68987 178.64679 268.560959 166.264502 
C 263.432047 153.882214 255.913967 142.630612 246.436975 133.15362 
C 236.959982 123.676627 225.70838 116.158547 213.326092 111.029635 
C 200.943804 105.900724 187.671635 103.260725 174.269144 103.260725 
C 160.866652 103.260725 147.594483 105.900724 135.212195 111.029635 
C 122.829907 116.158547 111.578305 123.676627 102.101313 133.15362 
C 92.62432 142.630612 85.10624 153.882214 79.977328 166.264502 
C 74.848417 178.64679 72.208418 191.918959 72.208418 205.321451 
C 72.208418 218.723942 74.848417 231.996112 79.977328 244.378399 
C 85.10624 256.760687 92.62432 268.012289 102.101313 277.489282 
C 111.578305 286.966274 122.829907 294.484354 135.212195 299.613266 
C 147.594483 304.742177 160.866652 307.382176 174.269144 307.382176 
C 187.671635 307.382176 200.943804 304.742177 213.326092 299.613266 
C 225.70838 294.484354 236.959982 286.966274 246.436975 277.489282 
C 255.913967 268.012289 263.432047 256.760687 268.560959 244.378399 
C 273.68987 231.996112 276.329869 218.723942 276.329869 205.321451 
" style="fill:none;stroke:#000000;stroke-linecap:square;stroke-linejoin:miter;stroke-width:1.5;"/>
   </g>
   <g id="legend_1">
    <g id="text_6">
     <!-- Neuromorphic Benchmark Toolkit -->
     <g transform="translate(42.856175 22.637812)scale(0.14 -0.14)">
      <defs>
       <path d="M 38.375 44.671875 
Q 42.828125 44.671875 45.109375 46.625 
Q 47.40625 48.578125 47.40625 52.390625 
Q 47.40625 56.15625 45.109375 58.125 
Q 42.828125 60.109375 38.375 60.109375 
L 27.984375 60.109375 
L 27.984375 44.671875 
z
M 39.015625 12.796875 
Q 44.671875 12.796875 47.53125 15.1875 
Q 50.390625 17.578125 50.390625 22.40625 
Q 50.390625 27.15625 47.5625 29.515625 
Q 44.734375 31.890625 39.015625 31.890625 
L 27.984375 31.890625 
L 27.984375 12.796875 
z
M 56.5 39.015625 
Q 62.546875 37.25 65.859375 32.515625 
Q 69.1875 27.78125 69.1875 20.90625 
Q 69.1875 10.359375 62.0625 5.171875 
Q 54.9375 0 40.375 0 
L 9.1875 0 
L 9.1875 72.90625 
L 37.40625 72.90625 
Q 52.59375 72.90625 59.40625 68.3125 
Q 66.21875 63.71875 66.21875 53.609375 
Q 66.21875 48.296875 63.71875 44.5625 
Q 61.234375 40.828125 56.5 39.015625 
z
" id="DejaVuSans-Bold-66"/>
       <path d="M 8.40625 75.984375 
L 25.875 75.984375 
L 25.875 34.625 
L 46 54.6875 
L 66.3125 54.6875 
L 39.59375 29.59375 
L 68.40625 0 
L 47.21875 0 
L 25.875 22.796875 
L 25.875 0 
L 8.40625 0 
z
" id="DejaVuSans-Bold-107"/>
       <path d="M 0.484375 72.90625 
L 67.671875 72.90625 
L 67.671875 58.6875 
L 43.5 58.6875 
L 43.5 0 
L 24.703125 0 
L 24.703125 58.6875 
L 0.484375 58.6875 
z
" id="DejaVuSans-Bold-84"/>
      </defs>
      <use xlink:href="#DejaVuSans-Bold-78"/>
      <use x="83.691406" xlink:href="#DejaVuSans-Bold-101"/>
      <use x="151.513672" xlink:href="#DejaVuSans-Bold-117"/>
      <use x="222.705078" xlink:href="#DejaVuSans-Bold-114"/>
      <use x="272.021484" xlink:href="#DejaVuSans-Bold-111"/>
      <use x="340.722656" xlink:href="#DejaVuSans-Bold-109"/>
      <use x="444.921875" xlink:href="#DejaVuSans-Bold-111"/>
      <use x="513.623047" xlink:href="#DejaVuSans-Bold-114"/>
      <use x="562.939453" xlink:href="#DejaVuSans-Bold-112"/>
      <use x="634.521484" xlink:href="#DejaVuSans-Bold-104"/>
      <use x="705.712891" xlink:href="#DejaVuSans-Bold-105"/>
      <use x="739.990234" xlink:href="#DejaVuSans-Bold-99"/>
      <use x="799.267578" xlink:href="#DejaVuSans-Bold-32"/>
      <use x="834.082031" xlink:href="#DejaVuSans-Bold-66"/>
      <use x="910.302734" xlink:href="#DejaVuSans-Bold-101"/>
      <use x="978.125" xlink:href="#DejaVuSans-Bold-110"/>
      <use x="1049.316406" xlink:href="#DejaVuSans-Bold-99"/>
      <use x="1108.59375" xlink:href="#DejaVuSans-Bold-104"/>
      <use x="1179.785156" xlink:href="#DejaVuSans-Bold-109"/>
      <use x="1283.984375" xlink:href="#DejaVuSans-Bold-97"/>
      <use x="1351.464844" xlink:href="#DejaVuSans-Bold-114"/>
      <use x="1400.78125" xlink:href="#DejaVuSans-Bold-107"/>
      <use x="1467.285156" xlink:href="#DejaVuSans-Bold-32"/>
      <use x="1502.099609" xlink:href="#DejaVuSans-Bold-84"/>
      <use x="1557.0625" xlink:href="#DejaVuSans-Bold-111"/>
      <use x="1625.763672" xlink:href="#DejaVuSans-Bold-111"/>
      <use x="1694.464844" xlink:href="#DejaVuSans-Bold-108"/>
      <use x="1728.742188" xlink:href="#DejaVuSans-Bold-107"/>
      <use x="1795.246094" xlink:href="#DejaVuSans-Bold-105"/>
      <use x="1829.523438" xlink:href="#DejaVuSans-Bold-116"/>
     </g>
    </g>
    <g id="line2d_17">
     <path d="M 37.625706 36.4675 
L 62.825706 36.4675 
" style="fill:none;stroke:#e64b35;stroke-linecap:square;stroke-width:2.5;"/>
    </g>
    <g id="line2d_18"/>
    <g id="text_7">
     <!-- Soul (Ours) -->
     <g transform="translate(67.625706 40.6675)scale(0.12 -0.12)">
      <defs>
       <path d="M 37.703125 -13.1875 
L 23.1875 -13.1875 
Q 15.71875 -1.125 12.15625 9.734375 
Q 8.59375 20.609375 8.59375 31.296875 
Q 8.59375 42 12.171875 52.953125 
Q 15.765625 63.921875 23.1875 75.875 
L 37.703125 75.875 
Q 31.453125 64.3125 28.328125 53.25 
Q 25.203125 42.1875 25.203125 31.390625 
Q 25.203125 20.609375 28.296875 9.515625 
Q 31.390625 -1.5625 37.703125 -13.1875 
z
" id="DejaVuSans-Bold-40"/>
       <path d="M 42.484375 60.59375 
Q 33.890625 60.59375 29.15625 54.25 
Q 24.421875 47.90625 24.421875 36.375 
Q 24.421875 24.90625 29.15625 18.546875 
Q 33.890625 12.203125 42.484375 12.203125 
Q 51.125 12.203125 55.859375 18.546875 
Q 60.59375 24.90625 60.59375 36.375 
Q 60.59375 47.90625 55.859375 54.25 
Q 51.125 60.59375 42.484375 60.59375 
z
M 42.484375 74.21875 
Q 60.0625 74.21875 70.015625 64.15625 
Q 79.984375 54.109375 79.984375 36.375 
Q 79.984375 18.703125 70.015625 8.640625 
Q 60.0625 -1.421875 42.484375 -1.421875 
Q 24.953125 -1.421875 14.96875 8.640625 
Q 4.984375 18.703125 4.984375 36.375 
Q 4.984375 54.109375 14.96875 64.15625 
Q 24.953125 74.21875 42.484375 74.21875 
z
" id="DejaVuSans-Bold-79"/>
       <path d="M 8.015625 -13.1875 
Q 14.265625 -1.5625 17.390625 9.515625 
Q 20.515625 20.609375 20.515625 31.390625 
Q 20.515625 42.1875 17.390625 53.25 
Q 14.265625 64.3125 8.015625 75.875 
L 22.515625 75.875 
Q 29.9375 63.921875 33.515625 52.953125 
Q 37.109375 42 37.109375 31.296875 
Q 37.109375 20.609375 33.546875 9.734375 
Q 29.984375 -1.125 22.515625 -13.1875 
z
" id="DejaVuSans-Bold-41"/>
      </defs>
      <use xlink:href="#DejaVuSans-Bold-83"/>
      <use x="72.021484" xlink:href="#DejaVuSans-Bold-111"/>
      <use x="140.722656" xlink:href="#DejaVuSans-Bold-117"/>
      <use x="211.914062" xlink:href="#DejaVuSans-Bold-108"/>
      <use x="246.191406" xlink:href="#DejaVuSans-Bold-32"/>
      <use x="281.005859" xlink:href="#DejaVuSans-Bold-40"/>
      <use x="326.708984" xlink:href="#DejaVuSans-Bold-79"/>
      <use x="411.71875" xlink:href="#DejaVuSans-Bold-117"/>
      <use x="482.910156" xlink:href="#DejaVuSans-Bold-114"/>
      <use x="532.226562" xlink:href="#DejaVuSans-Bold-115"/>
      <use x="591.748047" xlink:href="#DejaVuSans-Bold-41"/>
     </g>
    </g>
    <g id="line2d_19">
     <path d="M 37.625706 54.08125 
L 62.825706 54.08125 
" style="fill:none;stroke:#4dbbd5;stroke-dasharray:9.25,4;stroke-dashoffset:0;stroke-width:2.5;"/>
    </g>
    <g id="line2d_20"/>
    <g id="text_8">
     <!-- SpikingJelly -->
     <g transform="translate(67.625706 58.28125)scale(0.12 -0.12)">
      <defs>
       <path d="M 45.609375 9.28125 
Q 42 4.5 37.640625 2.25 
Q 33.296875 0 27.59375 0 
Q 17.578125 0 11.03125 7.875 
Q 4.5 15.765625 4.5 27.984375 
Q 4.5 40.234375 11.03125 48.0625 
Q 17.578125 55.90625 27.59375 55.90625 
Q 33.296875 55.90625 37.640625 53.65625 
Q 42 51.421875 45.609375 46.578125 
L 45.609375 54.6875 
L 63.1875 54.6875 
L 63.1875 5.515625 
Q 63.1875 -7.671875 54.859375 -14.625 
Q 46.53125 -21.578125 30.71875 -21.578125 
Q 25.59375 -21.578125 20.796875 -20.796875 
Q 16.015625 -20.015625 11.1875 -18.40625 
L 11.1875 -4.78125 
Q 15.765625 -7.421875 20.15625 -8.71875 
Q 24.5625 -10.015625 29 -10.015625 
Q 37.59375 -10.015625 41.59375 -6.25 
Q 45.609375 -2.484375 45.609375 5.515625 
z
M 34.078125 43.3125 
Q 28.65625 43.3125 25.625 39.296875 
Q 22.609375 35.296875 22.609375 27.984375 
Q 22.609375 20.453125 25.53125 16.578125 
Q 28.46875 12.703125 34.078125 12.703125 
Q 39.546875 12.703125 42.578125 16.703125 
Q 45.609375 20.703125 45.609375 27.984375 
Q 45.609375 35.296875 42.578125 39.296875 
Q 39.546875 43.3125 34.078125 43.3125 
z
" id="DejaVuSans-Bold-103"/>
       <path d="M 9.1875 72.90625 
L 27.984375 72.90625 
L 27.984375 7.078125 
Q 27.984375 -6.546875 20.578125 -13.28125 
Q 13.1875 -20.015625 -1.8125 -20.015625 
L -5.609375 -20.015625 
L -5.609375 -5.8125 
L -2.6875 -5.8125 
Q 3.171875 -5.8125 6.171875 -2.53125 
Q 9.1875 0.734375 9.1875 7.078125 
z
" id="DejaVuSans-Bold-74"/>
      </defs>
      <use xlink:href="#DejaVuSans-Bold-83"/>
      <use x="72.021484" xlink:href="#DejaVuSans-Bold-112"/>
      <use x="143.603516" xlink:href="#DejaVuSans-Bold-105"/>
      <use x="177.880859" xlink:href="#DejaVuSans-Bold-107"/>
      <use x="244.384766" xlink:href="#DejaVuSans-Bold-105"/>
      <use x="278.662109" xlink:href="#DejaVuSans-Bold-110"/>
      <use x="349.853516" xlink:href="#DejaVuSans-Bold-103"/>
      <use x="421.435547" xlink:href="#DejaVuSans-Bold-74"/>
      <use x="458.642578" xlink:href="#DejaVuSans-Bold-101"/>
      <use x="526.464844" xlink:href="#DejaVuSans-Bold-108"/>
      <use x="560.742188" xlink:href="#DejaVuSans-Bold-108"/>
      <use x="595.019531" xlink:href="#DejaVuSans-Bold-121"/>
     </g>
    </g>
    <g id="line2d_21">
     <path d="M 151.650081 36.4675 
L 176.850081 36.4675 
" style="fill:none;stroke:#00a087;stroke-dasharray:9.25,4;stroke-dashoffset:0;stroke-width:2.5;"/>
    </g>
    <g id="line2d_22"/>
    <g id="text_9">
     <!-- snnTorch -->
     <g transform="translate(181.650081 40.6675)scale(0.12 -0.12)">
      <use xlink:href="#DejaVuSans-Bold-115"/>
      <use x="59.521484" xlink:href="#DejaVuSans-Bold-110"/>
      <use x="130.712891" xlink:href="#DejaVuSans-Bold-110"/>
      <use x="201.904297" xlink:href="#DejaVuSans-Bold-84"/>
      <use x="256.867188" xlink:href="#DejaVuSans-Bold-111"/>
      <use x="325.568359" xlink:href="#DejaVuSans-Bold-114"/>
      <use x="374.884766" xlink:href="#DejaVuSans-Bold-99"/>
      <use x="434.162109" xlink:href="#DejaVuSans-Bold-104"/>
     </g>
    </g>
    <g id="line2d_23">
     <path d="M 151.650081 54.08125 
L 176.850081 54.08125 
" style="fill:none;stroke:#3c5488;stroke-dasharray:9.25,4;stroke-dashoffset:0;stroke-width:2.5;"/>
    </g>
    <g id="line2d_24"/>
    <g id="text_10">
     <!-- Norse -->
     <g transform="translate(181.650081 58.28125)scale(0.12 -0.12)">
      <use xlink:href="#DejaVuSans-Bold-78"/>
      <use x="83.691406" xlink:href="#DejaVuSans-Bold-111"/>
      <use x="152.392578" xlink:href="#DejaVuSans-Bold-114"/>
      <use x="201.708984" xlink:href="#DejaVuSans-Bold-115"/>
      <use x="261.230469" xlink:href="#DejaVuSans-Bold-101"/>
     </g>
    </g>
    <g id="line2d_25">
     <path d="M 247.091331 36.4675 
L 272.291331 36.4675 
" style="fill:none;stroke:#f39b7f;stroke-dasharray:9.25,4;stroke-dashoffset:0;stroke-width:2.5;"/>
    </g>
    <g id="line2d_26"/>
    <g id="text_11">
     <!-- STEP -->
     <g transform="translate(277.091331 40.6675)scale(0.12 -0.12)">
      <use xlink:href="#DejaVuSans-Bold-83"/>
      <use x="72.021484" xlink:href="#DejaVuSans-Bold-84"/>
      <use x="140.234375" xlink:href="#DejaVuSans-Bold-69"/>
      <use x="208.544922" xlink:href="#DejaVuSans-Bold-80"/>
     </g>
    </g>
    <g id="line2d_27">
     <path d="M 247.091331 54.08125 
L 272.291331 54.08125 
" style="fill:none;stroke:#8491b4;stroke-dasharray:9.25,4;stroke-dashoffset:0;stroke-width:2.5;"/>
    </g>
    <g id="line2d_28"/>
    <g id="text_12">
     <!-- NSA -->
     <g transform="translate(277.091331 58.28125)scale(0.12 -0.12)">
      <defs>
       <path d="M 53.421875 13.28125 
L 24.03125 13.28125 
L 19.390625 0 
L 0.484375 0 
L 27.484375 72.90625 
L 49.90625 72.90625 
L 76.90625 0 
L 58.015625 0 
z
M 28.71875 26.8125 
L 48.6875 26.8125 
L 38.71875 55.8125 
z
" id="DejaVuSans-Bold-65"/>
      </defs>
      <use xlink:href="#DejaVuSans-Bold-78"/>
      <use x="83.691406" xlink:href="#DejaVuSans-Bold-83"/>
      <use x="155.712891" xlink:href="#DejaVuSans-Bold-65"/>
     </g>
    </g>
   </g>
  </g>
 </g>
 <defs>
  <clipPath id="pf0be457af7">
   <path d="M 276.329869 205.321451 
C 276.329869 191.918959 273.68987 178.64679 268.560959 166.264502 
C 263.432047 153.882214 255.913967 142.630612 246.436975 133.15362 
C 236.959982 123.676627 225.70838 116.158547 213.326092 111.029635 
C 200.943804 105.900724 187.671635 103.260725 174.269144 103.260725 
C 160.866652 103.260725 147.594483 105.900724 135.212195 111.029635 
C 122.829907 116.158547 111.578305 123.676627 102.101313 133.15362 
C 92.62432 142.630612 85.10624 153.882214 79.977328 166.264502 
C 74.848417 178.64679 72.208418 191.918959 72.208418 205.321451 
C 72.208418 218.723942 74.848417 231.996112 79.977328 244.378399 
C 85.10624 256.760687 92.62432 268.012289 102.101313 277.489282 
C 111.578305 286.966274 122.829907 294.484354 135.212195 299.613266 
C 147.594483 304.742177 160.866652 307.382176 174.269144 307.382176 
C 187.671635 307.382176 200.943804 304.742177 213.326092 299.613266 
C 225.70838 294.484354 236.959982 286.966274 246.436975 277.489282 
C 255.913967 268.012289 263.432047 256.760687 268.560959 244.378399 
C 273.68987 231.996112 276.329869 218.723942 276.329869 205.321451 
M 174.269144 205.321451 
C 174.269144 205.321451 174.269144 205.321451 174.269144 205.321451 
C 174.269144 205.321451 174.269144 205.321451 174.269144 205.321451 
C 174.269144 205.321451 174.269144 205.321451 174.269144 205.321451 
C 174.269144 205.321451 174.269144 205.321451 174.269144 205.321451 
C 174.269144 205.321451 174.269144 205.321451 174.269144 205.321451 
C 174.269144 205.321451 174.269144 205.321451 174.269144 205.321451 
C 174.269144 205.321451 174.269144 205.321451 174.269144 205.321451 
C 174.269144 205.321451 174.269144 205.321451 174.269144 205.321451 
C 174.269144 205.321451 174.269144 205.321451 174.269144 205.321451 
C 174.269144 205.321451 174.269144 205.321451 174.269144 205.321451 
C 174.269144 205.321451 174.269144 205.321451 174.269144 205.321451 
C 174.269144 205.321451 174.269144 205.321451 174.269144 205.321451 
C 174.269144 205.321451 174.269144 205.321451 174.269144 205.321451 
C 174.269144 205.321451 174.269144 205.321451 174.269144 205.321451 
C 174.269144 205.321451 174.269144 205.321451 174.269144 205.321451 
C 174.269144 205.321451 174.269144 205.321451 174.269144 205.321451 
M 276.329869 205.321451 
z
"/>
  </clipPath>
 </defs>
</svg>
